<svg width="202" height="70" viewBox="0 0 202 70" fill="none" xmlns="http://www.w3.org/2000/svg">
<path d="M34.1583 44.2264C39.1276 44.2264 43.156 40.1079 43.156 35.0273C43.156 29.9468 39.1276 25.8282 34.1583 25.8282C29.189 25.8282 25.1606 29.9468 25.1606 35.0273C25.1606 40.1079 29.189 44.2264 34.1583 44.2264Z" fill="black"/>
<path d="M38.9435 36.9941L37.4711 37.8136V37.8341C37.9006 38.0185 38.3504 38.1209 38.8208 38.1004C39.1684 38.1209 39.5161 38.0595 39.8432 37.9775V31.8926L39.4343 31.8721L38.923 32.3638V36.9941H38.9435ZM27.4305 33.9824V33.8594C27.4305 32.7531 27.451 32.6506 28.637 31.0526L28.6166 31.0321L27.6555 31.5648H26.9398C26.5717 31.5648 26.4285 31.5853 26.2854 31.7492C26.1831 31.8721 26.1627 32.0155 26.1831 32.1589H26.04C25.9173 31.9745 25.856 31.7696 25.856 31.5443C25.8355 31.2165 25.9582 30.9092 26.1831 30.6838C26.4694 30.4174 26.858 30.2945 27.2261 30.356L28.269 30.4379L29.0051 30.356L29.1074 30.4174V36.2975C29.1074 36.9941 29.0869 37.2194 27.5737 38.6741L27.5941 38.7356L28.9438 38.3258H29.7822V30.315H30.1912V34.0028H31.684V31.3394L33.5858 30.2945L33.688 30.356L33.4835 31.954V37.8341L34.4037 38.5102V38.6126L33.0132 39.5346H32.9109L31.7249 38.4077V35.1911H30.2116V38.8175L29.0869 39.5756H26.449L26.3876 39.4731C27.4101 38.2029 27.4919 37.8341 27.4919 37.0965V35.1706H25.7946L25.7742 35.0682L26.5308 34.0233H27.4305V33.9824ZM36.0192 35.2526C35.9988 36.0516 36.2851 36.8302 36.8372 37.4038C36.919 37.5063 37.0212 37.5882 37.1235 37.6497H37.1439L37.4711 37.2399V32.6097L38.8617 31.8516V31.8311C38.3504 31.7492 37.8188 31.6877 37.3075 31.6672C36.2851 31.6672 35.8761 31.8516 35.5898 32.1589C35.4058 32.3638 35.2831 32.6097 35.2626 32.8965H35.0581C34.9559 32.6301 34.8945 32.3638 34.8945 32.077C34.8741 31.6262 35.0581 31.196 35.3649 30.8682C35.7738 30.4584 36.4078 30.2126 37.4302 30.2126C38.1868 30.2126 39.4138 30.4584 40.4567 30.4584C41.1724 30.4584 41.3974 30.356 41.7246 29.8848L41.8473 29.9052C41.6019 31.4828 41.0088 31.9131 40.2113 31.9131H40.1295V37.8341C40.7635 37.6087 41.2951 37.1375 41.6019 36.5433L41.7246 36.5638C41.7041 37.2809 41.3974 37.9775 40.8862 38.4897C40.15 39.1863 39.1684 39.5551 38.1664 39.5141C36.2646 39.6165 34.6287 38.1619 34.5264 36.2565C34.5264 36.1541 34.5264 36.0516 34.5264 35.9492C34.5264 35.1092 34.8536 34.2897 35.4467 33.675C35.8352 33.2858 36.3055 32.9784 36.8167 32.794L36.8985 32.8965C36.326 33.5521 35.9988 34.3921 35.9783 35.2731M44.0353 34.9453C44.0762 32.3433 43.0538 29.8438 41.2338 27.9794C37.2462 24.1276 30.9274 24.1276 26.9398 27.9794C23.218 31.8721 23.218 38.0185 26.9398 41.9112C30.9274 45.7629 37.2462 45.7629 41.2338 41.9112C43.0538 40.0468 44.0558 37.5472 44.0353 34.9453Z" fill="white" fill-opacity="0.6"/>
<path d="M51.3764 42.2598L51.0901 42.4851C50.6402 42.1778 50.1085 42.0139 49.5564 42.0344C48.9429 42.0344 48.3295 42.1778 47.7773 42.4441V42.4237C48.3908 42.0139 49.127 41.809 49.8631 41.8295C50.3948 41.7885 50.947 41.9524 51.3764 42.2598ZM170.248 41.9934C170.268 41.8705 170.309 41.768 170.391 41.6861C170.575 41.6246 170.78 41.5837 170.984 41.6041C171.843 41.5632 172.681 41.85 173.336 42.4237L173.07 42.5876C172.477 42.0139 171.536 41.8705 170.902 41.8705C170.657 41.8705 170.452 41.9115 170.248 41.9934ZM95.3832 41.9934C95.4036 41.8705 95.4445 41.768 95.5263 41.6861C95.7308 41.6246 95.9353 41.6041 96.1398 41.6041C96.9578 41.5837 97.7349 41.8705 98.3483 42.4237L98.0825 42.5876C97.5099 42.1163 96.7942 41.85 96.058 41.8705C95.8126 41.85 95.5877 41.891 95.3832 41.9934ZM66.5906 40.8461C67.0814 41.3993 67.654 41.8705 68.2879 42.2802L67.9403 42.5466C67.3268 42.1368 66.7747 41.6656 66.2839 41.1124L66.5906 40.8461ZM148.776 40.8461C149.267 41.3993 149.84 41.8705 150.473 42.2802L150.126 42.5466C149.512 42.1368 148.96 41.6656 148.469 41.1124L148.776 40.8461ZM118.879 40.8461C119.37 41.3993 119.943 41.8705 120.577 42.2802L120.229 42.5466C119.616 42.1368 119.063 41.6656 118.573 41.1124L118.879 40.8461ZM143.643 40.7436C144.175 41.3583 144.789 41.8705 145.484 42.2802L145.136 42.5466C144.461 42.1368 143.848 41.6041 143.337 41.01L143.643 40.7436ZM61.4374 40.7436C61.9691 41.3583 62.5826 41.8705 63.2779 42.2802L62.9507 42.5466C62.2758 42.1368 61.6624 41.6041 61.1511 41.01L61.4374 40.7436ZM104.033 40.5183C104.749 41.2354 105.567 41.85 106.446 42.3417L106.099 42.5876C105.24 42.0754 104.422 41.4607 103.726 40.7436L104.033 40.5183ZM111.068 42.5056C110.434 42.1368 109.882 41.6451 109.452 41.051V39.3505C109.452 38.8383 109.432 38.3261 109.391 37.8344L109.759 37.6909C109.779 38.1007 109.8 38.6334 109.8 39.1661V40.9076C110.25 41.4607 110.802 41.9115 111.415 42.2393L111.068 42.5056ZM174.869 41.0919V38.1212L173.847 37.6705L174.051 37.4451L175.217 37.9368V41.3788L175.156 41.3993L174.869 41.0919ZM99.882 41.0919V38.1212L98.8596 37.6705L99.0641 37.4451L100.209 37.9368V41.3788L100.168 41.3993L99.882 41.0919ZM111.968 38.2646C111.947 37.7729 111.988 37.2607 112.09 36.7895C112.581 36.9329 113.113 37.0148 113.624 37.0558V40.6822C113.338 40.8051 113.051 40.9076 112.806 41.0305C112.499 40.8461 112.233 40.6412 111.988 40.3954L111.968 38.2646ZM53.3191 35.089H55.7934V35.3758H53.3191V35.089ZM46.7344 35.4782L47.0616 35.089H48.9838V35.3758H48.1659C47.6955 35.3758 47.2252 35.4168 46.7344 35.4782ZM78.5535 42.3007L78.1854 42.5261C77.5105 42.1163 76.8971 41.5632 76.4267 40.928V35.97C76.4267 34.8021 76.4063 34.2899 76.3654 33.8802L76.7539 33.7163V40.7846C77.2243 41.4197 77.8377 41.9319 78.5535 42.3007ZM109.657 35.0275C110.25 34.6177 110.822 34.167 111.395 33.6958C112.07 34.167 112.847 34.4743 113.644 34.6382V36.687C111.865 36.5436 110.597 35.97 109.657 35.0275ZM165.381 33.6958L165.422 33.6753C165.892 34.6587 166.444 35.6012 167.078 36.4822L165.361 37.4246L165.381 33.6958ZM173.09 38.2646L172.865 38.5105L170.575 37.4451V34.8636C170.575 34.4743 170.555 34.0646 170.514 33.6753L170.923 33.5524V37.2607L173.09 38.2646ZM98.1029 38.2646L97.878 38.5105L95.6081 37.4451V34.8841C95.6081 34.4948 95.5877 34.0851 95.5468 33.6958L95.9558 33.5729V37.2812L98.1029 38.2646ZM141.128 40.8256C139.963 42.0549 138.347 42.731 136.67 42.7105C134.707 42.7105 133.153 42.0754 132.008 40.9485C130.944 39.8832 130.372 38.449 130.392 36.9534C130.392 35.6421 130.944 34.3924 131.906 33.5114L131.926 33.5319C131.128 34.4334 130.699 35.6012 130.74 36.81C130.74 38.2851 131.313 39.6988 132.355 40.7436C133.419 41.809 134.912 42.4032 136.813 42.4032C138.368 42.4441 139.922 41.8705 141.128 40.8256ZM104.013 33.6343H103.399L103.583 33.327H104.013V33.6343ZM108.757 33.327L108.471 33.6958C107.939 33.6343 107.387 33.5934 106.855 33.6343V33.327H108.716H108.757ZM165.606 42.5671C164.604 41.7066 163.663 40.7436 162.825 39.6988V35.3348C162.825 34.4743 162.784 33.7163 162.743 33.409L163.111 33.327C163.172 33.8802 163.193 34.4538 163.172 35.0275V39.5758C164.011 40.5797 164.931 41.5222 165.933 42.3827L165.606 42.5671ZM115.567 42.3007L115.219 42.5261C114.687 42.0754 114.217 41.5632 113.849 40.969V34.4948C113.031 34.3309 112.233 34.0031 111.538 33.5319L111.783 33.286C112.52 33.7777 113.317 34.1056 114.176 34.2899V40.8461C114.565 41.3788 115.035 41.8705 115.567 42.3007ZM73.2162 42.3007L72.8686 42.5261C72.3369 42.1573 71.8461 41.7066 71.4167 41.2149V34.1055C71.1917 33.7777 70.9259 33.5114 70.5987 33.286L70.9054 33.1426C71.2326 33.368 71.5394 33.6753 71.7643 34.0031V41.0715C72.2142 41.5427 72.705 41.9524 73.2162 42.3007ZM125.484 42.2802L125.137 42.5056C124.605 42.1368 124.114 41.6861 123.685 41.1944V34.1055C123.46 33.7777 123.194 33.5114 122.867 33.286L123.174 33.1426C123.521 33.368 123.808 33.6753 124.033 34.0031V41.0715C124.482 41.5427 124.973 41.932 125.484 42.2802ZM155.422 42.2802L155.075 42.5056C154.543 42.1368 154.052 41.6861 153.623 41.1944V34.1055C153.398 33.7777 153.132 33.5114 152.805 33.286L153.111 33.1426C153.439 33.368 153.745 33.6753 153.97 34.0031V41.0715C154.42 41.5427 154.891 41.932 155.422 42.2802ZM160.085 42.2802L159.737 42.5056C159.205 42.1368 158.715 41.6861 158.285 41.1944V34.1055C158.06 33.7777 157.753 33.4909 157.426 33.286L157.733 33.1426C158.081 33.3885 158.367 33.6753 158.612 34.0236V41.0919C159.062 41.5427 159.553 41.9524 160.085 42.2802ZM119.043 40.5388V34.0646C118.838 33.7573 118.593 33.4909 118.327 33.2655L118.614 33.1016C118.9 33.3475 119.166 33.6138 119.391 33.9212V40.2724L119.084 40.5183L119.043 40.5388ZM143.807 40.4158V34.0646C143.603 33.7777 143.357 33.5114 143.091 33.2655L143.378 33.1016C143.664 33.3475 143.93 33.6138 144.155 33.9212V40.17L143.848 40.4158H143.807ZM86.5491 40.7846C87.0194 41.4197 87.6125 41.9115 88.3078 42.2598L87.9601 42.4851C87.2648 42.0959 86.6514 41.5427 86.2015 40.8871V33.7982C85.9765 33.5933 85.7107 33.409 85.4244 33.2655L85.7107 33.1016C85.997 33.2655 86.2833 33.4704 86.5287 33.6958L86.5491 40.7846ZM148.96 40.5388V34.0646C148.756 33.7573 148.51 33.4909 148.245 33.2655L148.531 33.1016C148.817 33.3475 149.083 33.6138 149.308 33.9212V40.2724L149.001 40.5183L148.96 40.5388ZM61.6215 40.4158V34.0646C61.417 33.7777 61.1716 33.5114 60.9057 33.2655L61.192 33.1016C61.4783 33.3475 61.7442 33.6138 61.9691 33.9212V40.17L61.6624 40.4158H61.6215ZM66.7747 40.5388V34.0646C66.5702 33.7573 66.3248 33.4909 66.059 33.2655L66.3452 33.1016C66.6315 33.3475 66.8974 33.6138 67.1223 33.9212V40.2724L66.8156 40.5183L66.7747 40.5388ZM90.8639 33.5319C90.7003 33.409 90.5367 33.286 90.3731 33.1836L90.6594 33.0197C90.8639 33.1221 91.0275 33.2655 91.1911 33.4294V40.8051C91.5592 41.3788 92.0295 41.8705 92.5612 42.2802L92.2136 42.5056C91.641 42.0754 91.1706 41.5222 90.8435 40.9076L90.8639 33.5319ZM79.0442 35.3143C79.0442 33.8392 79.1056 33.286 79.2692 32.7533C79.6986 32.9992 80.1894 33.286 80.8029 33.6548V40.6617C80.4961 40.7846 80.1689 40.9076 79.8827 41.0305C79.5759 40.8461 79.3101 40.6207 79.0647 40.3544L79.0442 35.3143ZM176.464 34.0031L176.219 34.3104C176.076 34.3514 175.933 34.3924 175.769 34.3719C174.685 34.3719 173.663 33.8802 172.968 33.0607V32.7124H173.009C173.704 33.5729 174.767 34.0646 175.871 34.0851C176.076 34.0851 176.26 34.0441 176.464 33.9621V34.0031ZM101.477 34.0031L101.252 34.3104C101.109 34.3514 100.966 34.3924 100.802 34.3719C99.7184 34.3719 98.696 33.8802 98.0211 33.0607V32.7124H98.062C98.7573 33.5729 99.8002 34.0646 100.904 34.0851C101.109 34.0851 101.293 34.0441 101.498 33.9621L101.477 34.0031ZM167.283 36.3797C166.547 35.3553 165.913 34.2899 165.381 33.1426V32.6099L165.422 32.5894C165.994 33.8802 166.71 35.1095 167.569 36.2363L167.283 36.3797ZM152.682 41.1944L152.539 40.969C152.375 41.0305 152.191 41.1124 152.028 41.1739C151.864 41.0919 151.721 40.9895 151.578 40.8666V33.8597C151.864 33.6958 152.212 33.5524 152.539 33.409C152.866 33.6138 153.152 33.8802 153.357 34.208V41.3583C153.827 41.932 154.4 42.4237 155.013 42.8539H155.075C155.852 42.2598 156.69 41.7066 157.528 41.1944L157.385 40.969L156.895 41.1739C156.629 41.0305 156.383 40.8256 156.179 40.6002V33.8597C156.465 33.6958 156.813 33.5524 157.14 33.409C157.467 33.6138 157.733 33.8802 157.958 34.208V41.3583C158.428 41.932 159.001 42.4237 159.614 42.8334H159.676C160.575 42.1573 161.271 41.6656 162.314 41.01L162.17 40.7846C161.946 40.8871 161.721 40.9895 161.496 41.0919C161.23 40.969 161.005 40.8051 160.821 40.6002V33.5114C160.412 32.7533 159.798 32.1182 159.042 31.7085H159.001C157.958 32.1387 156.997 32.7329 156.138 33.4499C155.749 32.7124 155.136 32.0977 154.4 31.7085H154.359C153.336 32.1182 152.375 32.7124 151.537 33.4294C151.128 32.7533 150.576 32.1797 149.942 31.7085H149.901C148.878 32.2411 147.917 32.8968 147.058 33.6548L147.222 33.8597C147.447 33.6958 147.713 33.5524 147.958 33.409C148.224 33.6343 148.449 33.8802 148.674 34.1465V40.6617C148.469 40.8256 148.285 40.9485 148.101 41.0919V41.1329C148.674 41.7885 149.328 42.3417 150.044 42.8334H150.085C150.944 42.2188 151.803 41.6861 152.682 41.1944ZM65.7318 40.9895L65.5886 40.7641C65.3023 40.8871 65.0569 40.9895 64.8116 41.1124C64.6071 40.9895 64.4026 40.8666 64.2185 40.7027V33.409C63.8095 32.7329 63.2779 32.1387 62.6235 31.6675H62.603C61.5806 32.2002 60.6195 32.8558 59.7606 33.6138L59.9242 33.8187C60.1696 33.6548 60.415 33.5114 60.6604 33.368C60.9262 33.5934 61.1511 33.8392 61.3556 34.126V40.4978C61.1716 40.6617 60.9875 40.8051 60.7831 40.9485V40.9895C61.3761 41.7066 62.0918 42.3212 62.8893 42.8129H62.9507C63.9118 42.1368 64.6275 41.6656 65.7318 40.9895ZM122.969 41.0715L122.826 40.8461C122.56 40.969 122.335 41.051 122.09 41.1534C121.926 41.0715 121.783 40.969 121.66 40.8461V33.8392C121.947 33.6753 122.294 33.5319 122.622 33.3885C122.949 33.5933 123.235 33.8597 123.44 34.1875V41.3378C123.91 41.9115 124.482 42.4032 125.096 42.8129H125.157C125.996 42.1573 126.875 41.5427 127.795 41.01L127.652 40.7846C127.427 40.8871 127.202 40.9895 126.977 41.0715C126.711 40.9485 126.487 40.7846 126.302 40.5797V33.4909C125.893 32.7329 125.28 32.0977 124.523 31.6675H124.482C123.46 32.0772 122.499 32.6714 121.66 33.3885C121.231 32.7124 120.699 32.1387 120.065 31.6675H120.004C118.982 32.2002 118.021 32.8558 117.162 33.6138L117.325 33.8187C117.571 33.6548 117.816 33.5114 118.061 33.368C118.327 33.5934 118.552 33.8392 118.777 34.1055V40.6207C118.593 40.7846 118.409 40.928 118.205 41.051V41.0919C118.777 41.7476 119.432 42.3007 120.147 42.7924H120.209C121.129 42.1778 122.029 41.5837 122.969 41.0715ZM88.8394 33.1836C88.3691 32.6099 87.817 32.0977 87.183 31.7085H87.1421C86.1401 32.3026 85.5266 32.7943 84.5042 33.5319L84.6473 33.7573C84.8518 33.6343 85.0563 33.5319 85.2608 33.409C85.5266 33.5524 85.772 33.7368 85.997 33.9416V41.051C86.5082 41.7885 87.183 42.3827 87.9601 42.8334H88.0215C88.8394 42.2188 89.7596 41.6041 90.639 41.0715C91.0684 41.7476 91.6205 42.3417 92.234 42.8334H92.2749C93.1747 42.1778 94.1767 41.4402 95.0151 40.9076L94.872 40.6822C94.6061 40.8051 94.3607 40.928 94.0949 41.051C93.8699 40.8871 93.6655 40.7232 93.4814 40.5183V33.8802C93.6859 33.7163 93.8495 33.5934 94.054 33.4499V33.409C93.461 32.7943 92.8066 32.2207 92.1113 31.7085H92.05C91.0275 32.3231 90.3118 32.7738 89.3098 33.4704L89.4529 33.6958L90.1277 33.327C90.3118 33.4294 90.4754 33.5319 90.639 33.6753V40.6617C90.2913 40.8051 89.9846 40.9485 89.6778 41.0715C89.3711 40.8871 89.0848 40.6617 88.8599 40.3954L88.8394 33.1836ZM147.938 41.01L147.795 40.7846C147.508 40.9075 147.263 41.01 147.018 41.1329C146.813 41.0305 146.609 40.8871 146.425 40.7232V33.4294C146.016 32.7533 145.484 32.1592 144.829 31.688H144.809C143.787 32.2207 142.825 32.8763 141.967 33.6343L142.13 33.8392C142.376 33.6753 142.621 33.5319 142.866 33.3885C143.132 33.6138 143.357 33.8597 143.562 34.1465V40.4978C143.378 40.6617 143.194 40.8051 142.989 40.9485V40.9895C143.582 41.7066 144.298 42.3212 145.095 42.8129H145.136C146.056 42.1573 146.977 41.5632 147.938 41.01ZM70.7009 41.0715L70.5578 40.8461C70.292 40.969 70.067 41.051 69.8216 41.1534C69.658 41.0715 69.5149 40.969 69.3922 40.8461V33.8187C69.6785 33.6548 70.0261 33.5114 70.3533 33.368C70.6805 33.5729 70.9463 33.8392 71.1713 34.167V41.3173C71.6416 41.891 72.2142 42.3827 72.8277 42.7924H72.8686C73.707 42.1368 74.5863 41.5222 75.5065 40.9895L75.3634 40.7641C75.1384 40.8666 74.9135 40.969 74.6885 41.051C74.4432 40.928 74.1978 40.7641 74.0137 40.5593V33.4704C73.6047 32.7124 72.9913 32.0772 72.2346 31.647H72.2142C71.1917 32.0568 70.2306 32.6509 69.3922 33.368C68.9628 32.6919 68.4311 32.1182 67.7971 31.647H67.7563C66.7338 32.1797 65.7727 32.8353 64.9138 33.5933L65.0774 33.7982C65.3228 33.6343 65.5682 33.4909 65.8136 33.3475C66.0794 33.5729 66.3044 33.8187 66.5293 34.0851V40.6002C66.3453 40.7641 66.1612 40.9076 65.9567 41.0305V41.0715C66.5293 41.7271 67.1837 42.2802 67.8994 42.772H67.9607C68.8401 42.1778 69.7603 41.5837 70.7009 41.0715ZM165.381 38.5105V37.9778L169.696 35.6626V35.5807C168.776 34.3309 167.958 32.9992 167.201 31.647H167.16C165.647 32.3026 164.093 32.8148 162.498 33.2451C162.6 34.0031 162.641 34.7612 162.641 35.5192V39.8012C163.5 40.9076 164.481 41.9115 165.545 42.8129H165.626C166.935 41.9319 168.305 41.1329 169.696 40.3954L169.491 40.088C168.837 40.3954 168.305 40.6822 167.774 40.9076C166.874 40.17 166.097 39.371 165.381 38.5105ZM115.199 42.7924H115.26C116.16 42.1368 117.162 41.4197 118 40.8666L117.857 40.6412C117.571 40.7641 117.346 40.8871 117.08 41.01C116.855 40.8461 116.65 40.6822 116.466 40.4773V35.089C116.425 34.4538 116.466 33.7982 116.61 33.1631C115.444 32.8763 113.624 32.1592 112.888 31.6265H112.826C111.743 32.8968 110.475 34.0031 109.043 34.9046V34.966C109.739 35.7856 110.679 36.3797 111.722 36.6665C110.863 37.0763 110.004 37.4451 109.105 37.7319C109.186 38.3056 109.227 38.8792 109.227 39.4529V41.1739C109.718 41.85 110.332 42.4032 111.047 42.7924H111.109C111.927 42.1983 112.806 41.6246 113.665 41.0715C114.094 41.7476 114.605 42.3212 115.199 42.7924ZM173.07 42.8539C174.399 41.9524 175.871 41.2558 177.405 40.8256C177.323 40.4158 177.282 40.0061 177.282 39.5758V36.7895L174.604 35.6217H174.542L173.765 36.4822L172.947 36.1134V33.409C173.663 34.167 174.645 34.5973 175.687 34.5768C175.892 34.5768 176.076 34.5563 176.28 34.5153C177.017 33.7368 177.446 32.7533 177.528 31.688C177.405 31.6675 177.303 31.6675 177.18 31.688C177.18 31.8929 177.16 32.0772 177.119 32.2821C176.914 32.3641 176.689 32.4255 176.464 32.4255C175.769 32.4051 175.115 32.1182 174.624 31.6265H174.563C173.234 32.5075 171.761 33.1426 170.227 33.5319C170.309 34.0236 170.35 34.5358 170.35 35.048V37.609L172.845 38.7563H172.906L173.704 37.8753L174.645 38.2851V40.969C173.786 40.2519 172.702 39.8832 171.577 39.9036C171.373 39.9036 171.189 39.9241 170.984 39.9651C170.248 40.7436 169.818 41.7476 169.737 42.8334C169.859 42.8539 169.962 42.8539 170.084 42.8334C170.084 42.6285 170.105 42.4441 170.146 42.2393C170.35 42.1573 170.575 42.0958 170.8 42.0958C171.598 42.0754 172.395 42.3417 172.988 42.8949H173.029V42.8539H173.07ZM98.0825 42.8539C99.4117 41.9524 100.884 41.2558 102.418 40.8256C102.336 40.4158 102.295 40.0061 102.295 39.5758V36.7895L99.6162 35.6217H99.5548L98.7778 36.4822L97.9598 36.1134V33.409C98.6755 34.167 99.6571 34.5973 100.7 34.5768C100.904 34.5768 101.089 34.5563 101.293 34.5153C102.029 33.7368 102.459 32.7533 102.54 31.688C102.418 31.6675 102.315 31.6675 102.193 31.688C102.193 31.8929 102.172 32.0772 102.131 32.2821C101.927 32.3641 101.702 32.4255 101.477 32.4255C100.782 32.4051 100.127 32.1182 99.6366 31.6265H99.5957C98.2665 32.5075 96.8146 33.1426 95.2605 33.5319C95.3627 34.0236 95.3832 34.5358 95.3832 35.048V37.609L97.878 38.7563H97.9393L98.7369 37.8753L99.6775 38.2851V40.969C98.8596 40.2724 97.8167 39.9036 96.7533 39.9036C96.5488 39.9036 96.3648 39.9241 96.1603 39.9651C95.4241 40.7436 94.9742 41.7476 94.9129 42.8129C95.0356 42.8334 95.1378 42.8334 95.2605 42.8129C95.2605 42.608 95.2809 42.4237 95.3218 42.2188C95.5263 42.1368 95.7513 42.0754 95.9762 42.0754C96.7328 42.0754 97.469 42.3622 98.0211 42.8744H98.062L98.0825 42.8539ZM135.341 39.9446C135.464 39.5553 135.484 39.33 135.484 38.408V33.409C135.484 32.8353 135.443 32.2821 135.321 31.7085L135.689 31.5446C135.791 32.0977 135.832 32.6714 135.832 33.2451V38.1417C135.811 39.33 135.709 39.5758 135.341 39.9446ZM82.7455 42.3007L82.3979 42.5261C81.8458 42.0754 81.3959 41.5222 81.0278 40.928V33.5524C77.4696 31.5241 77.0811 31.2987 76.7335 31.1553L76.6517 30.6636H76.6721L81.355 33.4294V40.7846C81.7435 41.3378 82.2139 41.85 82.7455 42.3007ZM137.959 31.9543C137.959 31.1348 137.979 30.8685 138.327 30.5202C138.49 30.5406 138.817 30.5816 139.001 30.6021V40.3544C138.511 40.4978 137.999 40.5593 137.488 40.5593C136.752 40.5593 136.036 40.4363 135.341 40.1905C136.302 39.8012 137.304 39.371 138.081 39.0022C137.999 38.449 137.959 37.8753 137.959 37.3017V31.9543ZM104.258 32.8558C104.258 31.9133 104.217 31.1348 104.176 30.7046L104.585 30.4177H104.606V39.9651L104.299 40.211H104.258V32.8558ZM50.5789 30.0284C49.6382 31.3397 49.4951 31.6265 49.4951 33.2451V37.5885C49.4951 39.5758 49.4133 40.3749 48.0432 41.9524L48.0227 41.9319C49.127 40.4773 49.1679 39.6783 49.1679 37.6909V33.327C49.1679 31.7289 49.3315 31.4216 50.5789 30.0284ZM57.9406 42.3007L57.593 42.5261C56.9999 42.1368 56.4683 41.6451 55.9979 41.0919V31.8724C56.0184 31.2167 55.957 30.5611 55.8343 29.9055L56.2433 29.6187C56.3251 30.3153 56.3456 31.0324 56.3251 31.729V40.9485C56.8159 41.4812 57.3476 41.9319 57.9406 42.3007ZM50.722 29.168C50.3744 29.4753 49.9245 29.6597 49.4542 29.6802C48.9429 29.6802 48.5135 29.4343 48.0841 29.4343C47.6751 29.4138 47.2865 29.5777 47.0003 29.8441C46.8776 29.9465 46.7958 30.0694 46.7344 30.2128H46.714C46.7753 29.967 46.8776 29.7416 47.0616 29.5777C47.3683 29.2909 47.7773 29.1475 48.2068 29.168C48.6975 29.168 49.1679 29.4138 49.6791 29.4138C50.0267 29.3933 50.3948 29.3114 50.722 29.168ZM61.2329 28.9631C61.6624 29.4958 62.1123 30.008 62.603 30.4792L62.3167 30.6431C61.826 30.1719 61.3965 29.6597 60.9875 29.127L61.2329 28.9631ZM143.664 28.9426C144.093 29.4753 144.564 29.9875 145.034 30.4792L144.768 30.6431C144.277 30.1719 143.827 29.6597 143.398 29.1065L143.664 28.9426ZM130.863 31.8109C130.944 31.3192 131.19 30.8685 131.517 30.5202C132.151 29.885 133.112 29.5777 134.359 29.5777C136.323 29.5777 138.674 30.1924 140.208 30.1924C141.005 30.1924 141.66 29.8441 142.192 28.9016L142.232 28.9221C141.66 30.0899 140.985 30.4792 140.106 30.4792C138.572 30.4792 136.261 29.8645 134.257 29.8645C133.01 29.8645 132.131 30.1719 131.517 30.7865C131.251 31.0733 131.026 31.4216 130.863 31.8109ZM107.06 28.6353L106.978 28.5943C105.69 29.4138 104.667 30.1104 103.931 30.6841C103.992 31.1348 104.013 31.565 104.013 32.0158C103.747 32.6304 103.44 33.2041 103.093 33.7777L103.133 33.8392H104.013V40.3339C103.808 40.4978 103.645 40.6002 103.44 40.7436V40.7846C104.217 41.6041 105.097 42.3212 106.078 42.8949H106.119C106.998 42.2393 107.919 41.6656 108.88 41.1534L108.737 40.928C108.532 41.01 108.328 41.0919 108.123 41.1944C107.673 40.9485 107.244 40.6822 106.835 40.3749V33.8187H106.957C107.489 33.8187 108.021 33.8392 108.553 33.8802C109.37 32.7943 109.739 32.1797 109.882 31.7904L109.841 31.7494C109.166 31.8314 108.491 31.8724 107.816 31.8724H106.855C106.855 30.7865 106.917 29.7006 107.06 28.6148M82.3979 42.8129H82.4388C83.3386 42.1573 84.3406 41.4812 85.179 40.928L85.0359 40.7027C84.7496 40.8256 84.5246 40.9485 84.2588 41.0715C84.0339 40.9075 83.8294 40.7232 83.6658 40.4978V34.9251C83.6658 33.7368 83.7067 33.1426 83.7476 32.6714C78.533 29.4343 77.0607 28.4304 76.2631 27.5494L76.1813 27.5699C76.1609 28.8197 76.304 30.0694 76.5699 31.2782C77.3469 31.6265 78.124 32.0568 78.8397 32.5075C77.9809 32.9377 77.0198 33.368 76.0995 33.7573C76.1813 34.5153 76.2018 35.2734 76.1813 36.0314V41.01C76.6926 41.7476 77.3674 42.3417 78.1445 42.7924H78.1854C79.0033 42.1983 79.9031 41.6041 80.7824 41.051C81.2323 41.7271 81.764 42.3212 82.3979 42.8129ZM62.2963 30.9504H62.3372C63.1552 30.3767 63.7277 29.9875 64.4435 29.3933V29.3523C63.9527 28.7172 63.421 28.1231 62.8484 27.5289H62.8075C62.1327 28.0206 61.4374 28.4919 60.6808 29.127V29.168C61.1716 29.8031 61.7033 30.3972 62.2963 30.9504ZM144.707 30.9504H144.748C145.566 30.3767 146.118 29.9875 146.854 29.3933V29.3319C146.363 28.6967 145.832 28.1026 145.259 27.5289H145.218C144.543 28.0206 143.827 28.4919 143.091 29.127V29.168C143.582 29.8031 144.114 30.3972 144.707 30.9504ZM53.2986 41.3583L53.3191 41.3173V35.6012H55.8139V41.2149C56.3251 41.8295 56.9181 42.3622 57.593 42.8129H57.6339C58.595 42.0958 59.5765 41.4402 60.6195 40.8461L60.4763 40.6002C60.19 40.7232 59.9446 40.8461 59.6788 40.969C59.3312 40.8051 59.0449 40.5593 58.8199 40.2519V30.8275C58.7995 29.7211 58.9017 28.6353 59.188 27.5699L59.1062 27.5289C57.8793 28.2255 56.6932 29.004 55.6094 29.9055C55.773 30.5611 55.8343 31.2372 55.8139 31.9338V33.6753H53.3395V30.6636C53.3395 28.9426 53.4622 28.4714 53.7485 27.5699L53.6872 27.5494C53.0941 28.3689 52.8692 29.086 52.8692 30.8275V40.969C52.4602 40.7436 51.9899 40.6412 51.5195 40.6617C50.8856 40.6617 50.2312 40.7846 49.6382 41.0305L49.6178 41.01C51.8263 39.0431 51.8876 38.6949 51.8876 37.2607V31.1553C51.8876 29.3319 52.1126 28.5533 52.6034 27.6723L52.542 27.6109C52.1126 27.8772 51.6422 28.0001 51.1515 28.0206C50.4766 28.0206 49.5564 27.6723 48.7589 27.6723C48.1659 27.6518 47.5933 27.8772 47.1638 28.287C46.7753 28.6762 46.5504 29.2089 46.5504 29.7621C46.5504 30.0694 46.5913 30.3563 46.6935 30.6431H46.7549C46.8162 30.4177 46.9389 30.2333 47.1025 30.0694C47.3479 29.8236 47.6955 29.7006 48.0432 29.7006C48.5748 29.7006 48.9429 29.926 49.4337 29.926C49.9245 29.926 50.3335 29.7621 51.1106 29.2089L51.131 29.2294C49.1065 31.3602 49.0247 31.729 49.0247 33.368V33.6548C48.718 33.6343 48.4113 33.6138 48.0841 33.5729C47.491 34.2285 46.9185 34.9456 46.4072 35.6831L46.4481 35.7241C47.0003 35.6421 47.5524 35.6012 48.1045 35.6012H49.0043V38.408C49.0043 40.129 48.7589 40.8461 47.307 42.7105L47.3683 42.7924C48.0841 42.4646 48.8407 42.3007 49.6178 42.3007C50.1494 42.2802 50.6607 42.4646 51.0492 42.8129H51.0901C51.7445 42.2393 52.4807 41.7476 53.2577 41.3583M132.56 35.8265C132.56 34.3719 133.153 32.9787 134.216 31.9543L134.175 31.8724C133.194 32.2002 132.294 32.7533 131.558 33.4909C130.638 34.4334 130.126 35.6831 130.126 36.9944C130.086 38.5105 130.699 39.9856 131.783 41.0305C132.948 42.1983 134.584 42.8744 136.588 42.8744C138.245 42.9359 139.84 42.3007 141.026 41.1534C141.946 40.211 142.478 38.9407 142.498 37.6295H142.355C141.721 38.8178 140.699 39.7192 139.451 40.1905V30.6636C139.799 30.6841 139.983 30.6841 140.085 30.6841C141.394 30.6841 142.396 29.8645 142.907 27.324L142.785 27.2626C142.294 27.9387 141.619 28.164 140.699 28.164C139.186 28.164 136.711 27.5494 134.85 27.5494C133.398 27.5494 132.171 28.0001 131.374 28.7992C130.801 29.3523 130.474 30.1309 130.495 30.9504C130.495 31.4216 130.597 31.9133 130.781 32.3436H130.842C130.965 31.8314 131.21 31.3397 131.578 30.9504C132.171 30.3563 133.01 30.0284 134.196 30.0284C135.443 30.0694 136.67 30.1923 137.897 30.4177C136.977 30.766 135.77 31.2372 134.993 31.606C135.116 32.2411 135.177 32.8763 135.157 33.5319V38.7563C135.157 39.4734 135.137 39.7602 134.932 40.0266C134.564 39.8627 134.237 39.6373 133.93 39.3505C133.01 38.4285 132.499 37.1583 132.539 35.8675" fill="white" fill-opacity="0.6"/>
</svg>
