<svg width="222" height="62" viewBox="0 0 222 62" fill="none" xmlns="http://www.w3.org/2000/svg">
<path fill-rule="evenodd" clip-rule="evenodd" d="M210.822 48.1261H112.457L205.982 55.7497L210.822 48.1261Z" fill="#909090"/>
<mask id="mask0_215_1599" style="mask-type:luminance" maskUnits="userSpaceOnUse" x="11" y="5" width="41" height="42">
<path d="M31.4994 46.4814C20.2595 46.4814 11.1754 37.4201 11.1754 26.2102C11.1754 15.0003 20.2595 5.93903 31.4994 5.93903C42.7393 5.93903 51.8234 15.0003 51.8234 26.2102C51.8234 37.4201 42.7393 46.4814 31.4994 46.4814Z" fill="white"/>
</mask>
<g mask="url(#mask0_215_1599)">
<path fill-rule="evenodd" clip-rule="evenodd" d="M31.4951 46.4842C20.2595 46.4842 11.1797 37.4187 11.1797 26.2116C11.1797 15.0046 20.2595 5.93903 31.4951 5.93903C42.745 5.93903 51.8248 15.0046 51.8248 26.2116C51.8248 37.4187 42.745 46.4842 31.4951 46.4842Z" fill="#E4E4E4"/>
</g>
<path fill-rule="evenodd" clip-rule="evenodd" d="M22.9863 38.3609C24.6138 38.3324 25.4847 37.2473 25.6846 35.0059L26.8267 23.342C26.1129 22.357 25.3277 21.9001 24.3711 21.9001H24.1856V21.4718C25.0279 21.5004 25.8131 21.5004 26.5554 21.5004C27.3121 21.5004 27.9974 21.5004 28.6541 21.4718L34.3504 35.4913L40.0896 21.4718C40.6321 21.5004 41.2031 21.5004 41.8598 21.5004C42.5166 21.5004 43.2732 21.5004 44.0441 21.4718V21.9001C42.6451 21.9572 42.0454 22.6853 42.0454 24.2843C42.0454 24.4556 42.0454 24.6412 42.074 24.8554L42.8877 35.1915C43.0591 37.3901 43.573 38.261 45.3433 38.3609V38.7892C44.2868 38.7464 43.2161 38.7178 42.074 38.7178C40.9604 38.7178 39.7898 38.7464 38.6048 38.7892V38.3609C40.1181 38.2324 40.6321 37.49 40.6321 35.7911C40.6321 35.5199 40.6321 35.2486 40.6035 34.9203L39.7898 24.0416L33.8365 38.6322H33.3225L27.3978 24.1844L26.5269 34.078C26.4983 34.4634 26.4698 34.8346 26.4698 35.1915C26.4698 37.3045 27.1836 38.3609 28.7398 38.3609H29.011V38.7892C27.9974 38.7464 26.9837 38.7178 25.9558 38.7178C24.9708 38.7178 23.9857 38.7464 22.9863 38.7892V38.3609ZM51.6821 27.2681C52.7242 26.5257 53.9663 26.1402 55.2655 26.1402C56.5932 26.1402 57.821 26.5114 58.8917 27.2681C60.662 28.5101 61.6613 30.4517 61.6613 32.6075C61.6613 34.749 60.662 36.6906 58.8917 37.9469C57.821 38.6893 56.5932 39.089 55.2655 39.089C53.9663 39.089 52.7242 38.6893 51.6821 37.9612C49.8975 36.7191 48.8982 34.749 48.8982 32.6075C48.8982 30.4517 49.8975 28.5101 51.6821 27.2681ZM59.8197 32.6075C59.8197 29.3096 57.7924 26.6399 55.2655 26.6399C52.7528 26.6399 50.7113 29.3096 50.7113 32.6075C50.7113 35.9196 52.7528 38.5893 55.2655 38.5893C57.7924 38.5893 59.8197 35.9196 59.8197 32.6075ZM72.7542 38.4751V38.7892C71.9404 38.7607 71.1266 38.7321 70.3414 38.7321C69.5277 38.7321 68.7139 38.7607 67.9002 38.7892V38.4751C69.0851 38.4608 69.5134 37.7613 69.5134 36.2194V26.9112H67.6717C66.0014 26.9112 65.2019 27.4394 65.1162 28.5958H64.8164V25.6263H65.1162C65.2876 26.3401 65.9586 26.4258 67.3719 26.4258H73.2967C74.71 26.4258 75.3953 26.3401 75.5666 25.6263H75.8664V28.5958H75.5666C75.481 27.4394 74.6672 26.9112 72.9969 26.9112H71.1552V36.2194C71.1552 37.7613 71.5835 38.4608 72.7542 38.4751ZM84.0183 26.7256C82.8476 26.7399 82.3908 27.4394 82.3908 28.9813V36.2194C82.3908 37.7613 82.8476 38.4608 84.0183 38.4751V38.7892C83.1903 38.7607 82.348 38.7321 81.5342 38.7321C80.7204 38.7321 79.921 38.7607 79.1072 38.7892V38.4751C80.2779 38.4608 80.7204 37.7613 80.7204 36.2194V28.9813C80.7204 27.4394 80.2779 26.7399 79.1072 26.7256V26.4258C79.921 26.44 80.7204 26.44 81.5342 26.44C82.348 26.44 83.1903 26.44 84.0183 26.4258V26.7256ZM87.9015 38.4751C89.0865 38.4608 89.5148 37.7613 89.5148 36.2194V28.9813C89.5148 27.4251 89.0865 26.7399 87.9015 26.7256V26.4258C88.701 26.44 89.529 26.44 90.3856 26.44C91.2422 26.44 92.1131 26.44 93.041 26.4258V26.7256H92.8697C91.6705 26.7256 91.1994 27.4108 91.1994 28.9813V36.4907C91.1994 37.847 91.4706 38.2467 92.884 38.2467H94.5115C96.1819 38.2467 97.167 37.5757 97.5096 36.1766H97.8094L97.1669 38.7892C95.6965 38.7607 94.1689 38.7321 92.627 38.7321C91.0852 38.7321 89.5148 38.7607 87.9015 38.7892V38.4751ZM100.536 38.4751C101.478 38.4466 101.964 37.8041 102.435 36.4193L105.947 26.1117H107.189L110.715 36.7477C111.101 37.9041 111.6 38.4751 112.371 38.4751H112.5V38.7749C111.786 38.7464 111.087 38.7321 110.373 38.7321C109.645 38.7321 108.945 38.7464 108.188 38.7749V38.4751C108.945 38.4323 109.302 38.1468 109.302 37.5614C109.302 37.2902 109.202 37.0046 109.088 36.662L108.046 33.4926H103.977L102.949 36.6192C102.849 36.9618 102.778 37.2473 102.778 37.4758C102.778 38.1182 103.163 38.4751 103.934 38.4751V38.7749C103.334 38.7464 102.735 38.7321 102.178 38.7321C101.621 38.7321 101.064 38.7464 100.536 38.7749V38.4751ZM107.831 32.8502L106.033 27.4108L104.191 32.8502H107.831ZM115.098 38.4751C116.269 38.4466 116.697 37.7613 116.697 36.2194V28.9813C116.697 27.4251 116.269 26.7399 115.098 26.7113V26.4115C115.883 26.44 116.726 26.44 117.582 26.44C118.439 26.44 119.31 26.44 120.238 26.4115V26.7113H120.066C118.867 26.7113 118.396 27.4108 118.396 28.9813V36.4907C118.396 37.847 118.667 38.2324 120.081 38.2324H121.708C123.379 38.2324 124.364 37.5757 124.706 36.1766H125.006L124.364 38.7749C122.879 38.7464 121.366 38.7321 119.824 38.7321C118.282 38.7321 116.697 38.7464 115.098 38.7749V38.4751ZM138.811 22.6568C140.268 21.6289 142.009 21.0864 143.837 21.0864C145.693 21.0864 147.406 21.6003 148.905 22.6568C151.389 24.3985 152.788 27.111 152.788 30.1234C152.788 33.1357 151.389 35.8483 148.905 37.6043C147.406 38.6607 145.693 39.2032 143.837 39.2032C142.009 39.2032 140.268 38.6607 138.811 37.6328C136.313 35.8911 134.914 33.1357 134.914 30.1234C134.914 27.111 136.313 24.3985 138.811 22.6568ZM150.218 30.1377C150.218 25.5121 147.363 21.7716 143.837 21.7716C140.31 21.7716 137.455 25.5121 137.455 30.1377C137.455 34.7632 140.31 38.5037 143.837 38.5037C147.363 38.5037 150.218 34.7632 150.218 30.1377ZM157.1 35.6769H157.399C157.556 37.49 158.77 38.6036 160.412 38.6036C161.897 38.6036 162.967 37.59 162.967 36.3051C162.967 34.906 161.897 34.2065 160.141 33.1214C158.256 31.9508 157.142 31.0656 157.142 29.2811C157.142 27.4965 158.542 26.126 160.44 26.126C161.525 26.126 162.282 26.5543 162.725 26.5543C163.01 26.5543 163.196 26.3829 163.224 26.126H163.524V28.9242H163.224C162.939 27.3966 161.939 26.5257 160.497 26.5257C159.113 26.5257 158.242 27.3252 158.242 28.4816C158.242 29.3667 158.784 30.2519 159.826 30.8943C160.997 31.6367 162.068 32.1935 162.853 32.8216C163.738 33.5212 164.252 34.5348 164.252 35.6198C164.252 37.5043 162.625 39.0605 160.497 39.0605C159.355 39.0605 158.542 38.5608 157.913 38.5608C157.642 38.5608 157.428 38.7607 157.399 39.0462H157.1V35.6769ZM183.254 28.6101C183.383 28.2674 183.425 27.9391 183.425 27.6821C183.425 27.0539 182.997 26.7113 182.183 26.7113H182.098V26.4115C182.812 26.44 183.454 26.44 184.068 26.44C184.668 26.44 185.239 26.44 185.753 26.4115V26.7113C184.725 26.9112 184.211 27.5108 183.768 28.7243L179.985 39.0319H179.699L176.344 29.638L172.904 39.0319H172.618L168.949 28.8528C168.464 27.5393 168.093 26.8398 166.95 26.7113V26.4115C167.707 26.44 168.435 26.44 169.178 26.44C169.906 26.44 170.648 26.44 171.376 26.4115V26.7113C170.634 26.7113 170.277 27.0111 170.277 27.625C170.277 27.8962 170.377 28.1961 170.505 28.5672L173.289 36.4764L176.045 28.9384C175.616 27.5108 175.045 26.797 174.032 26.7113V26.4115C174.788 26.44 175.516 26.44 176.259 26.44C176.987 26.44 177.729 26.44 178.457 26.4115V26.7113C177.715 26.7113 177.358 27.0111 177.358 27.625C177.358 27.8962 177.458 28.1961 177.586 28.5672L180.37 36.4764L183.254 28.6101ZM186.024 38.4608C186.966 38.4466 187.451 37.8041 187.923 36.4193L191.435 26.1117H192.677L196.203 36.7477C196.588 37.9041 197.088 38.4608 197.845 38.4608H197.987V38.7749C197.274 38.7464 196.574 38.7178 195.86 38.7178C195.132 38.7178 194.433 38.7464 193.676 38.7749V38.4608C194.433 38.418 194.79 38.1468 194.79 37.5614C194.79 37.2759 194.69 37.0046 194.575 36.662L193.533 33.4926H189.464L188.437 36.6192C188.322 36.9618 188.265 37.2331 188.265 37.4758C188.265 38.1182 188.651 38.4608 189.422 38.4608V38.7749C188.822 38.7464 188.222 38.7178 187.666 38.7178C187.109 38.7178 186.552 38.7464 186.024 38.7749V38.4608ZM193.319 32.8359L191.52 27.3823L189.679 32.8359H193.319ZM200.586 38.4608C201.757 38.4323 202.185 37.747 202.185 36.1909V28.9527C202.185 27.4108 201.757 26.7256 200.586 26.697V26.3972C201.371 26.4258 202.213 26.4258 203.07 26.4258C203.927 26.4258 204.797 26.4258 205.711 26.3972V26.697H205.54C204.355 26.697 203.884 27.3823 203.884 28.9527V36.4764C203.884 37.8327 204.155 38.2181 205.568 38.2181H207.196C208.866 38.2181 209.851 37.5472 210.194 36.1481H210.494L209.851 38.7607C208.367 38.7321 206.853 38.7178 205.311 38.7178C203.769 38.7178 202.185 38.7321 200.586 38.7607V38.4608Z" fill="#8E8D8D"/>
<path d="M23.0149 42.7438H210.465" stroke="#636363" stroke-width="1.3991" stroke-miterlimit="2.61313"/>
</svg>
