<svg width="195" height="41" viewBox="0 0 195 41" fill="none" xmlns="http://www.w3.org/2000/svg">
<g clip-path="url(#clip0_215_1492)">
<path fill-rule="evenodd" clip-rule="evenodd" d="M12.688 6.0242C12.5975 6.17652 12.5975 6.36415 12.688 6.51647L28.2572 32.56C28.3432 32.7057 28.5 32.794 28.67 32.794H33.8906C34.2636 32.794 34.4932 32.3878 34.3034 32.0677L15.9286 1.32454C15.8314 1.16119 15.5952 1.16119 15.4981 1.32454L12.688 6.0242Z" fill="#636363"/>
<path fill-rule="evenodd" clip-rule="evenodd" d="M12.5094 11.5851H15.1385C15.3239 11.5851 15.4387 11.786 15.3459 11.945L14.0303 14.223L12.7169 16.5011C12.6242 16.66 12.3946 16.66 12.3019 16.5011L10.9863 14.223L9.6706 11.945C9.5779 11.786 9.69269 11.5851 9.87809 11.5851H12.5094Z" fill="#636363"/>
<path fill-rule="evenodd" clip-rule="evenodd" d="M9.37026 16.8666H11.9993C12.1847 16.8666 12.2995 17.0675 12.2068 17.2264L10.8912 19.5045L9.57554 21.7826C9.48284 21.9415 9.25326 21.9415 9.1605 21.7826L7.84491 19.5045L6.52925 17.2264C6.43655 17.0675 6.55133 16.8666 6.73673 16.8666H9.37026Z" fill="#636363"/>
<path fill-rule="evenodd" clip-rule="evenodd" d="M6.20935 22.231H8.83843C9.02383 22.231 9.13861 22.4318 9.04591 22.5908L7.73031 24.8688L6.41466 27.1469C6.32195 27.3059 6.09236 27.3059 5.99965 27.1469L4.68401 24.8688L3.36836 22.5908C3.27565 22.4318 3.39044 22.231 3.57586 22.231H6.20935Z" fill="#636363"/>
<path fill-rule="evenodd" clip-rule="evenodd" d="M3.15185 27.7378H5.78093C5.96635 27.7378 6.08114 27.9387 5.98843 28.0976L4.67278 30.3757L3.35714 32.6538C3.26443 32.8128 3.03485 32.8128 2.94214 32.6538L1.62871 30.3757L0.313067 28.0976C0.220354 27.9387 0.335141 27.7378 0.520567 27.7378H3.15185Z" fill="#636363"/>
<path fill-rule="evenodd" clip-rule="evenodd" d="M9.39016 27.7378H12.0192C12.2046 27.7378 12.3195 27.9387 12.2267 28.0976L10.9111 30.3757L9.59544 32.6538C9.50274 32.8128 9.27316 32.8128 9.1804 32.6538L7.8648 30.3757L6.54914 28.0976C6.45644 27.9387 6.57123 27.7378 6.75663 27.7378H9.39016Z" fill="#636363"/>
<path fill-rule="evenodd" clip-rule="evenodd" d="M15.7119 27.7378H18.341C18.5264 27.7378 18.6412 27.9387 18.5485 28.0976L17.2329 30.3757L15.9172 32.6538C15.8245 32.8128 15.5949 32.8128 15.5022 32.6538L14.1888 30.3757L12.8731 28.0976C12.7804 27.9387 12.8952 27.7378 13.0807 27.7378H15.7119Z" fill="#636363"/>
<path fill-rule="evenodd" clip-rule="evenodd" d="M22.0344 27.7378H24.6635C24.849 27.7378 24.9637 27.9387 24.871 28.0976L23.5554 30.3757L22.2397 32.6538C22.147 32.8128 21.9174 32.8128 21.8247 32.6538L20.5091 30.3757L19.1934 28.0976C19.1007 27.9387 19.2155 27.7378 19.4009 27.7378H22.0344Z" fill="#636363"/>
<path fill-rule="evenodd" clip-rule="evenodd" d="M12.5932 22.231H15.2222C15.4077 22.231 15.5225 22.4318 15.4298 22.5908L14.1141 24.8688L12.7984 27.1469C12.7057 27.3059 12.4762 27.3059 12.3835 27.1469L11.0678 24.8688L9.75215 22.5908C9.65945 22.4318 9.77423 22.231 9.95963 22.231H12.5932Z" fill="#636363"/>
<path fill-rule="evenodd" clip-rule="evenodd" d="M18.7473 22.231H21.3764C21.5618 22.231 21.6765 22.4318 21.5838 22.5908L20.2682 24.8688L18.9526 27.1469C18.8599 27.3059 18.6303 27.3059 18.5376 27.1469L17.222 24.8688L15.9107 22.5908C15.818 22.4318 15.9328 22.231 16.1182 22.231H18.7473Z" fill="#636363"/>
<path fill-rule="evenodd" clip-rule="evenodd" d="M15.7962 16.8666H18.4252C18.6107 16.8666 18.7255 17.0675 18.6328 17.2264L17.3171 19.5045L16.0014 21.7826C15.9087 21.9415 15.6792 21.9415 15.5865 21.7826L14.2708 19.5045L12.9551 17.2264C12.8624 17.0675 12.9772 16.8666 13.1627 16.8666H15.7962Z" fill="#636363"/>
<path d="M84.9243 14.4902C86.1808 15.7331 86.81 17.4306 86.81 19.5807V32.3287C86.81 32.4589 86.7634 32.5693 86.6727 32.6598C86.5825 32.7503 86.4721 32.7966 86.342 32.7966H82.7659C82.6352 32.7966 82.5253 32.7525 82.4346 32.6598C82.3439 32.5693 82.2979 32.4589 82.2979 32.3287V20.5144C82.2979 19.3224 81.96 18.3577 81.2867 17.6182C80.6134 16.8787 79.7192 16.5101 78.6048 16.5101C77.4898 16.5101 76.589 16.8721 75.9026 17.5984C75.2161 18.3246 74.8717 19.2826 74.8717 20.4747V32.3287C74.8717 32.4589 74.8257 32.5693 74.735 32.6598C74.6443 32.7503 74.5338 32.7966 74.4037 32.7966H70.8276C70.6975 32.7966 70.587 32.7525 70.4969 32.6598C70.4062 32.5693 70.3596 32.4589 70.3596 32.3287V13.402C70.3596 13.2718 70.4038 13.1636 70.4969 13.0708C70.587 12.9804 70.6975 12.934 70.8276 12.934H74.4037C74.5338 12.934 74.6425 12.9804 74.735 13.0708C74.8257 13.1614 74.8717 13.2718 74.8717 13.402V14.6448C74.8717 14.722 74.8986 14.775 74.9493 14.7993C75 14.8258 75.0394 14.7993 75.0663 14.722C76.1276 13.3225 77.7351 12.6227 79.8852 12.6227C81.9911 12.625 83.6684 13.2475 84.9243 14.4902Z" fill="#636363"/>
<path d="M126.665 22.8069L126.625 24.0122C126.625 24.3235 126.471 24.478 126.16 24.478H113.997C113.866 24.478 113.802 24.542 113.802 24.6722C113.88 25.5265 113.997 26.1093 114.153 26.4205C114.776 28.2858 116.29 29.2328 118.701 29.2571C120.462 29.2571 121.862 28.5331 122.897 27.0806C123.001 26.9261 123.131 26.8466 123.286 26.8466C123.389 26.8466 123.48 26.8863 123.557 26.9636L125.966 28.9459C126.2 29.1269 126.237 29.3344 126.083 29.5684C125.279 30.7096 124.211 31.5882 122.877 32.2107C121.542 32.8332 120.06 33.1444 118.427 33.1444C116.405 33.1444 114.69 32.6919 113.277 31.7847C111.864 30.8774 110.836 29.6081 110.187 27.9768C109.591 26.5773 109.293 24.6347 109.293 22.1469C109.293 20.6459 109.447 19.4273 109.758 18.4936C110.277 16.6813 111.255 15.2486 112.692 14.2001C114.13 13.1516 115.86 12.6262 117.88 12.6262C122.984 12.6262 125.859 15.295 126.507 20.6326C126.615 21.2772 126.665 22.0034 126.665 22.8069ZM115.493 17.2309C114.858 17.71 114.412 18.3766 114.153 19.2331C113.999 19.6746 113.896 20.2441 113.842 20.9439C113.792 21.0741 113.842 21.1381 113.997 21.1381H121.886C122.017 21.1381 122.08 21.0741 122.08 20.9439C122.027 20.2971 121.95 19.8048 121.846 19.4671C121.612 18.5333 121.153 17.8093 120.467 17.2905C119.781 16.7718 118.919 16.5135 117.882 16.5135C116.924 16.5113 116.127 16.7497 115.493 17.2309Z" fill="#636363"/>
<path d="M143.099 31.9425C141.689 31.1853 140.597 30.1191 139.826 28.746C139.055 27.373 138.669 25.7859 138.669 23.9824V14.104C138.669 12.3006 139.055 10.7134 139.826 9.34037C140.597 7.96735 141.689 6.90335 143.099 6.14398C144.51 5.38683 146.144 5.00714 148 5.00714C149.857 5.00714 151.497 5.38683 152.921 6.14398C154.345 6.90335 155.444 7.96735 156.214 9.34037C156.985 10.7134 157.371 12.3006 157.371 14.104V23.9846C157.371 25.7881 156.985 27.3752 156.214 28.7483C155.444 30.1213 154.345 31.1853 152.921 31.9447C151.494 32.7041 149.855 33.0815 148 33.0815C146.144 33.0793 144.51 32.7019 143.099 31.9425ZM152.784 28.8851C153.987 27.6821 154.587 26.0883 154.587 24.1016V14.0643C154.587 12.0776 153.985 10.4772 152.784 9.26092C151.581 8.04459 149.987 7.43752 148 7.43752C146.04 7.43752 144.457 8.04459 143.256 9.26092C142.054 10.4772 141.453 12.0776 141.453 14.0643V24.1016C141.453 26.0883 142.054 27.6821 143.256 28.8851C144.459 30.0882 146.04 30.6886 148 30.6886C149.987 30.6886 151.581 30.0882 152.784 28.8851Z" fill="#636363"/>
<path d="M173.673 14.4942C174.913 15.7237 175.536 17.3705 175.536 19.4345V32.3723C175.536 32.635 175.406 32.7653 175.143 32.7653H173.143C172.88 32.7653 172.75 32.635 172.75 32.3723V19.9841C172.75 18.5471 172.313 17.3705 171.437 16.4544C170.561 15.5405 169.43 15.0814 168.046 15.0814C166.609 15.0814 165.446 15.5251 164.556 16.4147C163.666 17.3043 163.223 18.4676 163.223 19.9046V32.3723C163.223 32.635 163.093 32.7653 162.83 32.7653H160.83C160.567 32.7653 160.437 32.635 160.437 32.3723V13.3176C160.437 13.0571 160.567 12.9247 160.83 12.9247H162.83C163.09 12.9247 163.223 13.0549 163.223 13.3176V15.0041C163.223 15.0571 163.243 15.0968 163.283 15.1211C163.323 15.1476 163.353 15.1343 163.38 15.0814C164.53 13.4611 166.293 12.6509 168.673 12.6509C170.766 12.6509 172.433 13.2668 173.673 14.4942Z" fill="#636363"/>
<path d="M194.277 22.2585V23.5124C194.277 23.775 194.147 23.9052 193.885 23.9052H181.22C181.117 23.9052 181.063 23.9582 181.063 24.062C181.117 25.4991 181.194 26.4284 181.3 26.8456C181.587 28.0222 182.201 28.9493 183.143 29.6292C184.083 30.3091 185.287 30.649 186.75 30.649C187.847 30.649 188.814 30.4018 189.651 29.9051C190.487 29.4084 191.141 28.702 191.611 27.7882C191.767 27.552 191.951 27.5012 192.16 27.6314L193.69 28.5343C193.9 28.6645 193.951 28.8478 193.847 29.084C193.193 30.3378 192.213 31.3245 190.907 32.0441C189.6 32.7637 188.096 33.1214 186.397 33.1214C184.54 33.0949 182.986 32.6512 181.73 31.7881C180.476 30.925 179.574 29.7241 179.024 28.1811C178.553 26.9272 178.318 25.1238 178.318 22.7706C178.318 21.6735 178.337 20.7773 178.377 20.0842C178.417 19.391 178.514 18.7707 178.67 18.2211C179.115 16.5214 180.01 15.1637 181.357 14.1439C182.704 13.1241 184.33 12.6141 186.237 12.6141C188.615 12.6141 190.445 13.2168 191.728 14.4177C193.008 15.6207 193.805 17.3182 194.12 19.5146C194.224 20.2453 194.277 21.1614 194.277 22.2585ZM183.043 16.0445C182.194 16.7112 181.638 17.6074 181.377 18.731C181.22 19.2807 181.114 20.168 181.063 21.3976C181.063 21.5014 181.117 21.5543 181.22 21.5543H191.375C191.478 21.5543 191.532 21.5014 191.532 21.3976C191.478 20.221 191.401 19.3844 191.295 18.8877C191.008 17.7111 190.425 16.7774 189.551 16.0842C188.675 15.3911 187.571 15.0445 186.237 15.0445C184.958 15.0445 183.893 15.3779 183.043 16.0445Z" fill="#636363"/>
<path d="M67.6247 32.2509L56.3051 4.98225H56.3029C56.0115 4.29794 55.3338 3.81671 54.5414 3.81671C53.771 3.81671 53.1109 4.27366 52.8085 4.92706L41.4953 32.2509C41.4358 32.4319 41.4512 32.5688 41.5395 32.6593C41.6278 32.7498 41.7625 32.7962 41.9412 32.7962H46.4003C46.6961 32.7962 46.8904 32.6659 46.9809 32.4076L48.4532 28.2488C48.5128 28.1451 48.5879 28.0943 48.6762 28.0943H60.4486C60.5369 28.0943 60.6121 28.1473 60.6712 28.2488L62.1438 32.4076C62.2321 32.6659 62.4261 32.7962 62.7246 32.7962H67.1835C67.5101 32.7962 67.6736 32.6792 67.6736 32.4474C67.6688 32.3679 67.6539 32.3017 67.6247 32.2509ZM59.0644 24.1606H50.0139C49.8638 24.1606 49.8064 24.0833 49.8351 23.9266L54.3824 12.1609C54.4111 12.0571 54.4575 12.0063 54.5171 12.0063C54.5767 12.0063 54.6208 12.0594 54.6495 12.1609L59.2411 23.9266C59.3006 24.0811 59.2411 24.1606 59.0644 24.1606Z" fill="#636363"/>
<path d="M135.985 29.1096H135.153C134.592 29.1096 134.14 28.6571 134.14 28.0986C134.14 23.7742 134.14 6.20957 134.14 6.20957C134.14 5.82547 133.828 5.51422 133.444 5.51422H130.323C129.939 5.51422 129.628 5.82547 129.628 6.20957V28.8955V29.4606C129.628 31.2906 131.111 32.774 132.941 32.774H135.985C136.237 32.774 136.442 32.5688 136.442 32.3171V29.5666C136.442 29.315 136.237 29.1096 135.985 29.1096Z" fill="#636363"/>
<path d="M106.505 13.0721C106.414 12.9816 106.304 12.9352 106.174 12.9352H102.597C102.467 12.9352 102.357 12.9816 102.267 13.0721C102.176 13.1626 102.129 13.273 102.129 13.4032V14.337C102.129 14.4142 102.103 14.4672 102.052 14.4915C101.999 14.518 101.949 14.4915 101.898 14.4142C100.757 13.2222 99.1651 12.6262 97.1189 12.6262C95.4082 12.6262 93.9183 13.0986 92.6486 14.0456C91.3796 14.9926 90.4854 16.2552 89.9667 17.8336C89.5518 18.9748 89.3441 20.6194 89.3441 22.7694C89.3441 24.6877 89.5118 26.255 89.8497 27.4713C90.3929 29.2328 91.3665 30.5419 92.7632 31.3961C94.163 32.2504 95.7036 32.6787 97.3881 32.6787C99.3305 32.6787 100.834 32.1091 101.895 30.9679C101.947 30.9171 101.999 30.8973 102.05 30.9105C102.101 30.9237 102.128 30.9679 102.128 31.0473V31.3586C102.128 33.1709 101.666 34.4601 100.748 35.226C99.8271 35.9899 98.3969 36.3718 96.4546 36.3718C96.4432 36.3718 96.4301 36.374 96.4187 36.374H93.0748C92.7567 36.374 92.5603 36.7227 92.7238 36.9942L94.5982 40.1024C94.7438 40.343 95.0041 40.4908 95.2864 40.4908H96.7017V40.4886C99.6463 40.4687 102.033 39.7756 103.856 38.4114C105.708 37.0251 106.635 34.714 106.635 31.4756V13.401C106.641 13.273 106.596 13.1626 106.505 13.0721ZM102.075 24.9239C102.035 25.3764 101.964 25.798 101.86 26.1866C101.653 27.0166 101.238 27.6898 100.617 28.2064C99.9949 28.7251 99.1807 28.9834 98.1695 28.9834C97.2114 28.9834 96.3883 28.7185 95.7018 28.1865C95.0148 27.6567 94.5426 26.9746 94.2842 26.1468C94.0239 25.5 93.8962 24.3721 93.8962 22.765C93.8962 21.211 94.0502 20.0697 94.3618 19.3457C94.6465 18.4914 95.1121 17.8049 95.7609 17.2861C96.408 16.7674 97.1983 16.5091 98.1319 16.5091C99.1168 16.5091 99.9268 16.7674 100.56 17.2861C101.193 17.8049 101.615 18.4914 101.823 19.3457C101.953 19.7607 102.037 20.1801 102.075 20.6083C102.114 21.0366 102.132 21.7429 102.132 22.7253C102.134 23.7385 102.114 24.4714 102.075 24.9239Z" fill="#636363"/>
</g>
<defs>
<clipPath id="clip0_215_1492">
<rect width="193.997" height="39.9932" fill="white" transform="translate(0.280273 0.840576)"/>
</clipPath>
</defs>
</svg>
