<svg width="181" height="50" viewBox="0 0 181 50" fill="none" xmlns="http://www.w3.org/2000/svg">
<g clip-path="url(#clip0_215_1512)">
<path d="M8.44125 7.58923C12.5724 3.57123 18.179 1.51323 23.7855 1.02323C32.4413 0.827231 40.9986 5.53123 45.3265 12.9792C39.6216 18.1732 34.2117 23.4652 28.8019 28.7572C23.8839 27.1892 19.0642 25.2292 14.2445 23.4652C10.1134 26.2092 5.88388 28.8552 1.75273 31.5012C-0.90301 23.0732 2.04781 13.4692 8.44125 7.58923Z" fill="#636363" stroke="#636363" stroke-width="0.125"/>
<path d="M45.3266 12.9792C46.0151 14.4492 46.6053 15.9192 47.2938 17.3892C40.802 21.8972 36.3758 28.9533 29.4905 33.0693C24.5725 32.4813 20.343 29.0513 15.3266 28.4633C11.0971 30.5212 7.55609 33.6572 3.12986 35.2252C2.63805 34.0492 2.14625 32.7752 1.75281 31.5012C5.88396 28.8552 10.1135 26.2092 14.2446 23.4653C19.0643 25.2292 23.884 27.1892 28.802 28.7572C34.2118 23.4652 39.6217 18.1732 45.3266 12.9792Z" fill="#969696" stroke="#8E8E8E" stroke-width="0.125"/>
<path d="M66.3758 15.1352C71.0971 11.4112 78.2774 11.9992 82.9004 15.8212C82.1135 16.8012 81.2283 17.7812 80.4414 18.7612C77.4905 16.9972 73.6545 15.4292 70.3102 17.2912C64.9004 20.0352 64.5069 28.7572 69.6217 31.9912C72.6709 34.0492 76.6053 33.2652 79.6545 31.6972C79.6545 30.1292 79.6545 28.6592 79.6545 27.0912C77.6873 27.0912 75.7201 27.0912 73.6545 27.0912C73.6545 26.2092 73.6545 24.3472 73.6545 23.4652C76.9987 23.4652 80.343 23.4652 83.6873 23.4652C83.6873 26.7972 83.6873 30.2272 83.6873 33.5592C78.8676 37.1852 71.884 38.5572 66.7692 34.9312C60.0807 30.6192 59.9823 19.8392 66.3758 15.1352Z" fill="#636363" stroke="#444444" stroke-width="0.125"/>
<path d="M29.4904 33.0692C36.3757 28.9532 40.8019 21.8972 47.2937 17.3892C47.6871 19.0552 47.9822 20.7212 48.3757 22.4852C42.5724 26.5032 37.556 31.5992 32.5396 36.4992C31.6544 37.1852 30.7691 38.1652 29.5888 38.4592C24.5724 38.1652 20.3429 34.6372 15.3265 34.2452C11.8839 35.5192 9.0314 37.9692 5.98222 39.8312C4.99861 38.3612 4.01501 36.7932 3.12976 35.2252C7.55599 33.6572 11.097 30.5212 15.3265 28.4632C20.3429 29.0512 24.5724 32.4812 29.4904 33.0692Z" fill="#AFAFAF" stroke="#AFAFAF" stroke-width="0.125"/>
<path d="M88.4084 18.7612C89.3921 18.7612 91.4576 18.7612 92.4412 18.7612C92.4412 20.0352 92.4412 21.2112 92.4412 22.4852C93.9166 20.3292 95.9822 18.3692 98.8347 18.3692C98.8347 19.3492 98.933 21.4072 98.933 22.3872C96.9658 23.0732 94.5068 23.4652 93.4248 25.6212C91.8511 29.0512 92.638 32.9712 92.4412 36.5972C91.1625 36.6952 89.7855 36.6952 88.4084 36.7932C88.4084 30.8152 88.4084 24.7392 88.4084 18.7612Z" fill="#636363" stroke="#444444" stroke-width="0.125"/>
<path d="M106.9 19.3492C113.49 15.8212 122.244 22.3872 120.179 29.7372C118.999 36.5972 109.556 39.4392 104.54 34.6372C99.6215 30.6192 100.9 21.7992 106.9 19.3492ZM108.867 22.3872C104.835 23.8572 104.54 30.0312 107.785 32.4812C110.835 34.8332 116.146 32.7752 116.146 28.8552C117.228 24.6412 112.9 20.7212 108.867 22.3872Z" fill="#636363" stroke="#444444" stroke-width="0.125"/>
<path d="M123.326 18.7612C124.31 18.7612 126.376 18.7612 127.359 18.7612C128.638 22.7792 129.72 26.7972 130.999 30.8152C132.376 26.7972 133.654 22.7792 134.933 18.7612C135.818 18.7612 137.49 18.6632 138.376 18.6632C139.753 22.6812 140.835 26.8952 142.605 30.8152C143.687 26.6992 144.769 22.5832 146.343 18.6632C147.228 18.6632 148.999 18.7612 149.884 18.8592C148.408 24.9352 146.146 30.8152 144.179 36.8912C143.294 36.8912 141.622 36.7932 140.736 36.7932C139.359 33.0692 138.277 29.2472 136.9 25.5232C134.638 28.8552 134.244 33.1672 132.474 36.8912C131.589 36.8912 129.917 36.7932 129.031 36.7932C127.162 30.8152 125.097 24.8372 123.326 18.7612Z" fill="#636363" stroke="#444444" stroke-width="0.125"/>
<path d="M152.048 18.7612C153.13 18.7612 155.097 18.7612 156.081 18.7612C157.458 22.7792 158.54 26.7972 159.72 30.9132C161.49 26.9932 161.982 22.4852 164.146 18.6632C164.835 18.6632 166.212 18.6632 166.9 18.6632C168.966 22.4852 169.556 26.9932 171.327 30.9132C172.408 26.7972 173.589 22.7792 174.966 18.7612C175.949 18.7612 177.917 18.7612 178.9 18.7612C176.933 24.8372 175.163 31.0112 172.9 36.8912C172.015 36.8912 170.245 36.7932 169.458 36.7932C168.179 32.6772 166.802 28.6592 165.523 24.6412C163.851 28.6592 163.261 33.1672 160.999 36.8912C160.31 36.8912 158.933 36.8912 158.245 36.8912C155.49 31.1092 154.212 24.7392 152.048 18.7612Z" fill="#636363" stroke="#444444" stroke-width="0.125"/>
<path d="M32.5397 36.4992C37.5561 31.5992 42.5725 26.5032 48.3757 22.4852C48.4741 24.4452 48.3757 26.4052 48.2774 28.3652C43.0643 31.9912 38.343 36.2052 34.0151 40.9092C32.638 42.1832 31.3593 43.7512 29.5889 44.3392C24.7692 43.9472 20.7364 40.8112 16.0151 40.0272C13.4577 40.5172 11.2938 41.8892 9.03148 43.0652C8.04787 41.9872 6.96591 40.9092 5.9823 39.8312C9.03148 37.9692 11.8839 35.5192 15.3266 34.2452C20.343 34.6372 24.5725 38.1652 29.5889 38.4592C30.7692 38.1652 31.6544 37.1852 32.5397 36.4992Z" fill="#989898" stroke="#989898" stroke-width="0.125"/>
<path d="M34.0151 40.9092C38.343 36.2052 43.0643 31.9912 48.2774 28.3652C46.802 39.7332 36.2774 48.8472 24.7692 48.8472C19.0643 48.8472 13.4577 46.5932 9.03149 43.0652C11.2938 41.8892 13.4577 40.5172 16.0151 40.0272C20.7364 40.8112 24.7692 43.9472 29.5889 44.3392C31.3594 43.7512 32.6381 42.1832 34.0151 40.9092Z" fill="#747474" stroke="#747474" stroke-width="0.125"/>
</g>
<defs>
<clipPath id="clip0_215_1512">
<rect width="180" height="49" fill="white" transform="translate(0.277344 0.337219)"/>
</clipPath>
</defs>
</svg>
