<svg width="136" height="41" viewBox="0 0 136 41" fill="none" xmlns="http://www.w3.org/2000/svg">
<path d="M20.4203 40.9234C31.5435 40.9234 40.5633 31.9414 40.5633 20.8372C40.5633 9.73301 31.5435 0.751099 20.4203 0.751099C9.29715 0.751099 0.277344 9.73301 0.277344 20.8372C0.277344 31.9414 9.29715 40.9234 20.4203 40.9234Z" fill="#9F9F9F"/>
<path fill-rule="evenodd" clip-rule="evenodd" d="M29.5727 38.7443L13.7123 26.5031L15.9483 20.8373L12.1584 15.6831L13.7123 11.0406H29.7243L40.5822 20.8752C40.5633 28.6633 36.0913 35.4092 29.5727 38.7253V38.7443Z" fill="#585858"/>
<path d="M31.2594 13.864H26.6548V31.9604C25.8968 31.9604 25.1578 31.8088 24.4377 31.5246C23.7176 31.2593 23.3387 30.9561 23.3387 30.5961V26.6736C21.8038 27.64 20.1173 28.1327 18.3171 28.1327C16.517 28.1327 15.0389 27.6779 13.883 26.7494C12.765 25.802 12.1965 24.5892 12.1965 23.0922C12.1965 21.5952 12.5945 20.932 13.3903 20.0225C12.2723 19.6056 11.3817 18.9992 10.7185 18.1844C10.0553 17.3506 9.73315 16.3653 9.73315 15.2094C9.73315 14.0535 10.1879 13.0302 11.1164 12.0827C12.0639 11.1353 13.3524 10.6616 14.9821 10.6616C16.6117 10.6616 17.0854 10.9268 17.7297 11.4574C18.3929 11.988 18.7151 12.6323 18.7151 13.4092C18.7151 14.963 17.6918 16.0621 15.6642 16.7063C15.3421 16.4411 15.0958 16.0621 14.9442 15.5883C15.8537 15.0009 16.3085 14.3756 16.3085 13.7124C16.3085 13.0492 16.1948 13.0492 15.9864 12.8218C15.759 12.5754 15.4179 12.4617 14.9252 12.4617C14.4325 12.4617 13.9588 12.727 13.504 13.2576C13.0493 13.7882 12.8029 14.4703 12.8029 15.342C12.8029 16.2137 13.0303 16.8769 13.504 17.4454C13.9967 17.9949 14.6031 18.3739 15.3232 18.6013C16.2896 18.1086 17.3886 17.7486 18.6014 17.5212C19.4351 18.317 19.9657 19.1318 20.1931 19.9846C18.8288 20.2498 17.6729 20.6667 16.7254 21.2352C15.7969 21.7847 15.3421 22.429 15.3421 23.1491C15.3421 23.8691 15.5884 24.4187 16.0622 24.8545C16.5738 25.2903 17.2939 25.5177 18.2034 25.5177C19.113 25.5177 20.0794 25.2524 21.0079 24.7219C21.9364 24.1913 22.7133 23.5091 23.3576 22.6374V13.864H21.0837C20.2878 12.9355 19.8899 11.9691 19.8899 10.9269H30.2362C30.9183 11.7985 31.2594 12.7839 31.2594 13.864Z" fill="white"/>
<path d="M71.4506 7.47809V33.23H66.5996V30.5961C65.8795 31.733 65.0836 32.5479 64.1741 33.0595C63.2645 33.5711 62.1276 33.8364 60.7822 33.8364C58.5462 33.8364 56.6702 32.9458 55.1543 31.1456C53.6383 29.3454 52.8804 27.0147 52.8804 24.2102C52.8804 21.4057 53.6194 18.3928 55.1164 16.5358C56.6134 14.6788 58.622 13.7313 61.1422 13.7313C63.6625 13.7313 63.3214 13.9966 64.212 14.5082C65.1026 15.0009 65.8416 15.702 66.3911 16.6116V7.51599H71.4506V7.47809ZM58.0156 23.8123C58.0156 25.5746 58.3567 26.9768 59.0578 28.019C59.74 29.0802 60.8011 29.6107 62.2034 29.6107C63.6056 29.6107 64.6857 29.0802 65.4247 28.0379C66.1637 26.9957 66.5238 25.6314 66.5238 23.9639C66.5238 22.2963 65.9364 19.9656 64.7615 18.9613C64.0414 18.3549 63.2077 18.0517 62.2413 18.0517C60.7822 18.0517 59.7021 18.6013 59.0199 19.7193C58.3377 20.8183 57.9966 22.1827 57.9966 23.8123H58.0156ZM93.2232 22.0311V33.23H88.1258V21.6331C88.1258 20.6099 87.9553 19.7761 87.5953 19.1508C87.1405 18.2602 86.2688 17.8243 84.9992 17.8243C83.7296 17.8243 82.6874 18.2602 81.9863 19.1508C81.3041 20.0224 80.9631 21.2731 80.9631 22.9027V33.23H75.9984V7.53494H80.9631V16.6495C81.6831 15.5504 82.5169 14.7735 83.4643 14.3377C84.4118 13.9019 85.4161 13.6745 86.4773 13.6745C87.5384 13.6745 88.7133 13.8829 89.6797 14.2808C90.6461 14.6977 91.4419 15.3041 92.0673 16.1568C92.5978 16.8769 92.92 17.5969 93.0337 18.3549C93.1474 19.0939 93.2042 20.3256 93.2042 22.0311H93.2232ZM98.6237 16.2137C99.9501 14.5272 102.205 13.6934 105.407 13.6934C108.61 13.6934 109.349 14.1103 110.979 14.9441C112.608 15.7778 113.404 17.3317 113.404 19.6245V28.379C113.404 28.9854 113.404 29.7244 113.442 30.5771C113.48 31.2214 113.575 31.6762 113.745 31.9036C113.916 32.131 114.162 32.3205 114.484 32.4721V33.2111H109.065C108.913 32.8321 108.799 32.4721 108.743 32.131C108.686 31.7899 108.629 31.4109 108.61 30.9751C107.928 31.7141 107.132 32.3584 106.222 32.8889C105.142 33.5143 103.929 33.8174 102.584 33.8174C101.239 33.8174 99.4385 33.3248 98.3016 32.3394C97.1836 31.3541 96.6151 29.9518 96.6151 28.1327C96.6151 26.3136 97.5246 24.0965 99.3248 23.0354C100.31 22.4669 101.769 22.05 103.702 21.8037L105.407 21.5952C106.336 21.4815 106.98 21.3299 107.378 21.1594C108.098 20.8562 108.439 20.3825 108.439 19.7382C108.439 19.0939 108.174 18.4118 107.625 18.1275C107.094 17.8243 106.298 17.6728 105.237 17.6728C104.176 17.6728 103.228 17.957 102.736 18.5444C102.395 18.9802 102.148 19.5677 102.035 20.2877H97.2215C97.3351 18.6202 97.7899 17.2559 98.6237 16.1758V16.2137ZM102.319 29.6107C102.793 29.9897 103.361 30.1792 104.024 30.1792C105.104 30.1792 106.09 29.8571 106.98 29.2318C107.89 28.6064 108.364 27.4505 108.401 25.783V23.926C108.079 24.1155 107.757 24.286 107.435 24.4187C107.113 24.5323 106.677 24.646 106.128 24.7597L105.01 24.9682C103.967 25.1577 103.209 25.3851 102.755 25.6504C101.978 26.1051 101.599 26.8063 101.599 27.7727C101.599 28.7391 101.845 29.2318 102.319 29.6107ZM126.82 17.8433C125.134 17.8433 123.978 18.5634 123.333 20.0035C123.011 20.7615 122.841 21.7279 122.841 22.9027V33.23H117.876V14.205H122.689V16.9906C123.333 16.0052 123.94 15.3041 124.508 14.8683C125.532 14.0914 126.839 13.7124 128.412 13.7124C129.985 13.7124 131.993 14.224 133.244 15.2662C134.494 16.2895 135.139 17.9949 135.139 20.3825V33.23H130.022V21.6331C130.022 20.6288 129.89 19.8519 129.625 19.3213C129.132 18.336 128.203 17.8433 126.82 17.8433Z" fill="#636363"/>
</svg>
