<svg width="158" height="35" viewBox="0 0 158 35" fill="none" xmlns="http://www.w3.org/2000/svg">
<g clip-path="url(#clip0_215_1531)">
<path d="M16.0658 2.21865H6.79745V2.96905H9.80227V18.2487C9.80227 22.8828 8.55053 24.1346 5.67105 24.1346C3.91796 24.1346 3.54196 22.7575 3.54196 22.1308C3.54196 20.5031 3.41663 19.3767 1.91261 19.3767C0.410196 19.3767 0.161133 20.8791 0.161133 21.3804C0.161133 23.5095 1.1622 25.1373 5.29504 25.1373C10.3052 25.1373 12.934 23.5095 12.934 17.8743V2.96744H15.9405V2.21865H16.0658ZM17.3192 21.6295C16.8178 21.6295 16.3165 21.758 16.0658 22.1308C15.6898 22.5068 15.5645 22.8828 15.5645 23.3842C15.5645 23.8823 15.6898 24.2599 16.0658 24.6375C16.4418 25.0119 16.8178 25.1356 17.3192 25.1356C17.8189 25.1356 18.1949 25.0103 18.5709 24.6375C18.9469 24.2615 19.0722 23.8823 19.0722 23.3842C19.0722 22.8828 18.9469 22.5068 18.5709 22.1308C18.1949 21.7548 17.8189 21.6295 17.3175 21.6295H17.3192ZM37.858 21.6295C37.3567 21.6295 36.9807 21.758 36.6047 22.1308C36.2303 22.5068 36.1049 22.8828 36.1049 23.3842C36.1049 23.8823 36.2303 24.2599 36.6047 24.6375C36.9807 25.0119 37.3567 25.1356 37.858 25.1356C38.3593 25.1356 38.8591 25.0103 39.1113 24.6375C39.4857 24.2599 39.6111 23.8823 39.6111 23.3842C39.6111 22.8828 39.4857 22.5068 39.1097 22.1308C38.7337 21.7548 38.3593 21.6295 37.8564 21.6295H37.858ZM31.3438 2.21865H22.3261V2.96905H24.9565V20.5047C24.9565 21.8818 24.8312 22.2562 24.7059 22.6322C24.5805 23.1351 24.2045 23.3858 23.5779 23.6364C23.2035 23.7618 22.5768 23.8855 21.6994 23.8855V24.6375H31.4691V23.8855C30.5918 23.8855 29.9667 23.7618 29.5891 23.6364C28.964 23.3858 28.588 23.0098 28.4643 22.6338C28.2971 22.1939 28.2116 21.7272 28.212 21.2567V15.2422H30.5918C37.6057 15.2422 39.6095 12.4881 39.6095 8.72963C39.6095 4.84747 38.4831 2.21865 31.3438 2.21865ZM30.0905 14.3665H28.212V3.09439H29.8414C35.226 3.09439 36.4777 5.34881 36.4777 8.85497C36.4777 12.4865 34.3502 14.3665 30.0905 14.3665ZM68.5409 22.5068C68.3757 22.0231 68.2911 21.5156 68.2903 21.0044V2.96905H70.6684V2.21865H64.911C64.7857 2.46932 58.0241 19.2513 58.0241 19.2513L57.8987 19.3783C57.7734 19.3783 57.7734 19.3783 57.7734 19.2529C57.7734 19.2529 50.5104 2.34398 50.5104 2.21865H44.1183V2.97066H46.8741V22.0071C46.8741 22.3847 46.7487 22.7607 46.4981 23.1351C46.2474 23.5111 45.8714 23.7618 45.4954 23.8855C45.2447 24.0141 44.745 24.0141 44.242 24.0141V24.7629H50.5056V24.0108C50.0042 24.0108 49.7536 23.8855 49.3792 23.8855C48.8778 23.7602 48.6272 23.5095 48.3765 23.1335C48.1258 22.8828 48.0005 22.5068 48.0005 22.0071L47.8751 20.3777V5.3472H48.2512C48.2512 5.3472 56.3915 24.3836 56.5168 24.6343H57.1435L64.9078 5.47414H65.1585V21.0044C65.1585 21.6311 65.0332 22.1308 64.9078 22.6322C64.7825 23.1335 64.4081 23.3842 63.9068 23.6348C63.3821 23.8089 62.8317 23.8931 62.279 23.8839V24.6359H71.046V23.8839C70.4928 23.8932 69.9419 23.809 69.4167 23.6348C69.0423 23.3842 68.6663 23.0082 68.5409 22.5068ZM80.4381 8.2299C75.6786 8.2299 72.7991 11.3601 72.7991 16.7462C72.7991 24.7612 79.061 25.2626 80.3128 25.2626C82.9432 25.2626 87.9534 23.6348 87.9534 16.6225C87.9534 11.111 84.6963 8.2299 80.4381 8.2299ZM80.3128 24.2599C76.8066 24.2599 76.1799 22.5084 76.1799 16.8716C76.1799 12.4881 76.4306 9.23097 80.3128 9.23097C84.4456 9.23097 84.4456 12.6118 84.4456 16.6193C84.4456 22.2562 83.4445 24.2599 80.3128 24.2599ZM100.228 8.48057C97.4708 8.48057 96.4713 10.1083 95.7177 11.8614H95.467C95.467 11.8614 95.0926 9.35631 94.9673 8.72963H89.4558V9.60698H92.4606V20.6284C92.4606 21.7548 92.3369 22.5084 92.0878 23.0066C91.8355 23.5095 91.0835 23.8839 89.9571 23.8839H89.4558V24.8866H98.7241V23.8839H98.2228C96.9695 23.8839 96.4713 23.6348 96.2174 23.1335C95.9684 22.6322 95.843 21.8802 95.843 20.7537V14.7425C95.843 12.8625 97.3455 10.6097 99.1001 10.6097C100.979 10.6097 100.852 13.3638 102.982 12.2374C103.985 11.6107 103.734 8.48057 100.228 8.48057ZM136.672 23.0066C135.669 23.0066 135.42 22.5084 135.295 21.5058V12.7387C135.295 11.2347 135.042 10.359 134.168 9.48004C133.291 8.6043 131.661 8.22669 129.283 8.22669C127.029 8.22669 125.401 8.6043 124.273 9.48004C123.272 10.2337 122.772 10.9841 122.772 12.1121C122.772 12.6102 122.898 12.9878 123.147 13.1131C123.397 13.3638 123.773 13.4891 124.148 13.4891C125.024 13.4891 125.527 12.991 125.776 11.8614C125.904 10.9841 126.152 10.4843 126.529 9.98138C127.027 9.48325 127.783 9.23097 128.657 9.23097C129.785 9.23097 130.66 9.48004 131.036 10.1067C131.412 10.7334 131.663 11.4854 131.663 12.4849V15.1169C128.78 15.3676 121.768 15.9926 122.144 21.2535C122.269 23.2572 124.024 25.1356 126.402 25.1356C129.033 25.1356 130.659 23.6348 131.785 22.5052C131.912 23.6332 133.039 25.0119 134.919 25.0119C137.046 25.0119 138.299 24.0092 138.426 21.3788H137.925C137.925 22.3815 137.298 23.0082 136.672 23.0082V23.0066ZM131.914 21.2551V21.3804L131.788 21.5058C130.286 22.8844 129.034 23.3858 128.157 23.3858C125.903 23.3858 125.527 21.5058 125.527 20.63C125.527 17.6252 129.659 16.1212 131.914 16.1212V21.2551ZM155.459 22.8828C155.208 22.3831 154.832 21.6295 154.832 20.5047V13.2385C154.832 12.2374 154.707 11.2347 154.331 10.6097C153.955 9.85765 153.33 9.35631 152.703 8.9803C151.951 8.6043 151.201 8.48057 150.325 8.48057C147.068 8.48057 145.815 10.4843 145.064 11.6107H144.814L144.187 8.72963H139.177V9.60698H141.683V20.6284C141.683 21.5058 141.557 22.1308 141.431 22.5084C141.304 23.0066 140.933 23.3842 140.555 23.5095C140.305 23.6348 139.803 23.7602 139.177 23.7602V24.7612H147.066V23.7602C146.314 23.6348 145.688 23.5095 145.439 23.1335C145.188 22.7575 144.939 22.0055 144.939 20.8791V16.6209C144.939 14.8694 144.939 13.1131 145.566 12.1121C146.191 10.9841 147.442 10.359 148.696 10.359C149.949 10.359 150.574 10.735 150.952 11.4854C151.326 12.1121 151.45 13.9905 151.45 15.2422V20.5031C151.45 21.3788 151.578 22.0055 151.45 22.3831C151.326 22.8812 151.201 23.2588 150.823 23.5079C150.574 23.7602 150.071 23.7602 149.572 23.8839V24.8866H157.214V23.8839C156.335 23.5095 155.71 23.2572 155.459 22.8828ZM119.641 7.47789C119.139 7.60323 118.889 8.10457 118.638 8.73124C118.513 9.35791 118.262 9.73231 117.886 9.85604C117.51 9.98298 117.136 9.98298 116.76 9.73231C115.884 8.9803 114.38 8.10457 111.624 8.10457C107.115 8.10457 105.237 11.2347 105.237 14.1142C105.237 17.4966 106.49 19.126 109.368 19.7511C109.495 19.7511 109.495 20.0017 109.368 20.0017C106.99 20.5031 104.735 21.2551 104.735 23.5095C104.735 24.8882 105.487 25.6386 106.615 26.1399C107.74 26.6397 109.368 26.8919 111.373 26.8919C113.125 26.8919 114.378 27.0173 115.13 27.0173C115.885 27.1146 116.611 27.3709 117.259 27.7693C117.761 28.1453 118.011 28.772 118.011 29.5208C118.011 30.6488 117.385 31.4008 116.258 32.1528C115.133 32.7795 113.751 33.0301 111.875 33.0301C110.372 33.0301 108.995 32.9032 107.867 32.1528C106.991 31.6515 106.864 30.6504 106.991 29.8984C107.118 29.1464 106.864 28.396 105.989 28.1453C105.722 28.0865 105.444 28.1159 105.196 28.2289C104.947 28.3419 104.742 28.5325 104.612 28.772C104.359 29.1448 104.234 29.6461 104.234 30.2728C104.234 32.1512 105.738 33.0269 106.864 33.4029C108.618 33.9027 109.747 34.0296 111.248 34.0296C113.379 34.0296 115.005 33.6536 116.258 33.1523C117.512 32.5256 118.264 31.7752 118.763 30.8978C119.263 30.0221 119.515 29.1448 119.515 28.2674C119.515 27.141 119.263 26.1383 118.763 25.5133C117.136 23.3842 114.879 23.6332 109.871 23.3842C107.491 23.3842 106.99 22.8828 106.99 22.1308C106.99 21.0044 107.867 20.6284 111.373 20.0017C114.879 19.5004 118.135 18.1233 118.135 13.9905C118.135 12.7371 117.886 11.7361 117.508 10.9857C118.262 11.1094 118.889 11.1094 119.514 10.9857C120.267 10.735 120.64 10.359 120.892 9.98298C121.143 9.48164 121.267 8.9803 121.018 8.6043C121.143 7.60323 120.516 7.22722 119.641 7.47789ZM111.751 19.2513C109.623 19.2513 108.494 18.4977 108.494 14.2412C108.494 11.2363 109.497 8.9803 111.751 8.9803C114.381 8.9803 115.132 10.9841 115.132 14.1158C115.132 18.6247 113.755 19.2513 111.751 19.2513Z" fill="#636363"/>
</g>
<defs>
<clipPath id="clip0_215_1531">
<rect width="157.472" height="33.744" fill="white" transform="translate(0.138672 0.96521)"/>
</clipPath>
</defs>
</svg>
