<svg width="128" height="54" viewBox="0 0 128 54" fill="none" xmlns="http://www.w3.org/2000/svg">
<g clip-path="url(#clip0_215_1533)">
<path d="M29.4179 5.48018C24.5475 5.48018 21.5423 9.15619 21.5423 15.421C21.5423 21.6339 24.5475 25.3617 29.4179 25.3617C34.2883 25.3617 37.2934 21.6857 37.2934 15.421C37.2934 9.15619 34.3402 5.48018 29.4179 5.48018ZM29.4179 24.2227C27.5526 24.2227 26.9827 22.2034 26.9827 15.3691C26.9827 8.53489 27.5526 6.51567 29.4179 6.51567C31.2831 6.51567 31.8531 8.58666 31.8531 15.421C31.8531 22.2034 31.2831 24.2227 29.4179 24.2227ZM65.3245 33.5939C63.252 33.5939 61.7494 34.3705 60.8685 35.7167V28.8824H55.6354V41.5672C55.6354 48.4533 51.6976 51.7151 48.1224 51.7151C45.48 51.7151 44.392 49.903 44.392 43.69C44.392 37.477 45.0655 34.6812 47.1899 34.6812C48.5888 34.6812 49.7806 36.0273 50.9722 39.1338H52.2675V34.5259C50.7131 33.9045 48.796 33.5939 47.2935 33.5939C41.9568 33.5939 38.9516 37.4253 38.9516 43.69C38.9516 49.903 41.9568 53.4237 47.0344 53.4237C51.2314 53.4237 54.2365 51.1974 55.6354 47.4178V52.9577H60.8685V38.875C60.8685 36.7004 62.0602 35.6132 63.3037 35.6132C64.4955 35.6132 64.91 36.5969 64.91 38.0982V53.0095H70.1431V39.0821C70.1431 35.1989 68.226 33.5939 65.3245 33.5939ZM40.506 0.768665V24.8957H45.7391V0.768665H40.506ZM59.366 0.768665V7.34407C58.8997 6.20502 57.7598 5.48018 55.9463 5.48018C51.8531 5.48018 49.107 9.15618 49.107 15.3174C49.107 21.6339 51.5422 25.3099 55.739 25.3099C57.7079 25.3099 59.055 24.3781 59.6769 22.4624V24.8439H64.5473V0.768665H59.366ZM56.7753 23.8085C55.1173 23.8085 54.5474 22.1517 54.5474 15.2656C54.5474 8.79377 55.1173 6.8781 56.879 6.8781C58.7961 6.8781 59.4697 9.15618 59.4697 15.2656C59.4697 21.4268 58.5888 23.8085 56.7753 23.8085ZM87.1379 5.48018C84.8064 5.48018 83.0965 6.72276 82.371 8.43134C81.6457 6.4639 80.1949 5.48018 78.1223 5.48018C75.8943 5.48018 74.2882 6.4639 73.511 8.06892V5.94615H68.6405V24.8957H73.8219V10.7612C73.8219 8.58666 74.8582 7.4994 76.1535 7.4994C77.2415 7.4994 77.7079 8.37957 77.7079 9.88103V24.8957H82.941V10.7612C82.941 8.58666 83.9773 7.4994 85.2726 7.4994C86.3608 7.4994 86.827 8.37957 86.827 9.88103V24.8957H92.0602V10.9683C92.0602 7.0852 90.0912 5.48018 87.1379 5.48018ZM82.8374 41.8779L79.8322 40.0658C77.8115 38.875 77.0862 38.1501 77.0862 36.9075C77.0862 35.5096 78.0706 34.6295 79.7286 34.6295C81.6974 34.6295 83.1482 35.9238 84.0292 39.0821H85.3244V34.2152C83.6664 33.8528 81.8011 33.5421 80.1431 33.5421C75.9462 33.5421 73.4074 35.6132 73.4074 38.9786C73.4074 41.3084 74.7027 42.9133 77.3451 44.5184L79.8322 46.0198C81.9048 47.2624 82.6301 48.1426 82.6301 49.5406C82.6301 51.3527 81.4902 52.2846 79.5214 52.2846C77.0862 52.2846 75.6871 50.7314 74.7546 47.3143H73.4591V52.6471C75.3763 53.1647 77.397 53.3718 79.055 53.3718C83.8218 53.3718 86.568 51.1455 86.568 47.4178C86.5161 44.8809 85.2726 43.3276 82.8374 41.8779ZM102.785 5.48018C100.817 5.48018 98.485 5.84259 96.3088 6.51567V10.9683H97.6042C98.6922 8.17246 100.143 6.61922 102.215 6.61922C103.511 6.61922 104.029 7.24052 104.029 8.69021V11.1236C104.029 12.3145 103.718 12.6769 102.371 13.1428L100.972 13.6088C96.827 15.0067 94.9618 16.8188 94.9618 20.0807C94.9618 23.5496 97.0342 25.3617 100.039 25.3617C102.164 25.3617 103.977 24.4297 104.547 22.6176V24.8957H109.314V11.1236C109.262 7.39584 107.034 5.48018 102.785 5.48018ZM104.029 19.8217C104.029 22.307 103.2 23.4461 101.905 23.4461C100.661 23.4461 100.247 22.4624 100.247 19.9254V19.4076C100.247 16.4565 100.868 15.2656 102.578 14.3854L104.029 13.6606V19.8217ZM122.889 5.48018C120.609 5.48018 118.951 6.4639 118.122 8.06892V5.94615H113.2V24.8957H118.433V10.7094C118.433 8.53489 119.625 7.44761 120.868 7.44761C122.06 7.44761 122.475 8.43134 122.475 9.93282V24.8439H127.708V10.9683C127.708 7.0852 125.791 5.48018 122.889 5.48018ZM19.3143 44.8809C19.3143 49.7477 15.791 53.0095 10.1433 53.0095H1.85322V44.363H3.09673C4.23663 49.4887 6.36098 51.7669 9.93609 51.7669C12.8376 51.7669 14.392 50.2137 14.392 47.6767C14.392 44.9844 12.734 43.7418 10.2988 42.3438L6.62003 40.1693C3.51124 38.3572 1.74959 36.1309 1.74959 33.0244C1.74959 29.5555 3.77031 27.3291 7.03454 26.3971C2.42317 25.1547 0.765137 20.9608 0.765137 13.5053C0.765137 5.0142 4.28844 0.250916 11.4905 0.250916H18.1744V7.39584H16.879C15.3247 2.83966 13.9775 1.44174 11.5423 1.44174C7.96719 1.44174 6.98273 5.27308 6.98273 13.7124C6.98273 23.4461 7.86356 25.6205 10.506 25.6205C12.5268 25.6205 13.5112 24.3262 13.5112 21.2714V17.5437C13.5112 15.2656 12.7858 14.4372 10.4024 14.0748V12.884H18.3817V33.2315H17.19C15.3765 28.1058 13.0449 26.9667 10.4542 26.9667C7.91537 26.9667 6.36098 28.1576 6.36098 30.4875C6.36098 32.6619 7.6563 33.6975 10.0915 35.1472L14.0812 37.5289C17.2417 39.4963 19.3143 41.3084 19.3143 44.8809ZM29.3661 33.5939C27.3971 33.5939 25.0656 33.9564 22.8895 34.6295V39.0821H24.1847C25.2728 36.2862 26.7236 34.733 28.7962 34.733C30.0915 34.733 30.6095 35.3542 30.6095 36.8039V39.1856C30.6095 40.3764 30.2987 40.7389 28.9515 41.2049L27.5526 41.6707C23.4076 43.0687 21.5423 44.8809 21.5423 48.1426C21.5423 51.6115 23.6148 53.4237 26.6199 53.4237C28.7443 53.4237 30.5578 52.4917 31.1278 50.6797V52.9577H35.8427V39.2892C35.8427 35.5096 33.563 33.5939 29.3661 33.5939ZM30.6095 47.9355C30.6095 50.4207 29.7806 51.5598 28.4852 51.5598C27.2418 51.5598 26.8272 50.5761 26.8272 48.039V47.5213C26.8272 44.5701 27.449 43.3793 29.1588 42.4992L30.6095 41.7743V47.9355Z" fill="#636363"/>
</g>
<defs>
<clipPath id="clip0_215_1533">
<rect width="127.118" height="53.1728" fill="white" transform="translate(0.610596 0.250854)"/>
</clipPath>
</defs>
</svg>
