<svg width="202" height="70" viewBox="0 0 202 70" fill="none" xmlns="http://www.w3.org/2000/svg">
<g clip-path="url(#clip0_223_2831)">
<path fill-rule="evenodd" clip-rule="evenodd" d="M48.0531 19.453C57.0667 19.453 66.0803 19.453 75.094 19.453C75.094 22.093 75.094 24.733 75.094 27.373C72.1548 27.373 69.2155 27.373 66.2763 27.373C69.0643 27.0815 71.9056 26.9837 74.8001 27.0797C74.8001 24.6352 74.8001 22.1908 74.8001 19.7463C65.9824 19.7463 57.1647 19.7463 48.347 19.7463C48.347 22.1908 48.347 24.6352 48.347 27.0797C51.2415 26.9837 54.0827 27.0815 56.8708 27.373C53.9316 27.373 50.9923 27.373 48.0531 27.373C48.0531 24.733 48.0531 22.093 48.0531 19.453Z" fill="white" fill-opacity="0.6"/>
<path fill-rule="evenodd" clip-rule="evenodd" d="M76.2692 19.453C85.0868 19.453 93.9045 19.453 102.722 19.453C102.722 22.1908 102.722 24.9286 102.722 27.6663C97.2355 27.6663 91.7492 27.6663 86.2625 27.6663C86.2625 28.7419 86.2625 29.8174 86.2625 30.893C91.651 31.0886 97.0398 31.2841 102.428 31.4797C96.9416 31.4797 91.4553 31.4797 85.9686 31.4797C85.9686 30.013 85.9686 28.5463 85.9686 27.0797C91.4553 27.0797 96.9416 27.0797 102.428 27.0797C102.428 24.6352 102.428 22.1908 102.428 19.7463C93.8066 19.7463 85.1847 19.7463 76.5631 19.7463C76.5631 29.9152 76.5631 40.0841 76.5631 50.253C76.4651 50.253 76.3671 50.253 76.2692 50.253C76.2692 39.9863 76.2692 29.7197 76.2692 19.453Z" fill="white" fill-opacity="0.6"/>
<path fill-rule="evenodd" clip-rule="evenodd" d="M134.76 19.453C137.308 19.453 139.855 19.453 142.402 19.453C142.705 20.0446 142.999 20.6313 143.284 21.213C142.693 20.9663 142.301 20.5263 142.108 19.893C141.031 19.8441 139.953 19.7952 138.875 19.7463C137.68 19.7496 136.603 19.9452 135.642 20.333C135.25 20.1374 134.956 19.8441 134.76 19.453Z" fill="white" fill-opacity="0.6"/>
<path fill-rule="evenodd" clip-rule="evenodd" d="M146.811 19.453C149.358 19.453 151.905 19.453 154.453 19.453C154.453 19.6486 154.453 19.8441 154.453 20.0397C154.061 20.4308 153.669 20.8219 153.277 21.213C153.435 20.7386 153.533 20.2497 153.571 19.7463C151.301 19.668 149.048 19.7658 146.811 20.0397C146.811 19.8441 146.811 19.6486 146.811 19.453Z" fill="white" fill-opacity="0.6"/>
<path fill-rule="evenodd" clip-rule="evenodd" d="M66.275 27.3736C66.2571 34.943 66.2571 42.5697 66.275 50.2536C63.1398 50.2536 60.0046 50.2536 56.8695 50.2536C56.8695 42.6269 56.8695 35.0003 56.8695 27.3736C54.0814 27.0821 51.2402 26.9843 48.3457 27.0803C48.3457 24.6358 48.3457 22.1914 48.3457 19.7469C57.1634 19.7469 65.9811 19.7469 74.7987 19.7469C74.7987 22.1914 74.7987 24.6358 74.7987 27.0803C71.9042 26.9843 69.063 27.0821 66.275 27.3736Z" fill="white" fill-opacity="0.6"/>
<path fill-rule="evenodd" clip-rule="evenodd" d="M102.428 31.4803C102.428 33.8269 102.428 36.1736 102.428 38.5203C96.9417 38.5203 91.4553 38.5203 85.9686 38.5203C85.9686 39.8892 85.9686 41.258 85.9686 42.6269C91.4553 42.6269 96.9417 42.6269 102.428 42.6269C102.428 45.1692 102.428 47.7114 102.428 50.2536C93.8067 50.2536 85.1847 50.2536 76.5631 50.2536C76.5631 40.0847 76.5631 29.9158 76.5631 19.7469C85.1847 19.7469 93.8067 19.7469 102.428 19.7469C102.428 22.1914 102.428 24.6358 102.428 27.0803C96.9417 27.0803 91.4553 27.0803 85.9686 27.0803C85.9686 28.5469 85.9686 30.0136 85.9686 31.4803C91.4553 31.4803 96.9417 31.4803 102.428 31.4803Z" fill="white" fill-opacity="0.6"/>
<path fill-rule="evenodd" clip-rule="evenodd" d="M103.897 19.453C110.657 19.453 117.418 19.453 124.178 19.453C124.57 19.7463 124.962 20.0397 125.354 20.333C124.476 20.187 123.594 20.0403 122.708 19.893C116.635 19.7463 110.56 19.6975 104.485 19.7463C104.485 29.9152 104.485 40.0841 104.485 50.253C104.289 50.253 104.093 50.253 103.897 50.253C103.897 39.9863 103.897 29.7197 103.897 19.453Z" fill="white" fill-opacity="0.6"/>
<path fill-rule="evenodd" clip-rule="evenodd" d="M125.354 20.3335C125.55 20.3335 125.745 20.3335 125.941 20.3335C126.505 21.1073 127.289 21.5962 128.293 21.8002C130.295 22.9206 131.666 24.5828 132.408 26.7868C132.559 28.1566 132.951 29.4277 133.583 30.6002C133.779 30.6002 133.877 30.6979 133.877 30.8935C133.694 33.9852 133.449 37.114 133.143 40.2802C132.947 40.4757 132.751 40.6713 132.555 40.8668C132.492 42.1611 132.101 43.3344 131.379 44.3868C130.761 45.0474 130.222 45.7318 129.762 46.4402C129.054 46.7385 128.564 47.2274 128.293 47.9068C128.192 48.1527 127.997 48.2505 127.705 48.2002C126.998 48.3077 126.312 48.5032 125.648 48.7868C125.291 48.8594 125.095 49.0549 125.06 49.3735C123.605 49.4527 122.233 49.746 120.945 50.2535C115.458 50.2535 109.972 50.2535 104.485 50.2535C104.485 40.0846 104.485 29.9157 104.485 19.7468C110.56 19.698 116.635 19.7469 122.708 19.8935C123.594 20.0408 124.476 20.1875 125.354 20.3335ZM121.239 28.5468C121.654 29.2249 122.193 29.8115 122.855 30.3068C123.314 31.0276 123.608 31.8099 123.737 32.6535C123.932 34.6174 123.883 36.5729 123.59 38.5202C123.114 39.0376 122.722 39.6243 122.414 40.2802C121.874 40.7695 121.286 41.2095 120.651 41.6002C118.514 41.9816 116.358 42.1283 114.185 42.0402C114.185 37.2491 114.185 32.4579 114.185 27.6668C116.596 27.5778 118.947 27.8711 121.239 28.5468Z" fill="white" fill-opacity="0.6"/>
<path fill-rule="evenodd" clip-rule="evenodd" d="M125.942 20.3335C126.874 20.6081 127.658 21.097 128.293 21.8002C127.29 21.5962 126.506 21.1073 125.942 20.3335Z" fill="white" fill-opacity="0.6"/>
<path fill-rule="evenodd" clip-rule="evenodd" d="M135.936 20.92C136.91 21.6901 137.596 22.6678 137.993 23.8534C137.081 23.0394 136.395 22.0616 135.936 20.92Z" fill="white" fill-opacity="0.6"/>
<path fill-rule="evenodd" clip-rule="evenodd" d="M143.284 21.2131C143.208 21.9433 143.502 22.4322 144.166 22.6798C144.089 23.1133 144.187 23.5044 144.46 23.8531C145.246 23.2625 145.736 22.4803 145.929 21.5065C146.49 21.2173 146.784 20.7285 146.811 20.0398C149.048 19.7659 151.302 19.6681 153.571 19.7465C153.533 20.2499 153.436 20.7388 153.277 21.2131C153.15 21.5679 152.954 21.8613 152.69 22.0931C152.186 22.3293 151.696 22.6226 151.22 22.9731C151.075 24.2281 150.438 25.3037 149.309 26.1998C149.168 26.4779 149.119 26.7712 149.163 27.0798C149.184 27.5277 148.988 27.821 148.575 27.9598C148.229 27.8956 147.935 27.9933 147.693 28.2531C147.922 29.158 148.412 29.8424 149.163 30.3065C149.4 32.0604 150.282 33.3315 151.808 34.1198C152.345 34.6031 152.737 35.1897 152.984 35.8798C153.309 36.4824 153.603 37.118 153.865 37.7865C153.746 38.0638 153.55 38.2594 153.277 38.3731C151.416 38.5687 149.554 38.5687 147.693 38.3731C146.771 36.8181 145.791 35.3026 144.754 33.8265C144.519 33.9605 144.421 34.1561 144.46 34.4131C144.327 35.0189 144.033 35.5078 143.578 35.8798C142.744 36.4248 142.254 37.207 142.108 38.2265C139.88 38.5097 137.627 38.6075 135.348 38.5198C135.386 38.0164 135.484 37.5275 135.642 37.0531C136.107 35.9163 136.793 34.9385 137.7 34.1198C139.135 32.6878 140.212 31.0255 140.933 29.1331C141.712 28.5578 141.663 28.0689 140.786 27.6665C140.486 27.1474 140.437 26.6585 140.639 26.1998C140.328 26.0807 139.936 26.0807 139.463 26.1998C138.823 25.508 138.333 24.7258 137.993 23.8531C137.596 22.6676 136.91 21.6898 135.936 20.9198C135.69 20.8196 135.592 20.624 135.642 20.3331C136.603 19.9453 137.68 19.7497 138.875 19.7465C139.953 19.7954 141.031 19.8443 142.108 19.8931C142.301 20.5264 142.693 20.9664 143.284 21.2131Z" fill="white" fill-opacity="0.6"/>
<path fill-rule="evenodd" clip-rule="evenodd" d="M146.81 20.0403C146.783 20.7289 146.49 21.2178 145.929 21.5069C146.002 20.8693 146.296 20.3804 146.81 20.0403Z" fill="white" fill-opacity="0.6"/>
<path fill-rule="evenodd" clip-rule="evenodd" d="M143.284 21.2133C143.693 21.6237 143.986 22.1126 144.166 22.6799C143.502 22.4324 143.208 21.9435 143.284 21.2133Z" fill="white" fill-opacity="0.6"/>
<path fill-rule="evenodd" clip-rule="evenodd" d="M145.928 21.5066C145.735 22.4804 145.245 23.2627 144.459 23.8533C144.185 23.5045 144.088 23.1134 144.165 22.6799C144.377 22.8024 144.524 22.998 144.605 23.2666C144.981 22.6074 145.422 22.0207 145.928 21.5066Z" fill="white" fill-opacity="0.6"/>
<path fill-rule="evenodd" clip-rule="evenodd" d="M152.688 22.093C151.722 23.9317 150.547 25.5939 149.161 27.0797C149.117 26.7711 149.166 26.4778 149.308 26.1997C150.437 25.3036 151.074 24.228 151.219 22.973C151.695 22.6225 152.185 22.3291 152.688 22.093Z" fill="white" fill-opacity="0.6"/>
<path fill-rule="evenodd" clip-rule="evenodd" d="M66.2763 27.3732C69.2155 27.3732 72.1547 27.3732 75.094 27.3732C72.1911 27.4738 69.3498 27.7671 66.5702 28.2532C66.3045 28.0452 66.2065 27.7519 66.2763 27.3732Z" fill="white" fill-opacity="0.6"/>
<path fill-rule="evenodd" clip-rule="evenodd" d="M132.409 26.7866C133.147 27.9241 133.539 29.1952 133.584 30.6C132.952 29.4275 132.56 28.1564 132.409 26.7866Z" fill="white" fill-opacity="0.6"/>
<path fill-rule="evenodd" clip-rule="evenodd" d="M140.932 29.1332C140.464 28.1682 139.974 27.1904 139.462 26.1999C139.935 26.0808 140.327 26.0808 140.638 26.1999C140.436 26.6586 140.485 27.1475 140.785 27.6666C141.662 28.069 141.711 28.5579 140.932 29.1332Z" fill="white" fill-opacity="0.6"/>
<path fill-rule="evenodd" clip-rule="evenodd" d="M148.574 27.9603C148.599 28.2524 148.501 28.4968 148.28 28.6936C148.65 29.2043 148.944 29.742 149.162 30.3069C148.411 29.8429 147.921 29.1584 147.692 28.2536C147.935 27.9938 148.229 27.896 148.574 27.9603Z" fill="white" fill-opacity="0.6"/>
<path fill-rule="evenodd" clip-rule="evenodd" d="M121.239 28.547C118.948 27.8712 116.596 27.5779 114.185 27.667C114.185 32.4581 114.185 37.2492 114.185 42.0403C116.359 42.1284 118.514 41.9817 120.652 41.6003C121.286 41.2096 121.874 40.7696 122.415 40.2803C122.412 40.7254 122.216 41.0676 121.827 41.307C121.029 41.8666 120.147 42.2577 119.182 42.4803C117.323 42.6268 115.461 42.6757 113.597 42.627C113.597 37.5425 113.597 32.4581 113.597 27.3736C115.559 27.3248 117.519 27.3737 119.476 27.5203C120.175 27.7304 120.763 28.0726 121.239 28.547Z" fill="white" fill-opacity="0.6"/>
<path fill-rule="evenodd" clip-rule="evenodd" d="M48.0531 27.6665C48.0531 27.5687 48.0531 27.4709 48.0531 27.3732C50.9923 27.3732 53.9316 27.3732 56.8708 27.3732C56.8708 34.9998 56.8708 42.6265 56.8708 50.2532C56.7728 50.2532 56.6748 50.2532 56.5769 50.2532C56.5769 42.7243 56.5769 35.1954 56.5769 27.6665C53.7356 27.6665 50.8944 27.6665 48.0531 27.6665Z" fill="white" fill-opacity="0.6"/>
<path fill-rule="evenodd" clip-rule="evenodd" d="M66.2763 27.3732C66.2065 27.7519 66.3045 28.0452 66.5702 28.2532C66.5702 35.5865 66.5702 42.9198 66.5702 50.2532C66.4722 50.2532 66.3742 50.2532 66.2763 50.2532C66.2583 42.5692 66.2583 34.9426 66.2763 27.3732Z" fill="white" fill-opacity="0.6"/>
<path fill-rule="evenodd" clip-rule="evenodd" d="M121.239 28.5469C122.624 29.1984 123.555 30.274 124.031 31.7735C124.694 34.1133 124.547 36.3622 123.59 38.5202C123.883 36.5729 123.933 34.6174 123.737 32.6535C123.608 31.8099 123.314 31.0277 122.855 30.3069C122.193 29.8116 121.654 29.2249 121.239 28.5469Z" fill="white" fill-opacity="0.6"/>
<path fill-rule="evenodd" clip-rule="evenodd" d="M86.262 30.8931C91.8553 30.7013 97.342 30.8969 102.722 31.4798C102.624 31.4798 102.526 31.4798 102.428 31.4798C97.0392 31.2842 91.6504 31.0887 86.262 30.8931Z" fill="white" fill-opacity="0.6"/>
<path fill-rule="evenodd" clip-rule="evenodd" d="M140.931 29.1334C140.211 31.0258 139.133 32.688 137.698 34.1201C138.662 32.3774 139.74 30.7152 140.931 29.1334Z" fill="white" fill-opacity="0.6"/>
<path fill-rule="evenodd" clip-rule="evenodd" d="M149.162 30.3064C150.26 31.4217 151.142 32.6928 151.807 34.1197C150.281 33.3314 149.4 32.0603 149.162 30.3064Z" fill="white" fill-opacity="0.6"/>
<path fill-rule="evenodd" clip-rule="evenodd" d="M143.577 35.8798C143.319 36.8188 142.829 37.601 142.107 38.2264C142.253 37.2069 142.743 36.4247 143.577 35.8798Z" fill="white" fill-opacity="0.6"/>
<path fill-rule="evenodd" clip-rule="evenodd" d="M135.642 37.0535C135.483 37.5278 135.386 38.0167 135.348 38.5201C137.626 38.6078 139.88 38.5101 142.108 38.2268C139.776 38.8042 137.327 38.9997 134.76 38.8135C134.62 37.9884 134.914 37.4018 135.642 37.0535Z" fill="white" fill-opacity="0.6"/>
<path fill-rule="evenodd" clip-rule="evenodd" d="M152.983 35.8802C153.612 36.3586 154.102 36.9452 154.452 37.6402C154.452 38.0313 154.452 38.4225 154.452 38.8136C152.099 38.8624 149.747 38.8135 147.398 38.6669C146.573 37.1159 145.593 35.6982 144.459 34.4136C144.42 34.1565 144.518 33.9609 144.753 33.8269C145.79 35.303 146.77 36.8186 147.692 38.3736C149.553 38.5691 151.415 38.5691 153.277 38.3736C153.549 38.2598 153.745 38.0642 153.864 37.7869C153.602 37.1184 153.309 36.4829 152.983 35.8802Z" fill="white" fill-opacity="0.6"/>
<path fill-rule="evenodd" clip-rule="evenodd" d="M123.59 38.5198C123.551 39.3605 123.159 39.9472 122.415 40.2798C122.722 39.6239 123.114 39.0372 123.59 38.5198Z" fill="white" fill-opacity="0.6"/>
<path fill-rule="evenodd" clip-rule="evenodd" d="M133.878 30.8937C134.717 35.7518 133.982 40.3474 131.674 44.6803C131.26 45.5335 130.624 46.1202 129.763 46.4403C130.223 45.732 130.762 45.0475 131.38 44.387C132.101 43.3346 132.493 42.1613 132.555 40.867C132.751 40.6714 132.947 40.4759 133.143 40.2803C133.45 37.1142 133.694 33.9853 133.878 30.8937Z" fill="white" fill-opacity="0.6"/>
<path fill-rule="evenodd" clip-rule="evenodd" d="M102.428 31.4802C102.526 31.4802 102.624 31.4802 102.722 31.4802C102.722 33.9247 102.722 36.3691 102.722 38.8136C97.235 38.8136 91.7486 38.8136 86.2619 38.8136C86.2619 39.9869 86.2619 41.1602 86.2619 42.3336C91.7783 42.4124 97.2158 42.3146 102.575 42.0402C102.722 44.7763 102.77 47.514 102.722 50.2536C102.624 50.2536 102.526 50.2536 102.428 50.2536C102.428 47.7113 102.428 45.1691 102.428 42.6269C96.941 42.6269 91.4547 42.6269 85.968 42.6269C85.968 41.258 85.968 39.8891 85.968 38.5202C91.4547 38.5202 96.941 38.5202 102.428 38.5202C102.428 36.1736 102.428 33.8269 102.428 31.4802Z" fill="white" fill-opacity="0.6"/>
<path fill-rule="evenodd" clip-rule="evenodd" d="M129.763 46.4399C129.574 47.2155 129.084 47.7044 128.293 47.9066C128.564 47.2272 129.054 46.7383 129.763 46.4399Z" fill="white" fill-opacity="0.6"/>
<path fill-rule="evenodd" clip-rule="evenodd" d="M127.705 48.2002C126.954 48.8184 126.072 49.2096 125.06 49.3735C125.095 49.055 125.291 48.8594 125.648 48.7869C126.313 48.5032 126.998 48.3077 127.705 48.2002Z" fill="white" fill-opacity="0.6"/>
<path fill-rule="evenodd" clip-rule="evenodd" d="M125.06 49.3733C124.598 49.7215 124.108 50.0148 123.59 50.2533C122.708 50.2533 121.827 50.2533 120.945 50.2533C122.233 49.7458 123.605 49.4525 125.06 49.3733Z" fill="white" fill-opacity="0.6"/>
</g>
<defs>
<clipPath id="clip0_223_2831">
<rect width="106.4" height="30.8" fill="white" transform="translate(48.1995 19.6)"/>
</clipPath>
</defs>
</svg>
