<svg width="205" height="53" viewBox="0 0 205 53" fill="none" xmlns="http://www.w3.org/2000/svg">
<g clip-path="url(#clip0_215_1537)">
<mask id="mask0_215_1537" style="mask-type:luminance" maskUnits="userSpaceOnUse" x="-1" y="0" width="206" height="54">
<path d="M-0.273926 0.394836H204.145V53.2792H-0.273926V0.394836Z" fill="white"/>
</mask>
<g mask="url(#mask0_215_1537)">
<path fill-rule="evenodd" clip-rule="evenodd" d="M200.744 24.9285C200.666 23.0116 199.121 21.3236 196.802 21.3236C194.252 21.3236 192.784 22.9343 192.552 24.9275H200.744V24.9285ZM196.88 18.4101C201.052 18.4101 204.145 21.4771 204.145 25.6952C204.145 26.0033 204.145 26.5383 204.067 26.7691C204.067 27.1515 203.68 27.4596 203.371 27.4596H192.319C192.319 29.6072 194.33 31.754 197.112 31.754C198.966 31.754 200.048 31.0645 201.052 30.4513C201.363 30.2204 201.672 30.1432 201.981 30.5275L202.906 31.9857C203.216 32.2909 203.294 32.597 202.83 33.0586C201.67 34.0562 199.584 35.0527 196.88 35.0527C192.01 35.0527 188.92 31.2953 188.92 26.7691C188.92 22.2449 192.012 18.4101 196.88 18.4101ZM175.243 33.441C175.011 33.2884 174.778 32.9813 174.934 32.597L175.629 31.1407C175.783 30.8346 176.247 30.6821 176.632 30.9119C177.562 31.4478 178.719 32.061 180.573 32.061C181.887 32.061 182.66 31.4459 182.66 30.5275C182.66 29.4547 181.424 28.7642 179.261 27.7666C176.786 26.6918 174.934 25.3901 174.934 22.7818C174.934 20.7867 176.323 18.4854 180.188 18.4854C182.429 18.4854 184.052 19.1759 184.823 19.6365C185.211 19.9426 185.366 20.4033 185.133 20.7867L184.593 21.8595C184.361 22.3202 183.897 22.3202 183.588 22.1676C182.507 21.707 181.424 21.4018 180.188 21.4018C178.797 21.4018 178.18 22.0903 178.18 22.7818C178.18 23.7774 179.336 24.3906 180.884 25.083C183.819 26.3084 186.062 27.3823 186.062 30.2967C186.062 32.7515 183.897 34.8992 180.342 34.8992C177.947 35.0527 176.169 34.0562 175.241 33.441H175.243ZM164.036 32.2136C165.66 32.2136 167.283 31.0645 167.747 30.2977V27.6894C167.514 27.5358 166.276 27.1515 164.81 27.1515C162.954 27.1515 161.486 28.151 161.486 29.7598C161.563 31.1407 162.415 32.2136 164.036 32.2136ZM164.579 24.6214C166.2 24.6214 167.823 25.0811 167.823 25.0811C167.901 22.551 167.283 21.4791 165.273 21.4791C163.418 21.4791 161.641 22.015 160.792 22.2449C160.328 22.3202 160.018 22.015 159.864 21.5544L159.554 20.2507C159.478 19.7138 159.71 19.484 160.096 19.3285C160.404 19.2531 162.646 18.4101 165.582 18.4101C170.682 18.4101 171.147 21.4771 171.147 25.3881V33.8244C171.119 34.2361 170.788 34.5647 170.373 34.5921H169.214C168.904 34.5921 168.75 34.4395 168.594 34.0562L168.21 32.9813C166.898 34.2801 165.116 34.999 163.264 34.9745C160.25 34.9745 158.086 32.9813 158.086 29.6845C158.164 26.8463 160.482 24.6234 164.579 24.6234V24.6214ZM149.586 18.4101C152.06 18.4101 153.914 19.3285 155.382 21.1691C155.691 21.5544 155.611 22.0131 155.228 22.3202L153.991 23.4722C153.527 23.8546 153.218 23.5476 152.985 23.3177C152.292 22.551 150.977 21.707 149.663 21.707C146.959 21.707 144.793 23.9319 144.793 26.6918C144.793 29.53 146.882 31.754 149.51 31.754C151.596 31.754 152.445 30.6048 153.296 29.7598C153.603 29.4527 153.991 29.4527 154.376 29.6825L155.46 30.5275C155.845 30.8346 156 31.218 155.767 31.6777C154.454 33.6708 152.292 34.9745 149.51 34.9745C145.027 34.9745 141.317 31.4478 141.317 26.6918C141.395 22.0903 145.181 18.4101 149.588 18.4101H149.586ZM133.976 11.3529C133.976 10.9705 134.285 10.5871 134.748 10.5871H136.68C137.094 10.6154 137.423 10.9421 137.452 11.3529V33.9036C137.423 34.3144 137.094 34.641 136.68 34.6694H134.75C134.323 34.6694 133.976 34.3251 133.976 33.9016V11.3529ZM125.475 11.3529C125.475 10.9705 125.785 10.5871 126.248 10.5871H128.18C128.594 10.6154 128.923 10.9421 128.952 11.3529V33.9036C128.923 34.3144 128.594 34.641 128.18 34.6694H126.25C125.823 34.6694 125.475 34.3251 125.475 33.9016V11.3529ZM113.575 32.2136C115.197 32.2136 116.819 31.0645 117.283 30.2977V27.6894C117.053 27.5358 115.815 27.1515 114.347 27.1515C112.492 27.1515 111.025 28.151 111.025 29.7598C111.025 31.1407 111.874 32.2136 113.575 32.2136ZM114.039 24.6214C115.661 24.6214 117.283 25.0811 117.283 25.0811C117.361 22.551 116.743 21.4791 114.733 21.4791C112.879 21.4791 111.103 22.015 110.253 22.2449C109.788 22.3202 109.479 22.015 109.325 21.5544L109.015 20.2507C108.939 19.7138 109.168 19.484 109.557 19.3285C109.865 19.2531 112.107 18.4101 115.042 18.4101C120.143 18.4101 120.684 21.4771 120.684 25.3881V33.8244C120.655 34.2361 120.326 34.5638 119.911 34.5921H118.752C118.443 34.5921 118.289 34.4395 118.058 34.0562L117.67 32.9813C116.358 34.2801 114.576 34.998 112.726 34.9745C109.71 34.9745 107.547 32.9813 107.547 29.6845C107.625 26.8463 109.943 24.6234 114.039 24.6234V24.6214ZM80.0372 19.5593C80.0372 19.1759 80.3447 18.7935 80.8088 18.7935H81.5814C81.9677 18.7935 82.2012 18.9461 82.2771 19.2531L82.7412 20.6331C83.0487 20.2507 84.7495 18.4101 87.8418 18.4101C90.1595 18.4101 91.5499 19.3285 92.7098 20.9412C93.1739 20.4805 95.0285 18.4101 98.1178 18.4101C102.989 18.4101 104.224 21.7842 104.224 25.926V33.9016C104.224 34.3251 103.878 34.6694 103.451 34.6694H101.52C101.056 34.6694 100.746 34.3623 100.746 33.9016V25.7725C100.746 23.2414 99.7428 21.707 97.5788 21.707C95.1822 21.707 94.0234 23.3177 93.7139 23.5476C93.7918 23.8546 93.8677 24.8512 93.8677 25.6952V33.9036C93.8677 34.284 93.5592 34.6694 93.1739 34.6694H91.1637C90.6995 34.6694 90.3921 34.3623 90.3921 33.9016V25.7725C90.3921 23.1642 89.4638 21.707 87.222 21.707C84.8274 21.707 83.5907 23.4722 83.437 24.0101V33.9016C83.4094 34.3134 83.0783 34.642 82.6634 34.6694H80.7329C80.3053 34.6694 79.9594 34.3251 79.9594 33.9016V19.5593H80.0372ZM65.4303 33.441C65.1997 33.2884 64.9662 32.9813 65.1219 32.597L65.8166 31.1407C65.9723 30.8346 66.4364 30.6821 66.8227 30.9119C67.748 31.4478 68.9088 32.061 70.7624 32.061C72.077 32.061 72.8486 31.4459 72.8486 30.5275C72.8486 29.4547 71.6128 28.7642 69.4489 27.7666C66.9764 26.6918 65.1219 25.3901 65.1219 22.7818C65.1219 20.7867 66.5123 18.4854 70.3761 18.4854C72.617 18.4854 74.241 19.1759 75.0126 19.6365C75.3988 19.9426 75.5545 20.4033 75.323 20.7867L74.781 21.8595C74.5504 22.3202 74.0872 22.3202 73.7768 22.1676C72.6968 21.707 71.6128 21.4018 70.3761 21.4018C68.9867 21.4018 68.3669 22.0903 68.3669 22.7818C68.3669 23.7774 69.5267 24.3906 71.0728 25.083C74.0094 26.3084 76.2493 27.3823 76.2493 30.2967C76.2493 32.7515 74.0872 34.8992 70.5299 34.8992C68.1363 35.0527 66.3586 34.0562 65.4303 33.441ZM22.7683 7.4702L31.6549 11.7558C32.0944 11.968 32.2787 12.4932 32.0638 12.9294C31.9801 13.1015 31.8431 13.2424 31.6706 13.3294L23.0502 17.7089C22.7949 17.8341 22.4954 17.8341 22.2401 17.7089L13.3546 13.4252C12.9151 13.213 12.7308 12.6869 12.9446 12.2507C13.0284 12.0785 13.1663 11.9397 13.3378 11.8526L21.9583 7.47215C22.2135 7.34599 22.5131 7.34501 22.7683 7.4702ZM22.8324 23.7461L43.8663 13.0595C44.2998 12.8375 44.4713 12.3084 44.2466 11.8761C44.1599 11.7069 44.02 11.5719 43.8475 11.4888L22.995 1.43398C22.7407 1.30781 22.4421 1.30781 22.1879 1.43398L1.15403 12.1157C0.719454 12.3377 0.547005 12.8668 0.769711 13.2981C0.857414 13.4683 0.998329 13.6062 1.17176 13.6893L22.0332 23.7422C22.2845 23.8654 22.5801 23.8654 22.8324 23.7422V23.7461ZM40.5069 31.4459C40.3483 35.0928 38.3508 38.4151 35.1935 40.2851C32.2658 41.7785 29.891 40.2479 29.8929 36.8572C30.0496 33.2112 32.0471 29.8869 35.2063 28.017C38.1331 26.5236 40.5069 28.061 40.5069 31.4439V31.4459ZM46.7151 40.6205V16.8522C46.7112 16.3612 46.3072 15.9661 45.8125 15.97C45.6706 15.971 45.5306 16.0052 45.4045 16.0698L24.1834 26.905C23.8868 27.0537 23.7005 27.3549 23.6995 27.6845V51.4528C23.7035 51.9438 24.1075 52.3389 24.6022 52.335C24.7441 52.334 24.884 52.2998 25.0102 52.2352L46.2382 41.401C46.5318 41.2494 46.7151 40.9491 46.7151 40.6205ZM13.8985 42.7076L4.3468 38.1198C3.90632 37.9085 3.72106 37.3843 3.93194 36.9471C3.95066 36.9109 3.97037 36.8757 3.99303 36.8425L8.77431 29.8116C9.05417 29.4028 9.61488 29.2962 10.0268 29.574C10.1716 29.6718 10.285 29.8087 10.352 29.9691L15.1342 41.5799C15.3313 42.0239 15.1283 42.5433 14.6809 42.7389C14.4287 42.8494 14.139 42.8367 13.8985 42.7056V42.7076Z" fill="#636363"/>
</g>
</g>
<defs>
<clipPath id="clip0_215_1537">
<rect width="204.134" height="51.8267" fill="white" transform="translate(0.254883 0.923828)"/>
</clipPath>
</defs>
</svg>
