<svg width="226" height="32" viewBox="0 0 226 32" fill="none" xmlns="http://www.w3.org/2000/svg">
<g clip-path="url(#clip0_215_1547)">
<mask id="mask0_215_1547" style="mask-type:luminance" maskUnits="userSpaceOnUse" x="0" y="0" width="225" height="32">
<path d="M224.927 0.337219H0.952148V31.3372H224.927V0.337219Z" fill="white"/>
</mask>
<g mask="url(#mask0_215_1547)">
<path d="M122.3 30.8798L127.913 9.88269H138.474C142.133 9.88269 144.752 10.4232 146.291 11.4211C148.952 13.2089 149.7 16.2442 148.536 20.6099C147.414 24.7678 145.127 27.7199 141.634 29.4246C140.345 30.0483 138.848 30.4641 137.185 30.672C136.187 30.7967 134.732 30.8383 132.82 30.8383L122.3 30.8798ZM136.395 14.5394H132.57L129.41 26.3478H133.235C135.647 26.3478 137.56 25.9736 138.931 25.2668C140.677 24.352 141.883 22.772 142.465 20.5268C143.505 16.5352 141.509 14.5394 136.395 14.5394Z" fill="#636363"/>
<path d="M148.12 30.9213L152.028 16.2857H157.6L153.692 30.9213H148.12ZM152.402 14.0405L153.525 9.92419H159.554L158.473 14.0405H152.402Z" fill="#636363"/>
<path d="M171.072 20.9424C170.489 20.8593 169.949 20.8177 169.367 20.8177C166.415 20.8177 164.461 22.4808 163.546 25.8487L162.174 30.9213H156.602L159.596 19.7366C159.97 18.4061 160.22 17.2419 160.345 16.2856H165.791C165.708 16.9509 165.542 17.6993 165.292 18.4893L165.126 19.1545C166.789 17.1172 168.993 16.0777 171.737 16.1193H172.319L171.072 20.9424Z" fill="#636363"/>
<path d="M188.326 26.2647C187.162 29.6325 183.794 31.2957 178.306 31.2957C175.603 31.2957 173.566 30.7552 172.277 29.6742C170.78 28.3852 170.364 26.4726 171.03 23.8531C171.778 21.1505 173.233 19.0715 175.478 17.741C177.475 16.5353 179.886 15.9116 182.713 15.9116C188.493 15.9116 190.613 18.7389 189.116 24.3936L188.992 24.8926H176.352C176.102 25.9736 176.269 26.8052 176.809 27.4289C177.35 28.011 178.182 28.302 179.262 28.302C181.134 28.302 182.34 27.6368 182.838 26.3062L188.326 26.2647ZM177.142 21.8989H184.293C184.543 20.9426 184.376 20.1942 183.836 19.6536C183.337 19.1963 182.588 18.9468 181.591 18.9468C179.304 18.9468 177.848 19.9447 177.142 21.8989Z" fill="#636363"/>
<path d="M203.544 21.4832C203.71 19.9032 202.878 19.1132 200.966 19.0717C199.677 19.0717 198.638 19.5706 197.723 20.5269C196.974 21.3585 196.434 22.4395 196.06 23.77C195.311 26.5558 196.143 27.9279 198.555 27.9279C200.675 27.9279 202.006 27.0132 202.546 25.2253H208.284C206.995 29.2584 203.419 31.2542 197.598 31.2542C194.854 31.2542 192.817 30.7136 191.528 29.6326C189.989 28.3852 189.573 26.4311 190.28 23.8116C190.988 21.109 192.484 19.0717 194.729 17.6995C196.725 16.4938 199.137 15.8701 201.964 15.8701C207.328 15.8701 209.739 17.7411 209.116 21.4416L203.544 21.4832Z" fill="#636363"/>
<path d="M221.008 11.213L219.635 16.3688H224.209L223.294 19.8199H218.721L217.182 25.5161C216.975 26.3061 217.016 26.8466 217.307 27.1376C217.557 27.3871 218.097 27.5119 218.928 27.5119C219.469 27.5119 220.259 27.4703 221.257 27.3871L220.301 30.9629C219.012 31.2124 217.764 31.3371 216.6 31.3371C212.318 31.3371 210.613 29.7987 211.444 26.6803L213.274 19.8199H209.906L210.82 16.3688H214.188L215.02 13.2504L218.221 12.2941C219.095 12.0446 220.009 11.6704 221.008 11.213Z" fill="#636363"/>
<path d="M43.1751 28.2189C44.963 30.0483 47.8319 30.9631 51.9066 30.9631C56.1061 30.9631 59.4323 30.2978 61.8855 29.0089C64.3386 27.6784 66.0849 25.6826 67.0828 22.9384H59.3908C58.8502 24.1441 58.1019 25.1005 57.1455 25.7241C56.1476 26.3479 54.9834 26.6805 53.6114 26.6805C51.7403 26.6805 50.4514 26.1399 49.7445 25.0173C49.0377 23.9363 48.9545 22.3563 49.495 20.2774C50.0771 18.1568 50.9919 16.4937 52.3224 15.3711C53.6529 14.2069 55.2745 13.6248 57.1455 13.6248C58.3097 13.6248 59.1828 13.8742 59.7649 14.3732C60.3055 14.8721 60.555 15.6621 60.4718 16.66H68.1639C68.6628 14.2069 68.0807 12.3774 66.4175 11.13C64.7544 9.88268 62.0518 9.25903 58.3097 9.25903C53.9855 9.25903 50.4098 10.2153 47.5409 12.1695C44.6719 14.1237 42.7593 16.9094 41.803 20.4852C40.9714 23.8115 41.4288 26.3894 43.1751 28.2189Z" fill="#636363"/>
<path d="M36.8557 30.8798L42.4688 9.92419H35.0263L29.4131 30.8798H36.8557Z" fill="#636363"/>
<path d="M80.8047 28.2189C82.5919 30.0483 85.4609 30.9631 89.5359 30.9631C93.7356 30.9631 97.0619 30.2978 99.5148 29.0089C101.968 27.6784 103.714 25.6826 104.712 22.9384H97.02C96.4799 24.1441 95.7312 25.1005 94.7748 25.7241C93.7766 26.3479 92.6126 26.6805 91.2409 26.6805C89.3692 26.6805 88.0804 26.1399 87.3736 25.0173C86.6668 23.9363 86.5839 22.3563 87.1241 20.2774C87.7061 18.1568 88.6624 16.4937 89.9512 15.3711C91.2819 14.2069 92.904 13.6248 94.7748 13.6248C95.9389 13.6248 96.8123 13.8742 97.3944 14.3732C97.9345 14.8721 98.1841 15.6621 98.1011 16.66H105.793C106.292 14.2069 105.71 12.3774 104.047 11.13C102.384 9.88268 99.6814 9.25903 95.9389 9.25903C91.6144 9.25903 88.0393 10.2153 85.1703 12.1695C82.3012 14.1237 80.3885 16.9094 79.4322 20.4852C78.6006 23.8115 79.0168 26.3894 80.8047 28.2189Z" fill="#636363"/>
<path d="M112.071 30.8798L117.685 9.92419H110.242L104.629 30.8798H112.071Z" fill="#636363"/>
<path d="M74.4426 30.8798L80.097 9.92419H72.6546L67 30.8798H74.4426Z" fill="#636363"/>
<path fill-rule="evenodd" clip-rule="evenodd" d="M9.03897 6.97209C13.5295 2.73106 18.4358 0.361084 22.4689 0.361084C24.7557 0.361084 26.8347 1.19266 28.082 2.98054C31.533 7.80366 28.5394 17.4083 21.4294 24.4351C20.0574 25.8072 18.6852 26.8883 17.1884 27.8862C15.4837 28.8424 12.1574 31.4619 7.20954 31.0462C5.1306 30.9214 3.55062 29.9651 2.38641 28.4267C-1.06462 23.6035 1.92905 13.9573 9.03897 6.97209Z" fill="white"/>
<path fill-rule="evenodd" clip-rule="evenodd" d="M22.2195 3.1052C23.0094 3.93677 22.552 5.72465 21.0553 7.09675C19.6831 8.46883 17.8537 9.00939 17.0637 8.17781C16.2737 7.34622 16.7311 5.55834 18.1031 4.18624C19.5584 2.68941 21.3879 2.27362 22.2195 3.1052ZM9.03897 6.97201C1.92905 13.9988 -1.06462 23.6035 2.38641 28.4266C3.55062 29.9235 5.1306 30.9214 7.20954 31.046C8.58164 31.1708 9.74584 29.5492 10.6606 27.4703C11.5753 25.3913 12.1574 23.354 12.6147 21.5661C13.28 18.6972 13.28 16.4935 12.9474 16.0777C12.3653 15.3709 11.1179 15.5372 9.62107 16.3688C8.95581 16.7846 7.99954 16.4935 9.16374 15.1214C10.2032 13.8741 14.6521 10.5894 16.149 10.1736C17.9784 9.63303 19.9326 10.2983 19.2258 12.2525C18.7684 13.6246 12.6979 29.5908 17.1469 27.9277C18.6437 26.9713 20.0158 25.8487 21.3879 24.4766C28.4978 17.4498 31.4499 7.84516 28.0404 3.02204C26.7931 1.23416 24.7141 0.402586 22.4273 0.402586C18.4358 0.361007 13.4879 2.68941 9.03897 6.97201Z" fill="#636363"/>
<path fill-rule="evenodd" clip-rule="evenodd" d="M22.2195 3.10532C23.0095 3.93688 22.5521 5.72477 21.0553 7.09687C19.6832 8.46898 17.8537 9.00947 17.0637 8.17789C16.2738 7.34633 16.7311 5.55845 18.1032 4.18636C19.5584 2.68953 21.3879 2.27374 22.2195 3.10532ZM13.7374 3.27163C12.9475 3.97846 12.1159 4.51899 11.3258 5.35056C5.13067 11.3795 2.63594 19.7783 5.71276 24.061C6.87697 25.7241 8.8312 26.3894 11.118 26.3894C11.8248 24.6015 12.2406 23.1046 12.6148 21.5662C13.2801 18.6973 13.2801 16.4936 12.9475 16.0779C12.3654 15.371 11.118 15.5373 9.62116 16.3689C8.9559 16.7847 7.99959 16.4936 9.16383 15.1215C10.2033 13.8742 14.6521 10.5895 16.149 10.1737C17.9784 9.63319 19.9327 10.2984 19.2258 12.2526C18.8932 13.209 15.8995 21.0673 15.5669 25.3083C17.9784 24.352 20.39 22.6888 22.6769 20.4852C26.1279 17.2004 28.4147 13.3337 29.3294 9.75788C29.662 7.13844 29.2047 4.81004 28.082 3.02216C25.2963 -0.719921 19.5584 -0.470448 13.7374 3.27163Z" fill="#818181"/>
</g>
</g>
<defs>
<clipPath id="clip0_215_1547">
<rect width="224.75" height="31" fill="white" transform="translate(0.564941 0.337219)"/>
</clipPath>
</defs>
</svg>
