<svg width="413" height="42" viewBox="0 0 413 42" fill="none" xmlns="http://www.w3.org/2000/svg">
<g clip-path="url(#clip0_215_1566)">
<path d="M380.491 39.7431C380.491 38.8279 381.234 38.0842 382.207 38.0842C383.179 38.0842 383.923 38.8279 383.923 39.7431C383.923 40.6584 383.179 41.4592 382.207 41.4592C381.234 41.4592 380.491 40.7156 380.491 39.7431ZM380.834 39.7431C380.834 40.4868 381.463 41.116 382.264 41.116C383.008 41.116 383.637 40.544 383.637 39.7431C383.637 38.9995 383.008 38.4275 382.264 38.4275C381.406 38.4275 380.834 39.0567 380.834 39.7431Z" fill="#636363"/>
<path d="M383.064 40.7155H382.721L382.149 39.8575H381.806V40.7155H381.577V38.8278H382.435C382.607 38.8278 382.778 38.8278 382.893 38.9422C383.064 38.9994 383.122 39.171 383.122 39.3427C383.122 39.6859 382.836 39.8575 382.492 39.8575L383.064 40.7155ZM382.149 39.6287C382.435 39.6287 382.778 39.6859 382.778 39.3427C382.778 39.1138 382.55 39.0566 382.321 39.0566H381.806V39.6287H382.149Z" fill="#636363"/>
<path d="M374.026 41.4591C386.039 31.1624 402.914 21.1518 412.181 17.5479C410.751 16.6327 408.52 15.317 406.003 13.8869C394.048 17.834 380.09 26.5861 367.62 36.4823C369.736 38.084 371.967 39.7429 374.026 41.4591Z" fill="#636363"/>
<path d="M368.535 13.4867C366.761 12.6287 364.816 11.8278 363.329 11.1414C358.81 13.3723 352.918 16.7473 345.481 22.0673C347.083 22.9253 348.799 23.955 350.63 24.9846C356.35 20.7516 362.128 16.7473 368.535 13.4867Z" fill="#636363"/>
<path d="M379.232 8.56716C377.059 7.36589 369.508 4.56291 364.302 3.36163C362.758 3.93367 360.584 4.79172 359.097 5.42096C360.984 5.9358 368.02 7.82352 374.027 10.8553C375.571 10.1117 377.745 9.1964 379.232 8.56716Z" fill="#636363"/>
<path d="M353.662 7.82349C346.969 10.9125 339.933 15.1456 336.1 17.6053C337.473 18.2345 338.846 18.7494 340.734 19.6646C349.2 13.9443 355.835 10.4549 358.467 9.31078C356.579 8.62434 354.806 8.16671 353.662 7.82349Z" fill="#636363"/>
<path d="M384.266 6.79381C385.81 6.27898 387.584 5.82135 389.128 5.36372C384.666 3.476 379.06 1.47387 374.026 0.215393C373.226 0.444208 370.823 1.07345 369.164 1.58828C370.88 2.10311 376.543 3.4188 384.266 6.79381ZM356.064 28.3024C357.895 29.3893 359.84 30.8765 361.728 32.135C374.255 22.4104 386.611 14.9167 400.168 10.6837C398.281 9.7112 396.622 8.85314 394.505 7.82348C386.382 9.88281 372.482 15.4316 356.064 28.3024Z" fill="#636363"/>
<path d="M0.314941 38.4846H9.46752C14.101 38.4846 16.2748 36.082 16.2748 32.707C16.2748 29.9612 14.8447 28.1307 11.8701 27.5587C14.5014 26.9294 15.7027 25.3277 15.7027 22.9824C15.7027 20.0078 13.529 17.6052 8.89549 17.6052H0.372145V38.4846H0.314941ZM8.26625 29.618C9.98236 29.618 11.1836 30.4761 11.1836 32.1922C11.1836 34.0227 10.0396 34.7663 8.26625 34.7663H5.29166V29.5608H8.26625V29.618ZM7.69421 21.2663C9.41032 21.2663 10.6116 22.0099 10.6116 23.726C10.6116 25.4421 9.46752 26.1858 7.69421 26.1858H5.29166V21.2663H7.69421ZM34.7515 17.548H29.6032L21.7663 38.4846H26.9718L28.4019 34.1371H35.9528L37.3829 38.4846H42.6456L34.7515 17.548ZM32.1774 22.582L34.6371 30.3044H29.6032L32.1774 22.582ZM68.7305 17.548H63.9826V31.5629L55.0588 17.548H49.7389V38.4846H54.4868V24.5269L63.4106 38.4846H68.7305V17.548ZM90.6395 38.4846L83.775 27.8447V38.4846H78.6839V17.548H83.775V27.6159L90.2963 17.548H95.9594L89.095 27.6159L96.5887 38.4846H90.6395ZM114.608 28.0163C114.608 32.1922 117.125 34.7663 120.385 34.7663C123.646 34.7663 126.163 32.1922 126.163 28.0163C126.163 23.8404 123.646 21.2663 120.385 21.2663C117.125 21.2663 114.608 23.8404 114.608 28.0163ZM109.231 28.0163C109.288 21.8955 113.578 17.0904 120.385 17.0904C127.193 17.0904 131.483 21.8955 131.54 28.0163C131.483 34.1371 127.193 38.9422 120.385 38.9422C113.578 38.9422 109.288 34.1371 109.231 28.0163ZM138.519 38.4846H143.61V30.2472H150.246V26.243H143.61V21.5523H151.619L152.534 17.548H138.519V38.4846ZM176.273 17.548H171.125L163.288 38.4846H168.494L169.924 34.1371H177.475L178.905 38.4846H184.167L176.273 17.548ZM173.699 22.582L176.159 30.3044H171.125L173.699 22.582ZM214.371 17.548H208.422L202.987 28.8744L197.553 17.548H191.604V38.4846H196.18V24.4697L202.93 38.4846L209.68 24.4697V38.4846H214.428L214.371 17.548ZM224.267 38.4846H238.568V34.4803H229.358V29.7896H236.623V25.8998H229.358V21.5523H237.767L238.683 17.548H224.267V38.4846ZM257.96 38.4846H263.509L258.303 29.618C261.164 28.8172 262.536 26.815 262.536 23.8976C262.536 20.1222 260.248 17.6052 255.1 17.6052H247.034V38.5418H252.011V30.3044H253.384L257.96 38.4846ZM254.127 21.4379C256.244 21.4379 257.331 22.3531 257.331 24.1265C257.331 25.8998 256.244 26.815 254.127 26.815H251.954V21.4379H254.127ZM271.117 38.4846H276.208V17.6052H271.117V38.4846ZM301.263 32.8786C299.318 34.2515 297.602 34.7091 295.829 34.7091C291.939 34.7091 289.193 32.0206 289.193 28.0163C289.193 24.012 291.882 21.3235 295.657 21.3235C297.373 21.3235 299.09 21.7811 300.977 23.154V18.4061C299.261 17.4336 297.259 17.0332 295.028 17.0332C288.106 17.0332 283.759 21.8383 283.702 27.9591C283.759 34.1371 287.992 38.885 295.028 38.885C297.373 38.885 299.376 38.4846 301.206 37.5121V32.8786H301.263ZM319.912 17.548H314.763L306.926 38.4846H312.132L313.562 34.1371H321.113L322.543 38.4846H327.806L319.912 17.548ZM317.338 22.582L319.797 30.3044H314.763L317.338 22.582Z" fill="#636363"/>
</g>
<defs>
<clipPath id="clip0_215_1566">
<rect width="411.866" height="41.2438" fill="white" transform="translate(0.314941 0.215271)"/>
</clipPath>
</defs>
</svg>
