<svg width="71" height="62" viewBox="0 0 71 62" fill="none" xmlns="http://www.w3.org/2000/svg">
<path d="M5.83342 59.8372H66.0959C67.0645 59.8372 67.9935 59.5069 68.6784 58.919C69.3634 58.331 69.7482 57.5336 69.7482 56.7021V4.97235C69.7482 4.14086 69.3634 3.34343 68.6784 2.75548C67.9935 2.16753 67.0645 1.83722 66.0959 1.83722H5.83342C4.86478 1.83722 3.93581 2.16753 3.25088 2.75548C2.56594 3.34343 2.18115 4.14086 2.18115 4.97235V56.7021C2.18115 57.5336 2.56594 58.331 3.25088 58.919C3.93581 59.5069 4.86478 59.8372 5.83342 59.8372Z" stroke="#636363" stroke-width="2.39175" stroke-linecap="round" stroke-linejoin="round"/>
<path d="M16.7905 22.888V40.4181M22.7565 40.4181V22.888L36.2863 40.4181V11.8508M41.6095 40.4181V22.8896H46.2041C48.5739 22.8896 50.8466 23.6977 52.5223 25.1361C54.198 26.5745 55.1394 28.5254 55.1394 30.5597V32.7511C55.1389 34.7851 54.1973 36.7356 52.5216 38.1737C50.846 39.6118 48.5736 40.4197 46.2041 40.4197L41.6095 40.4181Z" stroke="#636363" stroke-width="2.39175" stroke-linecap="round" stroke-linejoin="round"/>
<path d="M43.8151 18.3122L36.286 11.8506L28.7568 18.3122" stroke="#636363" stroke-width="2.39175" stroke-linecap="round" stroke-linejoin="round"/>
</svg>
