<svg width="202" height="70" viewBox="0 0 202 70" fill="none" xmlns="http://www.w3.org/2000/svg">
<g clip-path="url(#clip0_223_2795)">
<path opacity="0.952" fill-rule="evenodd" clip-rule="evenodd" d="M106.134 25.1079C106.931 25.1079 107.729 25.1079 108.526 25.1079C109.179 25.5874 109.914 25.8023 110.733 25.7526C110.956 25.5612 111.139 25.3463 111.285 25.1079C111.653 25.1079 112.021 25.1079 112.388 25.1079C112.388 27.3798 112.388 29.6518 112.388 31.9237C111.898 31.9237 111.407 31.9237 110.917 31.9237C110.739 29.8828 109.942 28.1328 108.526 26.6737C106.869 25.8749 105.827 26.3661 105.399 28.1474C105.453 28.4952 105.545 28.8329 105.675 29.1605C106.054 29.6028 106.361 30.094 106.594 30.6342C108.434 32.4154 110.212 34.2576 111.929 36.1605C113.51 38.5247 113.816 41.0422 112.848 43.7132C112.267 44.8803 111.378 45.6785 110.181 46.1079C109.384 46.1079 108.587 46.1079 107.79 46.1079C107.052 45.7865 106.286 45.4794 105.491 45.1869C104.955 45.3252 104.556 45.6323 104.295 46.1079C103.866 46.1079 103.437 46.1079 103.007 46.1079C102.948 43.7292 103.009 41.3652 103.191 39.0158C103.633 38.8658 104.062 38.8965 104.479 39.1079C104.925 41.014 105.783 42.7027 107.054 44.1737C107.879 44.7792 108.798 44.9634 109.813 44.7263C110.273 44.5114 110.61 44.1737 110.825 43.7132C111.094 42.4296 110.849 41.263 110.089 40.2132C108.317 38.2537 106.477 36.3502 104.571 34.5026C102.996 32.4295 102.628 30.1576 103.467 27.6869C104.099 26.532 104.988 25.6724 106.134 25.1079Z" fill="white" fill-opacity="0.6"/>
<path opacity="0.948" fill-rule="evenodd" clip-rule="evenodd" d="M153.224 25.1079C154.143 25.1079 155.063 25.1079 155.983 25.1079C155.952 31.4942 155.983 37.8801 156.075 44.2658C156.29 44.5224 156.566 44.676 156.902 44.7263C157.148 45.0948 157.148 45.4632 156.902 45.8316C155.827 45.8635 154.784 45.9556 153.775 46.1079C153.469 46.1079 153.162 46.1079 152.856 46.1079C152.73 45.7553 152.638 45.3869 152.58 45.0026C152.073 45.4228 151.551 45.7913 151.016 46.1079C150.342 46.1079 149.667 46.1079 148.993 46.1079C146.937 44.8166 145.925 42.9131 145.958 40.3974C145.547 37.4597 146.252 34.8501 148.073 32.5684C149.713 31.3741 151.216 31.5277 152.58 33.029C152.703 31.064 152.703 29.0991 152.58 27.1342C152.346 26.6327 151.947 26.3871 151.384 26.3974C151.384 26.029 151.384 25.6605 151.384 25.2921C152.036 25.3497 152.649 25.2883 153.224 25.1079ZM150.832 33.5816C151.58 33.6229 152.101 33.9913 152.396 34.6869C152.761 37.5743 152.761 40.4603 152.396 43.3448C151.436 44.8601 150.577 44.7985 149.821 43.1605C149.456 40.3367 149.456 37.5122 149.821 34.6869C149.954 34.0991 150.292 33.7306 150.832 33.5816Z" fill="white" fill-opacity="0.6"/>
<path opacity="0.948" fill-rule="evenodd" clip-rule="evenodd" d="M185.597 25.1079C186.517 25.1079 187.437 25.1079 188.356 25.1079C188.326 31.4942 188.356 37.8801 188.448 44.2658C188.579 44.4281 188.732 44.5508 188.908 44.6342C188.908 45.064 188.908 45.4939 188.908 45.9237C187.953 45.8646 187.033 45.9261 186.149 46.1079C185.781 46.1079 185.413 46.1079 185.045 46.1079C185.075 45.7345 185.044 45.3661 184.953 45.0026C184.446 45.4228 183.925 45.7913 183.39 46.1079C182.715 46.1079 182.041 46.1079 181.367 46.1079C180.274 45.6527 179.508 44.8545 179.067 43.7132C178.049 40.8478 177.988 37.9618 178.883 35.0553C179.423 33.1632 180.649 32.058 182.562 31.7395C183.569 31.7831 184.366 32.2129 184.953 33.029C185.076 31.064 185.076 29.0991 184.953 27.1342C184.719 26.6327 184.321 26.3871 183.758 26.3974C183.758 26.029 183.758 25.6605 183.758 25.2921C184.409 25.3497 185.022 25.2883 185.597 25.1079ZM183.206 33.5816C184.251 33.7378 184.833 34.3518 184.953 35.4237C185.124 38.0742 185.063 40.7146 184.769 43.3448C183.8 44.8575 182.941 44.7961 182.194 43.1605C181.826 40.3974 181.826 37.6342 182.194 34.8711C182.276 34.2044 182.614 33.7745 183.206 33.5816Z" fill="white" fill-opacity="0.6"/>
<path opacity="0.96" fill-rule="evenodd" clip-rule="evenodd" d="M12.5082 25.2921C14.9002 25.2615 17.2915 25.2922 19.6819 25.3842C23.5949 26.1704 24.9745 28.473 23.8206 32.2921C22.9112 33.7135 21.6543 34.6653 20.0498 35.1474C24.5794 36.4121 25.8977 39.206 24.0045 43.529C22.7263 45.0132 21.1015 45.7808 19.1301 45.8316C16.9236 45.9237 14.7163 45.9545 12.5082 45.9237C12.5082 45.494 12.5082 45.064 12.5082 44.6342C12.8049 44.5525 13.0195 44.3682 13.152 44.0816C13.2746 38.3711 13.2746 32.6606 13.152 26.95C13.0019 26.7064 12.7873 26.5836 12.5082 26.5816C12.5082 26.1518 12.5082 25.722 12.5082 25.2921ZM17.2907 26.3974C18.183 26.2655 18.9495 26.5111 19.5899 27.1342C20.4984 29.384 20.4371 31.5946 19.406 33.7658C18.7655 34.3889 17.9991 34.6345 17.1067 34.5027C17.0486 31.7865 17.1099 29.0847 17.2907 26.3974ZM17.1067 35.6079C18.948 35.7628 20.0823 36.7452 20.5096 38.5553C20.7185 40.2451 20.5959 41.903 20.1418 43.529C19.3538 44.654 18.3728 44.8995 17.1987 44.2658C17.1067 41.3805 17.0761 38.4945 17.1067 35.6079Z" fill="white" fill-opacity="0.6"/>
<path opacity="0.932" fill-rule="evenodd" clip-rule="evenodd" d="M50.4001 25.1079C50.5228 25.1079 50.6453 25.1079 50.768 25.1079C52.5662 25.8246 52.8726 26.9606 51.6877 28.5158C50.0937 29.1914 49.1127 28.7002 48.7446 27.0421C48.8807 26.017 49.4326 25.3723 50.4001 25.1079Z" fill="white" fill-opacity="0.6"/>
<path opacity="0.963" fill-rule="evenodd" clip-rule="evenodd" d="M119.562 46.108C118.765 46.108 117.968 46.108 117.171 46.108C116.089 45.5416 115.568 44.6205 115.607 43.3448C115.515 40.091 115.485 36.8366 115.515 33.5817C115.086 33.5817 114.657 33.5817 114.228 33.5817C114.198 33.0867 114.228 32.5954 114.32 32.108C116.447 30.6737 117.52 28.6473 117.539 26.0291C117.968 26.0291 118.397 26.0291 118.826 26.0291C118.826 28.0554 118.826 30.0817 118.826 32.108C119.685 32.108 120.543 32.108 121.402 32.108C121.451 32.5905 121.39 33.051 121.218 33.4896C120.423 33.5815 119.626 33.6122 118.826 33.5817C118.796 36.898 118.826 40.2138 118.918 43.5291C119.078 44.3193 119.446 44.442 120.022 43.8975C120.385 43.0776 120.538 42.2179 120.482 41.3185C120.85 41.3185 121.218 41.3185 121.586 41.3185C121.713 42.6128 121.499 43.8409 120.942 45.0027C120.549 45.4914 120.089 45.8599 119.562 46.108Z" fill="white" fill-opacity="0.6"/>
<path opacity="0.936" fill-rule="evenodd" clip-rule="evenodd" d="M44.33 46.1078C43.5942 46.1078 42.8585 46.1078 42.1227 46.1078C41.6266 45.8444 41.1053 45.5988 40.5592 45.371C40.3061 45.5929 40.0916 45.8385 39.9154 46.1078C39.4863 46.1078 39.0569 46.1078 38.6278 46.1078C38.6278 44.1428 38.6278 42.178 38.6278 40.2131C39.0569 40.2131 39.4863 40.2131 39.9154 40.2131C40.1082 42.0608 40.9054 43.5652 42.3066 44.7262C44.6127 45.242 45.3178 44.4131 44.422 42.2394C43.0259 41.2179 41.6463 40.1741 40.2833 39.1078C38.2916 37.0901 38.1383 34.9409 39.8234 32.6604C40.4784 32.0889 41.2449 31.7819 42.1227 31.7394C42.9429 31.9109 43.7401 32.1565 44.5139 32.4762C44.8945 32.4237 45.1397 32.2088 45.2497 31.8315C45.5563 31.7087 45.8628 31.7087 46.1694 31.8315C46.3506 33.5661 46.4118 35.3161 46.3534 37.0815C45.9242 37.0815 45.4949 37.0815 45.0658 37.0815C44.8494 35.5737 44.1751 34.3149 43.0424 33.3052C41.301 32.7185 40.596 33.3018 40.9271 35.0552C41.3257 35.4543 41.7241 35.8534 42.1227 36.2525C43.4817 36.9997 44.7387 37.8901 45.8935 38.9236C47.6461 41.3534 47.4314 43.5946 45.2497 45.6473C44.9159 45.7867 44.6094 45.9402 44.33 46.1078Z" fill="white" fill-opacity="0.6"/>
<path opacity="0.973" fill-rule="evenodd" clip-rule="evenodd" d="M50.952 31.9237C51.4426 31.9237 51.933 31.9237 52.4235 31.9237C52.3928 35.9154 52.4235 39.9066 52.5155 43.8974C52.6995 44.3272 53.0061 44.6342 53.4352 44.8184C53.5263 45.1819 53.557 45.5503 53.5272 45.9237C51.749 45.9237 49.9711 45.9237 48.1929 45.9237C48.1631 45.5503 48.1938 45.1819 48.2849 44.8184C48.563 44.679 48.8084 44.4948 49.0206 44.2658C49.1433 40.7658 49.1433 37.2658 49.0206 33.7658C48.8165 33.4827 48.5405 33.3599 48.1929 33.3974C48.1929 32.9676 48.1929 32.5377 48.1929 32.1079C49.1485 32.167 50.0682 32.1056 50.952 31.9237Z" fill="white" fill-opacity="0.6"/>
<path opacity="0.979" fill-rule="evenodd" clip-rule="evenodd" d="M57.7578 31.9237C58.1869 31.9237 58.6162 31.9237 59.0454 31.9237C59.015 32.4797 59.0457 33.0324 59.1373 33.5816C60.2005 32.2237 61.5801 31.7018 63.276 32.0158C64.2579 32.3856 64.8403 33.0917 65.0235 34.1342C65.0847 37.3272 65.1462 40.5202 65.2074 43.7132C65.2617 44.2533 65.5376 44.6217 66.0352 44.8184C66.2128 45.1677 66.2741 45.5361 66.2191 45.9237C64.7623 45.9817 63.3215 45.9204 61.8965 45.7395C61.8352 42.0553 61.7738 38.3711 61.7125 34.6869C61.061 33.967 60.3865 33.967 59.6892 34.6869C59.3367 35.3129 59.1528 35.9883 59.1373 36.7132C58.967 39.241 59.0283 41.7586 59.3213 44.2658C59.5336 44.4948 59.7789 44.679 60.0571 44.8184C60.1481 45.1819 60.1788 45.5503 60.149 45.9237C58.3709 45.9237 56.5929 45.9237 54.8147 45.9237C54.7849 45.5503 54.8156 45.1819 54.9067 44.8184C55.1848 44.679 55.4302 44.4948 55.6425 44.2658C55.7651 40.7658 55.7651 37.2658 55.6425 33.7658C55.4383 33.4827 55.1624 33.3599 54.8147 33.3974C54.8147 32.9676 54.8147 32.5377 54.8147 32.1079C55.8312 32.1671 56.8123 32.1057 57.7578 31.9237Z" fill="white" fill-opacity="0.6"/>
<path opacity="0.954" fill-rule="evenodd" clip-rule="evenodd" d="M73.5767 46.1079C72.7183 46.1079 71.86 46.1079 71.0016 46.1079C68.7582 45.0621 67.5013 43.2814 67.2308 40.7658C66.8517 38.1815 67.3422 35.7867 68.7023 33.5816C70.9909 31.1308 73.2594 31.1308 75.5081 33.5816C76.4885 35.4215 76.9484 37.3864 76.8877 39.4763C74.8643 39.4763 72.841 39.4763 70.8176 39.4763C70.7343 40.8788 70.949 42.2297 71.4614 43.529C72.3099 44.576 73.3216 44.7295 74.4964 43.9895C75.1975 43.1686 75.5653 42.2168 75.6001 41.1342C76.0336 41.1041 76.4628 41.1348 76.8877 41.2263C76.7448 43.5427 75.6411 45.1699 73.5767 46.1079ZM71.7373 33.029C72.8292 32.9961 73.3505 33.5487 73.3008 34.6868C73.3926 35.7904 73.4233 36.8957 73.3928 38.0026C72.5343 38.0026 71.6761 38.0026 70.8176 38.0026C70.783 36.8258 70.875 35.6591 71.0935 34.5026C71.1612 33.938 71.3759 33.4468 71.7373 33.029Z" fill="white" fill-opacity="0.6"/>
<path opacity="0.951" fill-rule="evenodd" clip-rule="evenodd" d="M83.6935 46.1079C82.9578 46.1079 82.222 46.1079 81.4862 46.1079C81.0716 45.8557 80.6118 45.6715 80.1067 45.5553C79.7051 45.5593 79.4292 45.7435 79.2789 46.1079C78.8498 46.1079 78.4205 46.1079 77.9913 46.1079C77.9913 44.1429 77.9913 42.1781 77.9913 40.2132C78.4205 40.2132 78.8498 40.2132 79.2789 40.2132C79.4178 41.8111 80.0311 43.1927 81.1183 44.3579C82.0583 45.1496 83.0085 45.1804 83.9694 44.45C84.3373 43.7745 84.3373 43.0991 83.9694 42.4237C82.4085 41.151 80.8143 39.9229 79.187 38.7395C77.8977 37.0717 77.7138 35.291 78.6351 33.3974C80.0561 31.6027 81.7728 31.2956 83.7855 32.4763C84.1692 32.3991 84.4451 32.1842 84.6132 31.8316C84.9138 31.7407 85.2204 31.71 85.5329 31.7395C85.5329 33.5202 85.5329 35.3009 85.5329 37.0816C85.1459 37.1367 84.778 37.0753 84.4293 36.8974C84.1593 35.4658 83.4849 34.2684 82.4059 33.3053C80.5358 32.7219 79.892 33.3667 80.4745 35.2395C81.8942 36.4874 83.3965 37.6233 84.9811 38.6474C87.0354 41.0996 86.9129 43.4329 84.6132 45.6474C84.2794 45.7868 83.9729 45.9403 83.6935 46.1079Z" fill="white" fill-opacity="0.6"/>
<path opacity="0.947" fill-rule="evenodd" clip-rule="evenodd" d="M93.2585 46.1078C92.5228 46.1078 91.787 46.1078 91.0512 46.1078C90.6366 45.8556 90.1768 45.6714 89.6717 45.5552C89.2701 45.5592 88.9942 45.7434 88.8439 46.1078C88.476 46.1078 88.1082 46.1078 87.7403 46.1078C87.7403 44.1428 87.7403 42.178 87.7403 40.2131C88.1273 40.158 88.4952 40.2194 88.8439 40.3973C89.1443 42.1366 89.9415 43.5796 91.2352 44.7262C93.3544 45.3058 94.1208 44.5381 93.5344 42.4236C92.36 41.36 91.1031 40.4082 89.7636 39.5683C87.7611 38.0797 87.1785 36.1454 88.0162 33.7657C89.4077 31.6547 91.2164 31.2249 93.4425 32.4762C93.823 32.4237 94.0682 32.2088 94.1782 31.8315C94.4849 31.7087 94.7913 31.7087 95.0979 31.8315C95.2791 33.5661 95.3404 35.3161 95.2819 37.0815C94.8527 37.0815 94.4234 37.0815 93.9943 37.0815C93.7669 35.7355 93.2151 34.5382 92.3388 33.4894C90.3703 32.578 89.604 33.1613 90.0395 35.2394C91.0922 36.1809 92.2266 37.0099 93.4425 37.7262C95.9906 39.4251 96.6344 41.6664 95.3739 44.4499C94.793 45.188 94.0877 45.7407 93.2585 46.1078Z" fill="white" fill-opacity="0.6"/>
<path opacity="0.959" fill-rule="evenodd" clip-rule="evenodd" d="M131.151 46.1079C130.538 46.1079 129.924 46.1079 129.311 46.1079C128.768 45.6869 128.278 45.1956 127.84 44.6342C127.256 45.2839 126.582 45.775 125.816 46.1079C125.142 46.1079 124.467 46.1079 123.793 46.1079C121.976 44.9764 121.455 43.3799 122.229 41.3184C123.334 39.1686 125.051 37.7564 127.38 37.0815C127.548 35.8945 127.487 34.7278 127.196 33.5815C126.522 32.8892 125.817 32.8586 125.081 33.4894C125.937 34.023 126.213 34.7906 125.908 35.7921C125.009 36.8539 123.998 36.9767 122.873 36.1605C122.065 34.701 122.372 33.5037 123.793 32.5684C125.667 31.5785 127.568 31.5171 129.495 32.3842C130.367 33.0564 130.827 33.9467 130.875 35.0552C130.936 38.0026 130.997 40.95 131.059 43.8973C131.345 44.053 131.529 43.9303 131.611 43.5289C131.702 43.1655 131.732 42.7971 131.702 42.4236C132.009 42.4236 132.316 42.4236 132.622 42.4236C132.879 43.992 132.388 45.22 131.151 46.1079ZM127.104 38.5552C127.347 39.2197 127.47 39.9565 127.472 40.7658C127.441 41.5026 127.411 42.2394 127.38 42.9763C126.87 44.2702 126.196 44.3929 125.356 43.3447C124.988 41.3711 125.571 39.7746 127.104 38.5552Z" fill="white" fill-opacity="0.6"/>
<path opacity="0.954" fill-rule="evenodd" clip-rule="evenodd" d="M136.117 31.9237C136.546 31.9237 136.975 31.9237 137.404 31.9237C137.178 33.8008 137.607 34.0157 138.692 32.5684C140.216 31.6302 141.657 31.7223 143.015 32.8448C143.31 33.4246 143.494 34.0386 143.567 34.6869C143.628 37.8184 143.689 40.95 143.75 44.0816C143.873 44.45 144.118 44.6956 144.486 44.8184C144.577 45.1819 144.608 45.5503 144.578 45.9237C143.168 45.9237 141.758 45.9237 140.348 45.9237C140.378 42.3004 140.348 38.6776 140.256 35.0553C140.177 34.4546 139.84 34.1476 139.244 34.1342C138.256 34.3232 137.735 34.9372 137.68 35.9763C137.558 38.6781 137.558 41.3798 137.68 44.0816C137.82 44.4749 138.096 44.7204 138.508 44.8184C138.686 45.1677 138.747 45.5361 138.692 45.9237C136.868 45.9825 135.059 45.9211 133.266 45.7395C133.119 45.4155 133.15 45.1084 133.358 44.8184C133.77 44.7204 134.046 44.4749 134.186 44.0816C134.308 40.7044 134.308 37.3272 134.186 33.95C134.015 33.483 133.677 33.2988 133.174 33.3974C133.174 32.9676 133.174 32.5377 133.174 32.1079C134.19 32.1671 135.171 32.1057 136.117 31.9237Z" fill="white" fill-opacity="0.6"/>
<path opacity="0.96" fill-rule="evenodd" clip-rule="evenodd" d="M166.835 46.1079C166.222 46.1079 165.609 46.1079 164.996 46.1079C164.453 45.687 163.962 45.1957 163.524 44.6343C162.956 45.2055 162.343 45.6966 161.685 46.1079C160.949 46.1079 160.213 46.1079 159.478 46.1079C157.66 44.9765 157.139 43.38 157.914 41.3185C159.035 39.1433 160.783 37.731 163.156 37.0816C163.365 36.0349 163.335 34.991 163.064 33.9501C162.456 32.9848 161.69 32.8313 160.765 33.4895C161.621 34.0231 161.897 34.7907 161.593 35.7922C160.489 37.0202 159.386 37.0202 158.282 35.7922C157.868 34.2551 158.389 33.1191 159.845 32.3843C161.48 31.6385 163.136 31.5771 164.812 32.2001C165.527 32.6093 166.048 33.1926 166.375 33.9501C166.437 37.0202 166.498 40.0904 166.559 43.1606C166.599 43.5076 166.722 43.8147 166.927 44.0816C167.314 43.6015 167.468 43.0488 167.387 42.4237C167.694 42.4237 168 42.4237 168.307 42.4237C168.563 43.9939 168.072 45.2221 166.835 46.1079ZM162.789 38.5553C163.032 39.1886 163.155 39.8947 163.156 40.6737C163.221 41.7277 163.067 42.7409 162.697 43.7132C161.997 44.273 161.445 44.1502 161.041 43.3448C160.673 41.3712 161.255 39.7747 162.789 38.5553Z" fill="white" fill-opacity="0.6"/>
<path opacity="0.945" fill-rule="evenodd" clip-rule="evenodd" d="M171.618 31.9237C172.108 31.9237 172.599 31.9237 173.089 31.9237C173.059 32.7243 173.089 33.5225 173.181 34.3184C173.869 32.3629 175.187 31.6568 177.136 32.2C178.397 33.3827 178.336 34.4879 176.952 35.5158C176.4 35.6386 175.848 35.6386 175.296 35.5158C174.93 35.3024 174.624 35.0261 174.377 34.6869C173.775 35.7012 173.438 36.8065 173.365 38.0027C173.242 40.029 173.242 42.0553 173.365 44.0816C173.779 44.5287 174.301 44.7129 174.929 44.6342C174.976 45.0564 174.914 45.4556 174.745 45.8316C172.784 45.9237 170.822 45.9545 168.858 45.9237C168.829 45.5503 168.859 45.1819 168.95 44.8184C169.392 44.7341 169.698 44.4883 169.87 44.0816C169.993 40.7044 169.993 37.3272 169.87 33.95C169.677 33.5243 169.339 33.2787 168.858 33.2132C168.681 32.8639 168.62 32.4955 168.675 32.1079C169.691 32.1671 170.672 32.1057 171.618 31.9237Z" fill="white" fill-opacity="0.6"/>
<path opacity="0.97" fill-rule="evenodd" clip-rule="evenodd" d="M34.5812 46.1079C34.0906 46.1079 33.6002 46.1079 33.1097 46.1079C33.14 45.552 33.1093 44.9993 33.0177 44.45C32.4322 45.1939 31.7272 45.7465 30.9024 46.1079C30.1666 46.1079 29.4308 46.1079 28.6951 46.1079C27.8266 45.7273 27.3055 45.0518 27.1316 44.0816C27.0703 40.8272 27.0089 37.5728 26.9476 34.3184C26.9718 33.6677 26.6653 33.2992 26.0279 33.2132C25.9368 32.8498 25.9061 32.4814 25.936 32.1079C27.4075 32.1079 28.879 32.1079 30.3506 32.1079C30.3199 35.854 30.3506 39.5996 30.4425 43.3448C30.803 44.0588 31.3242 44.2122 32.006 43.8053C32.6588 43.2593 32.996 42.5532 33.0177 41.6869C33.1404 39.1693 33.1404 36.6518 33.0177 34.1342C32.9971 33.5913 32.7212 33.3457 32.19 33.3974C32.19 32.9676 32.19 32.5377 32.19 32.1079C33.6002 32.1079 35.0103 32.1079 36.4206 32.1079C36.3899 36.161 36.4206 40.2136 36.5126 44.2658C36.7249 44.4948 36.9702 44.679 37.2484 44.8184C37.3394 45.1819 37.3701 45.5503 37.3403 45.9237C36.3848 45.8646 35.465 45.9261 34.5812 46.1079Z" fill="white" fill-opacity="0.6"/>
</g>
<defs>
<clipPath id="clip0_223_2795">
<rect width="176.4" height="21" fill="white" transform="translate(12.6002 25.2)"/>
</clipPath>
</defs>
</svg>
