<svg width="203" height="70" viewBox="0 0 203 70" fill="none" xmlns="http://www.w3.org/2000/svg">
<path d="M24.037 21.4808C59.3118 11.2514 79.5135 30.1385 99.7147 19.0072V48.2787C79.5135 59.3842 59.3118 40.4965 24.037 50.7259V21.4808ZM86.6503 29.0306L91.3134 38.9505L88.7118 44.8519L98.7606 29.0306H95.5907L92.8856 35.6791L89.9735 29.0306H86.6503ZM54.7499 28.6957C53.101 28.6958 51.7099 29.2632 50.6278 30.3968C49.5457 31.5305 49.0042 32.9733 48.9784 34.6996C48.9784 36.4259 49.5456 37.8686 50.6278 39.0023C51.7357 40.1359 53.101 40.7034 54.7499 40.7035C56.399 40.7035 57.7649 40.136 58.8729 39.0023C59.9808 37.8686 60.5223 36.4259 60.5223 34.6996C60.5223 32.9733 59.955 31.5305 58.8729 30.3968C57.7649 29.2631 56.399 28.6957 54.7499 28.6957ZM80.4403 28.6693C78.9974 28.6693 77.7344 29.2371 76.6522 30.3451C75.596 31.453 75.0546 32.8958 75.0546 34.6478C75.0546 36.4772 75.596 37.9461 76.704 39.0541C77.8119 40.1619 79.1518 40.7025 80.7235 40.7025C82.0119 40.7025 83.0945 40.3675 83.9706 39.6976C84.8464 39.0277 85.4134 38.1777 85.7225 37.1214L83.2489 36.3744C82.8624 37.5079 82.0119 38.1003 80.7753 38.0746C80.028 38.0746 79.3838 37.817 78.8427 37.3275C78.3015 36.8379 78.0178 36.2193 77.9921 35.472H85.8514L85.8768 35.3177V34.5443C85.8768 32.7151 85.3876 31.2979 84.4344 30.2416C83.4553 29.1851 82.1409 28.6693 80.4403 28.6693ZM42.8466 28.721C41.3264 28.7211 40.1668 29.3394 39.368 30.6019C38.8012 29.3394 37.7185 28.721 36.121 28.721C35.477 28.7211 34.8584 28.8758 34.2401 29.1849C33.6219 29.4941 33.1837 29.9061 32.9003 30.4212V29.0306H30.0663V40.3675L33.0292 33.7455C33.0292 33.1013 33.2101 32.56 33.5966 32.1478C33.9573 31.71 34.4725 31.5043 35.0907 31.5042C35.7091 31.5042 36.1991 31.7096 36.5341 32.096C36.869 32.4825 37.0233 32.9987 37.0233 33.6429V40.3675H39.9608V33.7455C39.9608 33.1014 40.1665 32.5858 40.5272 32.1478C40.8879 31.7098 41.3777 31.5043 41.996 31.5042C42.6657 31.5042 43.1555 31.7098 43.4647 32.096C43.7997 32.4825 43.955 32.9987 43.955 33.6429V40.3675H46.8407V33.0238C46.8406 31.6068 46.4535 30.5245 45.6805 29.8031C44.9076 29.0818 43.9544 28.721 42.8466 28.721ZM68.9227 28.721C68.2787 28.7211 67.6604 28.8761 67.0936 29.1595C66.5012 29.4429 66.063 29.8803 65.7538 30.4212V29.0306H62.868V40.3675H65.8309V33.849C65.8309 33.179 66.0118 32.6122 66.3983 32.1742C66.7591 31.7361 67.2741 31.5042 67.8925 31.5042C68.5623 31.5043 69.078 31.7102 69.413 32.1224C69.722 32.5346 69.9022 33.0757 69.9022 33.7455V40.3675H72.8915V33.2298C72.8914 31.8903 72.5563 30.8082 71.8866 29.9837C71.2167 29.1334 70.2111 28.721 68.9227 28.721ZM54.7762 31.4789C55.5492 31.4789 56.2196 31.7616 56.7606 32.3285C57.3017 32.8953 57.5848 33.6947 57.5848 34.6996C57.5848 35.7042 57.3015 36.5029 56.7606 37.0697C56.2196 37.6365 55.5492 37.9202 54.7762 37.9203C54.0032 37.9203 53.333 37.6365 52.7919 37.0697C52.2252 36.5029 51.9677 35.73 51.9677 34.6996C51.9677 33.6947 52.2508 32.8953 52.7919 32.3285C53.333 31.7617 54.0033 31.4789 54.7762 31.4789ZM80.5175 31.1693C81.3162 31.1693 81.9089 31.3758 82.3212 31.8138C82.7075 32.2517 82.9399 32.7924 82.9657 33.4105H78.0438C78.0954 32.8438 78.3276 32.3283 78.7655 31.8646C79.2293 31.4009 79.7961 31.1693 80.5175 31.1693Z" fill="white" fill-opacity="0.6"/>
<path d="M178.637 48.1753H99.7135V19.0073H178.637V48.1753ZM106.387 28.7476C104.79 28.7476 103.424 29.314 102.341 30.4478C101.234 31.5814 100.692 33.0243 100.692 34.7505C100.692 36.4769 101.233 37.9205 102.341 39.0542C103.449 40.2136 104.815 40.7808 106.464 40.7808C107.83 40.7807 108.964 40.3942 109.866 39.647C110.768 38.874 111.36 37.9973 111.618 36.9409L109.015 36.0396C108.861 36.5548 108.577 36.993 108.165 37.3794C107.752 37.7657 107.185 37.9458 106.49 37.9458C105.691 37.9458 105.021 37.6367 104.48 37.0698C103.939 36.4772 103.656 35.7042 103.656 34.7251C103.656 33.746 103.914 32.9726 104.455 32.4058C104.996 31.8392 105.64 31.5562 106.438 31.5562C107.701 31.5562 108.526 32.1997 108.886 33.4878L111.541 32.561C111.283 31.5046 110.716 30.6022 109.814 29.855C108.938 29.1336 107.779 28.7476 106.387 28.7476ZM118.601 28.7212C116.952 28.7212 115.56 29.2878 114.478 30.4214C113.396 31.5551 112.855 32.9987 112.829 34.7251C112.829 36.4514 113.396 37.8941 114.478 39.0278C115.586 40.1616 116.952 40.729 118.601 40.729C120.25 40.7289 121.641 40.1615 122.723 39.0278C123.831 37.8941 124.373 36.4514 124.373 34.7251C124.373 32.9987 123.831 31.5551 122.723 30.4214C121.615 29.2879 120.25 28.7213 118.601 28.7212ZM161.58 28.7212C159.931 28.7212 158.539 29.2877 157.457 30.4214C156.374 31.5551 155.834 32.9987 155.808 34.7251C155.808 36.4513 156.375 37.8942 157.457 39.0278C158.565 40.1616 159.931 40.729 161.58 40.729C163.229 40.729 164.621 40.1616 165.703 39.0278C166.811 37.8942 167.351 36.4512 167.351 34.7251C167.351 32.9987 166.785 31.5551 165.703 30.4214C164.595 29.2877 163.229 28.7212 161.58 28.7212ZM140.71 27.2271C140.71 27.768 140.554 28.2056 140.271 28.5405C139.988 28.8755 139.55 29.0308 139.008 29.0308H138.442V31.7358H140.425V37.0181C140.425 38.126 140.735 38.9768 141.353 39.5952C141.997 40.2135 142.822 40.5229 143.904 40.5229C144.6 40.5229 145.142 40.4191 145.58 40.2388V37.7144C145.374 37.7917 145.09 37.8169 144.677 37.8169C144.239 37.8169 143.904 37.7144 143.698 37.5083C143.492 37.3279 143.389 36.9662 143.389 36.5024V31.7622H145.605V29.0562H143.389L140.71 25.6294V27.2271ZM132.772 28.7476C132.128 28.7476 131.51 28.9017 130.943 29.1851C130.35 29.4685 129.912 29.9067 129.603 30.4478V29.0562H126.716V40.394H129.68V33.8745C129.68 33.2047 129.861 32.6377 130.273 32.1997C130.634 31.7619 131.149 31.5298 131.767 31.5298C132.437 31.5298 132.953 31.7358 133.288 32.1479C133.597 32.5602 133.777 33.102 133.777 33.772V40.394H136.74V33.2563C136.74 31.9165 136.405 30.8596 135.735 30.0093C135.065 29.1593 134.06 28.7476 132.772 28.7476ZM153.979 28.9536C152.433 28.9536 151.402 29.5467 150.861 30.7319V29.0571H147.975V40.394H150.938V35.2153C150.938 34.0816 151.196 33.2567 151.712 32.7671C152.253 32.2776 152.923 32.02 153.773 32.02C154.082 32.0201 154.365 32.0711 154.674 32.1226V29.0308C154.365 29.005 154.134 28.9794 153.979 28.9536ZM169.697 40.394H172.661V23.7231H169.697V40.394ZM118.601 31.5298C119.374 31.5299 120.044 31.8136 120.585 32.3804C121.126 32.9472 121.41 33.7457 121.41 34.7505C121.41 35.7554 121.126 36.5547 120.585 37.1216C120.044 37.6881 119.374 37.9711 118.601 37.9712C117.828 37.9712 117.158 37.6883 116.617 37.1216C116.076 36.5547 115.818 35.7554 115.793 34.7505C115.793 33.7457 116.076 32.9472 116.617 32.3804C117.158 31.8135 117.828 31.5298 118.601 31.5298ZM161.605 31.5298C162.378 31.5298 163.048 31.8135 163.589 32.3804C164.13 32.9472 164.414 33.7458 164.414 34.7505C164.414 35.7554 164.131 36.5547 163.589 37.1216C163.023 37.6883 162.378 37.9712 161.605 37.9712C160.832 37.9711 160.163 37.6881 159.622 37.1216C159.055 36.5547 158.797 35.7554 158.797 34.7505C158.797 33.7457 159.081 32.9472 159.622 32.3804C160.163 31.8136 160.832 31.5299 161.605 31.5298Z" fill="white" fill-opacity="0.6"/>
</svg>
