<svg width="234" height="70" viewBox="0 0 234 70" fill="none" xmlns="http://www.w3.org/2000/svg">
<g clip-path="url(#clip0_223_2741)">
<path fill-rule="evenodd" clip-rule="evenodd" d="M28.8942 29.5106C32.3431 29.8017 35.7949 29.8017 39.2497 29.5106C39.43 30.8061 39.6653 32.0955 39.9557 33.379C39.8773 33.5632 39.7988 33.7475 39.7204 33.9317C39.0664 33.058 38.3604 32.2106 37.6022 31.3896C36.9348 30.8183 36.1503 30.5604 35.2487 30.6159C35.2095 33.9325 35.2487 37.2483 35.3664 40.5633C35.9767 40.844 36.5651 41.1387 37.1315 41.4475C35.0918 41.7422 33.0521 41.7422 31.0123 41.4475C31.5787 41.1387 32.1671 40.844 32.7775 40.5633C32.8951 37.2483 32.9344 33.9325 32.8952 30.6159C32.12 30.5626 31.414 30.7468 30.777 31.1685C29.8073 32.009 28.9835 32.93 28.3058 33.9317C28.1881 33.858 28.0704 33.7843 27.9528 33.7106C28.3269 32.3221 28.6407 30.9221 28.8942 29.5106Z" fill="white" fill-opacity="0.6"/>
<path fill-rule="evenodd" clip-rule="evenodd" d="M72.6698 29.5106C76.0462 29.7979 79.4195 29.7979 82.7899 29.5106C83.3635 30.854 83.7556 32.254 83.9667 33.7106C83.849 33.7843 83.7314 33.858 83.6137 33.9317C82.9319 32.9154 82.1081 31.9944 81.1425 31.1685C80.5755 30.7912 79.9481 30.607 79.2597 30.6159C79.1813 34.0086 79.2599 37.398 79.495 40.7843C79.9443 40.9718 80.415 41.0455 80.9071 41.0054C80.9071 41.2264 80.9071 41.4475 80.9071 41.6685C78.9459 41.6685 76.9845 41.6685 75.0233 41.6685C75.0233 41.4475 75.0233 41.2264 75.0233 41.0054C75.5154 41.0455 75.9862 40.9718 76.4354 40.7843C76.6706 37.398 76.7492 34.0086 76.6708 30.6159C76.085 30.5712 75.5357 30.6817 75.0233 30.9475C73.9329 31.6398 73.1485 32.5609 72.6698 33.7106C72.4756 33.9064 72.2403 33.9801 71.9637 33.9317C72.2499 32.4657 72.4853 30.992 72.6698 29.5106Z" fill="white" fill-opacity="0.6"/>
<path fill-rule="evenodd" clip-rule="evenodd" d="M125.859 41.8894C124.84 41.8894 123.82 41.8894 122.8 41.8894C122.399 41.6166 121.929 41.4693 121.388 41.4473C121.028 41.4783 120.792 41.6256 120.682 41.8894C120.446 41.8894 120.211 41.8894 119.976 41.8894C119.976 40.121 119.976 38.3526 119.976 36.5842C120.211 36.5842 120.446 36.5842 120.682 36.5842C120.732 38.3129 121.438 39.7497 122.8 40.8947C125.483 41.7956 126.778 40.9483 126.683 38.3526C126.33 38.021 125.977 37.6894 125.624 37.3579C124.085 36.7784 122.594 36.1153 121.152 35.3684C119.382 33.1331 119.774 31.291 122.329 29.8421C123.899 29.3671 125.429 29.4776 126.918 30.1736C127.224 29.9068 127.577 29.7594 127.978 29.7315C128.187 31.2095 128.187 32.6832 127.978 34.1526C127.43 33.4182 126.998 32.6077 126.683 31.721C125.392 30.0032 123.901 29.7821 122.211 31.0579C121.872 32.0995 122.146 32.9468 123.035 33.6C124.561 34.2064 126.052 34.8695 127.507 35.5894C128.831 37.0353 129.027 38.6196 128.095 40.3421C127.5 41.0903 126.755 41.6061 125.859 41.8894Z" fill="white" fill-opacity="0.6"/>
<path fill-rule="evenodd" clip-rule="evenodd" d="M143.511 41.8894C142.412 41.8894 141.314 41.8894 140.216 41.8894C135.849 40.3905 134.319 37.5168 135.626 33.2684C137.452 30.1091 140.237 28.967 143.981 29.8421C147.648 31.2323 149.099 33.7744 148.335 37.4684C147.523 39.7426 145.915 41.2163 143.511 41.8894ZM141.157 30.1736C143.944 30.3224 145.474 31.7224 145.747 34.3736C146.139 36.6182 145.629 38.6445 144.217 40.4526C140.816 41.9685 138.737 40.9738 137.98 37.4684C137.411 34.9264 137.999 32.679 139.745 30.7263C140.268 30.6011 140.739 30.4169 141.157 30.1736Z" fill="white" fill-opacity="0.6"/>
<path fill-rule="evenodd" clip-rule="evenodd" d="M217.882 41.0052C217.882 41.2263 217.882 41.4473 217.882 41.6684C216.235 41.6684 214.587 41.6684 212.94 41.6684C212.94 41.4473 212.94 41.2263 212.94 41.0052C213.516 41.1135 213.908 40.9293 214.116 40.4526C213.757 39.5191 213.365 38.598 212.94 37.6894C211.615 37.4694 210.282 37.3957 208.939 37.4684C208.687 38.2304 208.451 39.0041 208.233 39.7894C208.509 40.6015 209.059 41.1541 209.88 41.4473C208.319 41.6677 206.75 41.7413 205.173 41.6684C205.173 41.4473 205.173 41.2263 205.173 41.0052C205.907 40.9738 206.495 40.679 206.938 40.121C208.141 37.6414 209.278 35.1361 210.351 32.6052C210.224 32.3293 210.067 32.0714 209.88 31.8315C210.496 31.1547 210.888 30.381 211.057 29.5105C211.439 29.4796 211.714 29.6269 211.881 29.9526C213.532 33.4962 215.18 37.033 216.823 40.5631C217.084 40.9028 217.437 41.0502 217.882 41.0052ZM210.586 33.2684C211.298 34.3026 211.926 35.4079 212.469 36.5842C211.449 36.8789 210.429 36.8789 209.409 36.5842C209.944 35.5201 210.336 34.4148 210.586 33.2684Z" fill="white" fill-opacity="0.6"/>
<path fill-rule="evenodd" clip-rule="evenodd" d="M40.8972 29.7316C42.6828 29.6621 44.4479 29.7358 46.1926 29.9526C46.3544 30.1365 46.3152 30.2838 46.0749 30.3947C45.5495 30.4753 45.118 30.6964 44.7805 31.0579C44.6629 32.3822 44.6237 33.7085 44.6628 35.0368C46.3887 35.0368 48.1146 35.0368 49.8406 35.0368C49.8797 33.6349 49.8404 32.2349 49.7229 30.8368C49.3028 30.6732 48.8713 30.5259 48.4284 30.3947C48.1881 30.2838 48.1489 30.1365 48.3108 29.9526C50.0571 29.6992 51.8222 29.6623 53.6062 29.8421C53.7137 29.9336 53.7924 30.0441 53.8415 30.1737C53.3732 30.4772 52.8632 30.6983 52.3117 30.8368C52.1548 34.0789 52.1548 37.321 52.3117 40.5631C52.8455 40.8418 53.3553 41.1365 53.8415 41.4474C51.9587 41.7421 50.0759 41.7421 48.1931 41.4474C48.6792 41.1365 49.1892 40.8418 49.7229 40.5631C49.8405 38.9438 49.8797 37.3227 49.8406 35.7C48.1146 35.7 46.3887 35.7 44.6628 35.7C44.6237 37.2491 44.6629 38.7965 44.7805 40.3421C44.8685 40.5446 44.9862 40.7289 45.1335 40.8947C45.6323 40.9163 46.0245 41.1005 46.3103 41.4474C44.5127 41.6679 42.7083 41.7415 40.8972 41.6684C40.8972 41.4474 40.8972 41.2263 40.8972 41.0053C41.4202 41.0764 41.8517 40.9291 42.1916 40.5631C42.3485 37.321 42.3485 34.0789 42.1916 30.8368C41.8524 30.6689 41.4994 30.5215 41.1325 30.3947C40.9241 30.2124 40.8456 29.9913 40.8972 29.7316Z" fill="white" fill-opacity="0.6"/>
<path fill-rule="evenodd" clip-rule="evenodd" d="M54.783 29.7316C57.9996 29.7316 61.2159 29.7316 64.4325 29.7316C64.6342 31.0052 64.9479 32.2578 65.3739 33.4895C65.3014 33.6681 65.1837 33.8154 65.0209 33.9316C64.3673 32.5073 63.3082 31.4389 61.8436 30.7263C60.8285 30.5637 59.8085 30.4532 58.784 30.3947C58.784 32.0158 58.784 33.6368 58.784 35.2579C60.7509 35.3264 61.6923 34.4422 61.6083 32.6053C61.8436 32.6053 62.079 32.6053 62.3143 32.6053C62.3143 34.5947 62.3143 36.5842 62.3143 38.5737C62.079 38.5737 61.8436 38.5737 61.6083 38.5737C61.6911 36.7358 60.7497 35.8515 58.784 35.921C58.6402 37.6404 58.7972 39.2983 59.2547 40.8947C62.3917 41.3006 64.4313 40.0848 65.3739 37.2474C65.5681 37.0516 65.8034 36.9779 66.0799 37.0263C65.8142 38.5693 65.5789 40.1167 65.3739 41.6684C61.8436 41.6684 58.3133 41.6684 54.783 41.6684C54.783 41.4474 54.783 41.2263 54.783 41.0053C55.1977 41.0368 55.5901 40.9631 55.9598 40.7842C56.2342 37.4709 56.2735 34.1551 56.0775 30.8368C55.7383 30.6689 55.3853 30.5215 55.0184 30.3947C54.8099 30.2124 54.7315 29.9913 54.783 29.7316Z" fill="white" fill-opacity="0.6"/>
<path fill-rule="evenodd" clip-rule="evenodd" d="M84.908 29.7316C86.7125 29.7316 88.5167 29.7316 90.3211 29.7316C90.1962 30.4565 89.7255 30.7512 88.909 30.6158C88.8697 34.0061 88.909 37.3955 89.0267 40.7842C89.4266 40.9845 89.8582 41.0582 90.3211 41.0053C90.3211 41.2263 90.3211 41.4474 90.3211 41.6684C88.5167 41.6684 86.7125 41.6684 84.908 41.6684C84.908 41.4474 84.908 41.2263 84.908 41.0053C85.3227 41.0368 85.7151 40.9631 86.0848 40.7842C86.3592 37.4709 86.3985 34.1551 86.2025 30.8368C85.8633 30.6689 85.5103 30.5215 85.1434 30.3947C84.9349 30.2124 84.8565 29.9913 84.908 29.7316Z" fill="white" fill-opacity="0.6"/>
<path fill-rule="evenodd" clip-rule="evenodd" d="M91.2626 29.7317C92.657 29.6636 94.0301 29.7373 95.3812 29.9528C96.4914 32.7019 97.6682 35.4282 98.9115 38.1317C100.273 35.4407 101.567 32.7143 102.795 29.9528C103.964 29.6958 105.141 29.659 106.325 29.8422C106.433 29.9337 106.511 30.0443 106.56 30.1738C106.01 30.4206 105.5 30.7153 105.031 31.058C104.874 34.2264 104.874 37.3949 105.031 40.5633C105.564 40.8419 106.074 41.1366 106.56 41.4475C105.658 41.5212 104.756 41.5949 103.854 41.6685C102.832 41.699 101.851 41.5884 100.912 41.337C101.451 41.1278 101.961 40.8699 102.442 40.5633C102.599 37.7633 102.599 34.9633 102.442 32.1633C101.191 35.4369 99.7393 38.6053 98.0878 41.6685C96.598 38.7195 95.2252 35.6984 93.9691 32.6054C93.8121 35.037 93.8121 37.4685 93.9691 39.9001C94.1063 40.2321 94.3024 40.5268 94.5575 40.7843C95.0435 40.8845 95.4358 41.1055 95.7343 41.4475C94.1729 41.6678 92.6041 41.7415 91.0272 41.6685C91.0272 41.4475 91.0272 41.2264 91.0272 41.0054C91.891 41.0437 92.4793 40.6753 92.7924 39.9001C93.1437 37.034 93.2224 34.1603 93.0277 31.2791C92.9397 31.0765 92.822 30.8923 92.6747 30.7264C91.8691 30.7585 91.3984 30.4269 91.2626 29.7317Z" fill="white" fill-opacity="0.6"/>
<path fill-rule="evenodd" clip-rule="evenodd" d="M107.502 29.7315C110.641 29.6946 113.779 29.7315 116.916 29.842C117.368 31.079 117.76 32.3317 118.093 33.5999C117.975 33.7104 117.857 33.8209 117.74 33.9315C116.518 31.4214 114.439 30.2425 111.503 30.3946C111.503 32.0157 111.503 33.6367 111.503 35.2578C113.47 35.3263 114.411 34.442 114.327 32.6051C114.562 32.6051 114.798 32.6051 115.033 32.6051C115.033 34.5946 115.033 36.5841 115.033 38.5736C114.798 38.5736 114.562 38.5736 114.327 38.5736C114.398 36.7248 113.457 35.8406 111.503 35.9209C111.359 37.6403 111.516 39.2982 111.973 40.8946C115.113 41.2994 117.153 40.0836 118.093 37.2472C118.287 37.0515 118.522 36.9778 118.799 37.0262C118.575 38.5167 118.262 39.9904 117.857 41.4472C114.409 41.6681 110.957 41.7418 107.502 41.6683C107.502 41.4472 107.502 41.2262 107.502 41.0051C108.025 41.0763 108.456 40.929 108.796 40.563C108.953 37.3209 108.953 34.0788 108.796 30.8367C108.457 30.6688 108.104 30.5214 107.737 30.3946C107.529 30.2123 107.45 29.9912 107.502 29.7315Z" fill="white" fill-opacity="0.6"/>
<path fill-rule="evenodd" clip-rule="evenodd" d="M149.63 29.7315C152.772 29.658 155.91 29.7317 159.044 29.9526C159.589 31.2554 159.824 32.5817 159.75 33.9315C158.614 31.3936 156.574 30.2146 153.631 30.3947C153.631 32.0157 153.631 33.6368 153.631 35.2578C155.594 35.3298 156.535 34.4456 156.455 32.6052C156.69 32.6052 156.926 32.6052 157.161 32.6052C157.161 34.5947 157.161 36.5841 157.161 38.5736C156.926 38.5736 156.69 38.5736 156.455 38.5736C156.533 36.7315 155.592 35.8473 153.631 35.921C153.553 37.5487 153.632 39.1697 153.866 40.7841C154.236 40.9631 154.628 41.0367 155.043 41.0052C155.043 41.2262 155.043 41.4473 155.043 41.6683C153.239 41.6683 151.434 41.6683 149.63 41.6683C149.63 41.4473 149.63 41.2262 149.63 41.0052C150.093 41.0581 150.524 40.9844 150.924 40.7841C151.042 37.3955 151.081 34.006 151.042 30.6157C150.226 30.7512 149.755 30.4564 149.63 29.7315Z" fill="white" fill-opacity="0.6"/>
<path fill-rule="evenodd" clip-rule="evenodd" d="M166.34 29.7317C168.068 29.6949 169.794 29.7317 171.518 29.8422C171.625 29.9337 171.704 30.0442 171.753 30.1738C171.285 30.4773 170.775 30.6984 170.223 30.8369C170.066 34.079 170.066 37.3211 170.223 40.5632C170.757 40.8419 171.267 41.1366 171.753 41.4475C169.87 41.7422 167.987 41.7422 166.105 41.4475C166.591 41.1366 167.101 40.8419 167.634 40.5632C167.791 37.3211 167.791 34.079 167.634 30.8369C167.214 30.6733 166.783 30.526 166.34 30.3948C166.09 30.1904 166.09 29.9694 166.34 29.7317Z" fill="white" fill-opacity="0.6"/>
<path fill-rule="evenodd" clip-rule="evenodd" d="M183.285 41.8895C183.05 41.8895 182.815 41.8895 182.579 41.8895C180.159 38.7676 177.688 35.6729 175.166 32.6053C175.009 35.0369 175.009 37.4685 175.166 39.9C175.479 40.6752 176.067 41.0436 176.931 41.0053C176.931 41.2264 176.931 41.4474 176.931 41.6685C175.362 41.6685 173.793 41.6685 172.224 41.6685C172.224 41.4474 172.224 41.2264 172.224 41.0053C173.069 40.9956 173.657 40.6271 173.989 39.9C174.146 37.0264 174.146 34.1527 173.989 31.279C173.602 30.8011 173.092 30.5064 172.459 30.3948C172.251 30.2124 172.172 29.9914 172.224 29.7316C173.403 29.6949 174.58 29.7318 175.754 29.8421C178.08 32.5425 180.316 35.3057 182.462 38.1316C182.619 36.0685 182.619 34.0053 182.462 31.9421C182.184 30.9812 181.517 30.4654 180.461 30.3948C180.461 30.1737 180.461 29.9527 180.461 29.7316C182.109 29.7316 183.756 29.7316 185.404 29.7316C185.455 29.9914 185.377 30.2124 185.168 30.3948C184.139 30.5882 183.55 31.1777 183.403 32.1632C183.285 35.4045 183.246 38.6466 183.285 41.8895Z" fill="white" fill-opacity="0.6"/>
<path fill-rule="evenodd" clip-rule="evenodd" d="M185.874 29.7317C188.476 29.6479 191.065 29.7584 193.641 30.0633C197.261 31.3714 198.712 33.8398 197.995 37.4685C197.501 39.613 196.128 40.9762 193.876 41.558C191.127 41.742 188.381 41.7052 185.639 41.4475C186.125 41.1366 186.635 40.8419 187.169 40.5633C187.326 37.3212 187.326 34.0791 187.169 30.837C186.749 30.6734 186.317 30.526 185.874 30.3949C185.624 30.1905 185.624 29.9694 185.874 29.7317ZM189.64 30.3949C193.688 30.2182 195.649 32.0603 195.524 35.9212C195.514 37.3308 195.161 38.6571 194.465 39.9001C193.127 41.0548 191.636 41.2758 189.993 40.5633C189.915 40.3422 189.836 40.1212 189.758 39.9001C189.64 36.7325 189.601 33.5641 189.64 30.3949Z" fill="white" fill-opacity="0.6"/>
<path fill-rule="evenodd" clip-rule="evenodd" d="M199.525 29.7316C201.329 29.7316 203.133 29.7316 204.938 29.7316C204.989 29.9913 204.911 30.2124 204.702 30.3947C204.259 30.5259 203.828 30.6732 203.408 30.8368C203.251 34.0789 203.251 37.321 203.408 40.5631C203.942 40.8418 204.451 41.1365 204.938 41.4474C203.055 41.7421 201.172 41.7421 199.289 41.4474C199.775 41.1365 200.285 40.8418 200.819 40.5631C200.976 37.321 200.976 34.0789 200.819 30.8368C200.301 30.6375 199.791 30.4165 199.289 30.1737C199.375 30.0226 199.453 29.8752 199.525 29.7316Z" fill="white" fill-opacity="0.6"/>
</g>
<g clip-path="url(#clip1_223_2741)">
<path d="M7.59961 28H19.5998C20.9251 28 21.9997 29.0743 21.9997 30.3999V42.4001C21.9997 43.7254 20.9251 44.8 19.5998 44.8H7.59961C6.27432 44.8 5.19971 43.7254 5.19971 42.4001V30.3999C5.19971 29.0743 6.27432 28 7.59961 28Z" fill="white" fill-opacity="0.6"/>
<path d="M8.12766 33.9023H11.233C11.3433 33.9023 11.4296 33.881 11.4919 33.8387L11.5858 33.775L11.6205 33.7878L11.6409 33.8298L12.0238 35.5456V35.5672L12.0035 35.6217L11.9572 35.6434C11.9129 35.6434 11.8637 35.5695 11.8086 35.4216C11.7531 35.2736 11.6927 35.1463 11.6261 35.0403C11.4545 34.7738 11.2481 34.5586 11.0083 34.3945C10.7641 34.2298 10.4885 34.1176 10.1988 34.0657V38.0397C10.1988 38.2408 10.2139 38.3822 10.2431 38.4633C10.2726 38.544 10.3241 38.6063 10.398 38.6506C10.4616 38.6897 10.5627 38.7159 10.7015 38.7304C10.8403 38.7448 10.9092 38.7802 10.9092 38.836L10.8796 38.9013L10.7802 38.9194H8.54372L8.43708 38.9013L8.40755 38.836C8.40755 38.7802 8.47153 38.7458 8.59917 38.732C8.72681 38.7182 8.82098 38.6985 8.88234 38.672C8.96503 38.6369 9.03098 38.5699 9.06478 38.4869C9.10022 38.4022 9.11827 38.2526 9.11827 38.0397V34.0657C8.81639 34.1212 8.54733 34.2305 8.30911 34.3926C8.06203 34.5648 7.85137 34.785 7.69092 35.0399C7.62267 35.1492 7.56066 35.2769 7.50652 35.4235C7.4527 35.5695 7.40348 35.6434 7.35952 35.6434L7.31916 35.622L7.30078 35.5672V35.5456L7.73062 33.8262L7.75294 33.7914L7.78969 33.7754L7.87959 33.839C7.93505 33.8813 8.01741 33.9027 8.12766 33.9023ZM14.6869 33.9604C14.2111 33.9604 13.8469 34.1698 13.5939 34.5891C13.3412 35.0084 13.2149 35.6155 13.2149 36.4109C13.2149 37.2056 13.3412 37.8129 13.5939 38.2323C13.8469 38.6516 14.2108 38.8613 14.6869 38.8613C15.163 38.8613 15.522 38.6519 15.7723 38.2323C16.0223 37.8129 16.1474 37.2059 16.1474 36.4109C16.1474 35.6158 16.0214 35.0084 15.7697 34.5891C15.5183 34.1698 15.1571 33.9604 14.6862 33.9604H14.6869ZM14.6869 33.8039C15.4517 33.8039 16.0844 34.0493 16.5834 34.5402C17.0828 35.0311 17.3319 35.6542 17.3319 36.4112C17.3319 37.1675 17.0825 37.7893 16.5834 38.2838C16.084 38.7783 15.4517 39.0254 14.6869 39.0254C14.3706 39.0254 14.0749 38.9807 13.8 38.8928C13.5263 38.8049 13.27 38.6697 13.042 38.4941C12.7181 38.2493 12.4688 37.9468 12.2952 37.5872C12.1193 37.22 12.03 36.8177 12.034 36.4112C12.034 35.6549 12.2837 35.0311 12.7828 34.5402C13.2822 34.0493 13.9171 33.8039 14.6869 33.8039ZM17.7913 33.9023H19.7485C19.805 33.9023 19.8437 33.9092 19.866 33.924L19.8991 33.9962C19.8991 34.0424 19.8519 34.0736 19.7577 34.0913C19.6845 34.1018 19.613 34.1228 19.5461 34.153C19.4604 34.1993 19.4001 34.2623 19.3659 34.342C19.3318 34.4218 19.3144 34.5724 19.3144 34.7925V38.0321C19.3144 38.2529 19.3315 38.4039 19.3659 38.4846C19.4001 38.5656 19.4614 38.6293 19.5503 38.6756C19.5894 38.6946 19.6576 38.714 19.7544 38.732C19.8512 38.7501 19.8998 38.7825 19.8998 38.8288L19.8722 38.9013C19.8535 38.9131 19.8128 38.9194 19.7492 38.9194H17.7919C17.726 38.9194 17.6827 38.9128 17.663 38.8997L17.6338 38.8288C17.6338 38.7825 17.681 38.751 17.7752 38.732C17.8694 38.7136 17.9389 38.6936 17.9826 38.672C18.0649 38.6323 18.1302 38.5647 18.167 38.4813C18.2037 38.398 18.2224 38.248 18.2224 38.0324V34.6071C18.2224 34.4884 18.1978 34.3889 18.1486 34.3089C18.0994 34.2291 18.0285 34.1698 17.935 34.1307C17.9009 34.1189 17.8526 34.1077 17.7913 34.0979C17.6856 34.0785 17.6328 34.0444 17.6328 33.9955L17.6676 33.9233C17.6909 33.9086 17.7315 33.9017 17.7906 33.9017L17.7913 33.9023Z" fill="black"/>
</g>
<defs>
<clipPath id="clip0_223_2741">
<rect width="190.4" height="12.6" fill="white" transform="translate(27.5997 29.4)"/>
</clipPath>
<clipPath id="clip1_223_2741">
<rect width="16.8" height="16.8" fill="white" transform="translate(5.19971 28)"/>
</clipPath>
</defs>
</svg>
