<svg width="235" height="70" viewBox="0 0 235 70" fill="none" xmlns="http://www.w3.org/2000/svg">
<g clip-path="url(#clip0_223_2701)">
<path fill-rule="evenodd" clip-rule="evenodd" d="M30.5353 37.869C30.8651 37.3426 30.8278 36.8365 30.4234 36.3507C28.4854 34.8339 26.6949 33.171 25.0521 31.3619C24.7145 30.1074 25.0502 29.059 26.0592 28.2169C26.3486 28.1106 26.647 28.0744 26.9544 28.1084C26.7869 28.5605 26.7869 28.9943 26.9544 29.4098C28.9698 31.038 30.8722 32.7732 32.6614 34.6155C32.8183 35.3591 32.7437 36.0821 32.4376 36.7845C32.0172 37.1191 31.6815 37.5168 31.4305 37.9774C31.1108 38.103 30.8124 38.0669 30.5353 37.869Z" fill="white" fill-opacity="0.6"/>
<path fill-rule="evenodd" clip-rule="evenodd" d="M70.1486 28.3254C70.6458 28.2556 71.0563 28.4002 71.3795 28.7592C73.028 32.387 74.6694 36.002 76.3032 39.6043C76.6232 40.223 76.8096 40.8737 76.8627 41.5564C75.8155 41.5924 74.7712 41.5562 73.7294 41.4479C73.3485 40.9631 73.1247 40.4208 73.058 39.8212C71.4169 39.8212 69.7755 39.8212 68.1343 39.8212C68.0676 40.4208 67.8438 40.9631 67.4629 41.4479C66.4211 41.5562 65.3768 41.5924 64.3297 41.5564C66.0955 37.073 68.0349 32.6627 70.1486 28.3254ZM70.3724 34.6156C70.5953 34.5969 70.7817 34.6693 70.9319 34.8325C71.2085 35.63 71.5442 36.3892 71.939 37.1099C71.1183 37.2545 70.2978 37.2545 69.4771 37.1099C69.8431 36.2989 70.1416 35.4674 70.3724 34.6156Z" fill="white" fill-opacity="0.6"/>
<path fill-rule="evenodd" clip-rule="evenodd" d="M78.2055 28.3254C78.6878 28.2976 79.1354 28.4061 79.5483 28.6508C81.5923 30.9213 83.7184 33.1265 85.9267 35.2663C86.0386 33.0985 86.0758 30.9294 86.0386 28.7592C87.0831 28.7592 88.1274 28.7592 89.1719 28.7592C89.1719 33.0972 89.1719 37.4353 89.1719 41.7733C88.7182 41.8085 88.2706 41.7723 87.829 41.6648C85.6181 39.3061 83.4174 36.9563 81.2268 34.6156C81.1149 36.928 81.0775 39.2416 81.1149 41.5564C80.0856 41.6215 79.0785 41.5492 78.0936 41.3395C77.91 36.9856 77.9472 32.6476 78.2055 28.3254Z" fill="white" fill-opacity="0.6"/>
<path fill-rule="evenodd" clip-rule="evenodd" d="M97.2288 28.3254C100.001 28.3661 102.09 29.5229 103.495 31.7959C102.819 32.4501 102.073 33.0285 101.257 33.5311C100.699 32.8096 100.028 32.1951 99.243 31.6874C94.9655 31.135 93.3617 32.9064 94.4312 37.0015C95.8329 38.7769 97.586 39.1745 99.6906 38.1945C100.18 37.7198 100.665 37.2498 101.145 36.7846C102.029 37.1578 102.813 37.6639 103.495 38.3029C102.282 40.5561 100.342 41.7129 97.6764 41.7733C95.6416 41.7199 93.9259 40.9969 92.5289 39.6043C90.2331 36.6926 90.1586 33.7283 92.3051 30.7114C93.7272 29.4438 95.3683 28.6485 97.2288 28.3254Z" fill="white" fill-opacity="0.6"/>
<path fill-rule="evenodd" clip-rule="evenodd" d="M115.133 28.3254C115.873 28.2112 116.358 28.5004 116.588 29.193C118.347 33.3246 120.1 37.4457 121.847 41.5564C120.8 41.5923 119.756 41.5562 118.714 41.4479C118.333 40.9626 118.109 40.4203 118.043 39.8211C116.474 39.7851 114.908 39.8212 113.343 39.9296C112.928 40.372 112.63 40.8781 112.447 41.4479C111.406 41.5562 110.361 41.5923 109.314 41.5564C110.948 37.0157 112.888 32.6053 115.133 28.3254ZM115.357 34.3986C115.887 35.2059 116.334 36.0735 116.7 37.0014C115.954 37.2906 115.208 37.2906 114.462 37.0014C114.89 36.1723 115.188 35.3046 115.357 34.3986Z" fill="white" fill-opacity="0.6"/>
<path fill-rule="evenodd" clip-rule="evenodd" d="M197.493 28.3254C198.647 28.5277 199.766 28.853 200.85 29.3015C201.433 29.7556 201.88 30.2978 202.193 30.9283C201.809 31.6967 201.212 32.2751 200.402 32.6635C199.577 31.721 198.533 31.3234 197.269 31.4705C196.878 31.851 196.728 32.3209 196.822 32.8804C198.312 33.3492 199.729 33.9638 201.074 34.724C203.289 37.1256 203.065 39.2946 200.402 41.2311C197.559 42.2207 195.172 41.6061 193.241 39.3874C192.988 39.0459 192.95 38.6844 193.129 38.3029C193.728 37.866 194.325 37.4322 194.919 37.0015C195.836 38.4774 197.142 39.0196 198.836 38.6283C199.709 37.9882 199.634 37.4098 198.612 36.893C196.855 36.3489 195.325 35.4452 194.024 34.1818C193.115 32.4049 193.377 30.8143 194.807 29.4099C195.7 28.9805 196.595 28.619 197.493 28.3254Z" fill="white" fill-opacity="0.6"/>
<path fill-rule="evenodd" clip-rule="evenodd" d="M36.5779 28.7592C39.562 28.7592 42.5461 28.7592 45.5301 28.7592C45.5966 29.6848 45.522 30.5885 45.3063 31.4704C43.4427 31.5788 41.5777 31.615 39.7112 31.5789C39.7112 32.3742 39.7112 33.1695 39.7112 33.9648C41.2051 33.9287 42.6971 33.9649 44.1873 34.0732C44.403 34.9551 44.4776 35.8589 44.4111 36.7845C42.8445 36.7845 41.2778 36.7845 39.7112 36.7845C39.7484 38.3045 39.7111 39.8228 39.5993 41.3394C38.6295 41.6286 37.6597 41.6286 36.6898 41.3394C36.5779 37.1466 36.5407 32.9532 36.5779 28.7592Z" fill="white" fill-opacity="0.6"/>
<path fill-rule="evenodd" clip-rule="evenodd" d="M46.6491 28.7592C47.6936 28.7592 48.7379 28.7592 49.7823 28.7592C49.8197 32.9532 49.7823 37.1466 49.6704 41.3394C48.7007 41.6286 47.7307 41.6286 46.761 41.3394C46.6491 37.1466 46.6117 32.9532 46.6491 28.7592Z" fill="white" fill-opacity="0.6"/>
<path fill-rule="evenodd" clip-rule="evenodd" d="M59.8536 35.2662C59.867 35.384 59.9415 35.4563 60.0774 35.4831C60.3735 33.2796 60.3735 31.1106 60.0774 28.976C61.1369 28.6889 62.2185 28.6889 63.3225 28.976C63.4718 33.0972 63.4718 37.2183 63.3225 41.3394C62.9264 41.7555 62.4414 41.8639 61.8678 41.6648C59.7417 39.3873 57.6155 37.1098 55.4894 34.8324C55.4518 37.005 55.3399 39.174 55.1537 41.3394C54.1396 41.6237 53.1325 41.6237 52.1323 41.3394C51.9831 37.0737 51.9831 32.808 52.1323 28.5422C52.5186 28.3088 52.9289 28.2727 53.3633 28.4338C55.4523 30.789 57.6158 33.0664 59.8536 35.2662Z" fill="white" fill-opacity="0.6"/>
<path fill-rule="evenodd" clip-rule="evenodd" d="M105.062 28.7592C106.106 28.7592 107.151 28.7592 108.195 28.7592C108.233 32.9532 108.195 37.1466 108.083 41.3394C107.114 41.6286 106.144 41.6286 105.174 41.3394C105.062 37.1466 105.025 32.9532 105.062 28.7592Z" fill="white" fill-opacity="0.6"/>
<path fill-rule="evenodd" clip-rule="evenodd" d="M122.966 28.7592C124.011 28.7592 125.055 28.7592 126.1 28.7592C126.1 32.0127 126.1 35.2662 126.1 38.5197C127.946 38.4512 129.774 38.5235 131.583 38.7366C131.754 39.6167 131.717 40.4843 131.471 41.3394C128.659 41.626 125.862 41.626 123.078 41.3394C122.966 37.1466 122.929 32.9532 122.966 28.7592Z" fill="white" fill-opacity="0.6"/>
<path fill-rule="evenodd" clip-rule="evenodd" d="M137.29 28.7592C140.199 28.7592 143.109 28.7592 146.018 28.7592C146.018 29.6991 146.018 30.639 146.018 31.5789C144.153 31.5789 142.288 31.5789 140.423 31.5789C140.423 32.1573 140.423 32.7357 140.423 33.3141C141.768 33.278 143.111 33.3142 144.451 33.4225C144.667 34.3044 144.742 35.2082 144.675 36.1338C143.258 36.1338 141.84 36.1338 140.423 36.1338C140.423 36.9291 140.423 37.7244 140.423 38.5197C142.364 38.4836 144.304 38.5198 146.242 38.6282C146.495 39.5128 146.532 40.4166 146.354 41.3394C143.35 41.5541 140.329 41.6264 137.29 41.5563C137.29 37.2906 137.29 33.0249 137.29 28.7592Z" fill="white" fill-opacity="0.6"/>
<path fill-rule="evenodd" clip-rule="evenodd" d="M147.137 28.7591C148.259 28.7231 149.378 28.7592 150.494 28.8675C151.026 29.7175 151.585 30.5489 152.173 31.3619C152.281 31.5675 152.318 31.7844 152.285 32.0126C152.508 32.0126 152.732 32.0126 152.956 32.0126C153.431 30.9219 154.027 29.8736 154.746 28.8675C155.947 28.6876 157.141 28.7238 158.327 28.976C157.088 30.9804 155.82 32.9686 154.523 34.9408C155.928 37.0548 157.233 39.1876 158.439 41.3394C157.377 41.5855 156.295 41.6217 155.194 41.4478C154.417 40.1979 153.559 39.005 152.62 37.8689C151.754 39.0048 150.971 40.1977 150.27 41.4478C149.154 41.5561 148.035 41.5922 146.913 41.5563C146.885 41.0889 146.997 40.6551 147.249 40.2548C148.497 38.5392 149.654 36.7678 150.718 34.9408C149.852 33.2985 148.845 31.7441 147.697 30.2774C147.381 29.811 147.194 29.3049 147.137 28.7591Z" fill="white" fill-opacity="0.6"/>
<path fill-rule="evenodd" clip-rule="evenodd" d="M159.446 28.7591C161.686 28.723 163.924 28.7592 166.161 28.8676C169.161 30.1408 170.02 32.2737 168.734 35.2662C167.152 36.9885 165.175 37.6392 162.803 37.2183C162.841 38.5939 162.803 39.9676 162.692 41.3394C161.647 41.6286 160.603 41.6286 159.558 41.3394C159.446 37.1466 159.409 32.9532 159.446 28.7591ZM162.803 31.5789C163.702 31.543 164.597 31.5791 165.489 31.6873C165.831 32.0447 165.98 32.4785 165.937 32.9887C165.908 33.4183 165.759 33.7798 165.489 34.0732C164.597 34.1814 163.702 34.2176 162.803 34.1817C162.803 33.3141 162.803 32.4465 162.803 31.5789Z" fill="white" fill-opacity="0.6"/>
<path fill-rule="evenodd" clip-rule="evenodd" d="M170.86 28.7591C173.025 28.723 175.188 28.7592 177.351 28.8676C180.014 29.7259 181.021 31.4973 180.372 34.1817C180.063 35.2034 179.429 35.9626 178.47 36.4591C179.663 38.0497 180.857 39.6404 182.051 41.231C180.972 41.5793 179.853 41.6516 178.693 41.4479C177.574 40.0742 176.455 38.7004 175.336 37.3267C174.895 37.2193 174.447 37.1831 173.994 37.2183C174.031 38.5939 173.994 39.9676 173.882 41.3394C172.897 41.5491 171.89 41.6214 170.86 41.5563C170.86 37.2906 170.86 33.0249 170.86 28.7591ZM173.994 31.5789C174.892 31.543 175.787 31.5791 176.679 31.6873C177.458 32.3775 177.532 33.1366 176.903 33.9648C175.945 34.18 174.975 34.2523 173.994 34.1817C173.994 33.3141 173.994 32.4465 173.994 31.5789Z" fill="white" fill-opacity="0.6"/>
<path fill-rule="evenodd" clip-rule="evenodd" d="M182.946 28.7592C185.93 28.7592 188.914 28.7592 191.898 28.7592C191.898 29.6991 191.898 30.639 191.898 31.5789C189.958 31.5789 188.019 31.5789 186.079 31.5789C186.079 32.1573 186.079 32.7357 186.079 33.3141C187.496 33.3141 188.914 33.3141 190.331 33.3141C190.331 34.254 190.331 35.1939 190.331 36.1338C188.914 36.1338 187.496 36.1338 186.079 36.1338C186.079 36.9291 186.079 37.7244 186.079 38.5197C188.075 38.4509 190.052 38.5232 192.01 38.7366C192.188 39.6595 192.151 40.5633 191.898 41.4479C188.911 41.6285 185.927 41.5923 182.946 41.3394C182.648 37.1396 182.648 32.9461 182.946 28.7592Z" fill="white" fill-opacity="0.6"/>
<path fill-rule="evenodd" clip-rule="evenodd" d="M212.488 30.2776C212.488 30.7114 212.488 31.1452 212.488 31.579C211.897 31.9381 211.301 32.2996 210.697 32.6635C210.291 32.3783 209.918 32.0529 209.578 31.6874C208.832 31.2536 208.086 31.2536 207.34 31.6874C207.056 32.1309 207.13 32.5285 207.564 32.8804C209.423 33.5293 211.064 34.4692 212.488 35.7001C212.488 37.0738 212.488 38.4475 212.488 39.8212C211.52 41.1263 210.177 41.777 208.459 41.7733C206.121 41.6911 204.405 40.6789 203.312 38.7367C203.336 38.5324 203.411 38.3516 203.536 38.1945C204.163 37.8391 204.76 37.4415 205.326 37.0015C206.308 38.4551 207.651 38.9973 209.355 38.6283C209.973 37.9849 209.899 37.4065 209.131 36.893C207.033 36.3311 205.355 35.2104 204.095 33.5311C203.666 30.3639 205.121 28.6287 208.459 28.3254C210.003 28.5944 211.346 29.2451 212.488 30.2776Z" fill="white" fill-opacity="0.6"/>
<path fill-rule="evenodd" clip-rule="evenodd" d="M60.0774 28.976C60.3735 31.1105 60.3735 33.2795 60.0774 35.483C59.9415 35.4562 59.867 35.3839 59.8536 35.2661C60.076 33.2087 60.1506 31.112 60.0774 28.976Z" fill="white" fill-opacity="0.6"/>
<path fill-rule="evenodd" clip-rule="evenodd" d="M30.5352 37.869C30.4596 38.3796 30.3477 38.8857 30.1995 39.3873C29.8094 39.7823 29.4737 40.2161 29.1924 40.6887C28.9349 40.9557 28.6738 40.9557 28.4091 40.6887C28.1544 41.6898 27.6695 42.5574 26.9544 43.2915C26.656 43.2915 26.3576 43.2915 26.0592 43.2915C26.095 42.923 26.0577 42.5615 25.9473 42.207C24.2186 40.6388 22.4654 39.1205 20.6879 37.6521C20.6879 36.6399 20.6879 35.6277 20.6879 34.6155C21.0747 34.2616 21.485 33.9001 21.9188 33.531C22.0916 33.5624 22.2408 33.6347 22.3664 33.7479C22.5122 32.6701 22.9598 31.7302 23.7092 30.9281C23.9356 30.7467 24.1966 30.6744 24.4925 30.7112C24.456 31.2224 24.4933 31.7286 24.6044 32.2296C26.8613 33.875 28.8383 35.7548 30.5352 37.869ZM22.4783 33.9648C24.3073 35.8891 26.2842 37.6966 28.4091 39.3873C28.5823 39.8001 28.5077 40.1616 28.1853 40.4718C26.4739 38.5965 24.6088 36.8613 22.5902 35.2662C22.2295 34.842 22.1922 34.4082 22.4783 33.9648Z" fill="white" fill-opacity="0.6"/>
</g>
<defs>
<clipPath id="clip0_223_2701">
<rect width="191.8" height="15.4" fill="white" transform="translate(20.7998 28)"/>
</clipPath>
</defs>
</svg>
