<svg width="202" height="70" viewBox="0 0 202 70" fill="none" xmlns="http://www.w3.org/2000/svg">
<path fill-rule="evenodd" clip-rule="evenodd" d="M81.7736 32.2126C81.3193 29.9921 79.5135 29.4042 77.4926 29.2153C70.9641 28.6056 69.8054 33.523 69.8054 35.601C69.8054 39.153 70.8351 42.0925 77.2451 42.0925C78.427 42.0925 81.6909 40.866 81.6909 38.8739H90.9097C90.5382 44.7831 80.6793 46.2 76.3801 46.2C67.471 46.2 59.8441 44.5286 60.2128 35.6814C60.4757 29.3662 66.3957 24.9359 78.1704 25.2122C84.7346 25.3666 91.0387 27.4291 91.0661 32.2133L81.7736 32.2126ZM174.108 32.2126C173.655 29.9921 171.847 29.4042 169.827 29.2153C163.298 28.6056 162.141 33.523 162.141 35.601C162.141 39.153 163.17 42.0925 169.58 42.0925C170.762 42.0925 174.025 40.866 174.025 38.8739H183.244C182.875 44.7831 173.014 46.2 168.713 46.2C159.804 46.2 152.177 44.5286 152.547 35.6814C152.81 29.3662 158.731 24.9359 170.503 25.2122C177.068 25.3666 183.373 27.4291 183.4 32.2133L174.108 32.2126ZM92.7113 25.6344H104.679L114.89 40.0638H114.972V25.6344H122.642V45.6699H111.177L100.465 31.2405H100.381V45.6699H92.7113V25.6344ZM125.009 25.6344H139.545C146.532 25.6344 150.641 27.6018 150.641 30.573C150.641 32.3282 148.921 34.495 145.086 35.133V35.1894C149.703 35.4664 151.409 38.4094 151.409 40.173C151.409 43.7046 147.401 45.6706 139.588 45.6706H125.009V25.6344ZM133.424 33.418H135.834C139.546 33.418 141.515 33.1275 141.515 31.5732C141.515 29.909 139.878 29.3528 136.537 29.3528H133.425L133.424 33.418ZM133.424 41.4708H135.834C140.307 41.4708 141.949 40.9985 141.949 39.4456C141.949 37.7799 139.878 37.2237 136.537 37.2237H133.425L133.424 41.4708Z" fill="white" fill-opacity="0.6"/>
<path fill-rule="evenodd" clip-rule="evenodd" d="M47.5684 37.513L37.3333 44.3333L40.7802 36.1691L42.4158 32.367C43.0783 31.1382 44.3252 30.355 45.6863 30.3333C46.9902 30.3333 48.1463 30.9586 48.8792 32.0797C49.6338 33.2008 49.6759 35.0336 48.9213 36.1691C48.5835 36.7007 48.0828 37.175 47.5684 37.513Z" fill="white" fill-opacity="0.6"/>
<path fill-rule="evenodd" clip-rule="evenodd" d="M42.629 30.9788L37.5388 42.9334L37.3118 41.6292L35.7807 31.8291C35.7165 31.2309 35.9646 30.7265 36.4462 30.3952L37.1768 29.9629C37.2196 29.8115 37.0069 29.761 36.9075 29.7106L35.4756 29.6962C35.3836 28.2838 36.0073 27.0014 37.2122 26.2305C38.1483 25.6248 39.5732 25.4664 40.6155 25.9564C41.9696 26.5041 42.9119 27.9382 42.9333 29.4008C42.9264 29.9412 42.8344 30.4962 42.629 30.9788Z" fill="white" fill-opacity="0.6"/>
<path fill-rule="evenodd" clip-rule="evenodd" d="M32.7019 42.9334L27.3726 30.9705C26.7994 29.69 27.0408 28.0067 28.0206 26.9706C29.0684 25.8846 30.5456 25.424 32.0684 25.7912C33.3573 26.0859 34.5633 27.2371 34.8802 28.467C35.0309 28.9275 35.008 29.4812 34.978 29.9847L32.7019 42.9334Z" fill="white" fill-opacity="0.6"/>
<path fill-rule="evenodd" clip-rule="evenodd" d="M21.9044 37.0732C20.8734 36.191 20.4116 35.0142 20.5607 33.651C20.71 32.2736 21.8119 30.925 23.1268 30.5091C24.4775 30.0929 25.9487 30.4229 26.93 31.4201C27.3422 31.8075 27.5981 32.2666 27.8112 32.7402L32.6667 44.3333L21.9044 37.0732Z" fill="white" fill-opacity="0.6"/>
<path fill-rule="evenodd" clip-rule="evenodd" d="M20.6622 45.7303C19.32 45.573 18.2852 44.8274 17.6544 43.5585C17.0154 42.2777 17.1815 40.4603 18.0406 39.3246C18.9768 38.1682 20.3313 37.5864 21.6961 37.8719C22.2524 37.9643 22.7188 38.2111 23.1574 38.4952L33.6 45.7334L20.6622 45.7303Z" fill="white" fill-opacity="0.6"/>
<path fill-rule="evenodd" clip-rule="evenodd" d="M49.3375 45.7303C50.6804 45.573 51.7143 44.8274 52.3458 43.5585C52.9846 42.2777 52.8185 40.4603 51.9595 39.3246C51.0233 38.1682 49.6686 37.5864 48.3038 37.8719C47.7476 37.9643 47.2814 38.2111 46.8425 38.4952L36.4 45.7334L49.3375 45.7303Z" fill="white" fill-opacity="0.6"/>
</svg>
