<svg width="253" height="26" viewBox="0 0 253 26" fill="none" xmlns="http://www.w3.org/2000/svg">
<g clip-path="url(#clip0_215_1483)">
<path d="M54.0762 16.6743H56.5939V24.8266H35.9681V21.8307H38.8429V3.84366H34.1646L28.1668 24.8266H23.3735L18.4591 7.43866L13.4237 24.8266H8.63041L2.63875 3.84366H0V0.968877H11.1481V3.96471H7.9102L11.9894 18.3507L16.7827 0.962825H21.6971L26.6114 18.4657L30.5696 3.95865H27.2106V0.968877H56.2248V8.76409H53.707L53.465 7.80784C52.7447 4.93305 51.9035 3.97076 49.6279 3.97076H43.9933V11.1668H50.8383C51.0804 11.6449 51.1954 12.2441 51.1954 12.8433C51.1954 13.4424 51.0743 14.0416 50.8383 14.5197H44.0054V21.9518H49.8821C52.1577 21.9518 53.12 20.9955 53.8402 17.9937L54.0762 16.6743ZM75.7793 17.8726C75.0591 20.8684 74.1029 21.8307 71.8212 21.8307H67.0279V3.84366H70.2658V0.968877H58.9906V3.96471H61.8654V21.9518H58.9906V24.9476H78.412V16.7953H75.8943L75.7793 17.8726ZM97.3614 17.8726C96.6412 20.8684 95.685 21.8307 93.4033 21.8307H88.61V3.84366H91.8479V0.968877H80.5787V3.96471H83.4535V21.9518H80.5787V24.9476H100V16.7953H97.4825L97.3614 17.8726ZM115.342 10.7976L111.027 9.84137C108.51 9.24221 107.432 8.27991 107.432 6.60346C107.432 4.56387 108.994 3.36554 112.226 3.36554C115.342 3.36554 117.261 4.44283 117.981 7.20262L118.338 8.40095H120.856V2.40324C118.217 0.962825 115.221 0.242616 112.105 0.242616C106.228 0.242616 102.512 3.00241 102.512 7.55365C102.512 11.0337 104.672 13.6664 108.867 14.5076L113.182 15.4638C115.942 16.063 117.019 17.1403 117.019 18.9439C117.019 21.2195 115.342 22.4239 111.983 22.4239C108.146 22.4239 106.228 20.8624 105.387 17.9876L104.908 16.5472H102.391V23.2591C105.508 24.8205 108.988 25.5347 112.462 25.5347C118.217 25.5347 121.933 22.6599 121.933 18.2236C121.939 14.3987 119.664 11.881 115.342 10.7976ZM148.436 3.84366C150.711 3.84366 151.553 4.79991 152.273 7.68074L152.515 8.63699H155.033V0.968877H134.292V3.96471H137.167V21.9518H134.292V24.9476H145.682V21.9518H142.202V14.9978H149.277C149.519 14.5197 149.634 13.9205 149.634 13.3214C149.634 12.7222 149.513 12.2441 149.277 11.6449H142.202V3.84366H148.436ZM200.593 22.1878C200.951 23.0291 200.951 24.1064 200.593 24.9476C199.752 25.0687 198.796 25.0687 197.955 25.0687C194.596 25.0687 193.04 23.7493 192.677 20.5114L192.556 19.313C192.199 15.833 190.995 14.5197 187.279 14.5197H185.36V21.8307H188.598V24.8266H167.016V21.8307H169.776L168.214 17.5155H159.342L157.78 21.8307H160.655V24.8266H151.541V21.8307H153.937L162.332 0.847834H166.889L175.404 21.8307H180.083V3.84366H177.208V0.968877H190.995C195.909 0.968877 199.026 3.36554 199.026 7.32367C199.026 11.1607 195.788 13.2003 192.792 13.4364V13.5574C195.909 13.7995 197.228 15.597 197.471 18.2357L197.592 19.5551C197.834 21.5947 198.191 22.4299 199.752 22.4299C200.115 22.3089 200.357 22.1878 200.593 22.1878ZM167.143 14.7557L163.784 5.64116L160.425 14.7557H167.143ZM194.003 7.68074C194.003 5.16304 192.441 3.84366 189.324 3.84366H185.245V11.6389H189.324C192.32 11.6389 194.003 10.1985 194.003 7.68074ZM214.386 13.9145C214.386 14.5137 214.507 15.1128 214.743 15.5909H218.823V21.7036C217.503 22.1818 216.184 22.5449 214.743 22.5449C209.829 22.5449 207.19 19.0649 207.19 12.9522C207.19 6.83949 209.708 3.35949 214.386 3.35949C217.146 3.23845 219.543 4.92095 220.384 7.55365L220.741 8.50989H223.259V2.28825C220.499 0.847834 217.382 0.127625 214.144 0.127625C206.591 0.127625 201.556 5.16304 201.556 12.8372C201.556 20.6324 206.47 25.5468 214.144 25.5468C217.503 25.4257 220.741 24.5905 223.737 23.0291V12.3591H214.622C214.501 12.8372 214.386 13.4364 214.386 13.9145ZM252.515 12.8372C252.515 19.9122 246.759 25.5468 239.806 25.5468C232.731 25.5468 227.096 19.9122 227.096 12.8372C227.096 5.7622 232.852 0.127625 239.806 0.127625C246.881 0.127625 252.515 5.88325 252.515 12.8372ZM246.881 12.8372C246.881 6.7245 244.363 3.2445 239.806 3.2445C235.248 3.2445 232.731 6.7245 232.731 12.8372C232.731 18.9499 235.248 22.4299 239.806 22.4299C244.357 22.4299 246.881 18.9499 246.881 12.8372Z" fill="#636363"/>
</g>
<defs>
<clipPath id="clip0_215_1483">
<rect width="252.515" height="25.4192" fill="white" transform="translate(0 0.127625)"/>
</clipPath>
</defs>
</svg>
