<svg width="71" height="62" viewBox="0 0 71 62" fill="none" xmlns="http://www.w3.org/2000/svg">
<path d="M5.83342 60H66.0959C67.0645 60 67.9935 59.6697 68.6784 59.0817C69.3634 58.4938 69.7482 57.6964 69.7482 56.8649V5.13514C69.7482 4.30365 69.3634 3.50621 68.6784 2.91826C67.9935 2.33031 67.0645 2 66.0959 2H5.83342C4.86478 2 3.93581 2.33031 3.25088 2.91826C2.56594 3.50621 2.18115 4.30365 2.18115 5.13514V56.8649C2.18115 57.6964 2.56594 58.4938 3.25088 59.0817C3.93581 59.6697 4.86478 60 5.83342 60Z" stroke="#2E2E2E" stroke-width="2.39175" stroke-linecap="round" stroke-linejoin="round"/>
<path d="M16.7904 23.0508V40.5809M22.7564 40.5809V23.0508L36.2862 40.5809V12.0136M41.6094 40.5809V23.0524H46.204C48.5738 23.0524 50.8465 23.8605 52.5222 25.2989C54.1979 26.7373 55.1392 28.6883 55.1392 30.7225V32.914C55.1388 34.9479 54.1972 36.8984 52.5215 38.3365C50.8459 39.7746 48.5734 40.5825 46.204 40.5825L41.6094 40.5809Z" stroke="#2E2E2E" stroke-width="2.39175" stroke-linecap="round" stroke-linejoin="round"/>
<path d="M43.8151 18.475L36.286 12.0135L28.7568 18.475" stroke="#2E2E2E" stroke-width="2.39175" stroke-linecap="round" stroke-linejoin="round"/>
</svg>
