<svg width="52" height="52" viewBox="0 0 52 52" fill="none" xmlns="http://www.w3.org/2000/svg">
<path d="M43.0318 25.9046C43.0318 25.3339 42.8051 24.7867 42.4016 24.3832C41.9981 23.9797 41.4508 23.753 40.8802 23.753H24.5496L29.4983 18.8258C29.6989 18.6252 29.858 18.3871 29.9666 18.125C30.0752 17.8629 30.131 17.5819 30.131 17.2982C30.131 17.0145 30.0752 16.7336 29.9666 16.4715C29.858 16.2094 29.6989 15.9712 29.4983 15.7706C29.2977 15.57 29.0595 15.4108 28.7974 15.3023C28.5353 15.1937 28.2544 15.1378 27.9706 15.1378C27.6869 15.1378 27.406 15.1937 27.1439 15.3023C26.8818 15.4108 26.6436 15.57 26.443 15.7706L17.8366 24.377C17.6408 24.5816 17.4872 24.8229 17.3848 25.087C17.1696 25.6108 17.1696 26.1984 17.3848 26.7222C17.4872 26.9863 17.6408 27.2276 17.8366 27.4322L26.443 36.0386C26.643 36.2402 26.881 36.4003 27.1432 36.5095C27.4054 36.6188 27.6866 36.675 27.9706 36.675C28.2547 36.675 28.5359 36.6188 28.7981 36.5095C29.0603 36.4003 29.2983 36.2402 29.4983 36.0386C29.6999 35.8386 29.86 35.6006 29.9692 35.3384C30.0785 35.0762 30.1347 34.795 30.1347 34.5109C30.1347 34.2269 30.0785 33.9457 29.9692 33.6835C29.86 33.4213 29.6999 33.1833 29.4983 32.9833L24.5496 28.0562H40.8802C41.4508 28.0562 41.9981 27.8295 42.4016 27.426C42.8051 27.0225 43.0318 26.4752 43.0318 25.9046ZM36.577 4.38867H15.0611C13.3492 4.38867 11.7074 5.06873 10.4969 6.27923C9.28638 7.48974 8.60632 9.13153 8.60632 10.8434V40.9657C8.60632 42.6776 9.28638 44.3194 10.4969 45.5299C11.7074 46.7404 13.3492 47.4205 15.0611 47.4205H36.577C38.2889 47.4205 39.9307 46.7404 41.1412 45.5299C42.3517 44.3194 43.0318 42.6776 43.0318 40.9657V34.5109C43.0318 33.9403 42.8051 33.393 42.4016 32.9895C41.9981 32.586 41.4508 32.3594 40.8802 32.3594C40.3096 32.3594 39.7623 32.586 39.3588 32.9895C38.9553 33.393 38.7286 33.9403 38.7286 34.5109V40.9657C38.7286 41.5364 38.5019 42.0836 38.0984 42.4871C37.6949 42.8906 37.1476 43.1173 36.577 43.1173H15.0611C14.4905 43.1173 13.9432 42.8906 13.5397 42.4871C13.1362 42.0836 12.9095 41.5364 12.9095 40.9657V10.8434C12.9095 10.2728 13.1362 9.72554 13.5397 9.32204C13.9432 8.91854 14.4905 8.69185 15.0611 8.69185H36.577C37.1476 8.69185 37.6949 8.91854 38.0984 9.32204C38.5019 9.72554 38.7286 10.2728 38.7286 10.8434V17.2982C38.7286 17.8689 38.9553 18.4161 39.3588 18.8196C39.7623 19.2231 40.3096 19.4498 40.8802 19.4498C41.4508 19.4498 41.9981 19.2231 42.4016 18.8196C42.8051 18.4161 43.0318 17.8689 43.0318 17.2982V10.8434C43.0318 9.13153 42.3517 7.48974 41.1412 6.27923C39.9307 5.06873 38.2889 4.38867 36.577 4.38867Z" fill="white"/>
</svg>
