<svg width="23" height="24" viewBox="0 0 23 24" fill="none" xmlns="http://www.w3.org/2000/svg">
<path d="M19.8618 7.82331C20.6043 8.56579 20.6043 9.77233 19.8618 10.422L17.2631 13.0207L10.024 5.78149L12.6226 3.18281C13.3651 2.44033 14.5716 2.44033 15.2213 3.18281L16.8919 4.85339L19.6762 2.06909L20.9755 3.36843L18.1912 6.15273L19.8618 7.82331ZM14.4788 13.2063L13.1795 11.907L10.5808 14.5056L8.6318 12.5566L11.2305 9.95795L9.93114 8.6586L7.33246 11.2573L5.94031 9.95795L3.34163 12.5566C2.59915 13.2991 2.59915 14.5056 3.34163 15.1553L5.01221 16.8259L1.2998 20.5383L2.59915 21.8376L6.31155 18.1252L7.98213 19.7958C8.72461 20.5383 9.93114 20.5383 10.5808 19.7958L13.1795 17.1971L11.8802 15.8978L14.4788 13.2063Z" fill="url(#paint0_linear_800_11095)"/>
<defs>
<linearGradient id="paint0_linear_800_11095" x1="1.72878" y1="4.33424" x2="36.5554" y2="5.6456" gradientUnits="userSpaceOnUse">
<stop/>
<stop offset="1" stop-color="#3CFF49"/>
</linearGradient>
</defs>
</svg>
