<svg width="73" height="73" viewBox="0 0 73 73" fill="none" xmlns="http://www.w3.org/2000/svg">
<rect x="1.1665" y="0.861328" width="71" height="71" rx="11.5" fill="white" fill-opacity="0.12"/>
<rect x="1.1665" y="0.861328" width="71" height="71" rx="11.5" stroke="url(#paint0_radial_89_2491)"/>
<path d="M17.167 32.028V27.6947C17.167 26.5454 17.6235 25.4432 18.4362 24.6305C19.2489 23.8179 20.3511 23.3613 21.5003 23.3613H25.8337M17.167 32.028C20.0552 32.028 25.8337 30.2947 25.8337 23.3613M17.167 32.028V40.6947M25.8337 23.3613H47.5003M17.167 40.6947V45.028C17.167 46.1773 17.6235 47.2795 18.4362 48.0921C19.2489 48.9048 20.3511 49.3613 21.5003 49.3613H25.8337M17.167 40.6947C20.0552 40.6947 25.8337 42.428 25.8337 49.3613M56.167 32.028V27.6947C56.167 26.5454 55.7104 25.4432 54.8978 24.6305C54.0851 23.8179 52.9829 23.3613 51.8337 23.3613H47.5003M56.167 32.028C53.2788 32.028 47.5003 30.2947 47.5003 23.3613M56.167 32.028V36.3613M25.8337 49.3613H34.5003M49.667 42.8613V49.3613M49.667 49.3613V55.8613M49.667 49.3613H43.167M49.667 49.3613H56.167M41.0003 36.3613C41.0003 38.7546 39.0602 40.6947 36.667 40.6947C34.2738 40.6947 32.3337 38.7546 32.3337 36.3613C32.3337 33.9681 34.2738 32.028 36.667 32.028C39.0602 32.028 41.0003 33.9681 41.0003 36.3613Z" stroke="url(#paint1_linear_89_2491)" stroke-width="4.33333" stroke-linecap="round" stroke-linejoin="round"/>
<defs>
<radialGradient id="paint0_radial_89_2491" cx="0" cy="0" r="1" gradientUnits="userSpaceOnUse" gradientTransform="translate(36.6665 36.3613) rotate(90) scale(41 960.314)">
<stop stop-color="white"/>
<stop offset="1" stop-color="#01041A"/>
</radialGradient>
<linearGradient id="paint1_linear_89_2491" x1="14.7457" y1="23.3613" x2="90.5863" y2="91.145" gradientUnits="userSpaceOnUse">
<stop stop-color="#3FEFFF"/>
<stop offset="1" stop-color="#184ABE"/>
</linearGradient>
</defs>
</svg>
