<svg width="72" height="73" viewBox="0 0 72 73" fill="none" xmlns="http://www.w3.org/2000/svg">
<rect x="0.5" y="0.861328" width="71" height="71" rx="11.5" fill="white" fill-opacity="0.12"/>
<rect x="0.5" y="0.861328" width="71" height="71" rx="11.5" stroke="url(#paint0_radial_89_2447)"/>
<path d="M35.7715 44.5985L31.7628 40.4077L45.0618 28.7497L47.4314 31.2995L35.7715 44.5985ZM53.0773 56.4406C57.2681 52.2497 60 46.4198 60 39.8613C60 26.9285 49.4348 16.3613 36.5 16.3613C23.5652 16.3613 13 26.9285 13 39.8613C13 46.4217 15.5498 52.2497 19.9227 56.4406L23.201 53.1604C19.7406 49.7 17.7372 45.1449 17.7372 39.8633C17.7339 37.3982 18.2169 34.9567 19.1585 32.6785C20.1002 30.4004 21.4821 28.3304 23.225 26.5871C24.9679 24.8439 27.0376 23.4616 29.3155 22.5194C31.5935 21.5773 34.0349 21.0937 36.5 21.0966C38.9648 21.0937 41.4059 21.5771 43.6836 22.519C45.9612 23.461 48.0308 24.8429 49.7736 26.5857C51.5165 28.3286 52.8984 30.3981 53.8403 32.6758C54.7822 34.9535 55.2656 37.3946 55.2628 39.8594C55.2628 44.9608 53.0773 49.698 49.799 53.1584L53.0773 56.4406Z" fill="url(#paint1_linear_89_2447)"/>
<defs>
<radialGradient id="paint0_radial_89_2447" cx="0" cy="0" r="1" gradientUnits="userSpaceOnUse" gradientTransform="translate(36 36.3613) rotate(90) scale(41 960.314)">
<stop stop-color="white"/>
<stop offset="1" stop-color="#01041A"/>
</radialGradient>
<linearGradient id="paint1_linear_89_2447" x1="10.082" y1="16.3613" x2="103.344" y2="97.8179" gradientUnits="userSpaceOnUse">
<stop stop-color="#3FEFFF"/>
<stop offset="1" stop-color="#184ABE"/>
</linearGradient>
</defs>
</svg>
