<svg width="73" height="73" viewBox="0 0 73 73" fill="none" xmlns="http://www.w3.org/2000/svg">
<rect x="0.833496" y="0.861328" width="71" height="71" rx="11.5" fill="white" fill-opacity="0.12"/>
<rect x="0.833496" y="0.861328" width="71" height="71" rx="11.5" stroke="url(#paint0_radial_89_2484)"/>
<path fill-rule="evenodd" clip-rule="evenodd" d="M22.9499 41.0782C23.3672 42.0026 23.447 43.0441 23.1755 44.0212C22.904 44.9984 22.2983 45.8494 21.464 46.426C20.6296 47.0026 19.6194 47.2683 18.6094 47.1768C17.5993 47.0853 16.6533 46.6424 15.9362 45.9253C15.2191 45.2081 14.7762 44.2621 14.6847 43.2521C14.5932 42.242 14.8589 41.2318 15.4355 40.3975C16.0121 39.5632 16.863 38.9575 17.8402 38.686C18.8174 38.4144 19.8589 38.4943 20.7832 38.9116L25.8836 33.8112C25.5858 33.1512 25.4581 32.4272 25.5122 31.7051C25.5663 30.9831 25.8004 30.2861 26.1933 29.6779C26.5861 29.0697 27.1251 28.5696 27.7609 28.2233C28.3968 27.877 29.1093 27.6956 29.8334 27.6956C30.5575 27.6956 31.27 27.877 31.9058 28.2233C32.5417 28.5696 33.0807 29.0697 33.4735 29.6779C33.8664 30.2861 34.1005 30.9831 34.1546 31.7051C34.2087 32.4272 34.081 33.1512 33.7832 33.8112L38.8836 38.9116C39.444 38.6585 40.0518 38.5277 40.6667 38.5277C41.2816 38.5277 41.8895 38.6585 42.4499 38.9116L49.7169 31.6446C49.2996 30.7202 49.2198 29.6787 49.4913 28.7015C49.7628 27.7244 50.3685 26.8734 51.2028 26.2968C52.0372 25.7202 53.0473 25.4545 54.0574 25.546C55.0675 25.6375 56.0134 26.0804 56.7306 26.7975C57.4477 27.5147 57.8906 28.4607 57.9821 29.4707C58.0736 30.4808 57.8079 31.4909 57.2313 32.3253C56.6547 33.1596 55.8038 33.7653 54.8266 34.0368C53.8494 34.3083 52.8079 34.2285 51.8836 33.8112L44.6166 41.0782C44.9144 41.7382 45.0421 42.4623 44.988 43.1843C44.9339 43.9063 44.6997 44.6033 44.3069 45.2115C43.914 45.8198 43.3751 46.3199 42.7392 46.6661C42.1033 47.0124 41.3908 47.1939 40.6667 47.1939C39.9427 47.1939 39.2302 47.0124 38.5943 46.6661C37.9584 46.3199 37.4194 45.8198 37.0266 45.2115C36.6338 44.6033 36.3996 43.9063 36.3455 43.1843C36.2914 42.4623 36.4191 41.7382 36.7169 41.0782L31.6166 35.9779C31.0561 36.2309 30.4483 36.3618 29.8334 36.3618C29.2185 36.3618 28.6107 36.2309 28.0502 35.9779L22.9499 41.0782Z" fill="url(#paint1_linear_89_2484)"/>
<defs>
<radialGradient id="paint0_radial_89_2484" cx="0" cy="0" r="1" gradientUnits="userSpaceOnUse" gradientTransform="translate(36.3335 36.3613) rotate(90) scale(41 960.314)">
<stop stop-color="white"/>
<stop offset="1" stop-color="#01041A"/>
</radialGradient>
<linearGradient id="paint1_linear_89_2484" x1="11.9767" y1="25.5283" x2="59.0659" y2="95.6737" gradientUnits="userSpaceOnUse">
<stop stop-color="#3FEFFF"/>
<stop offset="1" stop-color="#184ABE"/>
</linearGradient>
</defs>
</svg>
