<svg width="24" height="25" viewBox="0 0 24 25" fill="none" xmlns="http://www.w3.org/2000/svg">
<path d="M4 11.25C3.58579 11.25 3.25 11.5858 3.25 12C3.25 12.4142 3.58579 12.75 4 12.75V11.25ZM18.5303 12.5303C18.8232 12.2374 18.8232 11.7626 18.5303 11.4697L13.7574 6.6967C13.4645 6.40381 12.9896 6.40381 12.6967 6.6967C12.4038 6.98959 12.4038 7.46447 12.6967 7.75736L16.9393 12L12.6967 16.2426C12.4038 16.5355 12.4038 17.0104 12.6967 17.3033C12.9896 17.5962 13.4645 17.5962 13.7574 17.3033L18.5303 12.5303ZM4 12V12.75H18V12V11.25H4V12Z" fill="white"/>
</svg>
