<svg width="73" height="73" viewBox="0 0 73 73" fill="none" xmlns="http://www.w3.org/2000/svg">
<rect x="1.1665" y="0.861328" width="71" height="71" rx="11.5" fill="white" fill-opacity="0.12"/>
<rect x="1.1665" y="0.861328" width="71" height="71" rx="11.5" stroke="url(#paint0_radial_89_2491)"/>
<path d="M26.7778 46.2222H30.6667V32.6111H26.7778V46.2222ZM34.5556 46.2222H38.4444V26.7778H34.5556V46.2222ZM42.3333 46.2222H46.2222V38.4444H42.3333V46.2222ZM46.2222 30.6667V26.7778H42.3333V22.8889H46.2222V19H50.1111V22.8889H54V26.7778H50.1111V30.6667H46.2222ZM22.8889 54C21.8194 54 20.9043 53.6195 20.1433 52.8586C19.3824 52.0977 19.0013 51.1818 19 50.1111V22.8889C19 21.8194 19.3811 20.9043 20.1433 20.1433C20.9056 19.3824 21.8207 19.0013 22.8889 19H40.3889V28.7222C40.3889 29.7917 40.77 30.7075 41.5322 31.4697C42.2944 32.2319 43.2096 32.6124 44.2778 32.6111H54V50.1111C54 51.1805 53.6195 52.0964 52.8586 52.8586C52.0977 53.6208 51.1819 54.0013 50.1111 54H22.8889Z" fill="url(#paint1_linear_89_2491)"/>
<defs>
<radialGradient id="paint0_radial_89_2491" cx="0" cy="0" r="1" gradientUnits="userSpaceOnUse" gradientTransform="translate(36.6665 36.3613) rotate(90) scale(41 960.314)">
<stop stop-color="white"/>
<stop offset="1" stop-color="#01041A"/>
</radialGradient>
<linearGradient id="paint1_linear_89_2491" x1="16.8271" y1="19" x2="95.5744" y2="77.6514" gradientUnits="userSpaceOnUse">
<stop stop-color="#3FEFFF"/>
<stop offset="1" stop-color="#184ABE"/>
</linearGradient>
</defs>
</svg>
