<svg width="128" height="54" viewBox="0 0 128 54" fill="none" xmlns="http://www.w3.org/2000/svg">
<g clip-path="url(#clip0_229_745)">
<path d="M29.4179 5.64296C24.5475 5.64296 21.5423 9.31897 21.5423 15.5837C21.5423 21.7967 24.5475 25.5245 29.4179 25.5245C34.2883 25.5245 37.2934 21.8485 37.2934 15.5837C37.2934 9.31897 34.3402 5.64296 29.4179 5.64296ZM29.4179 24.3855C27.5526 24.3855 26.9827 22.3662 26.9827 15.5319C26.9827 8.69767 27.5526 6.67845 29.4179 6.67845C31.2831 6.67845 31.8531 8.74944 31.8531 15.5837C31.8531 22.3662 31.2831 24.3855 29.4179 24.3855ZM65.3245 33.7567C63.252 33.7567 61.7493 34.5333 60.8685 35.8795V29.0452H55.6354V41.73C55.6354 48.6161 51.6975 51.8778 48.1224 51.8778C45.48 51.8778 44.392 50.0658 44.392 43.8527C44.392 37.6398 45.0655 34.8439 47.1899 34.8439C48.5888 34.8439 49.7806 36.1901 50.9722 39.2966H52.2675V34.6887C50.7131 34.0673 48.796 33.7567 47.2935 33.7567C41.9568 33.7567 38.9516 37.5881 38.9516 43.8527C38.9516 50.0658 41.9568 53.5865 47.0344 53.5865C51.2314 53.5865 54.2365 51.3601 55.6354 47.5806V53.1205H60.8685V39.0378C60.8685 36.8632 62.0602 35.7759 63.3037 35.7759C64.4955 35.7759 64.91 36.7596 64.91 38.261V53.1723H70.1431V39.2449C70.1431 35.3616 68.226 33.7567 65.3245 33.7567ZM40.506 0.931445V25.0585H45.7391V0.931445H40.506ZM59.366 0.931445V7.50685C58.8997 6.3678 57.7598 5.64296 55.9463 5.64296C51.8531 5.64296 49.107 9.31897 49.107 15.4802C49.107 21.7967 51.5422 25.4727 55.739 25.4727C57.7079 25.4727 59.055 24.5408 59.6769 22.6251V25.0067H64.5473V0.931445H59.366ZM56.7753 23.9713C55.1173 23.9713 54.5474 22.3145 54.5474 15.4284C54.5474 8.95655 55.1173 7.04088 56.8789 7.04088C58.7961 7.04088 59.4696 9.31896 59.4696 15.4284C59.4696 21.5896 58.5888 23.9713 56.7753 23.9713ZM87.1379 5.64296C84.8064 5.64296 83.0965 6.88554 82.371 8.59412C81.6457 6.62668 80.1949 5.64296 78.1223 5.64296C75.8943 5.64296 74.2882 6.62668 73.511 8.2317V6.10893H68.6405V25.0585H73.8219V10.924C73.8219 8.74944 74.8582 7.66218 76.1535 7.66218C77.2415 7.66218 77.7079 8.54235 77.7079 10.0438V25.0585H82.941V10.924C82.941 8.74944 83.9773 7.66218 85.2726 7.66218C86.3607 7.66218 86.8269 8.54235 86.8269 10.0438V25.0585H92.0602V11.1311C92.0602 7.24798 90.0912 5.64296 87.1379 5.64296ZM82.8374 42.0407L79.8322 40.2286C77.8115 39.0378 77.0861 38.3129 77.0861 37.0703C77.0861 35.6724 78.0706 34.7922 79.7286 34.7922C81.6974 34.7922 83.1482 36.0866 84.0292 39.2449H85.3244V34.3779C83.6664 34.0156 81.8011 33.7049 80.143 33.7049C75.9462 33.7049 73.4074 35.7759 73.4074 39.1413C73.4074 41.4712 74.7027 43.0761 77.3451 44.6812L79.8322 46.1826C81.9048 47.4252 82.6301 48.3054 82.6301 49.7034C82.6301 51.5155 81.4902 52.4474 79.5213 52.4474C77.0862 52.4474 75.6871 50.8941 74.7546 47.4771H73.4591V52.8098C75.3763 53.3275 77.397 53.5346 79.055 53.5346C83.8218 53.5346 86.568 51.3083 86.568 47.5806C86.5161 45.0437 85.2726 43.4904 82.8374 42.0407ZM102.785 5.64296C100.817 5.64296 98.485 6.00537 96.3088 6.67845V11.1311H97.6042C98.6922 8.33524 100.143 6.78201 102.215 6.78201C103.511 6.78201 104.029 7.4033 104.029 8.85299V11.2864C104.029 12.4772 103.718 12.8397 102.371 13.3056L100.972 13.7716C96.827 15.1695 94.9618 16.9816 94.9618 20.2434C94.9618 23.7124 97.0342 25.5245 100.039 25.5245C102.164 25.5245 103.977 24.5925 104.547 22.7804V25.0585H109.314V11.2864C109.262 7.55862 107.034 5.64296 102.785 5.64296ZM104.029 19.9845C104.029 22.4698 103.2 23.6088 101.905 23.6088C100.661 23.6088 100.247 22.6251 100.247 20.0882V19.5704C100.247 16.6193 100.868 15.4284 102.578 14.5482L104.029 13.8234V19.9845ZM122.889 5.64296C120.609 5.64296 118.951 6.62668 118.122 8.2317V6.10893H113.2V25.0585H118.433V10.8722C118.433 8.69767 119.625 7.61039 120.868 7.61039C122.06 7.61039 122.475 8.59412 122.475 10.0956V25.0067H127.708V11.1311C127.708 7.24798 125.791 5.64296 122.889 5.64296ZM19.3143 45.0437C19.3143 49.9104 15.791 53.1723 10.1433 53.1723H1.85322V44.5258H3.09673C4.23663 49.6515 6.36098 51.9297 9.93609 51.9297C12.8376 51.9297 14.392 50.3764 14.392 47.8395C14.392 45.1472 12.734 43.9046 10.2988 42.5066L6.62003 40.3321C3.51124 38.52 1.74959 36.2936 1.74959 33.1872C1.74959 29.7182 3.77031 27.4919 7.03454 26.5599C2.42317 25.3175 0.765137 21.1236 0.765137 13.6681C0.765137 5.17699 4.28843 0.413696 11.4905 0.413696H18.1744V7.55862H16.879C15.3247 3.00244 13.9775 1.60452 11.5423 1.60452C7.96719 1.60452 6.98273 5.43586 6.98273 13.8751C6.98273 23.6088 7.86356 25.7833 10.506 25.7833C12.5268 25.7833 13.5112 24.489 13.5112 21.4342V17.7065C13.5112 15.4284 12.7858 14.6 10.4024 14.2376V13.0468H18.3817V33.3942H17.19C15.3765 28.2685 13.0449 27.1295 10.4542 27.1295C7.91537 27.1295 6.36098 28.3204 6.36098 30.6502C6.36098 32.8247 7.6563 33.8602 10.0915 35.3099L14.0812 37.6916C17.2417 39.659 19.3143 41.4712 19.3143 45.0437ZM29.3661 33.7567C27.3971 33.7567 25.0656 34.1192 22.8895 34.7922V39.2449H24.1847C25.2728 36.449 26.7236 34.8958 28.7962 34.8958C30.0915 34.8958 30.6095 35.517 30.6095 36.9667V39.3484C30.6095 40.5392 30.2987 40.9016 28.9515 41.3676L27.5526 41.8335C23.4076 43.2315 21.5423 45.0437 21.5423 48.3054C21.5423 51.7743 23.6148 53.5865 26.6199 53.5865C28.7443 53.5865 30.5578 52.6545 31.1278 50.8424V53.1205H35.8427V39.452C35.8427 35.6724 33.563 33.7567 29.3661 33.7567ZM30.6095 48.0983C30.6095 50.5835 29.7806 51.7226 28.4852 51.7226C27.2418 51.7226 26.8272 50.7389 26.8272 48.2018V47.6841C26.8272 44.7329 27.449 43.5421 29.1588 42.662L30.6095 41.937V48.0983Z" fill="black" fill-opacity="0.95"/>
</g>
<defs>
<clipPath id="clip0_229_745">
<rect width="127.118" height="53.1728" fill="white" transform="translate(0.610596 0.413635)"/>
</clipPath>
</defs>
</svg>
