<svg width="36" height="21" viewBox="0 0 36 21" fill="none" xmlns="http://www.w3.org/2000/svg">
<path d="M35.1944 17.3934C34.9488 16.6274 33.8154 15.508 33.9532 14.0124C34.0909 12.5174 35.3057 9.10184 34.9904 7.64396C34.6751 6.18608 33.0941 1.89983 29.0065 1.2516C24.9207 0.603636 21.9861 1.67925 20.4189 1.61023C18.8528 1.54093 18.5679 0.382245 16.8368 0.397239C14.6022 0.4175 14.2175 1.32508 12.6376 1.8119C11.4792 2.16917 7.85093 2.16485 7.85093 2.16485C7.85093 2.16485 6.81287 0.83948 6.49648 1.32508C6.18009 1.81095 5.7737 3.04825 5.7737 3.04825C5.7737 3.04825 3.83176 3.7108 3.65189 4.06511C3.47189 4.41941 3.2248 4.9939 3.2248 4.9939C3.2248 4.9939 1.16814 5.52299 0.942584 6.00886C0.717165 6.49446 1.84619 7.64275 2.20717 8.04149C2.56814 8.4401 6.76731 8.52736 7.4328 9.00716C8.09802 9.48762 9.961 9.84814 11.0014 10.0229C12.954 10.3518 13.8122 14.1472 14.3084 18.345C13.7212 18.8317 12.6829 19.2626 12.6267 20.6028H18.9923C18.9923 20.6028 19.0769 19.7081 19.1848 18.6C19.2911 17.492 21.2166 13.2979 21.2166 13.2979C21.2166 13.2979 22.6157 14.3583 23.5644 14.4039C23.4752 15.2428 23.8753 16.1354 23.8753 16.1354C23.8753 16.1354 24.6947 17.0984 25.4912 17.8605C24.0331 18.4489 24.0756 19.4867 24.0756 19.4867L29.4791 19.5277C29.4791 19.5277 30.0207 18.424 30.0207 17.5395C30.7448 18.5567 32.1439 18.9541 32.1439 18.9541L31.2737 20.6028H34.5756C34.5776 20.6017 35.4401 18.1587 35.1944 17.3934ZM4.84483 5.22474C4.60727 5.22474 4.41594 5.03631 4.41594 4.80492C4.41594 4.57408 4.60727 4.38483 4.84483 4.38483C5.08102 4.38483 5.27414 4.573 5.27414 4.80492C5.27414 5.03847 5.07991 5.22474 4.84483 5.22474Z" fill="white"/>
</svg>
