<svg width="34" height="25" viewBox="0 0 34 25" fill="none" xmlns="http://www.w3.org/2000/svg">
<path d="M3.03782 15.4633L5.00266 14.3254C5.00266 14.3254 4.52585 13.41 4.38023 12.2674C0.296207 15.0062 0.413433 8.16494 0.413433 8.16494L1.12855 9.30377C1.16587 13.9515 3.97258 11.6689 4.34819 11.3424C4.45426 9.78688 5.44986 8.15414 9.03234 7.89108C9.03234 7.89108 11.6332 7.63023 14.071 5.11811C14.071 5.11811 21.1808 -3.67271 27.5988 4.38476C27.5988 4.38476 29.1628 6.18933 29.508 7.18334C29.508 7.18334 31.8428 6.92268 33.0615 8.83268C33.0615 8.83268 31.4179 8.36138 31.1263 8.64824C31.1263 8.64824 33.5393 9.77307 33.4079 12.1544C33.4079 12.1544 31.7907 9.82528 30.1982 10.0087C30.1982 10.0087 29.9327 10.9765 29.4293 11.6567V12.5983C29.4293 12.5983 29.4559 13.147 27.6795 13.2518C27.6795 13.2518 26.8305 13.1732 26.7242 10.9753C26.7242 10.9753 26.5119 10.0337 25.5838 10.5576C25.5838 10.5576 23.0077 12.6509 25.5838 13.5132C26.7194 13.8931 30.0931 14.115 29.7747 15.8155L27.1479 16.7045C27.1479 16.7045 27.2793 15.7629 26.565 15.1624C26.565 15.1624 24.0463 15.4635 22.7724 15.1478C22.7724 15.1478 26.9885 16.5219 26.6324 18.9934H23.8476C23.8476 18.9934 24.5243 17.3466 22.8929 17.2284C22.8929 17.2284 19.8302 16.209 18.3175 13.344C18.3175 13.344 14.0205 12.6383 9.9241 17.4245C9.9241 17.4245 9.52659 19.4659 12.3114 20.2895C12.3114 20.2895 14.8579 20.879 14.8579 22.9168H11.9137C11.9137 22.9168 12.7499 21.5049 10.838 21.4273C10.838 21.4273 6.38361 20.9948 6.81966 19.6999C6.81966 19.6999 6.69979 18.131 5.90315 18.131C5.90315 18.131 3.95453 18.4439 2.84049 22.4465C2.84049 22.4465 3.99509 23.074 3.99509 24.0156H1.0892C1.0892 24.0156 -0.263149 21.3467 2.64153 16.8739L3.03782 15.4633Z" fill="white"/>
</svg>
