<svg width="205" height="52" viewBox="0 0 205 52" fill="none" xmlns="http://www.w3.org/2000/svg">
<g clip-path="url(#clip0_229_749)">
<mask id="mask0_229_749" style="mask-type:luminance" maskUnits="userSpaceOnUse" x="-1" y="-1" width="206" height="54">
<path d="M-0.273926 -0.442383H204.145V52.442H-0.273926V-0.442383Z" fill="white"/>
</mask>
<g mask="url(#mask0_229_749)">
<path fill-rule="evenodd" clip-rule="evenodd" d="M200.744 24.0913C200.666 22.1744 199.121 20.4864 196.802 20.4864C194.252 20.4864 192.784 22.0972 192.552 24.0903H200.744V24.0913ZM196.88 17.5729C201.052 17.5729 204.145 20.6399 204.145 24.8581C204.145 25.1661 204.145 25.7011 204.067 25.9319C204.067 26.3143 203.68 26.6224 203.371 26.6224H192.319C192.319 28.7701 194.33 30.9168 197.112 30.9168C198.966 30.9168 200.048 30.2273 201.052 29.6141C201.363 29.3833 201.672 29.306 201.981 29.6904L202.906 31.1486C203.216 31.4537 203.294 31.7598 202.83 32.2214C201.67 33.219 199.584 34.2156 196.88 34.2156C192.01 34.2156 188.92 30.4581 188.92 25.9319C188.92 21.4077 192.012 17.5729 196.88 17.5729ZM175.243 32.6038C175.011 32.4512 174.778 32.1442 174.934 31.7598L175.629 30.3036C175.783 29.9974 176.247 29.8449 176.632 30.0747C177.562 30.6107 178.719 31.2239 180.573 31.2239C181.887 31.2239 182.66 30.6087 182.66 29.6904C182.66 28.6175 181.424 27.927 179.261 26.9295C176.786 25.8546 174.934 24.5529 174.934 21.9446C174.934 19.9495 176.323 17.6482 180.188 17.6482C182.429 17.6482 184.052 18.3387 184.823 18.7993C185.211 19.1055 185.366 19.5661 185.133 19.9495L184.593 21.0223C184.361 21.483 183.897 21.483 183.588 21.3304C182.507 20.8698 181.424 20.5646 180.188 20.5646C178.797 20.5646 178.18 21.2531 178.18 21.9446C178.18 22.9402 179.336 23.5534 180.884 24.2458C183.819 25.4713 186.062 26.5451 186.062 29.4595C186.062 31.9143 183.897 34.062 180.342 34.062C177.947 34.2156 176.169 33.219 175.241 32.6038H175.243ZM164.036 31.3764C165.66 31.3764 167.283 30.2273 167.747 29.4605V26.8522C167.514 26.6986 166.276 26.3143 164.81 26.3143C162.954 26.3143 161.486 27.3138 161.486 28.9226C161.563 30.3036 162.415 31.3764 164.036 31.3764ZM164.579 23.7842C166.2 23.7842 167.823 24.2439 167.823 24.2439C167.901 21.7138 167.283 20.6419 165.273 20.6419C163.418 20.6419 161.641 21.1778 160.792 21.4077C160.328 21.483 160.018 21.1778 159.864 20.7172L159.554 19.4135C159.478 18.8766 159.71 18.6468 160.096 18.4913C160.404 18.416 162.646 17.5729 165.582 17.5729C170.682 17.5729 171.147 20.6399 171.147 24.551V32.9872C171.119 33.3989 170.788 33.7275 170.373 33.7549H169.214C168.904 33.7549 168.75 33.6024 168.594 33.219L168.21 32.1442C166.898 33.4429 165.116 34.1618 163.264 34.1373C160.25 34.1373 158.086 32.1442 158.086 28.8473C158.164 26.0092 160.482 23.7862 164.579 23.7862V23.7842ZM149.586 17.5729C152.06 17.5729 153.914 18.4913 155.382 20.3319C155.691 20.7172 155.611 21.1759 155.228 21.483L153.991 22.6351C153.527 23.0175 153.218 22.7104 152.985 22.4805C152.292 21.7138 150.977 20.8698 149.663 20.8698C146.959 20.8698 144.793 23.0947 144.793 25.8546C144.793 28.6928 146.882 30.9168 149.51 30.9168C151.596 30.9168 152.445 29.7676 153.296 28.9226C153.603 28.6155 153.991 28.6155 154.376 28.8454L155.46 29.6904C155.845 29.9974 156 30.3808 155.767 30.8405C154.454 32.8336 152.292 34.1373 149.51 34.1373C145.027 34.1373 141.317 30.6106 141.317 25.8546C141.395 21.2531 145.181 17.5729 149.588 17.5729H149.586ZM133.976 10.5157C133.976 10.1333 134.285 9.7499 134.748 9.7499H136.68C137.094 9.77826 137.423 10.1049 137.452 10.5157V33.0664C137.423 33.4772 137.094 33.8038 136.68 33.8322H134.75C134.323 33.8322 133.976 33.4879 133.976 33.0645V10.5157ZM125.475 10.5157C125.475 10.1333 125.785 9.7499 126.248 9.7499H128.18C128.594 9.77826 128.923 10.1049 128.952 10.5157V33.0664C128.923 33.4772 128.594 33.8038 128.18 33.8322H126.25C125.823 33.8322 125.475 33.4879 125.475 33.0645V10.5157ZM113.575 31.3764C115.197 31.3764 116.819 30.2273 117.283 29.4605V26.8522C117.053 26.6986 115.815 26.3143 114.347 26.3143C112.492 26.3143 111.025 27.3138 111.025 28.9226C111.025 30.3036 111.874 31.3764 113.575 31.3764ZM114.039 23.7842C115.661 23.7842 117.283 24.2439 117.283 24.2439C117.361 21.7138 116.743 20.6419 114.733 20.6419C112.879 20.6419 111.103 21.1778 110.253 21.4077C109.788 21.483 109.479 21.1778 109.325 20.7172L109.015 19.4135C108.939 18.8766 109.168 18.6468 109.557 18.4913C109.865 18.416 112.107 17.5729 115.042 17.5729C120.143 17.5729 120.684 20.6399 120.684 24.551V32.9872C120.655 33.3989 120.326 33.7266 119.911 33.7549H118.752C118.443 33.7549 118.289 33.6024 118.058 33.219L117.67 32.1442C116.358 33.4429 114.576 34.1608 112.726 34.1373C109.71 34.1373 107.547 32.1442 107.547 28.8473C107.625 26.0092 109.943 23.7862 114.039 23.7862V23.7842ZM80.0372 18.7221C80.0372 18.3387 80.3447 17.9563 80.8088 17.9563H81.5814C81.9677 17.9563 82.2012 18.1089 82.2771 18.416L82.7412 19.7959C83.0487 19.4135 84.7495 17.5729 87.8418 17.5729C90.1595 17.5729 91.5499 18.4913 92.7098 20.104C93.1739 19.6434 95.0285 17.5729 98.1178 17.5729C102.989 17.5729 104.224 20.947 104.224 25.0889V33.0645C104.224 33.4879 103.878 33.8322 103.451 33.8322H101.52C101.056 33.8322 100.746 33.5251 100.746 33.0645V24.9353C100.746 22.4042 99.7428 20.8698 97.5788 20.8698C95.1822 20.8698 94.0234 22.4805 93.7139 22.7104C93.7918 23.0175 93.8677 24.014 93.8677 24.8581V33.0664C93.8677 33.4469 93.5592 33.8322 93.1739 33.8322H91.1637C90.6995 33.8322 90.3921 33.5251 90.3921 33.0645V24.9353C90.3921 22.327 89.4638 20.8698 87.222 20.8698C84.8274 20.8698 83.5907 22.6351 83.437 23.173V33.0645C83.4094 33.4762 83.0783 33.8048 82.6634 33.8322H80.7329C80.3053 33.8322 79.9594 33.4879 79.9594 33.0645V18.7221H80.0372ZM65.4303 32.6038C65.1997 32.4512 64.9662 32.1442 65.1219 31.7598L65.8166 30.3036C65.9723 29.9974 66.4364 29.8449 66.8227 30.0747C67.748 30.6107 68.9088 31.2239 70.7624 31.2239C72.077 31.2239 72.8486 30.6087 72.8486 29.6904C72.8486 28.6175 71.6128 27.927 69.4489 26.9295C66.9764 25.8546 65.1219 24.5529 65.1219 21.9446C65.1219 19.9495 66.5123 17.6482 70.3761 17.6482C72.617 17.6482 74.241 18.3387 75.0126 18.7993C75.3988 19.1055 75.5545 19.5661 75.323 19.9495L74.781 21.0223C74.5504 21.483 74.0872 21.483 73.7768 21.3304C72.6968 20.8698 71.6128 20.5646 70.3761 20.5646C68.9867 20.5646 68.3669 21.2531 68.3669 21.9446C68.3669 22.9402 69.5267 23.5534 71.0728 24.2458C74.0094 25.4713 76.2493 26.5451 76.2493 29.4595C76.2493 31.9143 74.0872 34.062 70.5299 34.062C68.1363 34.2156 66.3586 33.219 65.4303 32.6038ZM22.7683 6.63301L31.6549 10.9186C32.0944 11.1308 32.2787 11.656 32.0638 12.0922C31.9801 12.2643 31.8431 12.4052 31.6706 12.4922L23.0502 16.8717C22.7949 16.9969 22.4954 16.9969 22.2401 16.8717L13.3546 12.5881C12.9151 12.3758 12.7308 11.8497 12.9446 11.4135C13.0284 11.2413 13.1663 11.1025 13.3378 11.0154L21.9583 6.63496C22.2135 6.5088 22.5131 6.50782 22.7683 6.63301ZM22.8324 22.9089L43.8663 12.2223C44.2998 12.0003 44.4713 11.4712 44.2466 11.0389C44.1599 10.8697 44.02 10.7347 43.8475 10.6516L22.995 0.596788C22.7407 0.470626 22.4421 0.470626 22.1879 0.596788L1.15403 11.2785C0.719454 11.5005 0.547005 12.0296 0.769711 12.4609C0.857414 12.6311 0.998329 12.769 1.17176 12.8521L22.0332 22.905C22.2845 23.0282 22.5801 23.0282 22.8324 22.905V22.9089ZM40.5069 30.6087C40.3483 34.2557 38.3508 37.5779 35.1935 39.4479C32.2658 40.9413 29.891 39.4107 29.8929 36.02C30.0496 32.374 32.0471 29.0498 35.2063 27.1798C38.1331 25.6864 40.5069 27.2238 40.5069 30.6067V30.6087ZM46.7151 39.7833V16.015C46.7112 15.524 46.3072 15.1289 45.8125 15.1328C45.6706 15.1338 45.5306 15.168 45.4045 15.2326L24.1834 26.0678C23.8868 26.2165 23.7005 26.5177 23.6995 26.8473V50.6157C23.7035 51.1066 24.1075 51.5017 24.6022 51.4978C24.7441 51.4968 24.884 51.4626 25.0102 51.3981L46.2382 40.5638C46.5318 40.4122 46.7151 40.1119 46.7151 39.7833ZM13.8985 41.8704L4.3468 37.2826C3.90632 37.0713 3.72106 36.5471 3.93194 36.1099C3.95066 36.0738 3.97037 36.0386 3.99303 36.0053L8.77431 28.9745C9.05417 28.5657 9.61488 28.459 10.0268 28.7368C10.1716 28.8346 10.285 28.9715 10.352 29.1319L15.1342 40.7427C15.3313 41.1867 15.1283 41.7061 14.6809 41.9017C14.4287 42.0122 14.139 41.9995 13.8985 41.8684V41.8704Z" fill="#3A3A3A"/>
</g>
</g>
<defs>
<clipPath id="clip0_229_749">
<rect width="204.134" height="51.8267" fill="white" transform="translate(0.254883 0.0866394)"/>
</clipPath>
</defs>
</svg>
