<svg width="24" height="25" viewBox="0 0 24 25" fill="none" xmlns="http://www.w3.org/2000/svg">
<rect y="0.935547" width="24" height="24" rx="12" fill="#28F2FF" fill-opacity="0.1"/>
<path d="M16.835 15.1151L15.1366 14.9212C14.9369 14.8977 14.7344 14.9198 14.5445 14.9859C14.3546 15.0519 14.1821 15.1601 14.0399 15.3023L12.8096 16.5327C10.9113 15.5673 9.36842 14.0244 8.403 12.1261L9.64005 10.8891C9.92758 10.6015 10.068 10.2003 10.0212 9.79245L9.82728 8.10739C9.78937 7.78119 9.63283 7.48033 9.38745 7.26208C9.14208 7.04383 8.82501 6.92344 8.49662 6.92383H7.33981C6.5842 6.92383 5.95565 7.55238 6.00246 8.30799C6.35685 14.0185 10.9239 18.5788 16.6277 18.9332C17.3833 18.9801 18.0119 18.3515 18.0119 17.5959V16.4391C18.0186 15.7637 17.5104 15.1953 16.835 15.1151Z" fill="#28F2FF"/>
</svg>
