<svg width="52" height="52" viewBox="0 0 52 52" fill="none" xmlns="http://www.w3.org/2000/svg">
<rect width="51.9998" height="51.9998" rx="10" fill="url(#paint0_linear_560_1438)" fill-opacity="0.2"/>
<path d="M26.0002 26.7109C24.6802 26.7109 23.4142 27.2353 22.4808 28.1687C21.5473 29.1022 21.0229 30.3682 21.0229 31.6882C21.0229 33.0083 21.5473 34.2743 22.4808 35.2077C23.4142 36.1411 24.6802 36.6655 26.0002 36.6655C27.3203 36.6655 28.5863 36.1411 29.5197 35.2077C30.4531 34.2743 30.9775 33.0083 30.9775 31.6882C30.9775 30.3682 30.4531 29.1022 29.5197 28.1687C28.5863 27.2353 27.3203 26.7109 26.0002 26.7109ZM23.8671 31.6882C23.8671 31.1225 24.0918 30.5799 24.4919 30.1799C24.8919 29.7798 25.4345 29.5551 26.0002 29.5551C26.566 29.5551 27.1085 29.7798 27.5086 30.1799C27.9086 30.5799 28.1333 31.1225 28.1333 31.6882C28.1333 32.2539 27.9086 32.7965 27.5086 33.1966C27.1085 33.5966 26.566 33.8213 26.0002 33.8213C25.4345 33.8213 24.8919 33.5966 24.4919 33.1966C24.0918 32.7965 23.8671 32.2539 23.8671 31.6882Z" fill="white"/>
<path d="M33.8586 16.2108L29.3378 9.87256L12.7151 23.1519L11.7936 23.142V23.1562H11.0684V40.2211H40.932V23.1562H39.564L36.8421 15.194L33.8586 16.2108ZM36.5591 23.1562H22.2985L32.92 19.5356L35.0844 18.843L36.5591 23.1562ZM31.0486 17.1692L20.0843 20.9065L28.7675 13.9696L31.0486 17.1692ZM13.9125 34.7732V28.6013C14.5129 28.3894 15.0582 28.0459 15.5085 27.5958C15.9588 27.1457 16.3027 26.6006 16.5149 26.0004H35.4854C35.6975 26.6009 36.0413 27.1463 36.4916 27.5966C36.9419 28.0469 37.4873 28.3907 38.0879 28.6028V34.7746C37.4873 34.9866 36.9419 35.3304 36.4916 35.7807C36.0413 36.231 35.6975 36.7765 35.4854 37.377H16.5178C16.3047 36.7764 15.9603 36.231 15.5095 35.7805C15.0588 35.33 14.5132 34.9859 13.9125 34.7732Z" fill="white"/>
<defs>
<linearGradient id="paint0_linear_560_1438" x1="3.52663" y1="6.49997" x2="60.5272" y2="58.7229" gradientUnits="userSpaceOnUse">
<stop stop-color="#3FEFFF"/>
<stop offset="1" stop-color="#184ABE"/>
</linearGradient>
</defs>
</svg>
