<svg width="52" height="52" viewBox="0 0 52 52" fill="none" xmlns="http://www.w3.org/2000/svg">
<rect width="51.9998" height="51.9998" rx="10" fill="url(#paint0_linear_560_1438)" fill-opacity="0.2"/>
<path d="M17.4677 39.5096C16.5447 39.5094 15.6399 39.2525 14.8545 38.7677C14.069 38.2828 13.4339 37.5891 13.0201 36.764C12.6062 35.939 12.4299 35.0151 12.5109 34.0957C12.5919 33.1762 12.927 32.2974 13.4787 31.5574C14.0304 30.8174 14.777 30.2454 15.6351 29.9053C16.4932 29.5652 17.4289 29.4704 18.3378 29.6315C19.2466 29.7926 20.0928 30.2033 20.7817 30.8176C21.4706 31.432 21.975 32.2257 22.2388 33.1103H30.2664V30.2661H33.1106V22.0778L29.9208 18.8895H21.7339V21.7337H13.2015V13.2012H21.7339V16.0454H29.9208L34.5326 11.4321L40.5665 17.4674L35.9547 22.0764V30.2661H38.7989V38.7986H30.2664V35.9545H22.2388C21.9325 36.9818 21.3026 37.8829 20.443 38.5235C19.5833 39.164 18.5398 39.5099 17.4677 39.5096ZM17.4677 32.3993C16.902 32.3993 16.3594 32.624 15.9594 33.024C15.5593 33.4241 15.3346 33.9666 15.3346 34.5324C15.3346 35.0981 15.5593 35.6407 15.9594 36.0407C16.3594 36.4408 16.902 36.6655 17.4677 36.6655C18.0334 36.6655 18.576 36.4408 18.976 36.0407C19.3761 35.6407 19.6008 35.0981 19.6008 34.5324C19.6008 33.9666 19.3761 33.4241 18.976 33.024C18.576 32.624 18.0334 32.3993 17.4677 32.3993ZM35.9547 33.1103H33.1106V35.9545H35.9547V33.1103ZM34.5326 15.4566L32.5218 17.4674L34.5326 19.4782L36.5435 17.4674L34.5326 15.4566ZM18.8898 16.0454H16.0456V18.8895H18.8898V16.0454Z" fill="white"/>
<defs>
<linearGradient id="paint0_linear_560_1438" x1="3.52663" y1="6.49997" x2="60.5272" y2="58.7229" gradientUnits="userSpaceOnUse">
<stop stop-color="#3FEFFF"/>
<stop offset="1" stop-color="#184ABE"/>
</linearGradient>
</defs>
</svg>
