<svg width="72" height="73" viewBox="0 0 72 73" fill="none" xmlns="http://www.w3.org/2000/svg">
<rect x="0.5" y="0.861328" width="71" height="71" rx="11.5" fill="white" fill-opacity="0.12"/>
<rect x="0.5" y="0.861328" width="71" height="71" rx="11.5" stroke="url(#paint0_radial_89_2447)"/>
<path d="M53.4255 35.8772C53.4255 35.3066 53.1988 34.7593 52.7953 34.3558C52.3918 33.9523 51.8445 33.7256 51.2739 33.7256H34.9433L39.8919 28.7985C40.0926 28.5979 40.2517 28.3597 40.3603 28.0976C40.4688 27.8355 40.5247 27.5546 40.5247 27.2709C40.5247 26.9872 40.4688 26.7062 40.3603 26.4441C40.2517 26.182 40.0926 25.9439 39.8919 25.7432C39.6913 25.5426 39.4532 25.3835 39.1911 25.2749C38.929 25.1664 38.648 25.1105 38.3643 25.1105C38.0806 25.1105 37.7997 25.1664 37.5376 25.2749C37.2755 25.3835 37.0373 25.5426 36.8367 25.7432L28.2303 34.3496C28.0344 34.5542 27.8809 34.7955 27.7785 35.0596C27.5633 35.5835 27.5633 36.171 27.7785 36.6948C27.8809 36.959 28.0344 37.2002 28.2303 37.4049L36.8367 46.0112C37.0367 46.2129 37.2747 46.373 37.5369 46.4822C37.7991 46.5914 38.0803 46.6477 38.3643 46.6477C38.6484 46.6477 38.9296 46.5914 39.1918 46.4822C39.454 46.373 39.6919 46.2129 39.8919 46.0112C40.0936 45.8112 40.2537 45.5732 40.3629 45.3111C40.4721 45.0489 40.5284 44.7676 40.5284 44.4836C40.5284 44.1996 40.4721 43.9183 40.3629 43.6561C40.2537 43.394 40.0936 43.156 39.8919 42.956L34.9433 38.0288H51.2739C51.8445 38.0288 52.3918 37.8021 52.7953 37.3986C53.1988 36.9951 53.4255 36.4479 53.4255 35.8772ZM46.9707 14.3613H25.4548C23.7429 14.3613 22.1011 15.0414 20.8906 16.2519C19.6801 17.4624 19 19.1042 19 20.8161V50.9384C19 52.6503 19.6801 54.2921 20.8906 55.5026C22.1011 56.7131 23.7429 57.3931 25.4548 57.3931H46.9707C48.6826 57.3931 50.3244 56.7131 51.5349 55.5026C52.7454 54.2921 53.4255 52.6503 53.4255 50.9384V44.4836C53.4255 43.913 53.1988 43.3657 52.7953 42.9622C52.3918 42.5587 51.8445 42.332 51.2739 42.332C50.7032 42.332 50.156 42.5587 49.7525 42.9622C49.349 43.3657 49.1223 43.913 49.1223 44.4836V50.9384C49.1223 51.509 48.8956 52.0563 48.4921 52.4598C48.0886 52.8633 47.5413 53.09 46.9707 53.09H25.4548C24.8841 53.09 24.3369 52.8633 23.9334 52.4598C23.5299 52.0563 23.3032 51.509 23.3032 50.9384V20.8161C23.3032 20.2455 23.5299 19.6982 23.9334 19.2947C24.3369 18.8912 24.8841 18.6645 25.4548 18.6645H46.9707C47.5413 18.6645 48.0886 18.8912 48.4921 19.2947C48.8956 19.6982 49.1223 20.2455 49.1223 20.8161V27.2709C49.1223 27.8415 49.349 28.3888 49.7525 28.7923C50.156 29.1958 50.7032 29.4225 51.2739 29.4225C51.8445 29.4225 52.3918 29.1958 52.7953 28.7923C53.1988 28.3888 53.4255 27.8415 53.4255 27.2709V20.8161C53.4255 19.1042 52.7454 17.4624 51.5349 16.2519C50.3244 15.0414 48.6826 14.3613 46.9707 14.3613Z" fill="url(#paint1_linear_89_2447)"/>
<defs>
<radialGradient id="paint0_radial_89_2447" cx="0" cy="0" r="1" gradientUnits="userSpaceOnUse" gradientTransform="translate(36 36.3613) rotate(90) scale(41 960.314)">
<stop stop-color="white"/>
<stop offset="1" stop-color="#01041A"/>
</radialGradient>
<linearGradient id="paint1_linear_89_2447" x1="16.8627" y1="14.3613" x2="105.733" y2="67.3139" gradientUnits="userSpaceOnUse">
<stop stop-color="#3FEFFF"/>
<stop offset="1" stop-color="#184ABE"/>
</linearGradient>
</defs>
</svg>
