<svg width="33" height="33" viewBox="0 0 33 33" fill="none" xmlns="http://www.w3.org/2000/svg">
<g clip-path="url(#clip0_800_11376)">
<g clip-path="url(#clip1_800_11376)">
<g clip-path="url(#clip2_800_11376)">
<path d="M11.6002 19.8382H21.4359C21.8839 19.8373 22.3078 19.6358 22.5917 19.2893C22.8756 18.9428 22.9897 18.4874 22.9027 18.0482L21.7056 12.0195C21.6425 11.6798 21.4622 11.3727 21.1962 11.152C20.9302 10.9312 20.5953 10.8108 20.2497 10.8115H12.7865C12.4409 10.8108 12.106 10.9312 11.8401 11.152C11.5741 11.3727 11.3938 11.6796 11.3307 12.0193L10.1335 18.0479C10.0466 18.4872 10.1607 18.9428 10.4445 19.2893C10.7284 19.6358 11.1522 19.8373 11.6002 19.8382Z" fill="url(#paint0_linear_800_11376)"/>
<path d="M28.478 21.9256C28.415 21.5857 28.2349 21.2787 27.9689 21.058C27.7026 20.8372 27.3678 20.7168 27.0222 20.7175H19.5696C19.2227 20.7164 18.8863 20.8365 18.6185 21.0571C18.3508 21.2775 18.1682 21.5846 18.1029 21.9256L16.9059 27.9542C16.8225 28.3919 16.9381 28.8441 17.2216 29.188C17.505 29.5319 17.9266 29.7321 18.3726 29.7337H28.2084C28.6554 29.7359 29.0795 29.537 29.3638 29.192C29.6482 28.8471 29.7622 28.3926 29.6748 27.9542L28.478 21.9256Z" fill="url(#paint1_linear_800_11376)"/>
<path d="M14.9325 21.9254C14.8672 21.5846 14.6848 21.2775 14.4171 21.0569C14.1491 20.8364 13.8129 20.7164 13.466 20.7175H6.01339C5.6677 20.7168 5.33284 20.8372 5.06661 21.058C4.8006 21.2787 4.62053 21.5857 4.55746 21.9254L3.36029 27.9541C3.27291 28.3924 3.38702 28.847 3.67132 29.1919C3.95563 29.537 4.38003 29.7358 4.82708 29.7337H14.6627C15.1085 29.732 15.5301 29.5319 15.8134 29.188C16.0971 28.8441 16.2126 28.3918 16.1293 27.9541L14.9325 21.9254Z" fill="url(#paint2_linear_800_11376)"/>
<path d="M16.5225 8.05047C16.9394 8.05047 17.2775 7.71247 17.2775 7.2955V3.83354C17.2775 3.4166 16.9394 3.07861 16.5225 3.07861C16.1055 3.07861 15.7676 3.4166 15.7676 3.83354V7.2955C15.7676 7.49578 15.847 7.68767 15.9888 7.82918C16.1303 7.97102 16.3222 8.05047 16.5225 8.05047Z" fill="#FF9700"/>
<path d="M31.4413 16.4126H27.9796C27.5627 16.4126 27.2246 16.7504 27.2246 17.1675C27.2246 17.5845 27.5627 17.9224 27.9796 17.9224H31.4417C31.8586 17.9224 32.1962 17.5845 32.1962 17.1675C32.1962 16.7504 31.8582 16.4126 31.4413 16.4126Z" fill="#FF9700"/>
<path d="M5.82412 17.1467C5.82412 16.7298 5.48613 16.3918 5.06919 16.3918H1.60747C1.19053 16.3918 0.852539 16.7298 0.852539 17.1467C0.852539 17.5637 1.19053 17.9017 1.60747 17.9017H5.06919C5.48613 17.9017 5.82412 17.5637 5.82412 17.1467Z" fill="#FF9700"/>
<path d="M24.6191 11.3996C24.819 11.4004 25.0103 11.3185 25.1476 11.1731L27.5959 8.72486C27.7434 8.58456 27.8271 8.38953 27.8271 8.18564C27.8271 7.982 27.7434 7.78697 27.5959 7.64637C27.2974 7.3503 26.8159 7.3503 26.5174 7.64637L24.0691 10.1055C23.8595 10.3252 23.7995 10.648 23.9163 10.9284C24.033 11.2089 24.3045 11.3936 24.6082 11.3996H24.6191Z" fill="#FF9700"/>
<path d="M7.89873 11.1723C8.03591 11.3176 8.22731 11.3995 8.4271 11.3988C8.73089 11.3927 9.00249 11.2081 9.11922 10.9277C9.23595 10.6472 9.17602 10.3244 8.96632 10.1046L6.51831 7.65639C6.2198 7.36031 5.73835 7.36031 5.43984 7.65639C5.29203 7.79699 5.2085 7.99177 5.2085 8.19566C5.2085 8.39954 5.29203 8.59451 5.43984 8.73486L7.89873 11.1723Z" fill="#FF9700"/>
</g>
</g>
</g>
<defs>
<linearGradient id="paint0_linear_800_11376" x1="12.274" y1="10.7967" x2="22.1091" y2="19.8566" gradientUnits="userSpaceOnUse">
<stop stop-color="#FFC200"/>
<stop offset="1" stop-color="#FF9700"/>
</linearGradient>
<linearGradient id="paint1_linear_800_11376" x1="19.0481" y1="20.7028" x2="28.8725" y2="29.762" gradientUnits="userSpaceOnUse">
<stop stop-color="#FFC200"/>
<stop offset="1" stop-color="#FF9700"/>
</linearGradient>
<linearGradient id="paint2_linear_800_11376" x1="5.50022" y1="20.7028" x2="15.3247" y2="29.762" gradientUnits="userSpaceOnUse">
<stop stop-color="#FFC200"/>
<stop offset="1" stop-color="#FF9700"/>
</linearGradient>
<clipPath id="clip0_800_11376">
<rect width="31.34" height="31.34" fill="white" transform="translate(0.852539 0.752441)"/>
</clipPath>
<clipPath id="clip1_800_11376">
<rect width="31.34" height="31.34" fill="white" transform="translate(0.852539 0.752441)"/>
</clipPath>
<clipPath id="clip2_800_11376">
<rect width="31.34" height="31.34" fill="white" transform="translate(0.852539 0.752441)"/>
</clipPath>
</defs>
</svg>
