<svg width="226" height="32" viewBox="0 0 226 32" fill="none" xmlns="http://www.w3.org/2000/svg">
<g clip-path="url(#clip0_229_759)">
<mask id="mask0_229_759" style="mask-type:luminance" maskUnits="userSpaceOnUse" x="0" y="0" width="225" height="32">
<path d="M224.927 0.5H0.952271V31.5H224.927V0.5Z" fill="white"/>
</mask>
<g mask="url(#mask0_229_759)">
<path d="M122.3 31.0427L127.913 10.0455H138.474C142.133 10.0455 144.752 10.586 146.291 11.5839C148.952 13.3717 149.7 16.407 148.536 20.7727C147.414 24.9306 145.127 27.8827 141.634 29.5874C140.345 30.2111 138.848 30.6269 137.185 30.8348C136.187 30.9595 134.732 31.0011 132.82 31.0011L122.3 31.0427ZM136.395 14.7022H132.57L129.41 26.5106H133.235C135.647 26.5106 137.56 26.1364 138.931 25.4296C140.677 24.5148 141.883 22.9348 142.465 20.6896C143.505 16.698 141.509 14.7022 136.395 14.7022Z" fill="#464646"/>
<path d="M148.12 31.0841L152.029 16.4485H157.6L153.692 31.0841H148.12ZM152.402 14.2032L153.525 10.087H159.554L158.473 14.2032H152.402Z" fill="#464646"/>
<path d="M171.072 21.1052C170.489 21.0221 169.949 20.9804 169.367 20.9804C166.415 20.9804 164.461 22.6436 163.546 26.0115L162.174 31.0841H156.602L159.596 19.8994C159.97 18.5689 160.22 17.4047 160.345 16.4484H165.791C165.708 17.1137 165.542 17.8621 165.292 18.652L165.126 19.3173C166.79 17.28 168.993 16.2405 171.737 16.2821H172.319L171.072 21.1052Z" fill="#464646"/>
<path d="M188.327 26.4275C187.163 29.7953 183.795 31.4584 178.307 31.4584C175.604 31.4584 173.566 30.918 172.277 29.8369C170.781 28.5479 170.365 26.6353 171.03 24.0159C171.778 21.3132 173.234 19.2343 175.479 17.9038C177.475 16.698 179.886 16.0743 182.713 16.0743C188.493 16.0743 190.614 18.9017 189.116 24.5564L188.992 25.0553H176.352C176.103 26.1364 176.269 26.9679 176.809 27.5917C177.35 28.1738 178.182 28.4648 179.262 28.4648C181.134 28.4648 182.34 27.7995 182.838 26.469L188.327 26.4275ZM177.142 22.0617H184.294C184.543 21.1054 184.377 20.357 183.836 19.8164C183.337 19.3591 182.589 19.1096 181.591 19.1096C179.304 19.1096 177.849 20.1075 177.142 22.0617Z" fill="#464646"/>
<path d="M203.544 21.646C203.71 20.066 202.879 19.276 200.966 19.2344C199.677 19.2344 198.638 19.7334 197.723 20.6897C196.975 21.5212 196.435 22.6023 196.06 23.9328C195.312 26.7186 196.143 28.0907 198.555 28.0907C200.675 28.0907 202.006 27.1759 202.546 25.3881H208.284C206.996 29.4212 203.42 31.417 197.599 31.417C194.854 31.417 192.817 30.8764 191.528 29.7954C189.99 28.548 189.574 26.5938 190.28 23.9744C190.988 21.2718 192.484 19.2344 194.73 17.8623C196.725 16.6566 199.137 16.0328 201.964 16.0328C207.328 16.0328 209.74 17.9039 209.116 21.6044L203.544 21.646Z" fill="#464646"/>
<path d="M221.008 11.3758L219.635 16.5316H224.21L223.294 19.9826H218.721L217.183 25.6789C216.975 26.4689 217.016 27.0094 217.307 27.3004C217.557 27.5499 218.097 27.6747 218.929 27.6747C219.47 27.6747 220.259 27.633 221.258 27.5499L220.301 31.1257C219.012 31.3751 217.765 31.4999 216.601 31.4999C212.318 31.4999 210.613 29.9615 211.444 26.8431L213.274 19.9826H209.906L210.821 16.5316H214.189L215.02 13.4132L218.222 12.4568C219.095 12.2074 220.01 11.8332 221.008 11.3758Z" fill="#464646"/>
<path d="M43.1752 28.3816C44.9631 30.2111 47.832 31.1258 51.9067 31.1258C56.1062 31.1258 59.4324 30.4606 61.8856 29.1717C64.3387 27.8412 66.085 25.8454 67.0829 23.1012H59.3909C58.8503 24.3069 58.102 25.2633 57.1456 25.8869C56.1478 26.5106 54.9835 26.8433 53.6115 26.8433C51.7404 26.8433 50.4515 26.3027 49.7446 25.1801C49.0378 24.0991 48.9547 22.5191 49.4952 20.4401C50.0773 18.3196 50.992 16.6564 52.3225 15.5339C53.653 14.3696 55.2746 13.7875 57.1456 13.7875C58.3098 13.7875 59.183 14.037 59.7651 14.536C60.3056 15.0349 60.5551 15.8249 60.4719 16.8228H68.164C68.6629 14.3696 68.0808 12.5402 66.4177 11.2928C64.7545 10.0455 62.0519 9.42181 58.3098 9.42181C53.9857 9.42181 50.4099 10.3781 47.541 12.3323C44.672 14.2865 42.7594 17.0722 41.8031 20.648C40.9716 23.9743 41.429 26.5522 43.1752 28.3816Z" fill="#545454"/>
<path d="M36.8557 31.0426L42.4688 10.087H35.0263L29.4131 31.0426H36.8557Z" fill="#545454"/>
<path d="M80.8048 28.3816C82.592 30.2111 85.461 31.1258 89.536 31.1258C93.7357 31.1258 97.062 30.4606 99.5149 29.1717C101.968 27.8412 103.715 25.8454 104.712 23.1012H97.0201C96.48 24.3069 95.7313 25.2633 94.775 25.8869C93.7768 26.5106 92.6127 26.8433 91.241 26.8433C89.3693 26.8433 88.0805 26.3027 87.3737 25.1801C86.6669 24.0991 86.584 22.5191 87.1242 20.4401C87.7062 18.3196 88.6625 16.6564 89.9514 15.5339C91.282 14.3696 92.9041 13.7875 94.775 13.7875C95.939 13.7875 96.8124 14.037 97.3945 14.536C97.9346 15.0349 98.1842 15.8249 98.1013 16.8228H105.793C106.292 14.3696 105.71 12.5402 104.047 11.2928C102.384 10.0455 99.6815 9.42181 95.939 9.42181C91.6145 9.42181 88.0394 10.3781 85.1704 12.3323C82.3013 14.2865 80.3886 17.0722 79.4323 20.648C78.6007 23.9743 79.0169 26.5522 80.8048 28.3816Z" fill="#545454"/>
<path d="M112.071 31.0426L117.685 10.087H110.242L104.629 31.0426H112.071Z" fill="#545454"/>
<path d="M74.4428 31.0426L80.0972 10.087H72.6549L67.0002 31.0426H74.4428Z" fill="#545454"/>
<path fill-rule="evenodd" clip-rule="evenodd" d="M9.03921 7.13484C13.5297 2.89381 18.436 0.523834 22.4691 0.523834C24.756 0.523834 26.8349 1.35541 28.0823 3.14329C31.5333 7.96641 28.5396 17.5711 21.4297 24.5978C20.0576 25.97 18.6855 27.051 17.1886 28.0489C15.484 29.0052 12.1577 31.6247 7.20978 31.2089C5.13085 31.0841 3.55086 30.1279 2.38666 28.5894C-1.06437 23.7663 1.92929 14.1201 9.03921 7.13484Z" fill="white"/>
<path fill-rule="evenodd" clip-rule="evenodd" d="M22.2197 3.26795C23.0097 4.09952 22.5523 5.8874 21.0555 7.2595C19.6834 8.63158 17.8539 9.17214 17.0639 8.34056C16.2739 7.50897 16.7313 5.72109 18.1034 4.34899C19.5587 2.85216 21.3881 2.43637 22.2197 3.26795ZM9.03921 7.13477C1.92929 14.1616 -1.06437 23.7662 2.38666 28.5894C3.55086 30.0862 5.13085 31.0841 7.20978 31.2088C8.58188 31.3336 9.74609 29.712 10.6608 27.633C11.5756 25.5541 12.1577 23.5168 12.615 21.7288C13.2802 18.8599 13.2802 16.6562 12.9476 16.2404C12.3655 15.5336 11.1181 15.7 9.62131 16.5315C8.95605 16.9473 7.99978 16.6562 9.16399 15.2842C10.2034 14.0368 14.6524 10.7521 16.1492 10.3363C17.9787 9.79578 19.9328 10.461 19.226 12.4153C18.7686 13.7873 12.6981 29.7536 17.1471 28.0904C18.6439 27.1341 20.016 26.0115 21.3881 24.6394C28.4981 17.6126 31.4501 8.00791 28.0407 3.18479C26.7933 1.39691 24.7144 0.565336 22.4276 0.565336C18.436 0.523758 13.4882 2.85216 9.03921 7.13477Z" fill="#464646"/>
<path fill-rule="evenodd" clip-rule="evenodd" d="M22.2196 3.2681C23.0096 4.09966 22.5522 5.88755 21.0554 7.25965C19.6833 8.63176 17.8539 9.17225 17.0638 8.34067C16.2739 7.50911 16.7312 5.72124 18.1033 4.34914C19.5586 2.85231 21.388 2.43652 22.2196 3.2681ZM13.7375 3.43441C12.9476 4.14124 12.116 4.68177 11.326 5.51334C5.13079 11.5423 2.63607 19.9411 5.71289 24.2238C6.87709 25.8869 8.83132 26.5522 11.1181 26.5522C11.8249 24.7642 12.2407 23.2674 12.615 21.729C13.2802 18.8601 13.2802 16.6564 12.9476 16.2406C12.3655 15.5338 11.1181 15.7001 9.62128 16.5316C8.95602 16.9474 7.99972 16.6564 9.16395 15.2843C10.2034 14.037 14.6523 10.7522 16.1491 10.3365C17.9786 9.79597 19.9328 10.4612 19.2259 12.4154C18.8933 13.3717 15.8996 21.2301 15.567 25.4711C17.9786 24.5148 20.3901 22.8516 22.677 20.648C26.128 17.3632 28.4148 13.4964 29.3295 9.92067C29.6622 7.30122 29.2048 4.97282 28.0822 3.18494C25.2964 -0.55714 19.5586 -0.307668 13.7375 3.43441Z" fill="#818181"/>
</g>
</g>
<defs>
<clipPath id="clip0_229_759">
<rect width="224.75" height="31" fill="white" transform="translate(0.564941 0.5)"/>
</clipPath>
</defs>
</svg>
