<svg width="53" height="47" viewBox="0 0 53 47" fill="none" xmlns="http://www.w3.org/2000/svg">
<path d="M49.0485 0.549927H4.10662C2.31343 0.549927 0.854614 2.0091 0.854614 3.80191V35.289C0.854614 37.0819 2.31341 38.541 4.10662 38.541H20.1133L19.7542 42.1978H14.0932C13.1612 42.1978 12.4031 42.9556 12.4031 43.8876V44.5809C12.4031 45.5129 13.1616 46.2714 14.0936 46.2714H39.0615C39.9935 46.2714 40.752 45.5129 40.752 44.5809V43.8876C40.752 42.9556 39.9939 42.1978 39.0619 42.1978H33.4009L33.0417 38.541H49.0484C50.8416 38.541 52.3004 37.0819 52.3004 35.289V3.80191C52.3004 2.0091 50.8416 0.549927 49.0485 0.549927ZM32.3176 42.8229C32.3466 43.1143 32.5916 43.3367 32.8845 43.3367H39.0619C39.3659 43.3367 39.6132 43.5836 39.6132 43.8876V44.5809C39.6132 44.8849 39.3655 45.1325 39.0615 45.1325H14.0936C13.7896 45.1325 13.5419 44.8849 13.5419 44.5809V43.8876C13.5419 43.5836 13.7892 43.3367 14.0932 43.3367H20.2706C20.5634 43.3367 20.8085 43.1143 20.8374 42.8229L21.2579 38.541H31.8971L32.3176 42.8229ZM51.1616 35.289C51.1616 36.4539 50.2136 37.4022 49.0485 37.4022H4.10662C2.94144 37.4022 1.9935 36.4539 1.9935 35.289V3.80191C1.9935 2.63713 2.94144 1.68881 4.10662 1.68881H49.0485C50.2136 1.68881 51.1616 2.63713 51.1616 3.80191V35.289Z" fill="white"/>
<path d="M49.0355 32.8328H4.1196C3.80522 32.8328 3.55017 33.0878 3.55017 33.4022C3.55017 33.7166 3.80522 33.9716 4.1196 33.9716H49.0355C49.3498 33.9716 49.6049 33.7166 49.6049 33.4022C49.6049 33.0878 49.3498 32.8328 49.0355 32.8328Z" fill="white"/>
<path d="M41.903 21.0065H43.0252V23.8655C43.0252 24.1799 43.2803 24.435 43.5946 24.435C43.909 24.435 44.1641 24.1799 44.1641 23.8655V21.0065H45.2863C45.6006 21.0065 45.8557 20.7514 45.8557 20.437V8.31067C45.8557 7.99631 45.6006 7.74124 45.2863 7.74124H44.1641V4.15708C44.1641 3.84271 43.909 3.58765 43.5946 3.58765C43.2803 3.58765 43.0252 3.84271 43.0252 4.15708V7.74124H41.903C41.5887 7.74124 41.3336 7.99631 41.3336 8.31067V20.437C41.3336 20.7514 41.5887 21.0065 41.903 21.0065ZM42.4725 8.8801H44.7168V19.8676H42.4725V8.8801Z" fill="white"/>
<path d="M36.2307 25.7282H37.3528V28.5872C37.3528 28.9016 37.6079 29.1567 37.9223 29.1567C38.2367 29.1567 38.4917 28.9016 38.4917 28.5872V25.7282H39.6139C39.9283 25.7282 40.1834 25.4731 40.1834 25.1588V17.0748C40.1834 16.7604 39.9283 16.5053 39.6139 16.5053H38.4917V11.9966C38.4917 11.6822 38.2367 11.4271 37.9223 11.4271C37.6079 11.4271 37.3528 11.6822 37.3528 11.9966V16.5053H36.2307C35.9163 16.5053 35.6613 16.7604 35.6613 17.0748V25.1588C35.6613 25.4731 35.9163 25.7282 36.2307 25.7282ZM36.8001 17.6441H39.0445V24.5893H36.8001V17.6441Z" fill="white"/>
<path d="M30.5583 29.5214H31.6805V31.0577C31.6805 31.3721 31.9356 31.6272 32.25 31.6272C32.5643 31.6272 32.8194 31.3721 32.8194 31.0577V29.5214H33.9416C34.2559 29.5214 34.511 29.2664 34.511 28.952V19.6298C34.511 19.3154 34.2559 19.0603 33.9416 19.0603H32.8194V17.524C32.8194 17.2097 32.5643 16.9546 32.25 16.9546C31.9356 16.9546 31.6805 17.2097 31.6805 17.524V19.0603H30.5583C30.244 19.0603 29.9889 19.3154 29.9889 19.6298V28.952C29.9889 29.2664 30.244 29.5214 30.5583 29.5214ZM31.1278 20.1992H33.3721V28.3826H31.1278V20.1992Z" fill="white"/>
<path d="M24.8856 23.142H26.0081V26.1774C26.0081 26.4918 26.2632 26.7469 26.5776 26.7469C26.892 26.7469 27.147 26.4918 27.147 26.1774V23.142H28.2692C28.5836 23.142 28.8386 22.8869 28.8386 22.5725V13.3192C28.8386 13.0049 28.5836 12.7498 28.2692 12.7498H27.147V8.96323C27.147 8.64887 26.892 8.3938 26.5776 8.3938C26.2632 8.3938 26.0081 8.64887 26.0081 8.96323V12.7498H24.8856C24.5712 12.7498 24.3162 13.0049 24.3162 13.3192V22.5725C24.3162 22.8869 24.5712 23.142 24.8856 23.142ZM25.455 13.8887H27.6997V22.0031H25.455V13.8887Z" fill="white"/>
<path d="M19.2136 28.1364H20.3358V30.6566C20.3358 30.971 20.5908 31.2261 20.9052 31.2261C21.2196 31.2261 21.4746 30.971 21.4746 30.6566V28.1364H22.5968C22.9112 28.1364 23.1662 27.8814 23.1662 27.567V20.4165C23.1662 20.1021 22.9112 19.8471 22.5968 19.8471H21.4746V17.3269C21.4746 17.0125 21.2196 16.7574 20.9052 16.7574C20.5908 16.7574 20.3358 17.0125 20.3358 17.3269V19.8471H19.2136C18.8992 19.8471 18.6442 20.1021 18.6442 20.4165V27.567C18.6441 27.8814 18.8992 28.1364 19.2136 28.1364ZM19.783 20.9859H22.0274V26.9976H19.783V20.9859Z" fill="white"/>
<path d="M13.5412 24.7375H14.6634V27.1376C14.6634 27.452 14.9185 27.707 15.2328 27.707C15.5472 27.707 15.8023 27.452 15.8023 27.1376V24.7375H16.9244C17.2388 24.7375 17.4939 24.4825 17.4939 24.1681V15.8164C17.4939 15.502 17.2388 15.247 16.9244 15.247H15.8023V12.8469C15.8023 12.5325 15.5472 12.2775 15.2328 12.2775C14.9185 12.2775 14.6634 12.5325 14.6634 12.8469V15.247H13.5412C13.2268 15.247 12.9718 15.502 12.9718 15.8164V24.1681C12.9718 24.4825 13.2269 24.7375 13.5412 24.7375ZM14.1107 16.3858H16.355V23.5986H14.1107V16.3858Z" fill="white"/>
<path d="M7.86887 23.3473H8.99105V26.8855C8.99105 27.1999 9.2461 27.455 9.56049 27.455C9.87485 27.455 10.1299 27.1999 10.1299 26.8855V23.3473H11.2521C11.5665 23.3473 11.8215 23.0923 11.8215 22.7779V10.4602C11.8215 10.1459 11.5665 9.89079 11.2521 9.89079H10.1299V6.12644C10.1299 5.81207 9.87485 5.55701 9.56049 5.55701C9.2461 5.55701 8.99105 5.81207 8.99105 6.12644V9.89077H7.86887C7.55449 9.89077 7.29944 10.1458 7.29944 10.4602V22.7779C7.29944 23.0923 7.5545 23.3473 7.86887 23.3473ZM8.43832 11.0296H10.6827V22.2085H8.43832V11.0296Z" fill="white"/>
</svg>
