<svg width="87" height="31" viewBox="0 0 87 31" fill="none" xmlns="http://www.w3.org/2000/svg">
<g clip-path="url(#clip0_803_17486)">
<g clip-path="url(#clip1_803_17486)">
<path d="M15.293 30.5789C23.739 30.5789 30.5859 23.732 30.5859 15.2859C30.5859 6.83982 23.739 -0.00708008 15.293 -0.00708008C6.8469 -0.00708008 0 6.83982 0 15.2859C0 23.732 6.8469 30.5789 15.293 30.5789Z" fill="url(#paint0_linear_803_17486)"/>
<path fill-rule="evenodd" clip-rule="evenodd" d="M22.2294 28.9097L10.1929 19.5948L11.8926 15.2832L9.0166 11.3634L10.1929 7.83569H22.3489L30.5836 15.3213C30.5691 21.2509 27.1773 26.3871 22.2294 28.9097Z" fill="#17875F"/>
<path d="M23.5222 9.97729H20.0338V23.7497C19.4649 23.7497 18.9046 23.641 18.3524 23.4236C17.8003 23.2228 17.5242 22.9888 17.5242 22.7211V19.7359C16.3531 20.4718 15.0815 20.8397 13.7096 20.8397C12.3376 20.8397 11.2167 20.4885 10.3467 19.786C9.49354 19.0669 9.06683 18.1387 9.06683 17.0015C9.06683 16.1319 9.368 15.3542 9.97027 14.6684C9.11706 14.3507 8.43941 13.8824 7.93746 13.2635C7.43558 12.6281 7.18457 11.8754 7.18457 11.0059C7.18457 10.1362 7.53597 9.34179 8.23863 8.62261C8.95808 7.9035 9.93683 7.54395 11.1749 7.54395C12.0783 7.54395 12.7726 7.74459 13.2579 8.14601C13.7598 8.54737 14.0108 9.04069 14.0108 9.6261C14.0108 10.8135 13.2411 11.6497 11.702 12.1347C11.451 11.934 11.2669 11.6497 11.1498 11.2818C11.8357 10.8302 12.1788 10.3536 12.1788 9.85182C12.1788 9.56751 12.095 9.34179 11.9278 9.17452C11.7604 8.99052 11.4928 8.89856 11.1247 8.89856C10.7566 8.89856 10.3969 9.09934 10.0456 9.5007C9.69425 9.90205 9.51855 10.4288 9.51855 11.081C9.51855 11.7166 9.69425 12.2517 10.0456 12.6867C10.4136 13.1047 10.8737 13.3974 11.4258 13.5646C12.1619 13.1968 12.9901 12.9208 13.9104 12.7368C14.5461 13.3389 14.9476 13.966 15.115 14.6182C14.0776 14.8189 13.1993 15.1367 12.4799 15.5716C11.7772 15.9897 11.4258 16.4747 11.4258 17.0265C11.4258 17.5617 11.6099 17.9965 11.978 18.3311C12.3628 18.6655 12.9065 18.8327 13.6092 18.8327C14.3286 18.8327 15.0397 18.6321 15.7424 18.2307C16.4451 17.8292 17.039 17.3025 17.5242 16.6502V9.97729H15.7925C15.1903 9.27484 14.8892 8.53065 14.8892 7.74459H22.7442C23.2628 8.41354 23.5222 9.1578 23.5222 9.97729Z" fill="white"/>
<path d="M42.1338 10.9891C42.8039 10.9891 43.3997 11.1381 43.9209 11.4359C44.4424 11.7271 44.8654 12.1333 45.1905 12.6546V7.37378H48.1255V22.3226H45.3123V20.7892C44.8993 21.4459 44.4289 21.9232 43.9007 22.2211C43.3725 22.519 42.7158 22.6679 41.9307 22.6679C40.6375 22.6679 39.5474 22.1466 38.6604 21.1039C37.7804 20.0546 37.3403 18.7107 37.3403 17.0722C37.3403 15.1833 37.7734 13.6973 38.6402 12.614C39.5135 11.5307 40.6782 10.9891 42.1338 10.9891ZM42.7632 20.2306C43.5827 20.2306 44.2054 19.926 44.632 19.3166C45.0584 18.7073 45.2715 17.9185 45.2715 16.9504C45.2715 15.5963 44.9299 14.6282 44.246 14.0459C43.8264 13.6939 43.3388 13.5178 42.7837 13.5178C41.9374 13.5178 41.3144 13.8394 40.9149 14.4826C40.5222 15.119 40.3261 15.9111 40.3261 16.859C40.3261 17.8813 40.5258 18.7005 40.925 19.3166C41.3315 19.926 41.9441 20.2306 42.7632 20.2306ZM56.8691 10.9688C57.553 10.9688 58.1724 11.0873 58.7279 11.3243C59.2898 11.5612 59.75 11.9234 60.1088 12.4109C60.4135 12.8239 60.5997 13.2504 60.6673 13.6905C60.7352 14.1238 60.7688 14.8346 60.7688 15.8231V22.3226H57.8137V15.5896C57.8137 14.9938 57.7121 14.5131 57.509 14.1475C57.2451 13.633 56.7441 13.3756 56.006 13.3756C55.2411 13.3756 54.6587 13.633 54.2592 14.1475C53.8665 14.6552 53.6702 15.3831 53.6702 16.3309V22.3226H50.7862V7.40423H53.6702V12.6953C54.0901 12.0521 54.5743 11.6052 55.1224 11.3547C55.6778 11.0974 56.2598 10.9688 56.8691 10.9688ZM69.5837 16.9402C69.4009 17.0553 69.2146 17.1501 69.0257 17.2246C68.8428 17.2923 68.5886 17.3566 68.2637 17.4175L67.6137 17.5394C67.0044 17.6477 66.5676 17.7797 66.3037 17.9354C65.8568 18.1995 65.6336 18.6091 65.6336 19.1643C65.6336 19.6585 65.7687 20.0173 66.0397 20.2407C66.3171 20.4574 66.6524 20.5658 67.0451 20.5658C67.6679 20.5658 68.2399 20.3829 68.7613 20.0173C69.2894 19.6517 69.5633 18.9849 69.5837 18.0167V16.9402ZM67.8272 15.5896C68.3616 15.5219 68.7443 15.4373 68.9747 15.3356C69.3879 15.1596 69.5939 14.8854 69.5939 14.5131C69.5939 14.0595 69.4348 13.748 69.1167 13.5788C68.8055 13.4027 68.3453 13.3147 67.7357 13.3147C67.0518 13.3147 66.5676 13.484 66.2835 13.8225C66.0804 14.073 65.9449 14.4115 65.8774 14.838H63.0845C63.1454 13.8699 63.4161 13.0744 63.8969 12.4515C64.6619 11.4766 65.9755 10.9891 67.8372 10.9891C69.0488 10.9891 70.1254 11.2294 71.0668 11.7101C72.0075 12.1909 72.4785 13.098 72.4785 14.4319V19.5095C72.4785 19.8616 72.4853 20.2882 72.4989 20.7892C72.5186 21.1683 72.5764 21.4256 72.6708 21.561C72.766 21.6964 72.908 21.8081 73.0977 21.8961V22.3226H69.9494C69.8617 22.0992 69.8005 21.8893 69.7665 21.693C69.7332 21.4967 69.706 21.2733 69.6856 21.0227C69.286 21.456 68.8258 21.825 68.3045 22.1297C67.6816 22.4885 66.9775 22.6679 66.1921 22.6679C65.1901 22.6679 64.3606 22.3836 63.7039 21.8148C63.0539 21.2394 62.7291 20.427 62.7291 19.3775C62.7291 18.0167 63.2537 17.0317 64.3031 16.4223C64.8787 16.0906 65.725 15.8536 66.842 15.7114L67.8272 15.5896ZM81.1914 10.9891C82.336 10.9891 83.2699 11.2904 83.9944 11.893C84.7258 12.4888 85.0914 13.4806 85.0914 14.8685V22.3226H82.126V15.5896C82.126 15.0073 82.0478 14.5605 81.8922 14.249C81.608 13.6803 81.0663 13.3959 80.2677 13.3959C79.2862 13.3959 78.612 13.8123 78.2463 14.6451C78.0567 15.0852 77.9622 15.6471 77.9622 16.3309V22.3226H75.0783V11.2735H77.8704V12.8882C78.2429 12.3195 78.595 11.9099 78.9274 11.6593C79.5228 11.2125 80.2779 10.9891 81.1914 10.9891Z" fill="black"/>
</g>
</g>
<defs>
<linearGradient id="paint0_linear_803_17486" x1="28.6743" y1="25.991" x2="17.7551" y2="-0.422815" gradientUnits="userSpaceOnUse">
<stop stop-color="#138C61"/>
<stop offset="1" stop-color="#4DBA93" stop-opacity="0.99"/>
</linearGradient>
<clipPath id="clip0_803_17486">
<rect width="87" height="30.5715" fill="white"/>
</clipPath>
<clipPath id="clip1_803_17486">
<rect width="87" height="30.5859" fill="white" transform="translate(0 -0.00732422)"/>
</clipPath>
</defs>
</svg>
