<svg width="367" height="106" viewBox="0 0 367 106" fill="none" xmlns="http://www.w3.org/2000/svg">
<g filter="url(#filter0_d_801_17144)">
<path d="M10 14.0698C10 9.61296 13.613 6 18.0698 6H348.93C353.387 6 357 9.61296 357 14.0698V66.5233H10V14.0698Z" fill="white"/>
<path d="M18.0693 6.50391H348.931C353.109 6.50414 356.496 9.89142 356.496 14.0693V66.0186H10.5039V14.0693C10.5041 9.89142 13.8914 6.50414 18.0693 6.50391Z" stroke="black" stroke-opacity="0.1" stroke-width="1.00872"/>
<path opacity="0.6" d="M28.3928 25.1729V18.0443H25.8051V17.1428H31.9821V18.0443H29.3944V25.1729H28.3928ZM32.572 25.1729V19.1739H33.5402V20.0643H33.6293C33.8574 19.4355 34.4195 19.0682 35.232 19.0682C35.4156 19.0682 35.6215 19.0905 35.7161 19.1072V20.0476C35.5158 20.0142 35.3321 19.992 35.1207 19.992C34.1969 19.992 33.5402 20.5763 33.5402 21.4555V25.1729H32.572ZM38.5597 25.2786C37.4189 25.2786 36.5564 24.5885 36.5564 23.4978V23.4867C36.5564 22.4183 37.3466 21.8006 38.7434 21.7171L40.4629 21.6114V21.066C40.4629 20.3259 40.0122 19.9252 39.1162 19.9252C38.3984 19.9252 37.9253 20.1923 37.7695 20.6598L37.764 20.6765H36.7957L36.8012 20.6431C36.9571 19.7026 37.8697 19.0682 39.1496 19.0682C40.6132 19.0682 41.4312 19.8195 41.4312 21.066V25.1729H40.4629V24.288H40.3739C39.9955 24.928 39.3666 25.2786 38.5597 25.2786ZM37.5469 23.4756C37.5469 24.0821 38.0645 24.4383 38.7601 24.4383C39.745 24.4383 40.4629 23.7928 40.4629 22.9358V22.3904L38.8602 22.4906C37.9476 22.5462 37.5469 22.869 37.5469 23.4644V23.4756ZM45.4156 25.2786C43.8964 25.2786 42.9003 24.0488 42.9003 22.179V22.1678C42.9003 20.2869 43.8909 19.0682 45.4156 19.0682C46.2392 19.0682 46.9571 19.48 47.2854 20.12H47.3744V16.7922H48.3427V25.1729H47.3744V24.2157H47.2854C46.9181 24.8835 46.2503 25.2786 45.4156 25.2786ZM45.6382 24.4216C46.7289 24.4216 47.3967 23.5646 47.3967 22.179V22.1678C47.3967 20.7822 46.7289 19.9252 45.6382 19.9252C44.5419 19.9252 43.8909 20.7711 43.8909 22.1678V22.179C43.8909 23.5757 44.5419 24.4216 45.6382 24.4216ZM52.6499 25.2786C50.9359 25.2786 49.9009 24.0766 49.9009 22.1957V22.1901C49.9009 20.337 50.9582 19.0682 52.5887 19.0682C54.2192 19.0682 55.2097 20.2814 55.2097 22.0732V22.4516H50.8914C50.9193 23.6926 51.6037 24.416 52.6722 24.416C53.4846 24.416 53.9855 24.0321 54.1469 23.6703L54.1691 23.6203H55.1374L55.1263 23.6648C54.9204 24.4772 54.0634 25.2786 52.6499 25.2786ZM52.5831 19.9308C51.6928 19.9308 51.0139 20.5373 50.9081 21.6781H54.2248C54.1246 20.4928 53.468 19.9308 52.5831 19.9308ZM60.04 25.1729V17.1428H61.2031L63.9521 23.8429H64.0412L66.7902 17.1428H67.9532V25.1729H67.0184V19.0404H66.9571L64.4196 25.1729H63.5737L61.0361 19.0404H60.9749V25.1729H60.04ZM71.5259 25.2786C70.3851 25.2786 69.5225 24.5885 69.5225 23.4978V23.4867C69.5225 22.4183 70.3127 21.8006 71.7095 21.7171L73.4291 21.6114V21.066C73.4291 20.3259 72.9783 19.9252 72.0824 19.9252C71.3645 19.9252 70.8915 20.1923 70.7357 20.6598L70.7301 20.6765H69.7618L69.7674 20.6431C69.9232 19.7026 70.8358 19.0682 72.1157 19.0682C73.5793 19.0682 74.3973 19.8195 74.3973 21.066V25.1729H73.4291V24.288H73.34C72.9616 24.928 72.3328 25.2786 71.5259 25.2786ZM70.5131 23.4756C70.5131 24.0821 71.0306 24.4383 71.7262 24.4383C72.7112 24.4383 73.4291 23.7928 73.4291 22.9358V22.3904L71.8264 22.4906C70.9137 22.5462 70.5131 22.869 70.5131 23.4644V23.4756ZM76.167 25.1729V19.1739H77.1352V20.0643H77.2243C77.4524 19.4355 78.0145 19.0682 78.827 19.0682C79.0106 19.0682 79.2165 19.0905 79.3111 19.1072V20.0476C79.1108 20.0142 78.9271 19.992 78.7157 19.992C77.7919 19.992 77.1352 20.5763 77.1352 21.4555V25.1729H76.167ZM82.8114 27.2875C81.3645 27.2875 80.4408 26.6364 80.2905 25.6514L80.3016 25.6459H81.3033L81.3089 25.6514C81.4146 26.1077 81.9488 26.4305 82.8114 26.4305C83.8854 26.4305 84.5254 25.9241 84.5254 25.0393V23.8262H84.4363C84.0579 24.4884 83.379 24.8612 82.5554 24.8612C81.0028 24.8612 80.0401 23.6592 80.0401 21.9786V21.9675C80.0401 20.2869 81.0084 19.0682 82.5777 19.0682C83.4235 19.0682 84.0802 19.4856 84.4474 20.1645H84.5142V19.1739H85.4825V25.0894C85.4825 26.4305 84.4474 27.2875 82.8114 27.2875ZM82.7669 24.0042C83.8798 24.0042 84.5476 23.1695 84.5476 21.9786V21.9675C84.5476 20.7766 83.8743 19.9252 82.7669 19.9252C81.6539 19.9252 81.0306 20.7766 81.0306 21.9675V21.9786C81.0306 23.1695 81.6539 24.0042 82.7669 24.0042ZM87.7975 18.0165C87.4302 18.0165 87.1297 17.716 87.1297 17.3487C87.1297 16.9814 87.4302 16.6809 87.7975 16.6809C88.1648 16.6809 88.4653 16.9814 88.4653 17.3487C88.4653 17.716 88.1648 18.0165 87.7975 18.0165ZM87.3078 25.1729V19.1739H88.2761V25.1729H87.3078ZM90.1013 25.1729V19.1739H91.0696V20.0755H91.1587C91.4592 19.4411 92.0212 19.0682 92.906 19.0682C94.2527 19.0682 95.004 19.864 95.004 21.2886V25.1729H94.0357V21.5223C94.0357 20.4427 93.5905 19.9252 92.6333 19.9252C91.6762 19.9252 91.0696 20.5707 91.0696 21.6225V25.1729H90.1013Z" fill="black"/>
<path d="M48.4676 41.1749L47.9446 43.1665H38.3374L38.8532 41.1749H48.4676ZM43.4741 52.2078L38.5738 46.3761L38.581 44.585H41.0025C41.5422 44.585 41.9935 44.4847 42.3565 44.2841C42.7195 44.0835 42.9918 43.8113 43.1732 43.4674C43.3547 43.1235 43.4479 42.7319 43.4526 42.2925C43.4479 41.6334 43.2544 41.0961 42.8723 40.6805C42.495 40.2602 41.8717 40.0501 41.0025 40.0501H38.3374L38.9249 37.5355H41.0025C42.2204 37.5355 43.2353 37.7193 44.0473 38.0871C44.864 38.4501 45.4753 38.9683 45.8813 39.6417C46.2921 40.3152 46.4998 41.1176 46.5046 42.0489C46.4998 42.8752 46.3613 43.5964 46.0891 44.2125C45.8216 44.8286 45.3989 45.3421 44.821 45.7528C44.2479 46.1636 43.5004 46.4692 42.5786 46.6698L42.464 46.7128L46.8485 52.0788V52.2078H43.4741ZM48.4819 37.5355L47.9446 39.5558H40.0353L40.5726 37.5355H48.4819ZM56.7638 37.5355V52.2078H53.6617V40.4799H53.5757L50.2157 42.5862V39.8352L53.8479 37.5355H56.7638ZM60.3369 52.2078V37.5355H63.439V49.6501H69.7292V52.2078H60.3369ZM75.3925 49.9725V39.828H77.9573V49.9725H75.3925ZM71.6026 46.1827V43.6179H81.7472V46.1827H71.6026Z" fill="black"/>
<line x1="116.268" y1="12.4854" x2="116.268" y2="59.8952" stroke="white" stroke-opacity="0.2" stroke-width="0.949734"/>
<path opacity="0.6" d="M169.2 25.1729V21.7171L166.351 17.1428H167.492L169.656 20.7098H169.745L171.91 17.1428H173.051L170.202 21.7171V25.1729H169.2ZM175.856 25.2786C174.147 25.2786 173.09 24.0988 173.09 22.179V22.1678C173.09 20.2424 174.147 19.0682 175.856 19.0682C177.564 19.0682 178.621 20.2424 178.621 22.1678V22.179C178.621 24.0988 177.564 25.2786 175.856 25.2786ZM175.856 24.4216C176.991 24.4216 177.631 23.5924 177.631 22.179V22.1678C177.631 20.7488 176.991 19.9252 175.856 19.9252C174.72 19.9252 174.08 20.7488 174.08 22.1678V22.179C174.08 23.5924 174.72 24.4216 175.856 24.4216ZM182.133 25.2786C180.769 25.2786 180.068 24.4772 180.068 23.0582V19.1739H181.036V22.8245C181.036 23.9041 181.426 24.4216 182.383 24.4216C183.441 24.4216 184.003 23.7761 184.003 22.7243V19.1739H184.971V25.1729H184.003V24.2769H183.914C183.619 24.9169 183.012 25.2786 182.133 25.2786ZM190.107 25.1729V17.1428H193.134C194.643 17.1428 195.711 18.1834 195.711 19.7082V19.7193C195.711 21.2441 194.643 22.307 193.134 22.307H191.109V25.1729H190.107ZM192.878 18.0332H191.109V21.4166H192.878C194.025 21.4166 194.687 20.7878 194.687 19.7304V19.7193C194.687 18.662 194.025 18.0332 192.878 18.0332ZM198.655 25.2786C197.514 25.2786 196.651 24.5885 196.651 23.4978V23.4867C196.651 22.4183 197.442 21.8006 198.838 21.7171L200.558 21.6114V21.066C200.558 20.3259 200.107 19.9252 199.211 19.9252C198.493 19.9252 198.02 20.1923 197.865 20.6598L197.859 20.6765H196.891L196.896 20.6431C197.052 19.7026 197.965 19.0682 199.245 19.0682C200.708 19.0682 201.526 19.8195 201.526 21.066V25.1729H200.558V24.288H200.469C200.091 24.928 199.462 25.2786 198.655 25.2786ZM197.642 23.4756C197.642 24.0821 198.16 24.4383 198.855 24.4383C199.84 24.4383 200.558 23.7928 200.558 22.9358V22.3904L198.955 22.4906C198.043 22.5462 197.642 22.869 197.642 23.4644V23.4756ZM203.585 27.2764C203.457 27.2764 203.29 27.2652 203.157 27.243V26.4472C203.274 26.4695 203.424 26.475 203.557 26.475C204.108 26.475 204.442 26.2246 204.659 25.5346L204.771 25.1784L202.55 19.1739H203.585L205.232 24.11H205.321L206.963 19.1739H207.981L205.639 25.5401C205.143 26.8868 204.648 27.2764 203.585 27.2764Z" fill="black"/>
<path d="M172.422 41.1749L171.899 43.1665H162.292L162.808 41.1749H172.422ZM167.429 52.2078L162.528 46.3761L162.536 44.585H164.957C165.497 44.585 165.948 44.4847 166.311 44.2841C166.674 44.0835 166.946 43.8113 167.128 43.4674C167.309 43.1235 167.402 42.7319 167.407 42.2925C167.402 41.6334 167.209 41.0961 166.827 40.6805C166.45 40.2602 165.826 40.0501 164.957 40.0501H162.292L162.879 37.5355H164.957C166.175 37.5355 167.19 37.7193 168.002 38.0871C168.819 38.4501 169.43 38.9683 169.836 39.6417C170.247 40.3152 170.454 41.1176 170.459 42.0489C170.454 42.8752 170.316 43.5964 170.044 44.2125C169.776 44.8286 169.353 45.3421 168.776 45.7528C168.202 46.1636 167.455 46.4692 166.533 46.6698L166.419 46.7128L170.803 52.0788V52.2078H167.429ZM172.436 37.5355L171.899 39.5558H163.99L164.527 37.5355H172.436ZM174.335 52.2078V49.9725L179.558 45.1367C180.002 44.7068 180.374 44.32 180.675 43.9761C180.981 43.6322 181.213 43.2955 181.37 42.9659C181.528 42.6316 181.607 42.271 181.607 41.8841C181.607 41.4543 181.509 41.0841 181.313 40.7737C181.117 40.4585 180.85 40.2173 180.511 40.0501C180.171 39.8782 179.787 39.7922 179.357 39.7922C178.908 39.7922 178.516 39.8829 178.182 40.0644C177.848 40.2459 177.59 40.5062 177.408 40.8453C177.227 41.1844 177.136 41.588 177.136 42.0561H174.192C174.192 41.0961 174.409 40.2626 174.844 39.5558C175.278 38.8489 175.887 38.302 176.671 37.9152C177.454 37.5283 178.356 37.3349 179.379 37.3349C180.429 37.3349 181.344 37.5211 182.122 37.8937C182.906 38.2614 183.515 38.7725 183.949 39.4268C184.384 40.0811 184.601 40.831 184.601 41.6764C184.601 42.2304 184.491 42.7773 184.272 43.317C184.057 43.8567 183.672 44.4561 183.118 45.1152C182.564 45.7695 181.783 46.5552 180.776 47.4722L178.634 49.5713V49.6716H184.795V52.2078H174.335ZM192.401 52.4084C191.389 52.4084 190.486 52.2221 189.693 51.8496C188.905 51.477 188.28 50.9636 187.816 50.3092C187.353 49.6549 187.112 48.9051 187.093 48.0597H190.102C190.135 48.628 190.374 49.0889 190.818 49.4424C191.262 49.7958 191.79 49.9725 192.401 49.9725C192.888 49.9725 193.318 49.8651 193.691 49.6501C194.068 49.4304 194.362 49.1272 194.572 48.7403C194.787 48.3486 194.894 47.8997 194.894 47.3934C194.894 46.8776 194.785 46.4239 194.565 46.0322C194.35 45.6406 194.051 45.3349 193.669 45.1152C193.287 44.8955 192.85 44.7833 192.358 44.7785C191.928 44.7785 191.511 44.8668 191.105 45.0436C190.703 45.2203 190.391 45.4615 190.166 45.7671L187.408 45.2728L188.103 37.5355H197.072V40.0716H190.66L190.281 43.7468H190.367C190.625 43.3838 191.014 43.0829 191.534 42.8441C192.055 42.6053 192.638 42.4859 193.283 42.4859C194.166 42.4859 194.954 42.6937 195.647 43.1092C196.339 43.5247 196.886 44.0955 197.287 44.8215C197.689 45.5427 197.887 46.3737 197.882 47.3146C197.887 48.3033 197.657 49.1821 197.194 49.951C196.736 50.7152 196.093 51.317 195.267 51.7564C194.446 52.191 193.49 52.4084 192.401 52.4084ZM200.132 52.2078V37.5355H203.234V44.0047H203.427L208.707 37.5355H212.425L206.981 44.105L212.49 52.2078H208.779L204.76 46.1755L203.234 48.0382V52.2078H200.132Z" fill="#26BC0D"/>
<line x1="259.008" y1="12.4854" x2="259.008" y2="59.8952" stroke="white" stroke-opacity="0.2" stroke-width="0.949734"/>
<path opacity="0.6" d="M283.01 25.1729V17.1428H285.765C288.147 17.1428 289.554 18.6286 289.554 21.1495V21.1606C289.554 23.687 288.152 25.1729 285.765 25.1729H283.01ZM284.012 24.2713H285.698C287.49 24.2713 288.531 23.125 288.531 21.1717V21.1606C288.531 19.2018 287.479 18.0443 285.698 18.0443H284.012V24.2713ZM291.224 25.1729V16.7922H292.192V20.0755H292.281C292.582 19.4411 293.144 19.0682 294.029 19.0682C295.375 19.0682 296.127 19.864 296.127 21.2886V25.1729H295.158V21.5223C295.158 20.4427 294.713 19.9252 293.756 19.9252C292.799 19.9252 292.192 20.5707 292.192 21.6225V25.1729H291.224ZM299.527 25.2786C298.386 25.2786 297.523 24.5885 297.523 23.4978V23.4867C297.523 22.4183 298.314 21.8006 299.71 21.7171L301.43 21.6114V21.066C301.43 20.3259 300.979 19.9252 300.083 19.9252C299.365 19.9252 298.892 20.1923 298.736 20.6598L298.731 20.6765H297.763L297.768 20.6431C297.924 19.7026 298.837 19.0682 300.117 19.0682C301.58 19.0682 302.398 19.8195 302.398 21.066V25.1729H301.43V24.288H301.341C300.962 24.928 300.334 25.2786 299.527 25.2786ZM298.514 23.4756C298.514 24.0821 299.031 24.4383 299.727 24.4383C300.712 24.4383 301.43 23.7928 301.43 22.9358V22.3904L299.827 22.4906C298.915 22.5462 298.514 22.869 298.514 23.4644V23.4756ZM304.168 25.1729V19.1739H305.136V20.0755H305.225C305.526 19.4411 306.088 19.0682 306.972 19.0682C308.319 19.0682 309.07 19.864 309.07 21.2886V25.1729H308.102V21.5223C308.102 20.4427 307.657 19.9252 306.7 19.9252C305.743 19.9252 305.136 20.5707 305.136 21.6225V25.1729H304.168ZM314.151 25.1729V17.1428H317.178C318.686 17.1428 319.755 18.1834 319.755 19.7082V19.7193C319.755 21.2441 318.686 22.307 317.178 22.307H315.153V25.1729H314.151ZM316.922 18.0332H315.153V21.4166H316.922C318.069 21.4166 318.731 20.7878 318.731 19.7304V19.7193C318.731 18.662 318.069 18.0332 316.922 18.0332ZM322.699 25.2786C321.558 25.2786 320.695 24.5885 320.695 23.4978V23.4867C320.695 22.4183 321.486 21.8006 322.882 21.7171L324.602 21.6114V21.066C324.602 20.3259 324.151 19.9252 323.255 19.9252C322.537 19.9252 322.064 20.1923 321.908 20.6598L321.903 20.6765H320.935L320.94 20.6431C321.096 19.7026 322.009 19.0682 323.289 19.0682C324.752 19.0682 325.57 19.8195 325.57 21.066V25.1729H324.602V24.288H324.513C324.134 24.928 323.506 25.2786 322.699 25.2786ZM321.686 23.4756C321.686 24.0821 322.203 24.4383 322.899 24.4383C323.884 24.4383 324.602 23.7928 324.602 22.9358V22.3904L322.999 22.4906C322.087 22.5462 321.686 22.869 321.686 23.4644V23.4756ZM327.629 27.2764C327.501 27.2764 327.334 27.2652 327.201 27.243V26.4472C327.318 26.4695 327.468 26.475 327.601 26.475C328.152 26.475 328.486 26.2246 328.703 25.5346L328.814 25.1784L326.594 19.1739H327.629L329.276 24.11H329.365L331.007 19.1739H332.025L329.683 25.5401C329.187 26.8868 328.692 27.2764 327.629 27.2764ZM335.197 25.2786C333.862 25.2786 332.944 24.6331 332.832 23.6425H333.823C333.984 24.1434 334.463 24.4717 335.231 24.4717C336.038 24.4717 336.611 24.0877 336.611 23.5424V23.5312C336.611 23.125 336.305 22.8412 335.565 22.6631L334.635 22.4405C333.511 22.1734 333.005 21.6837 333.005 20.8211V20.8156C333.005 19.8195 333.962 19.0682 335.236 19.0682C336.494 19.0682 337.368 19.697 337.501 20.6765H336.55C336.422 20.2034 335.954 19.8751 335.231 19.8751C334.518 19.8751 333.995 20.2424 333.995 20.7711V20.7822C333.995 21.1884 334.296 21.4444 335.003 21.6169L335.926 21.8395C337.056 22.1122 337.601 22.6019 337.601 23.4589V23.47C337.601 24.5385 336.561 25.2786 335.197 25.2786Z" fill="black"/>
<path d="M295.806 41.1749L295.283 43.1665H285.676L286.192 41.1749H295.806ZM290.813 52.2078L285.912 46.3761L285.92 44.585H288.341C288.881 44.585 289.332 44.4847 289.695 44.2841C290.058 44.0835 290.33 43.8113 290.512 43.4674C290.693 43.1235 290.786 42.7319 290.791 42.2925C290.786 41.6334 290.593 41.0961 290.211 40.6805C289.834 40.2602 289.21 40.0501 288.341 40.0501H285.676L286.263 37.5355H288.341C289.559 37.5355 290.574 37.7193 291.386 38.0871C292.203 38.4501 292.814 38.9683 293.22 39.6417C293.631 40.3152 293.838 41.1176 293.843 42.0489C293.838 42.8752 293.7 43.5964 293.428 44.2125C293.16 44.8286 292.737 45.3421 292.16 45.7528C291.586 46.1636 290.839 46.4692 289.917 46.6698L289.803 46.7128L294.187 52.0788V52.2078H290.813ZM295.82 37.5355L295.283 39.5558H287.374L287.911 37.5355H295.82ZM298.299 52.2078L304.382 40.1719V40.0716H297.296V37.5355H307.591V40.1074L301.502 52.2078H298.299ZM314.879 52.4084C313.866 52.4084 312.964 52.2221 312.171 51.8496C311.383 51.477 310.757 50.9636 310.294 50.3092C309.831 49.6549 309.589 48.9051 309.57 48.0597H312.579C312.613 48.628 312.852 49.0889 313.296 49.4424C313.74 49.7958 314.268 49.9725 314.879 49.9725C315.366 49.9725 315.796 49.8651 316.169 49.6501C316.546 49.4304 316.84 49.1272 317.05 48.7403C317.265 48.3486 317.372 47.8997 317.372 47.3934C317.372 46.8776 317.262 46.4239 317.043 46.0322C316.828 45.6406 316.529 45.3349 316.147 45.1152C315.765 44.8955 315.328 44.7833 314.836 44.7785C314.406 44.7785 313.988 44.8668 313.582 45.0436C313.181 45.2203 312.868 45.4615 312.644 45.7671L309.886 45.2728L310.581 37.5355H319.55V40.0716H313.138L312.758 43.7468H312.844C313.102 43.3838 313.492 43.0829 314.012 42.8441C314.533 42.6053 315.115 42.4859 315.76 42.4859C316.644 42.4859 317.432 42.6937 318.124 43.1092C318.817 43.5247 319.364 44.0955 319.765 44.8215C320.166 45.5427 320.364 46.3737 320.36 47.3146C320.364 48.3033 320.135 49.1821 319.672 49.951C319.213 50.7152 318.571 51.317 317.745 51.7564C316.923 52.191 315.968 52.4084 314.879 52.4084ZM322.609 52.2078V37.5355H325.711V44.0047H325.905L331.185 37.5355H334.903L329.458 44.105L334.967 52.2078H331.256L327.237 46.1755L325.711 48.0382V52.2078H322.609Z" fill="#EBA200"/>
<g clip-path="url(#clip0_801_17144)">
<path d="M10 66.5232H357V83.6714C357 88.1283 353.387 91.7412 348.93 91.7412H18.0698C13.613 91.7412 10 88.1283 10 83.6714V66.5232Z" fill="#B38F0D"/>
<path d="M42.6518 90.5722C46.8265 90.5722 50.2108 89.5993 50.2108 88.3991C50.2108 87.199 46.8265 86.2261 42.6518 86.2261C38.4771 86.2261 35.0928 87.199 35.0928 88.3991C35.0928 89.5993 38.4771 90.5722 42.6518 90.5722Z" fill="#FFBA33"/>
<path d="M42.6524 90.3144C46.3324 90.3144 49.3156 89.4568 49.3156 88.3989C49.3156 87.341 46.3324 86.4834 42.6524 86.4834C38.9725 86.4834 35.9893 87.341 35.9893 88.3989C35.9893 89.4568 38.9725 90.3144 42.6524 90.3144Z" fill="#F9A833"/>
<path d="M38.2973 89.7532C35.6952 89.0052 35.6952 87.7925 38.2973 87.0444C39.553 86.6834 41.1852 86.4971 42.8306 86.4846C41.0664 86.4711 39.2873 86.6573 37.9409 87.0444C35.3387 87.7925 35.3387 89.0053 37.9409 89.7532C39.2873 90.1404 41.0664 90.3265 42.8306 90.3131C41.1854 90.3005 39.5531 90.1142 38.2973 89.7532Z" fill="#DB8000"/>
<path d="M47.0084 87.0444C49.6106 87.7925 49.6106 89.0053 47.0084 89.7532C45.7527 90.1142 44.1204 90.3005 42.4751 90.3131C44.2392 90.3265 46.0184 90.1404 47.3648 89.7532C49.9668 89.0052 49.9668 87.7925 47.3648 87.0444C46.0184 86.6573 44.2392 86.4711 42.4751 86.4846C44.1203 86.4971 45.7527 86.6834 47.0084 87.0444Z" fill="#FFF352"/>
<path d="M43.6339 87.9076L44.0684 87.7828L44.0038 87.547L43.1923 87.7803C42.7354 87.6759 42.2261 87.6301 41.699 87.643L42.6411 87.3725L42.5765 87.1367L39.8093 87.9322L38.5146 88.3044L38.9555 88.4311L40.2471 88.0601C41.1082 87.8142 41.9567 87.7749 42.677 87.9283L39.9419 88.7146L40.3826 88.8413L43.1195 88.0553C43.652 88.2611 43.5207 88.5083 42.6536 88.7577L41.3726 89.126L41.8065 89.2507L43.5028 88.7635L46.1175 88.8904L46.6752 88.7301L44.0589 88.6038L45.4921 88.1921L45.4343 87.9583L44.1067 88.34C44.1577 88.187 44.0029 88.0398 43.6339 87.9076Z" fill="#DB8000"/>
<path d="M42.6518 90.5727C38.4771 90.5727 35.0928 89.5998 35.0928 88.3997V89.7476C35.0928 90.9478 38.4771 91.9207 42.6518 91.9207C46.8265 91.9207 50.2108 90.9478 50.2108 89.7476V88.3997C50.2108 89.5998 46.8265 90.5727 42.6518 90.5727Z" fill="#EDAF34"/>
<path d="M37.8173 90.0699C36.1527 89.6713 35.0928 89.0711 35.0928 88.3997V89.7476C35.0928 90.4191 36.1527 91.0193 37.8173 91.4179V90.0699Z" fill="#E89D09"/>
<path d="M41.9697 91.9112C42.1949 91.917 42.4223 91.9204 42.6527 91.9204C44.4166 91.9204 46.038 91.7462 47.324 91.4551V90.1072C46.038 90.3983 44.4166 90.5724 42.6527 90.5724C42.4224 90.5724 42.1949 90.5689 41.9697 90.5632V91.9112Z" fill="#E89D09"/>
<path d="M47.3228 90.1074V91.4553C49.0805 91.0574 50.2104 90.4406 50.2104 89.7476V88.3997C50.2104 89.0926 49.0805 89.7094 47.3228 90.1074Z" fill="#B57900"/>
<path d="M41.2773 89.0341C45.452 89.0341 48.8363 88.0612 48.8363 86.8611C48.8363 85.6609 45.452 84.688 41.2773 84.688C37.1026 84.688 33.7183 85.6609 33.7183 86.8611C33.7183 88.0612 37.1026 89.0341 41.2773 89.0341Z" fill="#FFBA33"/>
<path d="M41.2774 88.7763C44.9574 88.7763 47.9406 87.9187 47.9406 86.8608C47.9406 85.8029 44.9574 84.9453 41.2774 84.9453C37.5975 84.9453 34.6143 85.8029 34.6143 86.8608C34.6143 87.9187 37.5975 88.7763 41.2774 88.7763Z" fill="#F9A833"/>
<path d="M36.9223 88.2159C34.3201 87.4678 34.3201 86.2551 36.9223 85.507C38.178 85.1461 39.8102 84.9598 41.4556 84.9472C39.6914 84.9338 37.9123 85.1199 36.5659 85.507C33.9637 86.2551 33.9637 87.4679 36.5659 88.2159C37.9123 88.603 39.6914 88.7891 41.4557 88.7757C39.8104 88.7631 38.1781 88.5769 36.9223 88.2159Z" fill="#DB8000"/>
<path d="M45.6331 85.507C48.2353 86.2551 48.2353 87.4679 45.6331 88.2159C44.3775 88.5769 42.7451 88.7631 41.0997 88.7757C42.8639 88.7891 44.643 88.603 45.9894 88.2159C48.5915 87.4678 48.5915 86.2551 45.9894 85.507C44.643 85.1199 42.8638 84.9338 41.0996 84.9472C42.7451 84.9598 44.3773 85.1461 45.6331 85.507Z" fill="#FFF352"/>
<path d="M42.2589 86.3692L42.6934 86.2444L42.6288 86.0086L41.8173 86.2419C41.3604 86.1375 40.8513 86.0918 40.324 86.1047L41.2661 85.8342L41.2015 85.5984L38.4343 86.3939L37.1396 86.7661L37.5803 86.8927L38.8719 86.5218C39.733 86.2759 40.5815 86.2366 41.3019 86.39L38.5668 87.1763L39.0076 87.303L41.7445 86.5169C42.277 86.7227 42.1457 86.97 41.2786 87.2194L39.9976 87.5877L40.4315 87.7124L42.1278 87.2252L44.7425 87.3521L45.3002 87.1917L42.6841 87.0654L44.1171 86.6538L44.0593 86.42L42.7317 86.8016C42.7826 86.6487 42.6279 86.5015 42.2589 86.3692Z" fill="#DB8000"/>
<path d="M41.2773 89.0337C37.1026 89.0337 33.7183 88.0607 33.7183 86.8606V88.2086C33.7183 89.4087 37.1026 90.3816 41.2773 90.3816C45.452 90.3816 48.8363 89.4087 48.8363 88.2086V86.8606C48.8363 88.0607 45.452 89.0337 41.2773 89.0337Z" fill="#EDAF34"/>
<path d="M36.4428 88.5308C34.7782 88.1322 33.7183 87.532 33.7183 86.8606V88.2086C33.7183 88.88 34.7782 89.4802 36.4428 89.8788V88.5308Z" fill="#E89D09"/>
<path d="M40.5947 90.3725C40.8199 90.3783 41.0473 90.3817 41.2777 90.3817C43.0416 90.3817 44.663 90.2075 45.949 89.9164V88.5684C44.663 88.8595 43.0416 89.0336 41.2777 89.0336C41.0473 89.0336 40.8199 89.0301 40.5947 89.0244V90.3725Z" fill="#E89D09"/>
<path d="M45.9492 88.5683V89.9163C47.7069 89.5183 48.8369 88.9015 48.8369 88.2086V86.8606C48.8369 87.5537 47.7069 88.1705 45.9492 88.5683Z" fill="#B57900"/>
<path d="M42.83 87.0661C47.0048 87.0661 50.389 86.0932 50.389 84.893C50.389 83.6929 47.0048 82.72 42.83 82.72C38.6553 82.72 35.271 83.6929 35.271 84.893C35.271 86.0932 38.6553 87.0661 42.83 87.0661Z" fill="#FFBA33"/>
<path d="M42.8311 86.8093C46.5111 86.8093 49.4943 85.9517 49.4943 84.8938C49.4943 83.8359 46.5111 82.9783 42.8311 82.9783C39.1512 82.9783 36.168 83.8359 36.168 84.8938C36.168 85.9517 39.1512 86.8093 42.8311 86.8093Z" fill="#F9A833"/>
<path d="M38.4759 86.2476C35.8737 85.4996 35.8737 84.2867 38.4759 83.5388C39.7316 83.1778 41.3639 82.9915 43.0092 82.979C41.2451 82.9655 39.4659 83.1517 38.1195 83.5388C35.5175 84.2868 35.5175 85.4996 38.1195 86.2476C39.4659 86.6346 41.2451 86.8209 43.0092 86.8074C41.364 86.7949 39.7316 86.6086 38.4759 86.2476Z" fill="#DB8000"/>
<path d="M47.1857 83.5388C49.7879 84.2868 49.7879 85.4996 47.1857 86.2476C45.9301 86.6086 44.2978 86.7949 42.6523 86.8074C44.4165 86.8209 46.1956 86.6347 47.542 86.2476C50.1442 85.4996 50.1442 84.2867 47.542 83.5388C46.1956 83.1517 44.4165 82.9655 42.6523 82.979C44.2977 82.9915 45.9301 83.1778 47.1857 83.5388Z" fill="#FFF352"/>
<path d="M43.8108 84.402L44.2453 84.2771L44.1806 84.0414L43.3692 84.2747C42.9122 84.1703 42.4031 84.1246 41.8759 84.1374L42.818 83.8669L42.7534 83.6311L39.9861 84.4266L38.6914 84.7988L39.1322 84.9254L40.4238 84.5545C41.2849 84.3086 42.1334 84.2693 42.8538 84.4227L40.1187 85.209L40.5595 85.3357L43.2964 84.5497C43.8289 84.7555 43.6976 85.0027 42.8305 85.2521L41.5495 85.6204L41.9834 85.7451L43.6797 85.2579L46.2944 85.3848L46.8521 85.2244L44.2358 85.0981L45.669 84.6865L45.6112 84.4527L44.2836 84.8344C44.3346 84.6816 44.1798 84.5343 43.8108 84.402Z" fill="#DB8000"/>
<path d="M42.83 87.0656C38.6553 87.0656 35.271 86.0927 35.271 84.8926V86.2405C35.271 87.4407 38.6553 88.4136 42.83 88.4136C47.0047 88.4136 50.389 87.4407 50.389 86.2405V84.8926C50.389 86.0927 47.0049 87.0656 42.83 87.0656Z" fill="#EDAF34"/>
<path d="M37.9955 86.5628C36.3309 86.1643 35.271 85.564 35.271 84.8926V86.2405C35.271 86.912 36.3309 87.5122 37.9955 87.9108V86.5628Z" fill="#E89D09"/>
<path d="M42.1484 88.4043C42.3736 88.4102 42.601 88.4136 42.8314 88.4136C44.5953 88.4136 46.2167 88.2393 47.5027 87.9483V86.6003C46.2167 86.8915 44.5953 87.0656 42.8314 87.0656C42.6011 87.0656 42.3736 87.0621 42.1484 87.0564V88.4043Z" fill="#E89D09"/>
<path d="M47.502 86.6003V87.9482C49.2597 87.5503 50.3896 86.9335 50.3896 86.2405V84.8926C50.3895 85.5857 49.2596 86.2023 47.502 86.6003Z" fill="#B57900"/>
<path d="M40.831 85.7282C45.0057 85.7282 48.39 84.7553 48.39 83.5553C48.39 82.3552 45.0057 81.3823 40.831 81.3823C36.6563 81.3823 33.272 82.3552 33.272 83.5553C33.272 84.7553 36.6563 85.7282 40.831 85.7282Z" fill="#FFBA33"/>
<path d="M40.8301 85.4711C44.5101 85.4711 47.4933 84.6135 47.4933 83.5556C47.4933 82.4977 44.5101 81.6401 40.8301 81.6401C37.1502 81.6401 34.167 82.4977 34.167 83.5556C34.167 84.6135 37.1502 85.4711 40.8301 85.4711Z" fill="#F9A833"/>
<path d="M36.4748 84.91C33.8726 84.1619 33.8726 82.9492 36.4748 82.2011C37.7305 81.8401 39.3629 81.6539 41.0082 81.6413C39.2441 81.6279 37.4649 81.814 36.1185 82.2011C33.5165 82.9492 33.5165 84.162 36.1185 84.91C37.4649 85.2971 39.2442 85.4832 41.0084 85.4698C39.3629 85.4572 37.7305 85.271 36.4748 84.91Z" fill="#DB8000"/>
<path d="M45.1861 82.2011C47.7883 82.9492 47.7883 84.162 45.1861 84.91C43.9304 85.271 42.2982 85.4572 40.6528 85.4698C42.417 85.4832 44.1961 85.2971 45.5425 84.91C48.1446 84.1619 48.1446 82.9492 45.5425 82.2011C44.1961 81.814 42.417 81.6279 40.6528 81.6413C42.2982 81.6539 43.9304 81.8401 45.1861 82.2011Z" fill="#FFF352"/>
<path d="M41.8097 83.065L42.2443 82.9402L42.1797 82.7044L41.3682 82.9377C40.9113 82.8332 40.4022 82.7876 39.8749 82.8005L40.817 82.53L40.7524 82.2942L37.9852 83.0897L36.6904 83.4619L37.1312 83.5885L38.4228 83.2176C39.2839 82.9717 40.1324 82.9324 40.8528 83.0858L38.1177 83.8721L38.5584 83.9988L41.2953 83.2127C41.8278 83.4185 41.6965 83.6658 40.8294 83.9152L39.5484 84.2833L39.9823 84.408L41.6786 83.9208L44.2933 84.0477L44.851 83.8873L42.2347 83.761L43.6679 83.3494L43.6101 83.1156L42.2825 83.4972C42.3335 83.3446 42.1787 83.1973 41.8097 83.065Z" fill="#DB8000"/>
<path d="M40.831 85.7297C36.6563 85.7297 33.272 84.7568 33.272 83.5566V84.9046C33.272 86.1047 36.6563 87.0777 40.831 87.0777C45.0057 87.0777 48.39 86.1047 48.39 84.9046V83.5566C48.39 84.7569 45.0057 85.7297 40.831 85.7297Z" fill="#EDAF34"/>
<path d="M35.9965 85.2269C34.3319 84.8283 33.272 84.2281 33.272 83.5566V84.9046C33.272 85.576 34.3319 86.1763 35.9965 86.5748V85.2269Z" fill="#E89D09"/>
<path d="M40.146 87.0677C40.3711 87.0735 40.5985 87.0769 40.829 87.0769C42.5929 87.0769 44.2143 86.9027 45.5003 86.6116V85.2637C44.2143 85.5548 42.5929 85.7289 40.829 85.7289C40.5987 85.7289 40.3711 85.7254 40.146 85.7197V87.0677Z" fill="#E89D09"/>
<path d="M45.501 85.2643V86.6123C47.2587 86.2144 48.3886 85.5976 48.3886 84.9046V83.5566C48.3886 84.2496 47.2586 84.8664 45.501 85.2643Z" fill="#B57900"/>
<path d="M41.7573 84.1301C45.932 84.1301 49.3163 83.1572 49.3163 81.957C49.3163 80.7569 45.932 79.7839 41.7573 79.7839C37.5825 79.7839 34.1982 80.7569 34.1982 81.957C34.1982 83.1572 37.5825 84.1301 41.7573 84.1301Z" fill="#FFBA33"/>
<path d="M41.7559 83.873C45.4359 83.873 48.4191 83.0154 48.4191 81.9575C48.4191 80.8996 45.4359 80.042 41.7559 80.042C38.076 80.042 35.0928 80.8996 35.0928 81.9575C35.0928 83.0154 38.076 83.873 41.7559 83.873Z" fill="#F9A833"/>
<path d="M37.4007 83.3113C34.7987 82.5633 34.7987 81.3506 37.4007 80.6025C38.6564 80.2415 40.2887 80.0552 41.934 80.0427C40.1699 80.0292 38.3907 80.2154 37.0443 80.6025C34.4423 81.3506 34.4423 82.5633 37.0443 83.3113C38.3907 83.6985 40.1699 83.8846 41.934 83.8712C40.2887 83.8586 38.6564 83.6723 37.4007 83.3113Z" fill="#DB8000"/>
<path d="M46.111 80.6025C48.7131 81.3506 48.7131 82.5633 46.111 83.3113C44.8554 83.6723 43.2231 83.8586 41.5776 83.8712C43.3418 83.8846 45.1209 83.6985 46.4673 83.3113C49.0694 82.5633 49.0694 81.3506 46.4673 80.6025C45.1209 80.2154 43.3418 80.0292 41.5776 80.0427C43.223 80.0552 44.8554 80.2415 46.111 80.6025Z" fill="#FFF352"/>
<path d="M42.737 81.4652L43.1715 81.3404L43.1069 81.1046L42.2955 81.3379C41.8385 81.2335 41.3293 81.1877 40.8022 81.2006L41.7443 80.9301L41.6796 80.6943L38.9124 81.4898L37.6177 81.862L38.0584 81.9887L39.35 81.6177C40.2111 81.3719 41.0596 81.3325 41.7799 81.486L39.0448 82.2722L39.4856 82.3989L42.2225 81.6129C42.755 81.8187 42.6238 82.0659 41.7566 82.3153L40.4756 82.6836L40.9095 82.8083L42.6059 82.3211L45.2205 82.4481L45.7783 82.2877L43.162 82.1614L44.5952 81.7498L44.5373 81.516L43.2097 81.8976C43.2609 81.7448 43.106 81.5976 42.737 81.4652Z" fill="#DB8000"/>
<path d="M41.7573 84.1294C37.5825 84.1294 34.1982 83.1564 34.1982 81.9563V83.3043C34.1982 84.5044 37.5825 85.4773 41.7573 85.4773C45.932 85.4773 49.3163 84.5044 49.3163 83.3043V81.9563C49.3163 83.1564 45.932 84.1294 41.7573 84.1294Z" fill="#EDAF34"/>
<path d="M36.9228 83.6265C35.2581 83.228 34.1982 82.6277 34.1982 81.9563V83.3043C34.1982 83.9757 35.2581 84.5759 36.9228 84.9745V83.6265Z" fill="#E89D09"/>
<path d="M41.0742 85.4688C41.2994 85.4746 41.5268 85.478 41.7572 85.478C43.5211 85.478 45.1425 85.3038 46.4285 85.0128V83.6648C45.1425 83.956 43.5211 84.13 41.7572 84.13C41.5269 84.13 41.2994 84.1266 41.0742 84.1208V85.4688Z" fill="#E89D09"/>
<path d="M46.4272 83.664V85.012C48.185 84.614 49.3149 83.9972 49.3149 83.3043V81.9563C49.3149 82.6494 48.185 83.2661 46.4272 83.664Z" fill="#B57900"/>
<path d="M40.5947 82.9782C44.7694 82.9782 48.1537 82.0053 48.1537 80.8051C48.1537 79.605 44.7694 78.6321 40.5947 78.6321C36.4199 78.6321 33.0356 79.605 33.0356 80.8051C33.0356 82.0053 36.4199 82.9782 40.5947 82.9782Z" fill="#FFBA33"/>
<path d="M40.5958 82.7214C44.2757 82.7214 47.2589 81.8638 47.2589 80.8059C47.2589 79.748 44.2757 78.8904 40.5958 78.8904C36.9158 78.8904 33.9326 79.748 33.9326 80.8059C33.9326 81.8638 36.9158 82.7214 40.5958 82.7214Z" fill="#F9A833"/>
<path d="M36.2407 82.1605C33.6385 81.4124 33.6385 80.1996 36.2407 79.4516C37.4963 79.0906 39.1286 78.9044 40.7739 78.8918C39.0098 78.8784 37.2307 79.0645 35.8843 79.4516C33.2821 80.1997 33.2821 81.4124 35.8843 82.1605C37.2307 82.5476 39.0098 82.7337 40.7741 82.7203C39.1287 82.7077 37.4965 82.5214 36.2407 82.1605Z" fill="#DB8000"/>
<path d="M44.9505 79.4516C47.5527 80.1997 47.5527 81.4124 44.9505 82.1605C43.6948 82.5214 42.0625 82.7077 40.4171 82.7203C42.1813 82.7337 43.9604 82.5476 45.3068 82.1605C47.9089 81.4124 47.9089 80.1996 45.3068 79.4516C43.9604 79.0645 42.1811 78.8784 40.417 78.8918C42.0625 78.9044 43.6948 79.0906 44.9505 79.4516Z" fill="#FFF352"/>
<path d="M41.5763 80.3146L42.0108 80.1897L41.9461 79.954L41.1347 80.1873C40.6777 80.0829 40.1686 80.0372 39.6414 80.05L40.5835 79.7795L40.5189 79.5437L37.7516 80.3392L36.457 80.7114L36.8977 80.838L38.1893 80.4671C39.0504 80.2212 39.8989 80.1819 40.6193 80.3353L37.8842 81.1216L38.325 81.2483L41.0619 80.4623C41.5944 80.6681 41.4631 80.9153 40.596 81.1647L39.315 81.533L39.7489 81.6578L41.4452 81.1705L44.0599 81.2974L44.6176 81.137L42.0013 81.0107L43.4344 80.5991L43.3766 80.3653L42.0489 80.747C42.1 80.594 41.9453 80.4468 41.5763 80.3146Z" fill="#DB8000"/>
<path d="M40.5947 82.9775C36.4199 82.9775 33.0356 82.0046 33.0356 80.8044V82.1524C33.0356 83.3525 36.4199 84.3255 40.5947 84.3255C44.7694 84.3255 48.1537 83.3525 48.1537 82.1524V80.8044C48.1537 82.0046 44.7694 82.9775 40.5947 82.9775Z" fill="#EDAF34"/>
<path d="M35.7602 82.4747C34.0955 82.0761 33.0356 81.4759 33.0356 80.8044V82.1524C33.0356 82.8238 34.0955 83.4241 35.7602 83.8226V82.4747Z" fill="#E89D09"/>
<path d="M39.9116 84.3169C40.1368 84.3228 40.3642 84.3261 40.5946 84.3261C42.3585 84.3261 43.9799 84.1519 45.2659 83.8609V82.5129C43.9799 82.8041 42.3585 82.9782 40.5946 82.9782C40.3643 82.9782 40.1368 82.9747 39.9116 82.969V84.3169Z" fill="#E89D09"/>
<path d="M45.2671 82.5126V83.8606C47.0248 83.4627 48.1548 82.8459 48.1548 82.1529V80.8049C48.1548 81.4979 47.0248 82.1147 45.2671 82.5126Z" fill="#B57900"/>
<path d="M33.2709 95.3906C37.4457 95.3906 40.83 94.4177 40.83 93.2175C40.83 92.0174 37.4457 91.0444 33.2709 91.0444C29.0962 91.0444 25.7119 92.0174 25.7119 93.2175C25.7119 94.4177 29.0962 95.3906 33.2709 95.3906Z" fill="#FFBA33"/>
<path d="M33.2706 95.1325C36.9505 95.1325 39.9337 94.2749 39.9337 93.217C39.9337 92.1591 36.9505 91.3015 33.2706 91.3015C29.5906 91.3015 26.6074 92.1591 26.6074 93.217C26.6074 94.2749 29.5906 95.1325 33.2706 95.1325Z" fill="#F9A833"/>
<path d="M26.8594 93.2894C26.8594 92.2315 29.8426 91.3739 33.5225 91.3739C35.2984 91.3739 36.9106 91.574 38.1051 91.8997C36.8908 91.5315 35.1747 91.3015 33.2706 91.3015C29.5906 91.3015 26.6074 92.1591 26.6074 93.217C26.6074 93.7644 27.4074 94.2577 28.688 94.6068C27.5556 94.2635 26.8594 93.8 26.8594 93.2894Z" fill="#DB8000"/>
<path d="M32.3569 93.8085C36.5316 93.8085 39.9159 92.8356 39.9159 91.6355C39.9159 90.4353 36.5316 89.4624 32.3569 89.4624C28.1821 89.4624 24.7979 90.4353 24.7979 91.6355C24.7979 92.8356 28.1821 93.8085 32.3569 93.8085Z" fill="#FFBA33"/>
<path d="M32.3575 93.5502C36.0374 93.5502 39.0206 92.6926 39.0206 91.6347C39.0206 90.5768 36.0374 89.7192 32.3575 89.7192C28.6775 89.7192 25.6943 90.5768 25.6943 91.6347C25.6943 92.6926 28.6775 93.5502 32.3575 93.5502Z" fill="#F9A833"/>
<path d="M25.9463 91.7071C25.9463 90.6492 28.9295 89.7917 32.6095 89.7917C34.3853 89.7917 35.9975 89.9917 37.192 90.3174C35.9778 89.9492 34.2616 89.7192 32.3575 89.7192C28.6775 89.7192 25.6943 90.5768 25.6943 91.6347C25.6943 92.1821 26.4943 92.6755 27.775 93.0245C26.6424 92.6812 25.9463 92.2177 25.9463 91.7071Z" fill="#DB8000"/>
<path d="M38.7677 91.5623C38.7677 92.6203 35.7845 93.4778 32.1045 93.4778C30.3286 93.4778 28.7163 93.2778 27.522 92.9522C28.7362 93.3203 30.4524 93.5504 32.3565 93.5504C36.0365 93.5504 39.0196 92.6928 39.0196 91.6349C39.0196 91.0875 38.2196 90.5941 36.939 90.2451C38.0716 90.5883 38.7677 91.0518 38.7677 91.5623Z" fill="#FFF352"/>
<path d="M34.2584 91.486L34.8727 91.4861L35.407 91.3062H34.2594C34.1932 91.1394 33.9455 91.0037 33.541 90.9056L34.8727 90.9058L35.407 90.7258H31.4935H29.6626V90.905L31.4884 90.9053C32.7021 90.9064 33.3986 91.0511 33.5307 91.3061H29.6627V91.4852L33.5314 91.4857C33.4018 91.7394 32.7008 91.8876 31.4744 91.8876H29.6627V92.0641L32.0607 92.0645L33.5975 92.6856H34.3862L32.8468 92.0645L34.8727 92.0647L35.407 91.8876H33.5294C33.9411 91.7901 34.194 91.6545 34.2584 91.486Z" fill="#DB8000"/>
<path d="M32.3569 93.8083C28.1822 93.8083 24.7979 92.8354 24.7979 91.6353V92.9832C24.7979 94.1834 28.1822 95.1563 32.3569 95.1563C36.5316 95.1563 39.9159 94.1834 39.9159 92.9832V91.6353C39.9159 92.8354 36.5316 93.8083 32.3569 93.8083Z" fill="#EDAF34"/>
<path d="M27.5224 93.3055C25.8578 92.9069 24.7979 92.3067 24.7979 91.6353V92.9832C24.7979 93.6546 25.8578 94.2549 27.5224 94.6535V93.3055Z" fill="#E89D09"/>
<path d="M37.0273 93.3429V94.6909C38.7851 94.293 39.915 93.6762 39.915 92.9832V91.6353C39.915 92.3282 38.7851 92.945 37.0273 93.3429Z" fill="#B57900"/>
<path d="M35.0932 91.6362C39.2679 91.6362 42.6522 90.6633 42.6522 89.4631C42.6522 88.263 39.2679 87.29 35.0932 87.29C30.9185 87.29 27.5342 88.263 27.5342 89.4631C27.5342 90.6633 30.9185 91.6362 35.0932 91.6362Z" fill="#FFBA33"/>
<path d="M35.0928 91.3793C38.7728 91.3793 41.756 90.5217 41.756 89.4638C41.756 88.4059 38.7728 87.5483 35.0928 87.5483C31.4129 87.5483 28.4297 88.4059 28.4297 89.4638C28.4297 90.5217 31.4129 91.3793 35.0928 91.3793Z" fill="#F9A833"/>
<path d="M28.6817 89.5362C28.6817 88.4783 31.6648 87.6208 35.3448 87.6208C37.1207 87.6208 38.733 87.8208 39.9273 88.1465C38.7131 87.7783 36.997 87.5483 35.0928 87.5483C31.4129 87.5483 28.4297 88.4059 28.4297 89.4638C28.4297 90.0112 29.2297 90.5046 30.5103 90.8536C29.3777 90.5103 28.6817 90.0468 28.6817 89.5362Z" fill="#DB8000"/>
<path d="M41.504 89.3918C41.504 90.4497 38.5208 91.3073 34.8408 91.3073C33.065 91.3073 31.4528 91.1072 30.2583 90.7816C31.4725 91.1498 33.1887 91.3797 35.0928 91.3797C38.7728 91.3797 41.756 90.5221 41.756 89.4642C41.756 88.9169 40.956 88.4235 39.6753 88.0745C40.8079 88.4178 41.504 88.8813 41.504 89.3918Z" fill="#FFF352"/>
<path d="M36.9941 89.3151L37.6084 89.3152L38.1427 89.1353H36.9951C36.9289 88.9685 36.6813 88.8328 36.2766 88.7347L37.6082 88.7349L38.1425 88.5549H34.2294H32.3984V88.7341L34.2242 88.7344C35.4379 88.7355 36.1345 88.8802 36.2665 89.1352H32.3986V89.3143L36.2673 89.3148C36.1378 89.5686 35.4367 89.7167 34.2102 89.7167H32.3986V89.8932L34.7965 89.8934L36.3333 90.5147H37.1221L35.5828 89.8936L37.6086 89.8938L38.1429 89.7167H36.2654C36.6768 89.6192 36.9297 89.4836 36.9941 89.3151Z" fill="#DB8000"/>
<path d="M35.0932 91.6374C30.9185 91.6374 27.5342 90.6645 27.5342 89.4644V90.8123C27.5342 92.0125 30.9185 92.9854 35.0932 92.9854C39.2679 92.9854 42.6522 92.0125 42.6522 90.8123V89.4644C42.6522 90.6645 39.2679 91.6374 35.0932 91.6374Z" fill="#EDAF34"/>
<path d="M30.2587 91.1346C28.5941 90.736 27.5342 90.1358 27.5342 89.4644V90.8123C27.5342 91.4837 28.5941 92.084 30.2587 92.4826V91.1346Z" fill="#E89D09"/>
<path d="M34.4092 92.9756C34.6343 92.9815 34.8617 92.9848 35.0921 92.9848C36.856 92.9848 38.4774 92.8106 39.7635 92.5196V91.1716C38.4774 91.4628 36.856 91.6369 35.0921 91.6369C34.8618 91.6369 34.6343 91.6334 34.4092 91.6277V92.9756Z" fill="#E89D09"/>
<path d="M39.7642 91.172V92.52C41.5219 92.1221 42.6518 91.5053 42.6518 90.8123V89.4644C42.6518 90.1573 41.5219 90.7741 39.7642 91.172Z" fill="#B57900"/>
<path d="M32.1962 89.8559C36.371 89.8559 39.7553 88.883 39.7553 87.6828C39.7553 86.4827 36.371 85.5098 32.1962 85.5098C28.0215 85.5098 24.6372 86.4827 24.6372 87.6828C24.6372 88.883 28.0215 89.8559 32.1962 89.8559Z" fill="#FFBA33"/>
<path d="M32.1959 89.5981C35.8758 89.5981 38.859 88.7405 38.859 87.6826C38.859 86.6247 35.8758 85.7671 32.1959 85.7671C28.5159 85.7671 25.5327 86.6247 25.5327 87.6826C25.5327 88.7405 28.5159 89.5981 32.1959 89.5981Z" fill="#F9A833"/>
<path d="M25.7847 87.755C25.7847 86.6971 28.7679 85.8395 32.4478 85.8395C34.2237 85.8395 35.8359 86.0396 37.0304 86.3652C35.8161 85.997 34.1 85.7671 32.1959 85.7671C28.5159 85.7671 25.5327 86.6247 25.5327 87.6826C25.5327 88.23 26.3327 88.7233 27.6133 89.0724C26.4807 88.7291 25.7847 88.2655 25.7847 87.755Z" fill="#DB8000"/>
<path d="M38.6065 87.6106C38.6065 88.6685 35.6234 89.5261 31.9434 89.5261C30.1675 89.5261 28.5553 89.326 27.3608 89.0003C28.5751 89.3685 30.2912 89.5985 32.1953 89.5985C35.8753 89.5985 38.8585 88.7409 38.8585 87.683C38.8585 87.1356 38.0585 86.6422 36.7779 86.2932C37.9103 86.6365 38.6065 87.1 38.6065 87.6106Z" fill="#FFF352"/>
<path d="M34.0964 87.5348L34.7107 87.5349L35.245 87.355H34.0974C34.0312 87.1883 33.7836 87.0525 33.3789 86.9545L34.7105 86.9546L35.2448 86.7747H31.3314H29.5005V86.9538L31.3262 86.9541C32.54 86.9552 33.2365 87.0999 33.3686 87.3549H29.5006V87.5341L33.3693 87.5346C33.2397 87.7883 32.5387 87.9365 31.3123 87.9365H29.5006V88.1129L31.8986 88.1133L33.4353 88.7346H34.2241L32.6849 88.1134L34.7107 88.1137L35.245 87.9366H33.3674C33.7791 87.8389 34.0319 87.7034 34.0964 87.5348Z" fill="#DB8000"/>
<path d="M32.1962 89.8571C28.0215 89.8571 24.6372 88.8842 24.6372 87.6841V89.032C24.6372 90.2322 28.0215 91.2051 32.1962 91.2051C36.371 91.2051 39.7553 90.2322 39.7553 89.032V87.6841C39.7553 88.8843 36.371 89.8571 32.1962 89.8571Z" fill="#EDAF34"/>
<path d="M27.3617 89.3543C25.6971 88.9558 24.6372 88.3555 24.6372 87.6841V89.032C24.6372 89.7035 25.6971 90.3037 27.3617 90.7023V89.3543Z" fill="#E89D09"/>
<path d="M31.5117 91.1949C31.7369 91.2007 31.9643 91.2041 32.1947 91.2041C33.9586 91.2041 35.58 91.0299 36.866 90.7388V89.3909C35.58 89.682 33.9586 89.8561 32.1947 89.8561C31.9644 89.8561 31.7369 89.8526 31.5117 89.8469V91.1949Z" fill="#E89D09"/>
<path d="M36.8682 89.3918V90.7397C38.6259 90.3418 39.7558 89.725 39.7558 89.032V87.6841C39.7558 88.377 38.6258 88.9938 36.8682 89.3918Z" fill="#B57900"/>
<path d="M33.7182 87.7927C37.8929 87.7927 41.2772 86.8198 41.2772 85.6196C41.2772 84.4194 37.8929 83.4465 33.7182 83.4465C29.5435 83.4465 26.1592 84.4194 26.1592 85.6196C26.1592 86.8198 29.5435 87.7927 33.7182 87.7927Z" fill="#FFBA33"/>
<path d="M33.7198 87.5346C37.3998 87.5346 40.383 86.677 40.383 85.6191C40.383 84.5612 37.3998 83.7036 33.7198 83.7036C30.0398 83.7036 27.0566 84.5612 27.0566 85.6191C27.0566 86.677 30.0398 87.5346 33.7198 87.5346Z" fill="#F9A833"/>
<path d="M27.3086 85.6915C27.3086 84.6336 30.2918 83.776 33.9718 83.776C35.7476 83.776 37.3598 83.9761 38.5543 84.3018C37.3401 83.9336 35.6238 83.7036 33.7198 83.7036C30.0398 83.7036 27.0566 84.5612 27.0566 85.6191C27.0566 86.1665 27.8566 86.6598 29.1373 87.0089C28.0047 86.6656 27.3086 86.2021 27.3086 85.6915Z" fill="#DB8000"/>
<path d="M40.1305 85.547C40.1305 86.6049 37.1473 87.4625 33.4673 87.4625C31.6914 87.4625 30.0791 87.2624 28.8848 86.9369C30.099 87.3049 31.8151 87.535 33.7193 87.535C37.3993 87.535 40.3824 86.6774 40.3824 85.6195C40.3824 85.0721 39.5824 84.5788 38.3018 84.2297C39.4344 84.5729 40.1305 85.0364 40.1305 85.547Z" fill="#FFF352"/>
<path d="M35.6198 85.4708L36.2341 85.471L36.7684 85.291H35.6208C35.5547 85.1243 35.307 84.9885 34.9023 84.8905L36.234 84.8906L36.7683 84.7107H32.8548H31.0239V84.8899L32.8497 84.8901C34.0634 84.8912 34.76 85.036 34.892 85.2909H31.0241V85.4701L34.8928 85.4706C34.7633 85.7243 34.0622 85.8725 32.8357 85.8725H31.0241V86.049L33.422 86.0493L34.9588 86.6705H35.7476L34.2082 86.0493L36.234 86.0496L36.7683 85.8725H34.8907C35.3026 85.7751 35.5554 85.6394 35.6198 85.4708Z" fill="#DB8000"/>
<path d="M33.7182 87.7932C29.5435 87.7932 26.1592 86.8203 26.1592 85.6201V86.9681C26.1592 88.1682 29.5435 89.1411 33.7182 89.1411C37.8929 89.1411 41.2772 88.1682 41.2772 86.9681V85.6201C41.2772 86.8203 37.8929 87.7932 33.7182 87.7932Z" fill="#EDAF34"/>
<path d="M28.8837 87.2904C27.2191 86.8918 26.1592 86.2915 26.1592 85.6201V86.9681C26.1592 87.6395 27.2191 88.2398 28.8837 88.6383V87.2904Z" fill="#E89D09"/>
<path d="M33.0356 89.1309C33.2608 89.1368 33.4882 89.1401 33.7186 89.1401C35.4825 89.1401 37.1039 88.9659 38.39 88.6749V87.3269C37.1039 87.6181 35.4825 87.7922 33.7186 87.7922C33.4882 87.7922 33.2608 87.7887 33.0356 87.7829V89.1309Z" fill="#E89D09"/>
<path d="M38.3901 87.3278V88.6758C40.1479 88.2778 41.2778 87.661 41.2778 86.9681V85.6201C41.2778 86.3131 40.1479 86.9299 38.3901 87.3278Z" fill="#B57900"/>
<path d="M32.5883 85.9789C36.7631 85.9789 40.1473 85.006 40.1473 83.8059C40.1473 82.6057 36.7631 81.6328 32.5883 81.6328C28.4136 81.6328 25.0293 82.6057 25.0293 83.8059C25.0293 85.006 28.4136 85.9789 32.5883 85.9789Z" fill="#FFBA33"/>
<path d="M32.588 85.7214C36.2679 85.7214 39.2511 84.8638 39.2511 83.8059C39.2511 82.748 36.2679 81.8904 32.588 81.8904C28.908 81.8904 25.9248 82.748 25.9248 83.8059C25.9248 84.8638 28.908 85.7214 32.588 85.7214Z" fill="#F9A833"/>
<path d="M26.1768 83.8783C26.1768 82.8204 29.1599 81.9628 32.8399 81.9628C34.6158 81.9628 36.228 82.1629 37.4225 82.4885C36.2082 82.1203 34.4921 81.8904 32.588 81.8904C28.908 81.8904 25.9248 82.748 25.9248 83.8059C25.9248 84.3532 26.7248 84.8466 28.0054 85.1956C26.8728 84.8523 26.1768 84.3888 26.1768 83.8783Z" fill="#DB8000"/>
<path d="M38.9996 83.7334C38.9996 84.7913 36.0164 85.6489 32.3364 85.6489C30.5606 85.6489 28.9482 85.4488 27.7539 85.1231C28.9681 85.4913 30.6843 85.7213 32.5884 85.7213C36.2684 85.7213 39.2516 84.8637 39.2516 83.8058C39.2516 83.2584 38.4516 82.765 37.1709 82.416C38.3034 82.7593 38.9996 83.2228 38.9996 83.7334Z" fill="#FFF352"/>
<path d="M34.4899 83.6576L35.1042 83.6577L35.6385 83.4778H34.4909C34.4248 83.3111 34.1771 83.1753 33.7725 83.0773L35.1041 83.0774L35.6384 82.8975H31.725H29.894V83.0766L31.7198 83.0769C32.9335 83.078 33.6301 83.2227 33.7621 83.4777H29.8942V83.6569L33.7629 83.6574C33.6332 83.9111 32.9323 84.0593 31.7058 84.0593H29.8942V84.2357L32.2921 84.2361L33.8289 84.8574H34.6177L33.0784 84.2362L35.1042 84.2365L35.6385 84.0594H33.761C34.1727 83.9617 34.4254 83.8261 34.4899 83.6576Z" fill="#DB8000"/>
<path d="M32.5883 85.9795C28.4136 85.9795 25.0293 85.0065 25.0293 83.8064V85.1544C25.0293 86.3545 28.4136 87.3274 32.5883 87.3274C36.763 87.3274 40.1473 86.3545 40.1473 85.1544V83.8064C40.1473 85.0065 36.763 85.9795 32.5883 85.9795Z" fill="#EDAF34"/>
<path d="M27.7538 85.4766C26.0892 85.0781 25.0293 84.4778 25.0293 83.8064V85.1544C25.0293 85.8258 26.0892 86.426 27.7538 86.8246V85.4766Z" fill="#E89D09"/>
<path d="M31.9058 87.3173C32.1309 87.3232 32.3583 87.3265 32.5887 87.3265C34.3526 87.3265 35.974 87.1523 37.2601 86.8613V85.5132C35.974 85.8044 34.3526 85.9784 32.5887 85.9784C32.3584 85.9784 32.1309 85.9749 31.9058 85.9692V87.3173Z" fill="#E89D09"/>
<path d="M37.2598 85.5141V86.862C39.0175 86.4641 40.1474 85.8473 40.1474 85.1544V83.8064C40.1474 84.4995 39.0174 85.1163 37.2598 85.5141Z" fill="#B57900"/>
<path d="M31.0253 83.9157C35.2001 83.9157 38.5844 82.9428 38.5844 81.7426C38.5844 80.5425 35.2001 79.5696 31.0253 79.5696C26.8506 79.5696 23.4663 80.5425 23.4663 81.7426C23.4663 82.9428 26.8506 83.9157 31.0253 83.9157Z" fill="#FFBA33"/>
<path d="M31.0245 83.6581C34.7044 83.6581 37.6876 82.8005 37.6876 81.7426C37.6876 80.6847 34.7044 79.8271 31.0245 79.8271C27.3445 79.8271 24.3613 80.6847 24.3613 81.7426C24.3613 82.8005 27.3445 83.6581 31.0245 83.6581Z" fill="#F9A833"/>
<path d="M24.6133 81.8151C24.6133 80.7571 27.5965 79.8996 31.2764 79.8996C33.0523 79.8996 34.6647 80.0997 35.859 80.4253C34.6447 80.0571 32.9286 79.8271 31.0245 79.8271C27.3445 79.8271 24.3613 80.6847 24.3613 81.7426C24.3613 82.29 25.1613 82.7834 26.4419 83.1324C25.3095 82.7891 24.6133 82.3256 24.6133 81.8151Z" fill="#DB8000"/>
<path d="M37.4361 81.6698C37.4361 82.7277 34.453 83.5853 30.773 83.5853C28.9971 83.5853 27.3848 83.3852 26.1904 83.0597C27.4047 83.4277 29.1208 83.6578 31.0249 83.6578C34.7049 83.6578 37.6881 82.8002 37.6881 81.7423C37.6881 81.1949 36.8881 80.7016 35.6075 80.3525C36.7399 80.6957 37.4361 81.1592 37.4361 81.6698Z" fill="#FFF352"/>
<path d="M32.9268 81.5941L33.5411 81.5943L34.0754 81.4143H32.9278C32.8617 81.2476 32.614 81.1118 32.2095 81.0138L33.5411 81.0139L34.0754 80.834H30.162H28.3311V81.0132L30.1568 81.0134C31.3705 81.0145 32.0671 81.1592 32.1991 81.4142H28.3312V81.5934L32.1999 81.5939C32.0703 81.8476 31.3693 81.9958 30.1428 81.9958H28.3312V82.1722L30.7292 82.1726L32.2659 82.7938H33.0547L31.5154 82.1726L33.5412 82.1729L34.0755 81.9958H32.1979C32.6095 81.8982 32.8623 81.7626 32.9268 81.5941Z" fill="#DB8000"/>
<path d="M31.0253 83.9157C26.8506 83.9157 23.4663 82.9428 23.4663 81.7427V83.0906C23.4663 84.2908 26.8506 85.2637 31.0253 85.2637C35.2001 85.2637 38.5844 84.2908 38.5844 83.0906V81.7427C38.5844 82.9428 35.2001 83.9157 31.0253 83.9157Z" fill="#EDAF34"/>
<path d="M26.1908 83.4129C24.5262 83.0144 23.4663 82.4141 23.4663 81.7427V83.0906C23.4663 83.7621 24.5262 84.3623 26.1908 84.7609V83.4129Z" fill="#E89D09"/>
<path d="M30.3428 85.254C30.5679 85.2598 30.7953 85.2632 31.0257 85.2632C32.7896 85.2632 34.411 85.089 35.6971 84.7979V83.45C34.411 83.7411 32.7896 83.9152 31.0257 83.9152C30.7954 83.9152 30.5679 83.9117 30.3428 83.906V85.254Z" fill="#E89D09"/>
<path d="M35.6958 83.4502V84.7982C37.4535 84.4003 38.5835 83.7835 38.5835 83.0905V81.7424C38.5834 82.4355 37.4534 83.0523 35.6958 83.4502Z" fill="#B57900"/>
<path d="M49.8895 96.0546C50.9158 95.412 49.9358 92.068 47.7007 88.5854C45.4655 85.1029 42.8216 82.8007 41.7953 83.4432C40.769 84.0858 41.749 87.4298 43.9841 90.9124C46.2193 94.3949 48.8632 96.6971 49.8895 96.0546Z" fill="#FFBA33"/>
<path d="M49.4096 95.306C50.3143 94.7396 49.4504 91.7919 47.4802 88.7221C45.5099 85.6523 43.1794 83.6229 42.2747 84.1893C41.3701 84.7557 42.2339 87.7034 44.2042 90.7732C46.1744 93.843 48.505 95.8724 49.4096 95.306Z" fill="#F9A833"/>
<path d="M42.3533 86.8382C41.5997 84.2671 42.6368 83.6177 44.6696 85.3879C45.6507 86.2421 46.6839 87.5039 47.5756 88.8697C46.6425 87.3908 45.5306 86.0065 44.4788 85.0906C42.4458 83.3206 41.4088 83.9698 42.1623 86.541C42.5522 87.8713 43.3457 89.4551 44.3018 90.9196C43.4317 89.5403 42.717 88.0789 42.3533 86.8382Z" fill="#DB8000"/>
<path d="M49.3323 92.6536C50.0859 95.2247 49.0488 95.8741 47.0158 94.1041C46.0348 93.2499 45.0016 91.988 44.1099 90.6223C45.0429 92.101 46.1548 93.4854 47.2067 94.4014C49.2397 96.1714 50.2766 95.5221 49.5231 92.9509C49.1332 91.6206 48.3398 90.0367 47.3837 88.5723C48.2538 89.9515 48.9686 91.4128 49.3323 92.6536Z" fill="#FFF352"/>
<path d="M46.7868 90.3009L47.1262 90.5965L47.2933 90.4163L46.6593 89.8644C46.504 89.4272 46.2704 88.978 45.9771 88.5453L46.7129 89.1862L46.8799 89.006L44.7181 87.1236L43.7065 86.2429L43.8342 86.6784L44.8429 87.5572C45.5143 88.1439 46.0022 88.8306 46.2567 89.5137L44.1199 87.6532L44.2475 88.0887L46.3851 89.9508C46.4943 90.5052 46.2125 90.5282 45.5351 89.9383L44.5343 89.0669L44.6599 89.4957L45.9848 90.6499L47.2763 92.899L47.7121 93.2784L46.4192 91.0284L47.5386 92.0035L47.7077 91.83L46.6704 90.9269C46.8282 90.8874 46.8713 90.6795 46.7868 90.3009Z" fill="#DB8000"/>
<path d="M43.986 90.9087C41.7507 87.4262 40.7707 84.0823 41.7968 83.4397L40.6441 84.1615C39.6178 84.8041 40.598 88.148 42.8333 91.6305C45.0686 95.113 47.7126 97.4151 48.7388 96.7725L49.8915 96.0507C48.8654 96.6932 46.2214 94.3911 43.986 90.9087Z" fill="#EDAF34"/>
<path d="M41.8272 86.6067C41.2767 85.0048 41.2224 83.7992 41.7967 83.4397L40.6439 84.1615C40.0697 84.521 40.124 85.7266 40.6744 87.3285L41.8272 86.6067Z" fill="#E89D09"/>
<path d="M42.4751 91.0556C42.5906 91.2464 42.7096 91.4381 42.8329 91.6302C43.7774 93.1016 44.7945 94.3608 45.732 95.2778L46.8848 94.5559C45.9472 93.639 44.9301 92.3798 43.9856 90.9084C43.8623 90.7162 43.7435 90.5246 43.6278 90.3337L42.4751 91.0556Z" fill="#E89D09"/>
<path d="M30.7631 82.9713C34.9379 82.9713 38.3222 79.6287 38.3222 75.5054C38.3222 71.3821 34.9379 68.0396 30.7631 68.0396C26.5884 68.0396 23.2041 71.3821 23.2041 75.5054C23.2041 79.6287 26.5884 82.9713 30.7631 82.9713Z" fill="#FFBA33"/>
<path d="M33.232 81.6197C36.6499 80.2728 38.3151 76.4442 36.9513 73.0683C35.5875 69.6925 31.7112 68.0478 28.2932 69.3948C24.8753 70.7418 23.2101 74.5704 24.5739 77.9462C25.9377 81.322 29.814 82.9667 33.232 81.6197Z" fill="#F9A833"/>
<path d="M24.3516 75.7547C24.3516 72.1201 27.3347 69.1737 31.0147 69.1737C32.7906 69.1737 34.4028 69.8611 35.5973 70.9797C34.383 69.7148 32.6669 68.9248 30.7628 68.9248C27.0828 68.9248 24.0996 71.8712 24.0996 75.5058C24.0996 77.3865 24.8996 79.0815 26.1802 80.2808C25.0478 79.1012 24.3516 77.5087 24.3516 75.7547Z" fill="#DB8000"/>
<path d="M37.1744 75.2568C37.1744 78.8914 34.1912 81.8378 30.5112 81.8378C28.7354 81.8378 27.1232 81.1503 25.9287 80.0318C27.1429 81.2967 28.8591 82.0867 30.7632 82.0867C34.4432 82.0867 37.4264 79.1403 37.4264 75.5056C37.4264 73.625 36.6264 71.93 35.3457 70.7307C36.4782 71.9103 37.1744 73.5028 37.1744 75.2568Z" fill="#FFF352"/>
<path d="M32.6641 74.9974L33.2784 74.9977L33.8127 74.3796H32.6651C32.599 73.8067 32.3513 73.3401 31.9466 73.0034L33.2783 73.004L33.8126 72.386H29.8993H28.0684V73.0015L29.894 73.0024C31.1077 73.0064 31.8043 73.5036 31.9363 74.3795H28.0684V74.9952L31.9371 74.9969C31.8074 75.8687 31.1065 76.3779 29.88 76.3779H28.0684V76.984L30.4663 76.9851L32.0031 79.1195H32.7919L31.2526 76.9855L33.2784 76.9863L33.8127 76.3779H31.9352C32.3469 76.0424 32.5996 75.5765 32.6641 74.9974Z" fill="#DB8000"/>
<path d="M65.5943 83.9998V82.3956H61.3146V80.961C62.4224 78.9937 63.6088 77.0566 64.7711 75.2648H67.3377V80.9307H68.4757V82.3956H67.3377V83.9998H65.5943ZM62.9611 80.9792H65.6306V76.651H65.5338C64.6863 77.9525 63.748 79.4719 62.9611 80.8823V80.9792ZM69.5471 83.9998L71.6355 80.7007L69.529 77.3351H71.5568L72.7372 79.5445H72.8462L74.0266 77.3351H75.9515L73.851 80.6281L75.9636 83.9998H74.0084L72.7614 81.7964H72.6525L71.4115 83.9998H69.5471Z" fill="white"/>
<path d="M84.4987 83.0344V75.9271H86.2028L88.1681 81.1283H88.2567L90.217 75.9271H91.9212V83.0344H90.5963V78.1977H90.4978L88.6754 83.0344H87.7445L85.9221 78.1977H85.8236V83.0344H84.4987ZM95.3739 83.0344V77.1535H93.2412V75.9271H98.9941V77.1535H96.8614V83.0344H95.3739ZM100.309 83.0344V75.9271H104.964V77.1535H101.797V79.0596H104.688V80.2368H101.797V83.0344H100.309ZM111.48 83.2167C109.781 83.2167 108.707 82.404 108.623 81.1431L108.618 81.0643H110.052L110.057 81.1135C110.111 81.6455 110.687 82.005 111.519 82.005C112.312 82.005 112.859 81.6258 112.859 81.079V81.0741C112.859 80.6062 112.509 80.3452 111.628 80.1629L110.879 80.0102C109.401 79.7098 108.766 79.0202 108.766 77.9416V77.9366C108.766 76.6166 109.899 75.7448 111.475 75.7448C113.135 75.7448 114.11 76.6216 114.204 77.8086L114.209 77.8726H112.81L112.8 77.8135C112.716 77.3062 112.224 76.9516 111.475 76.9516C110.741 76.9565 110.254 77.2914 110.254 77.8234V77.8283C110.254 78.2913 110.598 78.5671 111.436 78.7395L112.189 78.8922C113.691 79.2025 114.347 79.8034 114.347 80.9116V80.9165C114.347 82.3252 113.253 83.2167 111.48 83.2167ZM117.863 83.0541C116.543 83.0541 116.011 82.6256 116.011 81.5716V78.6952H115.174V77.6116H116.011V76.3162H117.464V77.6116H118.582V78.6952H117.464V81.2416C117.464 81.7292 117.671 81.9459 118.159 81.9459C118.346 81.9459 118.444 81.9361 118.582 81.9213V82.9901C118.405 83.0246 118.139 83.0541 117.863 83.0541ZM121.257 83.1182C120.223 83.1182 119.489 82.4779 119.489 81.4928V81.4829C119.489 80.5077 120.242 79.9363 121.592 79.8575L122.902 79.7787V79.3305C122.902 78.8626 122.582 78.5966 121.991 78.5966C121.474 78.5966 121.144 78.7789 121.03 79.099L121.02 79.1187H119.691L119.696 79.0744C119.809 78.1238 120.705 77.4934 122.07 77.4934C123.508 77.4934 124.32 78.1731 124.32 79.3305V83.0344H122.902V82.3153H122.813C122.537 82.8177 121.966 83.1182 121.257 83.1182ZM120.892 81.4041C120.892 81.8179 121.242 82.069 121.74 82.069C122.405 82.069 122.902 81.6307 122.902 81.0593V80.6604L121.809 80.7293C121.193 80.7687 120.892 81.0002 120.892 81.3943V81.4041ZM125.729 83.0344V77.6116H127.167V78.4538H127.256C127.428 77.8677 127.921 77.5229 128.625 77.5229C128.817 77.5229 129.019 77.5525 129.162 77.5919V78.8478C128.945 78.7986 128.724 78.7641 128.502 78.7641C127.685 78.7641 127.167 79.232 127.167 80.0004V83.0344H125.729ZM132.6 83.0541C131.28 83.0541 130.748 82.6256 130.748 81.5716V78.6952H129.911V77.6116H130.748V76.3162H132.201V77.6116H133.319V78.6952H132.201V81.2416C132.201 81.7292 132.408 81.9459 132.896 81.9459C133.083 81.9459 133.181 81.9361 133.319 81.9213V82.9901C133.142 83.0246 132.876 83.0541 132.6 83.0541ZM135.25 76.7792C134.807 76.7792 134.437 76.4245 134.437 75.9813C134.437 75.533 134.807 75.1784 135.25 75.1784C135.693 75.1784 136.058 75.533 136.058 75.9813C136.058 76.4245 135.693 76.7792 135.25 76.7792ZM134.526 83.0344V77.6116H135.964V83.0344H134.526ZM137.412 83.0344V77.6116H138.85V78.4489H138.939C139.185 77.8628 139.722 77.4934 140.495 77.4934C141.702 77.4934 142.352 78.2322 142.352 79.5275V83.0344H140.914V79.8526C140.914 79.0892 140.599 78.6853 139.919 78.6853C139.254 78.6853 138.85 79.1631 138.85 79.8969V83.0344H137.412ZM146.14 84.9406C144.638 84.9406 143.766 84.3101 143.648 83.3891V83.3644H145.071L145.076 83.3841C145.155 83.6994 145.529 83.9161 146.17 83.9161C146.938 83.9161 147.386 83.5565 147.386 82.9261V81.9164H147.297C146.997 82.4877 146.426 82.798 145.672 82.798C144.308 82.798 143.466 81.744 143.466 80.2023V80.1925C143.466 78.5966 144.308 77.5229 145.697 77.5229C146.44 77.5229 147.022 77.8874 147.312 78.4981H147.381V77.6116H148.819V82.867C148.819 84.1377 147.78 84.9406 146.14 84.9406ZM146.16 81.6947C146.938 81.6947 147.401 81.0889 147.401 80.1974V80.1875C147.401 79.296 146.933 78.6902 146.16 78.6902C145.386 78.6902 144.938 79.296 144.938 80.1875V80.1974C144.938 81.0889 145.381 81.6947 146.16 81.6947ZM154.336 83.1182C153.302 83.1182 152.568 82.4779 152.568 81.4928V81.4829C152.568 80.5077 153.321 79.9363 154.671 79.8575L155.981 79.7787V79.3305C155.981 78.8626 155.661 78.5966 155.07 78.5966C154.553 78.5966 154.223 78.7789 154.109 79.099L154.099 79.1187H152.77L152.774 79.0744C152.888 78.1238 153.784 77.4934 155.149 77.4934C156.587 77.4934 157.399 78.1731 157.399 79.3305V83.0344H155.981V82.3153H155.892C155.616 82.8177 155.045 83.1182 154.336 83.1182ZM153.971 81.4041C153.971 81.8179 154.321 82.069 154.819 82.069C155.483 82.069 155.981 81.6307 155.981 81.0593V80.6604L154.887 80.7293C154.272 80.7687 153.971 81.0002 153.971 81.3943V81.4041ZM161.059 83.0541C159.739 83.0541 159.207 82.6256 159.207 81.5716V78.6952H158.37V77.6116H159.207V76.3162H160.66V77.6116H161.778V78.6952H160.66V81.2416C160.66 81.7292 160.867 81.9459 161.355 81.9459C161.542 81.9459 161.64 81.9361 161.778 81.9213V82.9901C161.601 83.0246 161.335 83.0541 161.059 83.0541ZM167.551 83.0344V77.3308H167.462L165.718 78.5425V77.2028L167.556 75.9271H169.038V83.0344H167.551ZM170.974 83.0344V82.0346L173.264 79.7738C174.264 78.8035 174.535 78.444 174.535 77.9465V77.9317C174.535 77.3259 174.121 76.9023 173.441 76.9023C172.747 76.9023 172.269 77.3653 172.269 78.0401V78.0647H170.895L170.89 78.045C170.89 76.6807 171.954 75.7448 173.51 75.7448C174.973 75.7448 175.998 76.5822 175.998 77.8086V77.8234C175.998 78.6311 175.579 79.301 174.284 80.4978L172.969 81.7243V81.8376H176.101V83.0344H170.974ZM178.421 83.1576C177.919 83.1576 177.554 82.7882 177.554 82.3005C177.554 81.8129 177.919 81.4484 178.421 81.4484C178.928 81.4484 179.288 81.8129 179.288 82.3005C179.288 82.7882 178.928 83.1576 178.421 83.1576ZM184.041 83.0344V81.7292H180.559V80.5619C181.46 78.9611 182.425 77.385 183.371 75.9271H185.459V80.5372H186.385V81.7292H185.459V83.0344H184.041ZM181.898 80.5767H184.07V77.055H183.992C183.302 78.114 182.539 79.3502 181.898 80.4978V80.5767ZM190.311 75.7399C191.956 75.7399 193.246 76.9122 193.246 79.4093V79.4192C193.246 81.7981 192.123 83.2117 190.301 83.2117C188.927 83.2117 187.907 82.399 187.686 81.2859L187.676 81.2416H189.134L189.149 81.2859C189.321 81.7292 189.725 82.0296 190.296 82.0296C191.326 82.0296 191.779 81.0199 191.833 79.7246C191.833 79.6753 191.833 79.6211 191.833 79.5669H191.734C191.478 80.1137 190.887 80.6062 189.902 80.6062C188.518 80.6062 187.587 79.6211 187.587 78.2765V78.2666C187.587 76.8136 188.71 75.7399 190.311 75.7399ZM190.311 79.5078C191.045 79.5078 191.611 78.9857 191.611 78.2519V78.242C191.611 77.4983 191.045 76.922 190.321 76.922C189.602 76.922 189.025 77.4884 189.025 78.2125V78.2223C189.025 78.971 189.567 79.5078 190.311 79.5078ZM196.167 79.8231C195.128 79.8231 194.488 79.0547 194.488 77.8234V77.8184C194.488 76.5871 195.128 75.8236 196.167 75.8236C197.211 75.8236 197.847 76.5871 197.847 77.8184V77.8234C197.847 79.0547 197.211 79.8231 196.167 79.8231ZM197.261 83.0344H196.123L200.905 75.9271H202.043L197.261 83.0344ZM196.167 79.035C196.601 79.035 196.842 78.5966 196.842 77.8234V77.8184C196.842 77.0402 196.601 76.6117 196.167 76.6117C195.739 76.6117 195.497 77.0402 195.497 77.8184V77.8234C195.497 78.5966 195.739 79.035 196.167 79.035ZM201.994 83.1379C200.955 83.1379 200.314 82.3695 200.314 81.1381V81.1332C200.314 79.9019 200.955 79.1384 201.994 79.1384C203.038 79.1384 203.674 79.9019 203.674 81.1332V81.1381C203.674 82.3695 203.038 83.1379 201.994 83.1379ZM201.994 82.3498C202.427 82.3498 202.669 81.9114 202.669 81.1381V81.1332C202.669 80.355 202.427 79.9265 201.994 79.9265C201.565 79.9265 201.324 80.355 201.324 81.1332V81.1381C201.324 81.9114 201.565 82.3498 201.994 82.3498ZM207.629 84.8322V77.6116H209.067V78.4489H209.156C209.436 77.8677 210.013 77.5229 210.781 77.5229C212.135 77.5229 212.983 78.5868 212.983 80.3156V80.3255C212.983 82.069 212.155 83.1182 210.781 83.1182C210.037 83.1182 209.431 82.7586 209.156 82.1676H209.067V84.8322H207.629ZM210.288 81.9262C211.047 81.9262 211.52 81.3204 211.52 80.3255V80.3156C211.52 79.3207 211.052 78.7149 210.288 78.7149C209.53 78.7149 209.052 79.3207 209.052 80.3156V80.3255C209.052 81.3204 209.535 81.9262 210.288 81.9262ZM215.046 83.1576C214.544 83.1576 214.179 82.7882 214.179 82.3005C214.179 81.8129 214.544 81.4484 215.046 81.4484C215.554 81.4484 215.913 81.8129 215.913 82.3005C215.913 82.7882 215.554 83.1576 215.046 83.1576ZM218.996 83.1182C217.962 83.1182 217.228 82.4779 217.228 81.4928V81.4829C217.228 80.5077 217.982 79.9363 219.331 79.8575L220.642 79.7787V79.3305C220.642 78.8626 220.321 78.5966 219.73 78.5966C219.213 78.5966 218.883 78.7789 218.77 79.099L218.76 79.1187H217.43L217.435 79.0744C217.548 78.1238 218.445 77.4934 219.809 77.4934C221.247 77.4934 222.06 78.1731 222.06 79.3305V83.0344H220.642V82.3153H220.553C220.277 82.8177 219.706 83.1182 218.996 83.1182ZM218.632 81.4041C218.632 81.8179 218.982 82.069 219.479 82.069C220.144 82.069 220.642 81.6307 220.642 81.0593V80.6604L219.548 80.7293C218.932 80.7687 218.632 81.0002 218.632 81.3943V81.4041ZM226.739 83.0344V78.4341H225.858V77.7248H226.739V77.1338C226.739 76.0748 227.271 75.5675 228.281 75.5675C228.488 75.5675 228.675 75.5823 228.852 75.6168V76.3014C228.749 76.2817 228.606 76.2768 228.453 76.2768C227.842 76.2768 227.596 76.5772 227.596 77.1584V77.7248H228.803V78.4341H227.596V83.0344H226.739ZM231.995 83.128C230.482 83.128 229.547 82.0838 229.547 80.3846V80.3747C229.547 78.6705 230.482 77.6313 231.995 77.6313C233.507 77.6313 234.442 78.6705 234.442 80.3747V80.3846C234.442 82.0838 233.507 83.128 231.995 83.128ZM231.995 82.3695C232.999 82.3695 233.566 81.6356 233.566 80.3846V80.3747C233.566 79.1187 232.999 78.3898 231.995 78.3898C230.99 78.3898 230.423 79.1187 230.423 80.3747V80.3846C230.423 81.6356 230.99 82.3695 231.995 82.3695ZM235.772 83.0344V77.7248H236.629V78.5129H236.708C236.91 77.9563 237.408 77.6313 238.127 77.6313C238.289 77.6313 238.471 77.651 238.555 77.6657V78.4981C238.378 78.4686 238.215 78.4489 238.028 78.4489C237.211 78.4489 236.629 78.966 236.629 79.7443V83.0344H235.772ZM242.56 83.0344V75.9271H245.278C246.584 75.9271 247.382 76.6117 247.382 77.6953V77.7051C247.382 78.439 246.84 79.1089 246.155 79.232V79.3108C247.125 79.434 247.741 80.0989 247.741 81.0347V81.0446C247.741 82.2907 246.845 83.0344 245.333 83.0344H242.56ZM245.091 76.7102H243.446V78.9907H244.865C245.938 78.9907 246.485 78.6065 246.485 77.8578V77.848C246.485 77.1289 245.973 76.7102 245.091 76.7102ZM245.116 79.7541H243.446V82.2513H245.2C246.268 82.2513 246.83 81.8179 246.83 81.0002V80.9904C246.83 80.1728 246.249 79.7541 245.116 79.7541ZM250.859 83.128C249.652 83.128 249.032 82.4187 249.032 81.1628V77.7248H249.889V80.9559C249.889 81.9114 250.233 82.3695 251.08 82.3695C252.016 82.3695 252.514 81.7981 252.514 80.8672V77.7248H253.371V83.0344H252.514V82.2414H252.435C252.174 82.8079 251.637 83.128 250.859 83.128ZM255.425 84.8962C255.311 84.8962 255.164 84.8864 255.045 84.8667V84.1623C255.149 84.182 255.282 84.187 255.4 84.187C255.888 84.187 256.183 83.9653 256.375 83.3546L256.474 83.0393L254.509 77.7248H255.425L256.883 82.0937H256.961L258.414 77.7248H259.316L257.242 83.3595C256.804 84.5514 256.365 84.8962 255.425 84.8962ZM260.902 76.7004C260.577 76.7004 260.311 76.4344 260.311 76.1093C260.311 75.7842 260.577 75.5183 260.902 75.5183C261.227 75.5183 261.493 75.7842 261.493 76.1093C261.493 76.4344 261.227 76.7004 260.902 76.7004ZM260.468 83.0344V77.7248H261.325V83.0344H260.468ZM262.941 83.0344V77.7248H263.798V78.5228H263.877C264.143 77.9613 264.64 77.6313 265.423 77.6313C266.615 77.6313 267.28 78.3356 267.28 79.5965V83.0344H266.423V79.8034C266.423 78.8478 266.029 78.3898 265.182 78.3898C264.335 78.3898 263.798 78.9611 263.798 79.892V83.0344H262.941ZM271.018 84.9061C269.738 84.9061 268.92 84.3298 268.787 83.458L268.797 83.4531H269.684L269.689 83.458C269.782 83.8619 270.255 84.1476 271.018 84.1476C271.969 84.1476 272.536 83.6994 272.536 82.9162V81.8425H272.457C272.122 82.4286 271.521 82.7586 270.792 82.7586C269.418 82.7586 268.566 81.6947 268.566 80.2072V80.1974C268.566 78.7099 269.423 77.6313 270.812 77.6313C271.56 77.6313 272.141 78.0007 272.467 78.6016H272.526V77.7248H273.383V82.9605C273.383 84.1476 272.467 84.9061 271.018 84.9061ZM270.979 82.0001C271.964 82.0001 272.555 81.2613 272.555 80.2072V80.1974C272.555 79.1434 271.959 78.3898 270.979 78.3898C269.994 78.3898 269.442 79.1434 269.442 80.1974V80.2072C269.442 81.2613 269.994 82.0001 270.979 82.0001ZM279.549 83.0344V76.9122H279.47L277.663 78.2223V77.2865L279.554 75.9271H280.436V83.0344H279.549ZM282.032 84.842L282.46 82.0395H283.44L282.667 84.842H282.032ZM287.248 83.2019C285.923 83.2019 284.977 82.3498 284.874 81.212L284.869 81.1578H285.721L285.726 81.1973C285.809 81.877 286.425 82.4187 287.258 82.4187C288.203 82.4187 288.853 81.744 288.853 80.7835V80.7737C288.853 79.828 288.193 79.1532 287.272 79.1532C286.799 79.1532 286.396 79.296 286.09 79.5866C285.967 79.7049 285.854 79.8428 285.765 80.0102H284.997L285.371 75.9271H289.326V76.7201H286.07L285.829 79.1237H285.908C286.223 78.6459 286.78 78.3849 287.425 78.3849C288.76 78.3849 289.72 79.3847 289.72 80.7589V80.7687C289.72 82.202 288.691 83.2019 287.248 83.2019ZM293.528 83.2019C291.956 83.2019 291.021 81.7686 291.021 79.4832V79.4734C291.021 77.188 291.956 75.7596 293.528 75.7596C295.099 75.7596 296.044 77.188 296.044 79.4734V79.4832C296.044 81.7686 295.099 83.2019 293.528 83.2019ZM293.528 82.4286C294.547 82.4286 295.153 81.2958 295.153 79.4832V79.4734C295.153 77.6608 294.547 76.5378 293.528 76.5378C292.508 76.5378 291.912 77.6608 291.912 79.4734V79.4832C291.912 81.2958 292.508 82.4286 293.528 82.4286ZM299.881 83.2019C298.31 83.2019 297.374 81.7686 297.374 79.4832V79.4734C297.374 77.188 298.31 75.7596 299.881 75.7596C301.452 75.7596 302.398 77.188 302.398 79.4734V79.4832C302.398 81.7686 301.452 83.2019 299.881 83.2019ZM299.881 82.4286C300.901 82.4286 301.507 81.2958 301.507 79.4832V79.4734C301.507 77.6608 300.901 76.5378 299.881 76.5378C298.862 76.5378 298.266 77.6608 298.266 79.4734V79.4832C298.266 81.2958 298.862 82.4286 299.881 82.4286ZM303.634 80.5717V79.7738H305.841V77.518H306.639V79.7738H308.846V80.5717H306.639V82.8276H305.841V80.5717H303.634ZM315.49 83.2019C313.933 83.2019 312.929 82.3843 312.825 81.2268L312.82 81.1726H313.707L313.712 81.2268C313.776 81.9361 314.515 82.3843 315.539 82.3843C316.505 82.3843 317.209 81.8868 317.209 81.1628V81.1578C317.209 80.5668 316.8 80.1629 315.825 79.9462L315.037 79.7738C313.613 79.4586 312.998 78.8035 312.998 77.7741V77.7692C313.003 76.592 314.032 75.7596 315.5 75.7596C316.918 75.7596 317.908 76.5969 317.982 77.6559L317.987 77.7248H317.1L317.091 77.6608C316.992 77.0353 316.401 76.5723 315.475 76.5772C314.589 76.5822 313.904 77.0008 313.904 77.7445V77.7495C313.904 78.3159 314.293 78.7001 315.258 78.9119L316.046 79.0892C317.529 79.4192 318.115 80.0152 318.115 81.0396V81.0446C318.115 82.3744 317.076 83.2019 315.49 83.2019ZM321.371 83.0738C320.277 83.0738 319.819 82.6699 319.819 81.6553V78.4341H318.982V77.7248H319.819V76.3507H320.706V77.7248H321.868V78.4341H320.706V81.4386C320.706 82.0641 320.923 82.3153 321.474 82.3153C321.627 82.3153 321.711 82.3104 321.868 82.2956V83.0246C321.701 83.0541 321.538 83.0738 321.371 83.0738ZM325.252 83.128C323.74 83.128 322.804 82.0838 322.804 80.3846V80.3747C322.804 78.6705 323.74 77.6313 325.252 77.6313C326.764 77.6313 327.7 78.6705 327.7 80.3747V80.3846C327.7 82.0838 326.764 83.128 325.252 83.128ZM325.252 82.3695C326.257 82.3695 326.823 81.6356 326.823 80.3846V80.3747C326.823 79.1187 326.257 78.3898 325.252 78.3898C324.247 78.3898 323.681 79.1187 323.681 80.3747V80.3846C323.681 81.6356 324.247 82.3695 325.252 82.3695ZM331.202 83.128C329.714 83.128 328.764 82.0493 328.764 80.3649V80.355C328.764 78.705 329.709 77.6313 331.197 77.6313C332.487 77.6313 333.261 78.375 333.418 79.3207L333.423 79.3502H332.571L332.566 79.3355C332.433 78.8134 331.96 78.3898 331.197 78.3898C330.241 78.3898 329.641 79.1581 329.641 80.355V80.3649C329.641 81.5864 330.251 82.3695 331.197 82.3695C331.911 82.3695 332.364 82.0543 332.561 81.4632L332.571 81.4337L333.418 81.4287L333.408 81.4829C333.192 82.4434 332.478 83.128 331.202 83.128ZM334.724 83.0344V75.6168H335.581V80.0447H335.659L337.955 77.7248H338.994L336.679 79.9561L339.147 83.0344H338.068L336.078 80.5372L335.581 81.0199V83.0344H334.724ZM341.777 83.128C340.595 83.128 339.782 82.5567 339.683 81.6799H340.56C340.703 82.1232 341.127 82.4138 341.806 82.4138C342.52 82.4138 343.028 82.074 343.028 81.5913V81.5814C343.028 81.2219 342.757 80.9707 342.102 80.8131L341.279 80.6161C340.284 80.3796 339.836 79.9462 339.836 79.1828V79.1778C339.836 78.2962 340.683 77.6313 341.811 77.6313C342.924 77.6313 343.698 78.1878 343.816 79.0547H342.974C342.86 78.636 342.447 78.3454 341.806 78.3454C341.176 78.3454 340.713 78.6705 340.713 79.1384V79.1483C340.713 79.5078 340.979 79.7344 341.604 79.8871L342.422 80.0841C343.422 80.3255 343.904 80.7589 343.904 81.5174V81.5273C343.904 82.4729 342.983 83.128 341.777 83.128Z" fill="white"/>
</g>
</g>
<defs>
<filter id="filter0_d_801_17144" x="0.215634" y="0.292453" width="366.569" height="105.31" filterUnits="userSpaceOnUse" color-interpolation-filters="sRGB">
<feFlood flood-opacity="0" result="BackgroundImageFix"/>
<feColorMatrix in="SourceAlpha" type="matrix" values="0 0 0 0 0 0 0 0 0 0 0 0 0 0 0 0 0 0 127 0" result="hardAlpha"/>
<feOffset dy="4.07682"/>
<feGaussianBlur stdDeviation="4.89218"/>
<feComposite in2="hardAlpha" operator="out"/>
<feColorMatrix type="matrix" values="0 0 0 0 0 0 0 0 0 0 0 0 0 0 0 0 0 0 0.25 0"/>
<feBlend mode="normal" in2="BackgroundImageFix" result="effect1_dropShadow_801_17144"/>
<feBlend mode="normal" in="SourceGraphic" in2="effect1_dropShadow_801_17144" result="shape"/>
</filter>
<clipPath id="clip0_801_17144">
<path d="M10 66.5232H357V83.6714C357 88.1283 353.387 91.7412 348.93 91.7412H18.0698C13.613 91.7412 10 88.1283 10 83.6714V66.5232Z" fill="white"/>
</clipPath>
</defs>
</svg>
