<svg width="137" height="48" viewBox="0 0 137 48" fill="none" xmlns="http://www.w3.org/2000/svg">
<g clip-path="url(#clip0_800_11051)">
<g clip-path="url(#clip1_800_11051)">
<path d="M24.0113 48.0114C37.2723 48.0114 48.0226 37.2611 48.0226 24.0001C48.0226 10.739 37.2723 -0.0112305 24.0113 -0.0112305C10.7502 -0.0112305 0 10.739 0 24.0001C0 37.2611 10.7502 48.0114 24.0113 48.0114Z" fill="url(#paint0_linear_800_11051)"/>
<path fill-rule="evenodd" clip-rule="evenodd" d="M34.902 45.3907L16.0037 30.7656L18.6723 23.9959L14.1567 17.8416L16.0037 12.3027H35.0897L48.0189 24.0558C47.9961 33.3658 42.6706 41.43 34.902 45.3907Z" fill="#17875F"/>
<path d="M36.9318 15.6651H31.4547V37.2889C30.5615 37.2889 29.6817 37.1182 28.8148 36.7769C27.9479 36.4617 27.5144 36.0942 27.5144 35.6739V30.9869C25.6756 32.1424 23.6792 32.7199 21.5251 32.7199C19.371 32.7199 17.6111 32.1685 16.2452 31.0656C14.9056 29.9365 14.2356 28.4792 14.2356 26.6936C14.2356 25.3283 14.7084 24.1072 15.6541 23.0306C14.3144 22.5316 13.2505 21.7964 12.4624 20.8247C11.6744 19.827 11.2803 18.6452 11.2803 17.28C11.2803 15.9146 11.832 14.6673 12.9352 13.5381C14.0648 12.409 15.6016 11.8445 17.5455 11.8445C18.9639 11.8445 20.054 12.1595 20.816 12.7898C21.604 13.4199 21.9981 14.1945 21.9981 15.1136C21.9981 16.978 20.7895 18.2908 18.373 19.0524C17.979 18.7373 17.6899 18.2908 17.506 17.7133C18.5829 17.0042 19.1216 16.2559 19.1216 15.4681C19.1216 15.0217 18.9901 14.6673 18.7275 14.4046C18.4648 14.1157 18.0445 13.9714 17.4667 13.9714C16.8887 13.9714 16.3239 14.2866 15.7723 14.9168C15.2207 15.5469 14.9448 16.374 14.9448 17.398C14.9448 18.3959 15.2207 19.2361 15.7723 19.919C16.3502 20.5753 17.0725 21.0349 17.9394 21.2975C19.0952 20.7199 20.3955 20.2866 21.8404 19.9977C22.8386 20.9431 23.4689 21.9276 23.7318 22.9517C22.103 23.2668 20.724 23.7657 19.5945 24.4486C18.4911 25.105 17.9394 25.8666 17.9394 26.733C17.9394 27.5733 18.2284 28.2559 18.8064 28.7812C19.4105 29.3064 20.2642 29.5689 21.3675 29.5689C22.497 29.5689 23.6135 29.2539 24.7169 28.6236C25.8201 27.9933 26.7526 27.1663 27.5144 26.1421V15.6651H24.7955C23.8499 14.5621 23.3772 13.3937 23.3772 12.1595H35.7103C36.5246 13.2098 36.9318 14.3784 36.9318 15.6651Z" fill="white"/>
<path d="M66.1535 17.2538C67.2058 17.2538 68.1411 17.4877 68.9595 17.9553C69.7783 18.4125 70.4424 19.0502 70.9529 19.8688V11.5774H75.5612V35.0484H71.1441V32.6408C70.4957 33.6719 69.7572 34.4212 68.9278 34.889C68.0985 35.3567 67.0675 35.5905 65.8347 35.5905C63.8043 35.5905 62.0928 34.772 60.7001 33.135C59.3184 31.4874 58.6274 29.3773 58.6274 26.8048C58.6274 23.8391 59.3074 21.5058 60.6684 19.8049C62.0395 18.1042 63.8682 17.2538 66.1535 17.2538ZM67.1419 31.7638C68.4284 31.7638 69.4062 31.2854 70.076 30.3287C70.7455 29.372 71.0801 28.1336 71.0801 26.6135C71.0801 24.4875 70.5438 22.9674 69.47 22.0533C68.8111 21.5005 68.0456 21.2241 67.1741 21.2241C65.8452 21.2241 64.8671 21.7291 64.2399 22.7389C63.6233 23.7381 63.3154 24.9818 63.3154 26.47C63.3154 28.0752 63.6289 29.3613 64.2557 30.3287C64.8939 31.2854 65.8558 31.7638 67.1419 31.7638ZM89.2893 17.2219C90.3631 17.2219 91.3356 17.408 92.2077 17.78C93.09 18.152 93.8126 18.7207 94.376 19.4861C94.8543 20.1345 95.1467 20.8041 95.2528 21.4951C95.3594 22.1755 95.4122 23.2916 95.4122 24.8436V35.0484H90.7724V24.4769C90.7724 23.5414 90.613 22.7867 90.2941 22.2127C89.8796 21.4048 89.093 21.0008 87.9343 21.0008C86.7332 21.0008 85.8188 21.4048 85.1916 22.2127C84.575 23.0099 84.2667 24.1527 84.2667 25.6409V35.0484H79.7386V11.6252H84.2667V19.9326C84.926 18.9227 85.6863 18.2211 86.5468 17.8278C87.4189 17.4239 88.3327 17.2219 89.2893 17.2219ZM109.252 26.5976C108.965 26.7783 108.673 26.927 108.376 27.044C108.089 27.1504 107.69 27.2513 107.18 27.347L106.159 27.5383C105.203 27.7084 104.517 27.9156 104.103 28.1601C103.401 28.5747 103.05 29.2178 103.05 30.0895C103.05 30.8655 103.263 31.4289 103.688 31.7797C104.124 32.1199 104.65 32.29 105.266 32.29C106.244 32.29 107.143 32.0029 107.961 31.4289C108.79 30.8548 109.22 29.8078 109.252 28.2878V26.5976ZM106.494 24.4769C107.334 24.3706 107.934 24.2378 108.296 24.0782C108.945 23.8018 109.268 23.3713 109.268 22.7867C109.268 22.0745 109.019 21.5855 108.519 21.3198C108.03 21.0434 107.308 20.9052 106.351 20.9052C105.277 20.9052 104.517 21.1709 104.071 21.7025C103.752 22.0957 103.539 22.6273 103.433 23.2969H99.0481C99.1436 21.7769 99.5686 20.5278 100.324 19.5499C101.525 18.0191 103.587 17.2538 106.51 17.2538C108.412 17.2538 110.103 17.6311 111.581 18.3858C113.058 19.1406 113.797 20.565 113.797 22.6592V30.6316C113.797 31.1844 113.808 31.8541 113.829 32.6408C113.86 33.236 113.951 33.6399 114.099 33.8525C114.249 34.0651 114.472 34.2405 114.77 34.3787V35.0484H109.826C109.689 34.6976 109.593 34.3681 109.539 34.0599C109.487 33.7516 109.444 33.4008 109.412 33.0074C108.785 33.6877 108.062 34.2671 107.244 34.7454C106.266 35.3089 105.16 35.5905 103.927 35.5905C102.354 35.5905 101.052 35.1441 100.021 34.2511C99.0001 33.3476 98.4901 32.0721 98.4901 30.4243C98.4901 28.2878 99.3137 26.7411 100.961 25.7844C101.865 25.2635 103.194 24.8914 104.948 24.6683L106.494 24.4769ZM127.477 17.2538C129.275 17.2538 130.741 17.7268 131.878 18.6729C133.027 19.6084 133.601 21.1656 133.601 23.3447V35.0484H128.945V24.4769C128.945 23.5627 128.822 22.8611 128.578 22.3721C128.132 21.4792 127.281 21.0327 126.027 21.0327C124.486 21.0327 123.428 21.6865 122.853 22.994C122.556 23.685 122.407 24.5672 122.407 25.6409V35.0484H117.879V17.7003H122.263V20.2356C122.848 19.3425 123.401 18.6995 123.923 18.3061C124.858 17.6046 126.043 17.2538 127.477 17.2538Z" fill="black"/>
</g>
</g>
<defs>
<linearGradient id="paint0_linear_800_11051" x1="45.0212" y1="40.808" x2="27.877" y2="-0.663971" gradientUnits="userSpaceOnUse">
<stop stop-color="#138C61"/>
<stop offset="1" stop-color="#4DBA93" stop-opacity="0.99"/>
</linearGradient>
<clipPath id="clip0_800_11051">
<rect width="136.598" height="48" fill="white"/>
</clipPath>
<clipPath id="clip1_800_11051">
<rect width="136.598" height="48.0226" fill="white" transform="translate(0 -0.0112305)"/>
</clipPath>
</defs>
</svg>
