<svg width="24" height="25" viewBox="0 0 24 25" fill="none" xmlns="http://www.w3.org/2000/svg">
<path d="M15.8442 16.9304C16.0014 16.8082 16.1443 16.6654 16.429 16.3806L19.9837 12.8251C20.0699 12.7397 20.0304 12.5915 19.9163 12.5511C19.3596 12.3581 18.8545 12.0404 18.4395 11.6222C18.0213 11.2072 17.7035 10.702 17.5106 10.1454C17.4702 10.0313 17.322 9.99176 17.2366 10.078L13.6802 13.6326C13.3954 13.9174 13.2526 14.0602 13.1304 14.2174C12.9849 14.4037 12.8615 14.6031 12.7603 14.8157C12.675 14.9954 12.6112 15.1876 12.4836 15.5703L12.3183 16.0644L12.056 16.8504L11.8108 17.587C11.7802 17.6793 11.7759 17.7784 11.7983 17.873C11.8208 17.9676 11.8691 18.0542 11.9378 18.1229C12.0066 18.1917 12.0931 18.24 12.1878 18.2624C12.2824 18.2849 12.3814 18.2806 12.4737 18.25L13.2104 18.0047L13.9964 17.7424L14.4905 17.5771C14.8731 17.4496 15.0654 17.3867 15.245 17.3005C15.4576 17.1987 15.658 17.0753 15.8442 16.9304ZM21.0976 11.712C21.462 11.3475 21.6666 10.8532 21.6666 10.3377C21.6665 9.82232 21.4616 9.32804 21.0971 8.96364C20.7326 8.59924 20.2383 8.39457 19.7228 8.39465C19.2074 8.39474 18.7131 8.59957 18.3487 8.96409L18.2355 9.07907C18.1809 9.13251 18.1402 9.19854 18.117 9.27137C18.0938 9.3442 18.0889 9.4216 18.1026 9.49679C18.1206 9.59291 18.152 9.73485 18.2104 9.90283C18.3272 10.2397 18.5482 10.6817 18.9641 11.0976C19.38 11.5135 19.822 11.7345 20.1588 11.8513C20.3277 11.9097 20.4688 11.9411 20.5649 11.9591C20.6401 11.972 20.7172 11.9667 20.7899 11.9435C20.8626 11.9204 20.9287 11.8801 20.9826 11.8261L21.0976 11.712Z" fill="url(#paint0_linear_722_1241)"/>
<path fill-rule="evenodd" clip-rule="evenodd" d="M4.14392 3.89648C3 5.03942 3 6.88023 3 10.5609V14.465C3 18.1457 3 19.9865 4.14392 21.1294C5.28783 22.2723 7.12766 22.2733 10.8083 22.2733H12.7604C16.441 22.2733 18.2818 22.2733 19.4248 21.1294C20.5501 20.005 20.5687 18.2052 20.5687 14.6407L17.8182 17.3912C17.5547 17.6547 17.339 17.8704 17.0959 18.0607C16.8109 18.284 16.5018 18.4749 16.1746 18.6298C15.875 18.7645 15.5673 18.8803 15.2532 18.9763L12.9966 19.7288C12.6384 19.8483 12.2539 19.8656 11.8864 19.7789C11.5189 19.6921 11.1828 19.5048 10.9158 19.2377C10.6488 18.9707 10.4614 18.6346 10.3746 18.2671C10.2879 17.8996 10.3053 17.5152 10.4247 17.1569L10.6922 16.3566L11.1558 14.9647L11.1763 14.9003C11.2944 14.547 11.391 14.2581 11.5237 13.979C11.6799 13.651 11.8696 13.3442 12.0928 13.0585C12.2831 12.8145 12.4988 12.5998 12.7623 12.3363L16.6723 8.4253L17.7577 7.33994L17.8816 7.21598C18.2133 6.88331 18.6075 6.61951 19.0415 6.43977C19.4755 6.26003 19.9408 6.16791 20.4106 6.1687C20.2632 5.16338 19.9772 4.44794 19.4248 3.89648C18.2818 2.75256 16.441 2.75256 12.7604 2.75256H10.8083C7.12766 2.75256 5.28686 2.75256 4.14392 3.89648ZM7.14816 9.58483C7.14816 9.39068 7.22529 9.20449 7.36257 9.06721C7.49985 8.92992 7.68604 8.8528 7.88019 8.8528H14.2244C14.4186 8.8528 14.6048 8.92992 14.7421 9.06721C14.8793 9.20449 14.9565 9.39068 14.9565 9.58483C14.9565 9.77897 14.8793 9.96517 14.7421 10.1025C14.6048 10.2397 14.4186 10.3169 14.2244 10.3169H7.88019C7.68604 10.3169 7.49985 10.2397 7.36257 10.1025C7.22529 9.96517 7.14816 9.77897 7.14816 9.58483ZM7.14816 13.489C7.14816 13.2948 7.22529 13.1086 7.36257 12.9714C7.49985 12.8341 7.68604 12.757 7.88019 12.757H10.3203C10.5144 12.757 10.7006 12.8341 10.8379 12.9714C10.9752 13.1086 11.0523 13.2948 11.0523 13.489C11.0523 13.6831 10.9752 13.8693 10.8379 14.0066C10.7006 14.1439 10.5144 14.221 10.3203 14.221H7.88019C7.68604 14.221 7.49985 14.1439 7.36257 14.0066C7.22529 13.8693 7.14816 13.6831 7.14816 13.489ZM7.14816 17.3931C7.14816 17.199 7.22529 17.0128 7.36257 16.8755C7.49985 16.7382 7.68604 16.6611 7.88019 16.6611H9.34425C9.53839 16.6611 9.72459 16.7382 9.86187 16.8755C9.99915 17.0128 10.0763 17.199 10.0763 17.3931C10.0763 17.5873 9.99915 17.7735 9.86187 17.9108C9.72459 18.048 9.53839 18.1252 9.34425 18.1252H7.88019C7.68604 18.1252 7.49985 18.048 7.36257 17.9108C7.22529 17.7735 7.14816 17.5873 7.14816 17.3931Z" fill="url(#paint1_linear_722_1241)"/>
<defs>
<linearGradient id="paint0_linear_722_1241" x1="12.843" y1="8.92404" x2="20.1662" y2="18.0122" gradientUnits="userSpaceOnUse">
<stop stop-color="#3FADFF"/>
<stop offset="0.49489" stop-color="#336CDC"/>
<stop offset="1" stop-color="#47B4B4"/>
</linearGradient>
<linearGradient id="paint1_linear_722_1241" x1="4.88236" y1="3.79832" x2="19.5971" y2="20.2327" gradientUnits="userSpaceOnUse">
<stop stop-color="#3FADFF"/>
<stop offset="0.49489" stop-color="#336CDC"/>
<stop offset="1" stop-color="#47B4B4"/>
</linearGradient>
</defs>
</svg>
