<svg width="51" height="51" viewBox="0 0 51 51" fill="none" xmlns="http://www.w3.org/2000/svg">
<path d="M17 6.375H8.5C7.93641 6.375 7.39591 6.59888 6.9974 6.9974C6.59888 7.39591 6.375 7.93641 6.375 8.5V17M17 44.625H8.5C7.93641 44.625 7.39591 44.4011 6.9974 44.0026C6.59888 43.6041 6.375 43.0636 6.375 42.5V34M34 44.625H42.5C43.0636 44.625 43.6041 44.4011 44.0026 44.0026C44.4011 43.6041 44.625 43.0636 44.625 42.5V34M34 6.375H42.5C43.0636 6.375 43.6041 6.59888 44.0026 6.9974C44.4011 7.39591 44.625 7.93641 44.625 8.5V17" stroke="white" stroke-width="4.25" stroke-linecap="round" stroke-linejoin="round"/>
<path d="M20.1875 19.125H30.8125V31.875H20.1875V19.125Z" stroke="white" stroke-width="4.25" stroke-linejoin="round"/>
<path d="M25.5 19.125V12.75M25.5 38.25V31.875" stroke="white" stroke-width="4.25" stroke-linecap="round" stroke-linejoin="round"/>
</svg>
