<svg width="413" height="42" viewBox="0 0 413 42" fill="none" xmlns="http://www.w3.org/2000/svg">
<g clip-path="url(#clip0_229_778)">
<path d="M380.49 39.906C380.49 38.9907 381.234 38.2471 382.207 38.2471C383.179 38.2471 383.923 38.9907 383.923 39.906C383.923 40.8212 383.179 41.6221 382.207 41.6221C381.234 41.6221 380.49 40.8784 380.49 39.906ZM380.834 39.906C380.834 40.6496 381.463 41.2789 382.264 41.2789C383.007 41.2789 383.637 40.7068 383.637 39.906C383.637 39.1623 383.007 38.5903 382.264 38.5903C381.406 38.5903 380.834 39.2195 380.834 39.906Z" fill="#3E3E3E"/>
<path d="M383.065 40.8784H382.721L382.149 40.0203H381.806V40.8784H381.577V38.9906H382.435C382.607 38.9906 382.779 38.9906 382.893 39.105C383.065 39.1622 383.122 39.3339 383.122 39.5055C383.122 39.8487 382.836 40.0203 382.493 40.0203L383.065 40.8784ZM382.149 39.7915C382.435 39.7915 382.779 39.8487 382.779 39.5055C382.779 39.2767 382.55 39.2194 382.321 39.2194H381.806V39.7915H382.149Z" fill="#3E3E3E"/>
<path d="M374.027 41.6219C386.039 31.3252 402.914 21.3146 412.181 17.7107C410.751 16.7955 408.52 15.4798 406.003 14.0497C394.048 17.9968 380.09 26.7489 367.62 36.6452C369.736 38.2469 371.967 39.9058 374.027 41.6219Z" fill="#3E3E3E"/>
<path d="M368.535 13.6495C366.761 12.7915 364.816 11.9906 363.329 11.3042C358.81 13.5351 352.918 16.9101 345.482 22.2301C347.083 23.0881 348.8 24.1178 350.63 25.1475C356.35 20.9144 362.128 16.9101 368.535 13.6495Z" fill="#494949"/>
<path d="M379.232 8.73001C377.058 7.52873 369.507 4.72575 364.302 3.52448C362.757 4.09651 360.584 4.95457 359.096 5.58381C360.984 6.09864 368.02 7.98636 374.027 11.0182C375.571 10.2745 377.745 9.35925 379.232 8.73001Z" fill="#3E3E3E"/>
<path d="M353.662 7.98627C346.969 11.0753 339.933 15.3083 336.1 17.7681C337.473 18.3973 338.846 18.9122 340.734 19.8274C349.2 14.1071 355.835 10.6176 358.467 9.47356C356.579 8.78712 354.806 8.32949 353.662 7.98627Z" fill="#494949"/>
<path d="M384.266 6.95659C385.81 6.44176 387.583 5.98413 389.128 5.5265C384.666 3.63878 379.06 1.63665 374.026 0.378174C373.225 0.606988 370.823 1.23623 369.164 1.75106C370.88 2.26589 376.543 3.58158 384.266 6.95659ZM356.064 28.4652C357.895 29.552 359.84 31.0393 361.727 32.2978C374.255 22.5732 386.611 15.0795 400.168 10.8464C398.28 9.87398 396.622 9.01592 394.505 7.98626C386.382 10.0456 372.482 15.5943 356.064 28.4652Z" fill="#3E3E3E"/>
<path d="M0.314941 38.6473H9.46752C14.101 38.6473 16.2748 36.2448 16.2748 32.8698C16.2748 30.124 14.8447 28.2935 11.8701 27.7215C14.5014 27.0922 15.7027 25.4905 15.7027 23.1452C15.7027 20.1706 13.529 17.768 8.89549 17.768H0.372145V38.6473H0.314941ZM8.26625 29.7808C9.98236 29.7808 11.1836 30.6388 11.1836 32.3549C11.1836 34.1855 10.0396 34.9291 8.26625 34.9291H5.29166V29.7236H8.26625V29.7808ZM7.69421 21.4291C9.41032 21.4291 10.6116 22.1727 10.6116 23.8888C10.6116 25.6049 9.46752 26.3486 7.69421 26.3486H5.29166V21.4291H7.69421ZM34.7515 17.7108H29.6032L21.7663 38.6473H26.9718L28.4019 34.2999H35.9528L37.3829 38.6473H42.6456L34.7515 17.7108ZM32.1774 22.7447L34.6371 30.4672H29.6032L32.1774 22.7447ZM68.7305 17.7108H63.9826V31.7257L55.0588 17.7108H49.7389V38.6473H54.4868V24.6897L63.4106 38.6473H68.7305V17.7108ZM90.6395 38.6473L83.775 28.0075V38.6473H78.6839V17.7108H83.775V27.7787L90.2963 17.7108H95.9594L89.095 27.7787L96.5887 38.6473H90.6395ZM114.608 28.1791C114.608 32.3549 117.125 34.9291 120.385 34.9291C123.646 34.9291 126.163 32.3549 126.163 28.1791C126.163 24.0032 123.646 21.4291 120.385 21.4291C117.125 21.4291 114.608 24.0032 114.608 28.1791ZM109.231 28.1791C109.288 22.0583 113.578 17.2532 120.385 17.2532C127.193 17.2532 131.483 22.0583 131.54 28.1791C131.483 34.2999 127.193 39.105 120.385 39.105C113.578 39.105 109.288 34.2999 109.231 28.1791ZM138.519 38.6473H143.61V30.41H150.246V26.4058H143.61V21.7151H151.619L152.534 17.7108H138.519V38.6473ZM176.273 17.7108H171.125L163.288 38.6473H168.494L169.924 34.2999H177.475L178.905 38.6473H184.167L176.273 17.7108ZM173.699 22.7447L176.159 30.4672H171.125L173.699 22.7447ZM214.371 17.7108H208.422L202.987 29.0371L197.553 17.7108H191.604V38.6473H196.18V24.6325L202.93 38.6473L209.68 24.6325V38.6473H214.428L214.371 17.7108ZM224.267 38.6473H238.568V34.6431H229.358V29.9524H236.623V26.0625H229.358V21.7151H237.767L238.683 17.7108H224.267V38.6473ZM257.96 38.6473H263.509L258.303 29.7808C261.164 28.9799 262.536 26.9778 262.536 24.0604C262.536 20.285 260.248 17.768 255.1 17.768H247.034V38.7046H252.011V30.4672H253.384L257.96 38.6473ZM254.127 21.6007C256.244 21.6007 257.331 22.5159 257.331 24.2892C257.331 26.0625 256.244 26.9778 254.127 26.9778H251.954V21.6007H254.127ZM271.117 38.6473H276.208V17.768H271.117V38.6473ZM301.263 33.0414C299.318 34.4143 297.602 34.8719 295.829 34.8719C291.939 34.8719 289.193 32.1833 289.193 28.1791C289.193 24.1748 291.882 21.4863 295.657 21.4863C297.373 21.4863 299.09 21.9439 300.977 23.3168V18.5689C299.261 17.5964 297.259 17.196 295.028 17.196C288.106 17.196 283.759 22.0011 283.702 28.1219C283.759 34.2999 287.992 39.0478 295.028 39.0478C297.373 39.0478 299.376 38.6473 301.206 37.6749V33.0414H301.263ZM319.912 17.7108H314.763L306.926 38.6473H312.132L313.562 34.2999H321.113L322.543 38.6473H327.806L319.912 17.7108ZM317.338 22.7447L319.797 30.4672H314.763L317.338 22.7447Z" fill="#494949"/>
</g>
<defs>
<clipPath id="clip0_229_778">
<rect width="411.866" height="41.2438" fill="white" transform="translate(0.314941 0.378082)"/>
</clipPath>
</defs>
</svg>
