<svg width="24" height="25" viewBox="0 0 24 25" fill="none" xmlns="http://www.w3.org/2000/svg">
<rect y="0.935547" width="24" height="24" rx="12" fill="#FDFF8B" fill-opacity="0.18"/>
<path d="M17.332 7.93555H6.66536C5.93203 7.93555 5.3387 8.49805 5.3387 9.18555L5.33203 16.6855C5.33203 17.373 5.93203 17.9355 6.66536 17.9355H17.332C18.0654 17.9355 18.6654 17.373 18.6654 16.6855V9.18555C18.6654 8.49805 18.0654 7.93555 17.332 7.93555ZM17.0654 10.5918L12.352 13.3543C12.1387 13.4793 11.8587 13.4793 11.6454 13.3543L6.93203 10.5918C6.86518 10.5566 6.80664 10.5091 6.75996 10.4521C6.71327 10.3951 6.67941 10.3298 6.66041 10.2602C6.64142 10.1905 6.6377 10.118 6.64947 10.047C6.66124 9.97597 6.68826 9.90793 6.72889 9.84698C6.76952 9.78604 6.82291 9.73346 6.88585 9.69242C6.94878 9.65138 7.01995 9.62274 7.09503 9.60823C7.17011 9.59373 7.24755 9.59365 7.32267 9.60801C7.39778 9.62238 7.46901 9.65088 7.53203 9.6918L11.9987 12.3105L16.4654 9.6918C16.5284 9.65088 16.5996 9.62238 16.6747 9.60801C16.7498 9.59365 16.8273 9.59373 16.9024 9.60823C16.9775 9.62274 17.0486 9.65138 17.1115 9.69242C17.1745 9.73346 17.2279 9.78604 17.2685 9.84698C17.3091 9.90793 17.3362 9.97597 17.3479 10.047C17.3597 10.118 17.356 10.1905 17.337 10.2602C17.318 10.3298 17.2841 10.3951 17.2374 10.4521C17.1908 10.5091 17.1322 10.5566 17.0654 10.5918Z" fill="#FDFF8B"/>
</svg>
