<svg width="27" height="42" viewBox="0 0 27 42" fill="none" xmlns="http://www.w3.org/2000/svg">
<path d="M7.01306 1.2227C7.09082 0.958163 7.25218 0.725933 7.47298 0.56079C7.69379 0.395647 7.96215 0.306479 8.23788 0.306641H18.4447C18.6467 0.306794 18.8459 0.354934 19.0257 0.447097C19.2055 0.539261 19.3608 0.672812 19.4789 0.836757C19.597 1.0007 19.6745 1.19035 19.705 1.39009C19.7354 1.58984 19.718 1.79396 19.6542 1.98566L15.1122 15.6168H24.8239C25.0629 15.6167 25.297 15.6836 25.4998 15.81C25.7025 15.9364 25.8657 16.1172 25.9708 16.3318C26.0758 16.5464 26.1185 16.7862 26.0939 17.0238C26.0693 17.2615 25.9785 17.4875 25.8319 17.6761L7.96995 40.6414C7.78697 40.8778 7.52678 41.0424 7.23481 41.1065C6.94283 41.1707 6.6376 41.1303 6.37237 40.9923C6.10715 40.8544 5.89878 40.6277 5.78363 40.3519C5.66848 40.076 5.65386 39.7684 5.74232 39.4829L10.3379 24.5478H1.85863C1.66027 24.5479 1.46462 24.5018 1.28721 24.413C1.1098 24.3243 0.955523 24.1955 0.836628 24.0367C0.717733 23.8779 0.637496 23.6936 0.602289 23.4984C0.567082 23.3032 0.577876 23.1025 0.633812 22.9121L7.01306 1.2227Z" fill="white"/>
</svg>
