<svg width="32" height="33" viewBox="0 0 32 33" fill="none" xmlns="http://www.w3.org/2000/svg">
<g clip-path="url(#clip0_800_11389)">
<g clip-path="url(#clip1_800_11389)">
<g clip-path="url(#clip2_800_11389)">
<mask id="mask0_800_11389" style="mask-type:luminance" maskUnits="userSpaceOnUse" x="0" y="0" width="32" height="33">
<path d="M31.9787 0.752441H0.638672V32.0924H31.9787V0.752441Z" fill="white"/>
</mask>
<g mask="url(#mask0_800_11389)">
<path d="M31.3665 30.8682H1.25078C0.912722 30.8682 0.638672 31.1422 0.638672 31.4803C0.638672 31.8184 0.912722 32.0924 1.25078 32.0924H31.3665C31.7047 32.0924 31.9787 31.8184 31.9787 31.4803C31.9787 31.1422 31.7047 30.8682 31.3665 30.8682Z" fill="#D7E5F5"/>
<path fill-rule="evenodd" clip-rule="evenodd" d="M31.473 13.14C31.7831 13.4014 31.8226 13.8648 31.5612 14.175L24.1361 22.9823L17.7134 20.1378L14.0283 24.5843L6.66485 21.7569L2.24688 25.1203C1.9241 25.366 1.46324 25.3036 1.21751 24.9808C0.971782 24.658 1.03424 24.1971 1.35703 23.9514L6.42675 20.0919L13.5703 22.8347L17.2917 18.3444L23.7232 21.1927L30.438 13.228C30.6994 12.918 31.1629 12.8785 31.473 13.14Z" fill="url(#paint0_linear_800_11389)"/>
<path d="M3.39307 13.9893C4.3198 14.741 5.41352 15.2592 6.58224 15.5003C7.75095 15.7413 8.96041 15.698 10.109 15.3741C11.2575 15.0502 12.3114 14.4553 13.182 13.6392C14.0527 12.8233 14.7146 11.81 15.1121 10.6849C15.5095 9.55969 15.631 8.35545 15.466 7.17364C15.3012 5.99179 14.8549 4.86683 14.1646 3.89342C13.4744 2.92 12.5604 2.12662 11.4997 1.58003C10.4389 1.03343 9.26241 0.749616 8.06914 0.752463L8.08688 8.2031L3.39307 13.9893Z" fill="#7CDA0F"/>
<path d="M8.08933 0.752441C7.11091 0.752441 6.14205 0.945159 5.23809 1.31959C4.33413 1.69402 3.51278 2.24284 2.82092 2.93469C2.12907 3.62655 1.58025 4.4479 1.20582 5.35186C0.831389 6.25582 0.638672 7.22468 0.638672 8.2031H8.08933V0.752441Z" fill="#2196F3"/>
<path d="M0.638672 8.20361C0.638672 9.59539 1.0285 10.9595 1.76399 12.141C2.49948 13.3226 3.55123 14.2745 4.80002 14.889L8.08933 8.20361H0.638672Z" fill="#FFC107"/>
</g>
</g>
</g>
</g>
<defs>
<linearGradient id="paint0_linear_800_11389" x1="30.4181" y1="13.7321" x2="1.80195" y2="24.5664" gradientUnits="userSpaceOnUse">
<stop stop-color="#358EF0"/>
<stop offset="1" stop-color="#6AADFF"/>
</linearGradient>
<clipPath id="clip0_800_11389">
<rect width="31.34" height="31.34" fill="white" transform="translate(0.638672 0.752441)"/>
</clipPath>
<clipPath id="clip1_800_11389">
<rect width="31.34" height="31.34" fill="white" transform="translate(0.638672 0.752441)"/>
</clipPath>
<clipPath id="clip2_800_11389">
<rect width="31.34" height="31.34" fill="white" transform="translate(0.638672 0.752441)"/>
</clipPath>
</defs>
</svg>
