<svg width="253" height="26" viewBox="0 0 253 26" fill="none" xmlns="http://www.w3.org/2000/svg">
<g clip-path="url(#clip0_229_692)">
<path d="M54.0762 16.8371H56.5939V24.9894H35.9681V21.9936H38.8429V4.00647H34.1646L28.1668 24.9894H23.3735L18.4591 7.60147L13.4237 24.9894H8.63041L2.63875 4.00647H0V1.13169H11.1481V4.12752H7.9102L11.9894 18.5135L16.7827 1.12564H21.6971L26.6114 18.6285L30.5696 4.12147H27.2106V1.13169H56.2248V8.9269H53.707L53.465 7.97065C52.7447 5.09587 51.9035 4.13357 49.6279 4.13357H43.9933V11.3296H50.8383C51.0804 11.8077 51.1954 12.4069 51.1954 13.0061C51.1954 13.6052 51.0743 14.2044 50.8383 14.6825H44.0054V22.1146H49.8821C52.1577 22.1146 53.12 21.1584 53.8402 18.1565L54.0762 16.8371ZM75.7793 18.0354C75.0591 21.0313 74.1029 21.9936 71.8212 21.9936H67.0279V4.00647H70.2658V1.13169H58.9906V4.12752H61.8654V22.1146H58.9906V25.1104H78.412V16.9581H75.8943L75.7793 18.0354ZM97.3614 18.0354C96.6412 21.0313 95.685 21.9936 93.4033 21.9936H88.61V4.00647H91.8479V1.13169H80.5787V4.12752H83.4535V22.1146H80.5787V25.1104H100V16.9581H97.4825L97.3614 18.0354ZM115.342 10.9604L111.027 10.0042C108.51 9.40502 107.432 8.44272 107.432 6.76627C107.432 4.72668 108.994 3.52835 112.226 3.52835C115.342 3.52835 117.261 4.60564 117.981 7.36543L118.338 8.56377H120.856V2.56606C118.217 1.12564 115.221 0.405427 112.105 0.405427C106.228 0.405427 102.512 3.16522 102.512 7.71646C102.512 11.1965 104.672 13.8292 108.867 14.6704L113.182 15.6267C115.942 16.2258 117.019 17.3031 117.019 19.1067C117.019 21.3823 115.342 22.5867 111.983 22.5867C108.146 22.5867 106.228 21.0252 105.387 18.1504L104.908 16.71H102.391V23.4219C105.508 24.9833 108.988 25.6975 112.462 25.6975C118.217 25.6975 121.933 22.8227 121.933 18.3865C121.939 14.5615 119.664 12.0438 115.342 10.9604ZM148.436 4.00647C150.711 4.00647 151.553 4.96272 152.273 7.84356L152.515 8.7998H155.033V1.13169H134.292V4.12752H137.167V22.1146H134.292V25.1104H145.682V22.1146H142.202V15.1606H149.277C149.519 14.6825 149.634 14.0834 149.634 13.4842C149.634 12.885 149.513 12.4069 149.277 11.8077H142.202V4.00647H148.436ZM200.593 22.3506C200.951 23.1919 200.951 24.2692 200.593 25.1104C199.752 25.2315 198.796 25.2315 197.955 25.2315C194.596 25.2315 193.04 23.9121 192.677 20.6742L192.556 19.4758C192.199 15.9958 190.995 14.6825 187.279 14.6825H185.36V21.9936H188.598V24.9894H167.016V21.9936H169.776L168.214 17.6783H159.342L157.78 21.9936H160.655V24.9894H151.541V21.9936H153.937L162.332 1.01065H166.889L175.404 21.9936H180.083V4.00647H177.208V1.13169H190.995C195.909 1.13169 199.026 3.52835 199.026 7.48648C199.026 11.3236 195.788 13.3631 192.792 13.5992V13.7202C195.909 13.9623 197.228 15.7598 197.471 18.3986L197.592 19.7179C197.834 21.7575 198.191 22.5927 199.752 22.5927C200.115 22.4717 200.357 22.3506 200.593 22.3506ZM167.143 14.9186L163.784 5.80397L160.425 14.9186H167.143ZM194.003 7.84356C194.003 5.32585 192.441 4.00647 189.324 4.00647H185.245V11.8017H189.324C192.32 11.8017 194.003 10.3613 194.003 7.84356ZM214.386 14.0773C214.386 14.6765 214.507 15.2756 214.743 15.7538H218.823V21.8665C217.503 22.3446 216.184 22.7077 214.743 22.7077C209.829 22.7077 207.19 19.2277 207.19 13.115C207.19 7.0023 209.708 3.5223 214.386 3.5223C217.146 3.40126 219.543 5.08376 220.384 7.71646L220.741 8.67271H223.259V2.45106C220.499 1.01065 217.382 0.290436 214.144 0.290436C206.591 0.290436 201.556 5.32585 201.556 13C201.556 20.7952 206.47 25.7096 214.144 25.7096C217.503 25.5885 220.741 24.7533 223.737 23.1919V12.5219H214.622C214.501 13 214.386 13.5992 214.386 14.0773ZM252.515 13C252.515 20.075 246.759 25.7096 239.806 25.7096C232.731 25.7096 227.096 20.075 227.096 13C227.096 5.92502 232.852 0.290436 239.806 0.290436C246.881 0.290436 252.515 6.04606 252.515 13ZM246.881 13C246.881 6.88731 244.363 3.40731 239.806 3.40731C235.248 3.40731 232.731 6.88731 232.731 13C232.731 19.1127 235.248 22.5927 239.806 22.5927C244.357 22.5927 246.881 19.1127 246.881 13Z" fill="#333333"/>
</g>
<defs>
<clipPath id="clip0_229_692">
<rect width="252.515" height="25.4192" fill="white" transform="translate(0 0.290436)"/>
</clipPath>
</defs>
</svg>
