<svg width="44" height="44" viewBox="0 0 44 44" fill="none" xmlns="http://www.w3.org/2000/svg">
<path d="M22.2043 39.5429C19.7389 39.5429 17.4219 39.0747 15.2535 38.1385C13.0851 37.2022 11.1989 35.9326 9.59491 34.3298C7.99089 32.727 6.72133 30.8408 5.78625 28.6712C4.85116 26.5016 4.38303 24.1847 4.38184 21.7204C4.38065 19.2562 4.84879 16.9392 5.78625 14.7696C6.72371 12.6001 7.99326 10.7139 9.59491 9.11102C11.1966 7.50819 13.0828 6.23863 15.2535 5.30236C17.4243 4.36609 19.7412 3.89795 22.2043 3.89795C24.6674 3.89795 26.9843 4.36609 29.1551 5.30236C31.3258 6.23863 33.212 7.50819 34.8137 9.11102C36.4153 10.7139 37.6855 12.6001 38.6241 14.7696C39.5628 16.9392 40.0303 19.2562 40.0268 21.7204C40.0232 24.1847 39.5551 26.5016 38.6223 28.6712C37.6896 30.8408 36.4201 32.727 34.8137 34.3298C33.2073 35.9326 31.3211 37.2028 29.1551 38.1402C26.989 39.0777 24.6721 39.5452 22.2043 39.5429ZM17.0358 34.9981L19.1745 30.097C17.9269 29.6514 16.8504 28.9611 15.9451 28.026C15.0397 27.0909 14.3339 25.999 13.8277 24.7502L8.92657 26.7998C9.60976 28.7009 10.6643 30.3643 12.0901 31.7901C13.5158 33.2159 15.1644 34.2852 17.0358 34.9981ZM13.8277 18.6906C14.3327 17.443 15.0385 16.3517 15.9451 15.4166C16.8516 14.4815 17.9281 13.7906 19.1745 13.3439L17.1249 8.44268C15.2238 9.15557 13.5604 10.2249 12.1346 11.6507C10.7088 13.0765 9.63946 14.7399 8.92657 16.641L13.8277 18.6906ZM22.2043 27.0671C23.6895 27.0671 24.9519 26.5473 25.9916 25.5077C27.0312 24.468 27.551 23.2056 27.551 21.7204C27.551 20.2352 27.0312 18.9728 25.9916 17.9331C24.9519 16.8935 23.6895 16.3737 22.2043 16.3737C20.7191 16.3737 19.4567 16.8935 18.417 17.9331C17.3774 18.9728 16.8576 20.2352 16.8576 21.7204C16.8576 23.2056 17.3774 24.468 18.417 25.5077C19.4567 26.5473 20.7191 27.0671 22.2043 27.0671ZM27.3728 34.9981C29.2442 34.2852 30.8856 33.2236 32.2972 31.8133C33.7087 30.4029 34.7703 28.7615 35.482 26.8889L30.5809 24.7502C30.1353 25.9978 29.4521 27.0749 28.5313 27.9814C27.6104 28.888 26.5411 29.5932 25.3232 30.097L27.3728 34.9981ZM30.5809 18.6015L35.482 16.5519C34.7691 14.6805 33.7075 13.0397 32.2972 11.6293C30.8868 10.219 29.2454 9.15676 27.3728 8.44268L25.3232 13.433C26.5411 13.8785 27.5956 14.5546 28.4867 15.4612C29.3778 16.3677 30.0759 17.4145 30.5809 18.6015Z" fill="white"/>
</svg>
