<svg width="32" height="33" viewBox="0 0 32 33" fill="none" xmlns="http://www.w3.org/2000/svg">
<g clip-path="url(#clip0_800_11363)">
<g clip-path="url(#clip1_800_11363)">
<g clip-path="url(#clip2_800_11363)">
<path d="M5.93525 2.4231H25.9512C26.516 2.4231 26.9739 2.88096 26.9739 3.44575V29.3991C26.9739 29.964 26.516 30.4218 25.9512 30.4218H5.93525C5.37049 30.4218 4.9126 29.964 4.9126 29.3991V3.44575C4.9126 2.88096 5.37046 2.4231 5.93525 2.4231Z" fill="#FAF1FF" stroke="#D5BFE0" stroke-width="0.892806"/>
<path d="M11.5954 13.2498H11.5606C11.4458 13.2498 11.3525 13.332 11.3525 13.4335V28.0546C11.3525 28.156 11.4458 28.2382 11.5606 28.2382H11.5954C11.7104 28.2382 11.8035 28.156 11.8035 28.0546V13.4335C11.8035 13.332 11.7104 13.2498 11.5954 13.2498Z" fill="#939393"/>
<path d="M18.4724 10.1072H18.4375C18.3226 10.1072 18.2295 10.2043 18.2295 10.324V27.5895C18.2295 27.7093 18.3226 27.8064 18.4375 27.8064H18.4724C18.5873 27.8064 18.6804 27.7093 18.6804 27.5895V10.324C18.6804 10.2043 18.5873 10.1072 18.4724 10.1072Z" fill="#939393"/>
<path d="M12.9485 17.5549H10.2079C9.59503 17.5549 9.09814 17.9092 9.09814 18.3463V25.4441C9.09814 25.8811 9.59503 26.2355 10.2079 26.2355H12.9485C13.5615 26.2355 14.0585 25.8811 14.0585 25.4441V18.3463C14.0585 17.9092 13.5615 17.5549 12.9485 17.5549Z" fill="#FF7171"/>
<path d="M19.825 12.5049H17.0844C16.4715 12.5049 15.9746 13.0244 15.9746 13.6654V24.0763C15.9746 24.7172 16.4715 25.2369 17.0844 25.2369H19.825C20.4379 25.2369 20.9348 24.7172 20.9348 24.0763V13.6654C20.9348 13.0244 20.4379 12.5049 19.825 12.5049Z" fill="#6CB62E"/>
<path d="M23.9014 15.2725V9.15886L28.6427 8.99561V15.2725C28.6427 15.2725 28.505 15.383 28.4056 15.4358C27.6064 15.8602 26.6128 13.9667 26.6128 13.9667C26.6128 13.9667 26.5388 13.759 26.2869 13.759C26.0351 13.759 25.9164 13.9667 25.9164 13.9667C25.9164 13.9667 24.9082 15.887 24.1236 15.4358C24.0303 15.3822 23.9014 15.2725 23.9014 15.2725Z" fill="#EB6666"/>
<path d="M26.2577 11.5255C29.2326 11.5255 31.6441 9.11391 31.6441 6.13899C31.6441 3.16409 29.2326 0.752441 26.2577 0.752441C23.2827 0.752441 20.8711 3.16409 20.8711 6.13899C20.8711 9.11391 23.2827 11.5255 26.2577 11.5255Z" fill="#FFAC06"/>
<path d="M28.5844 5.45664L25.8756 8.45232C25.7942 8.54203 25.6878 8.58742 25.581 8.58742C25.474 8.58742 25.3676 8.54203 25.2864 8.45232L23.9321 6.95453C23.7687 6.77433 23.7687 6.4829 23.9321 6.30279C24.0949 6.12261 24.3582 6.12261 24.521 6.30279L25.581 7.47467L27.9953 4.8053C28.1583 4.6248 28.4215 4.6248 28.5844 4.8053C28.7472 4.9854 28.7472 5.27654 28.5844 5.45664Z" fill="black"/>
</g>
</g>
</g>
<defs>
<clipPath id="clip0_800_11363">
<rect width="31.34" height="31.34" fill="white" transform="translate(0.304688 0.752441)"/>
</clipPath>
<clipPath id="clip1_800_11363">
<rect width="31.34" height="31.34" fill="white" transform="translate(0.304688 0.752441)"/>
</clipPath>
<clipPath id="clip2_800_11363">
<rect width="31.34" height="31.34" fill="white" transform="translate(0.304688 0.752441)"/>
</clipPath>
</defs>
</svg>
