<svg width="195" height="40" viewBox="0 0 195 40" fill="none" xmlns="http://www.w3.org/2000/svg">
<g clip-path="url(#clip0_229_701)">
<path fill-rule="evenodd" clip-rule="evenodd" d="M12.688 5.18698C12.5975 5.3393 12.5975 5.52693 12.688 5.67925L28.2572 31.7228C28.3432 31.8685 28.5 31.9567 28.67 31.9567H33.8906C34.2636 31.9567 34.4932 31.5505 34.3034 31.2305L15.9286 0.487321C15.8314 0.323969 15.5952 0.323969 15.4981 0.487321L12.688 5.18698Z" fill="black"/>
<path fill-rule="evenodd" clip-rule="evenodd" d="M12.5093 10.7479H15.1383C15.3238 10.7479 15.4386 10.9488 15.3458 11.1077L14.0302 13.3858L12.7168 15.6639C12.6241 15.8228 12.3945 15.8228 12.3017 15.6639L10.9861 13.3858L9.67048 11.1077C9.57778 10.9488 9.69257 10.7479 9.87797 10.7479H12.5093Z" fill="#5E5E5E"/>
<path fill-rule="evenodd" clip-rule="evenodd" d="M9.37038 16.0294H11.9994C12.1848 16.0294 12.2996 16.2303 12.2069 16.3892L10.8913 18.6674L9.57566 20.9454C9.48296 21.1044 9.25339 21.1044 9.16063 20.9454L7.84503 18.6674L6.52937 16.3892C6.43667 16.2303 6.55145 16.0294 6.73686 16.0294H9.37038Z" fill="#5E5E5E"/>
<path fill-rule="evenodd" clip-rule="evenodd" d="M6.20923 21.3938H8.8383C9.02371 21.3938 9.13849 21.5947 9.04579 21.7536L7.73019 24.0317L6.41453 26.3097C6.32183 26.4687 6.09224 26.4687 5.99952 26.3097L4.68388 24.0317L3.36824 21.7536C3.27553 21.5947 3.39032 21.3938 3.57574 21.3938H6.20923Z" fill="#5E5E5E"/>
<path fill-rule="evenodd" clip-rule="evenodd" d="M3.15185 26.9006H5.78093C5.96635 26.9006 6.08114 27.1016 5.98843 27.2605L4.67278 29.5386L3.35714 31.8166C3.26443 31.9756 3.03485 31.9756 2.94214 31.8166L1.62871 29.5386L0.313067 27.2605C0.220354 27.1016 0.335141 26.9006 0.520567 26.9006H3.15185Z" fill="#5E5E5E"/>
<path fill-rule="evenodd" clip-rule="evenodd" d="M9.38991 26.9006H12.019C12.2044 26.9006 12.3192 27.1016 12.2264 27.2605L10.9109 29.5386L9.59519 31.8166C9.50249 31.9756 9.27292 31.9756 9.18016 31.8166L7.86456 29.5386L6.5489 27.2605C6.4562 27.1016 6.57099 26.9006 6.75639 26.9006H9.38991Z" fill="#5E5E5E"/>
<path fill-rule="evenodd" clip-rule="evenodd" d="M15.7119 26.9006H18.341C18.5264 26.9006 18.6412 27.1016 18.5485 27.2605L17.2329 29.5386L15.9172 31.8166C15.8245 31.9756 15.5949 31.9756 15.5022 31.8166L14.1888 29.5386L12.8731 27.2605C12.7804 27.1016 12.8952 26.9006 13.0807 26.9006H15.7119Z" fill="#5E5E5E"/>
<path fill-rule="evenodd" clip-rule="evenodd" d="M22.0344 26.9006H24.6635C24.849 26.9006 24.9637 27.1016 24.871 27.2605L23.5554 29.5386L22.2397 31.8166C22.147 31.9756 21.9174 31.9756 21.8247 31.8166L20.5091 29.5386L19.1934 27.2605C19.1007 27.1016 19.2155 26.9006 19.4009 26.9006H22.0344Z" fill="#5E5E5E"/>
<path fill-rule="evenodd" clip-rule="evenodd" d="M12.593 21.3938H15.2221C15.4075 21.3938 15.5223 21.5947 15.4296 21.7536L14.114 24.0317L12.7983 26.3097C12.7056 26.4687 12.476 26.4687 12.3833 26.3097L11.0677 24.0317L9.75203 21.7536C9.65932 21.5947 9.77411 21.3938 9.95951 21.3938H12.593Z" fill="#5E5E5E"/>
<path fill-rule="evenodd" clip-rule="evenodd" d="M18.7473 21.3938H21.3764C21.5618 21.3938 21.6765 21.5947 21.5838 21.7536L20.2682 24.0317L18.9526 26.3097C18.8599 26.4687 18.6303 26.4687 18.5376 26.3097L17.222 24.0317L15.9107 21.7536C15.818 21.5947 15.9328 21.3938 16.1182 21.3938H18.7473Z" fill="#5E5E5E"/>
<path fill-rule="evenodd" clip-rule="evenodd" d="M15.7962 16.0294H18.4252C18.6107 16.0294 18.7255 16.2303 18.6328 16.3892L17.3171 18.6674L16.0014 20.9454C15.9087 21.1044 15.6792 21.1044 15.5865 20.9454L14.2708 18.6674L12.9551 16.3892C12.8624 16.2303 12.9772 16.0294 13.1627 16.0294H15.7962Z" fill="#5E5E5E"/>
<path d="M84.9241 13.6531C86.1806 14.8959 86.8097 16.5934 86.8097 18.7435V31.4915C86.8097 31.6218 86.7632 31.7321 86.6724 31.8226C86.5823 31.9131 86.4719 31.9595 86.3417 31.9595H82.7656C82.6349 31.9595 82.5251 31.9153 82.4344 31.8226C82.3436 31.7321 82.2977 31.6218 82.2977 31.4915V19.6773C82.2977 18.4852 81.9598 17.5206 81.2865 16.781C80.6132 16.0416 79.719 15.6729 78.6046 15.6729C77.4895 15.6729 76.5888 16.035 75.9023 16.7612C75.2159 17.4874 74.8714 18.4455 74.8714 19.6375V31.4915C74.8714 31.6218 74.8255 31.7321 74.7348 31.8226C74.644 31.9131 74.5336 31.9595 74.4035 31.9595H70.8274C70.6972 31.9595 70.5868 31.9153 70.4967 31.8226C70.4059 31.7321 70.3594 31.6218 70.3594 31.4915V12.5649C70.3594 12.4346 70.4035 12.3264 70.4967 12.2337C70.5868 12.1432 70.6972 12.0969 70.8274 12.0969H74.4035C74.5336 12.0969 74.6422 12.1432 74.7348 12.2337C74.8255 12.3242 74.8714 12.4346 74.8714 12.5649V13.8076C74.8714 13.8849 74.8983 13.9379 74.949 13.9622C74.9998 13.9886 75.0392 13.9622 75.066 13.8849C76.1274 12.4853 77.7348 11.7856 79.8849 11.7856C81.9908 11.7878 83.6682 12.4103 84.9241 13.6531Z" fill="#262626"/>
<path d="M126.666 21.9698L126.626 23.175C126.626 23.4863 126.472 23.6408 126.16 23.6408H113.997C113.867 23.6408 113.803 23.7048 113.803 23.8351C113.88 24.6894 113.997 25.2721 114.154 25.5834C114.776 27.4487 116.291 28.3957 118.701 28.42C120.462 28.42 121.862 27.6959 122.897 26.2434C123.001 26.0889 123.131 26.0094 123.286 26.0094C123.39 26.0094 123.48 26.0491 123.557 26.1264L125.966 28.1087C126.2 28.2897 126.238 28.4972 126.083 28.7312C125.28 29.8724 124.211 30.751 122.878 31.3735C121.542 31.996 120.061 32.3072 118.428 32.3072C116.405 32.3072 114.69 31.8547 113.277 30.9475C111.864 30.0402 110.836 28.7709 110.187 27.1396C109.591 25.7401 109.293 23.7975 109.293 21.3097C109.293 19.8087 109.448 18.5901 109.759 17.6564C110.277 15.8441 111.256 14.4115 112.692 13.3629C114.13 12.3144 115.86 11.789 117.88 11.789C122.984 11.789 125.86 14.4578 126.507 19.7954C126.615 20.44 126.666 21.1663 126.666 21.9698ZM115.494 16.3937C114.858 16.8728 114.412 17.5394 114.154 18.3959C113.999 18.8374 113.896 19.4069 113.843 20.1067C113.792 20.2369 113.843 20.3009 113.997 20.3009H121.887C122.017 20.3009 122.081 20.2369 122.081 20.1067C122.028 19.4599 121.951 18.9676 121.847 18.6299C121.613 17.6962 121.154 16.9721 120.467 16.4533C119.781 15.9346 118.919 15.6763 117.882 15.6763C116.924 15.6741 116.127 15.9125 115.494 16.3937Z" fill="#262626"/>
<path d="M143.099 31.1053C141.689 30.3482 140.596 29.282 139.826 27.9089C139.055 26.5359 138.669 24.9487 138.669 23.1452V13.2669C138.669 11.4634 139.055 9.87623 139.826 8.50321C140.596 7.13019 141.689 6.06619 143.099 5.30682C144.51 4.54967 146.144 4.16998 148 4.16998C149.856 4.16998 151.497 4.54967 152.92 5.30682C154.345 6.06619 155.443 7.13019 156.214 8.50321C156.985 9.87623 157.371 11.4634 157.371 13.2669V23.1474C157.371 24.9509 156.985 26.5381 156.214 27.9111C155.443 29.2842 154.345 30.3482 152.92 31.1075C151.494 31.8669 149.855 32.2443 148 32.2443C146.144 32.2421 144.51 31.8647 143.099 31.1053ZM152.784 28.048C153.986 26.8449 154.587 25.2511 154.587 23.2644V13.2272C154.587 11.2405 153.985 9.64003 152.784 8.42376C151.581 7.20743 149.987 6.60037 148 6.60037C146.04 6.60037 144.457 7.20743 143.256 8.42376C142.053 9.64003 141.453 11.2405 141.453 13.2272V23.2644C141.453 25.2511 142.053 26.8449 143.256 28.048C144.459 29.251 146.04 29.8515 148 29.8515C149.987 29.8515 151.581 29.251 152.784 28.048Z" fill="#5E5E5E"/>
<path d="M173.673 13.6571C174.913 14.8866 175.536 16.5333 175.536 18.5973V31.5352C175.536 31.7979 175.406 31.9281 175.143 31.9281H173.143C172.88 31.9281 172.75 31.7979 172.75 31.5352V19.147C172.75 17.7099 172.313 16.5333 171.437 15.6173C170.561 14.7034 169.43 14.2442 168.046 14.2442C166.609 14.2442 165.446 14.6879 164.556 15.5775C163.666 16.4671 163.223 17.6305 163.223 19.0675V31.5352C163.223 31.7979 163.093 31.9281 162.83 31.9281H160.83C160.567 31.9281 160.437 31.7979 160.437 31.5352V12.4805C160.437 12.22 160.567 12.0875 160.83 12.0875H162.83C163.09 12.0875 163.223 12.2178 163.223 12.4805V14.1669C163.223 14.2199 163.243 14.2596 163.283 14.2839C163.322 14.3104 163.353 14.2972 163.38 14.2442C164.529 12.6239 166.293 11.8138 168.673 11.8138C170.766 11.8138 172.433 12.4297 173.673 13.6571Z" fill="#5E5E5E"/>
<path d="M194.277 21.4213V22.6752C194.277 22.9378 194.147 23.0681 193.885 23.0681H181.22C181.117 23.0681 181.063 23.1211 181.063 23.2248C181.117 24.6619 181.194 25.5912 181.3 26.0084C181.587 27.185 182.201 28.1121 183.143 28.792C184.083 29.4719 185.287 29.8118 186.75 29.8118C187.847 29.8118 188.814 29.5646 189.651 29.0679C190.487 28.5712 191.141 27.8649 191.611 26.951C191.767 26.7148 191.951 26.664 192.16 26.7942L193.69 27.6971C193.9 27.8273 193.951 28.0106 193.847 28.2468C193.193 29.5006 192.213 30.4873 190.907 31.2069C189.6 31.9266 188.096 32.2842 186.397 32.2842C184.54 32.2577 182.986 31.814 181.73 30.9509C180.476 30.0878 179.574 28.8869 179.024 27.3439C178.553 26.0901 178.318 24.2866 178.318 21.9334C178.318 20.8363 178.337 19.9401 178.377 19.247C178.417 18.5538 178.514 17.9335 178.67 17.3839C179.115 15.6842 180.01 14.3265 181.357 13.3067C182.704 12.2869 184.33 11.7769 186.237 11.7769C188.615 11.7769 190.445 12.3796 191.728 13.5805C193.008 14.7835 193.805 16.481 194.12 18.6775C194.224 19.4081 194.277 20.3242 194.277 21.4213ZM183.043 15.2074C182.194 15.874 181.638 16.7702 181.377 17.8938C181.22 18.4435 181.114 19.3308 181.063 20.5604C181.063 20.6642 181.117 20.7171 181.22 20.7171H191.375C191.478 20.7171 191.532 20.6642 191.532 20.5604C191.478 19.3838 191.401 18.5472 191.295 18.0505C191.008 16.8739 190.425 15.9402 189.551 15.247C188.675 14.5539 187.571 14.2073 186.237 14.2073C184.958 14.2073 183.893 14.5407 183.043 15.2074Z" fill="#5E5E5E"/>
<path d="M67.6249 31.4137L56.3054 4.14506H56.3032C56.0118 3.46075 55.3341 2.97952 54.5416 2.97952C53.7712 2.97952 53.1112 3.43647 52.8088 4.08987L41.4956 31.4137C41.436 31.5947 41.4514 31.7316 41.5398 31.8221C41.628 31.9126 41.7627 31.959 41.9415 31.959H46.4006C46.6963 31.959 46.8906 31.8287 46.9811 31.5704L48.4535 27.4116C48.5131 27.3079 48.5881 27.2571 48.6764 27.2571H60.4488C60.5372 27.2571 60.6124 27.3101 60.6715 27.4116L62.144 31.5704C62.2324 31.8287 62.4264 31.959 62.7248 31.959H67.1838C67.5103 31.959 67.6739 31.842 67.6739 31.6102C67.6691 31.5307 67.6542 31.4645 67.6249 31.4137ZM59.0647 23.3234H50.0142C49.864 23.3234 49.8067 23.2461 49.8353 23.0894L54.3827 11.3237C54.4114 11.22 54.4578 11.1692 54.5173 11.1692C54.577 11.1692 54.6211 11.2222 54.6498 11.3237L59.2413 23.0894C59.3009 23.2439 59.2413 23.3234 59.0647 23.3234Z" fill="#262626"/>
<path d="M135.985 28.2725H135.153C134.592 28.2725 134.14 27.82 134.14 27.2615C134.14 22.9371 134.14 5.37241 134.14 5.37241C134.14 4.98831 133.828 4.67706 133.445 4.67706H130.323C129.939 4.67706 129.628 4.98831 129.628 5.37241V28.0584V28.6235C129.628 30.4535 131.111 31.9369 132.941 31.9369H135.985C136.237 31.9369 136.442 31.7316 136.442 31.4799V28.7294C136.442 28.4778 136.237 28.2725 135.985 28.2725Z" fill="#262626"/>
<path d="M106.505 12.2349C106.414 12.1444 106.304 12.0981 106.174 12.0981H102.598C102.467 12.0981 102.357 12.1444 102.267 12.2349C102.176 12.3254 102.13 12.4358 102.13 12.566V13.4998C102.13 13.577 102.103 13.63 102.053 13.6543C101.999 13.6808 101.949 13.6543 101.898 13.577C100.757 12.385 99.1653 11.789 97.119 11.789C95.4083 11.789 93.9184 12.2614 92.6488 13.2084C91.3797 14.1554 90.4855 15.418 89.9668 16.9964C89.552 18.1376 89.3442 19.7822 89.3442 21.9322C89.3442 23.8505 89.512 25.4178 89.8498 26.6341C90.393 28.3957 91.3666 29.7047 92.7634 30.5589C94.1631 31.4132 95.7038 31.8415 97.3883 31.8415C99.3306 31.8415 100.834 31.2719 101.896 30.1307C101.947 30.0799 101.999 30.0601 102.05 30.0733C102.101 30.0865 102.128 30.1307 102.128 30.2102V30.5215C102.128 32.3337 101.666 33.6229 100.748 34.3889C99.8272 35.1527 98.397 35.5346 96.4547 35.5346C96.4433 35.5346 96.4302 35.5368 96.4189 35.5368H93.075C92.7568 35.5368 92.5604 35.8856 92.724 36.157L94.5983 39.2652C94.7439 39.5058 95.0042 39.6536 95.2865 39.6536H96.7018V39.6514C99.6464 39.6316 102.033 38.9384 103.856 37.5742C105.708 36.188 106.635 33.8768 106.635 30.6384V12.5638C106.642 12.4358 106.596 12.3254 106.505 12.2349ZM102.075 24.0867C102.035 24.5392 101.964 24.9608 101.86 25.3494C101.653 26.1794 101.238 26.8526 100.618 27.3692C99.995 27.8879 99.1808 28.1462 98.1696 28.1462C97.2116 28.1462 96.3884 27.8813 95.702 27.3493C95.0149 26.8195 94.5428 26.1374 94.2843 25.3096C94.024 24.6629 93.8963 23.5349 93.8963 21.9278C93.8963 20.3738 94.0503 19.2325 94.3619 18.5085C94.6466 17.6542 95.1122 16.9677 95.7611 16.4489C96.4081 15.9302 97.1984 15.6719 98.132 15.6719C99.1169 15.6719 99.9269 15.9302 100.56 16.4489C101.194 16.9677 101.616 17.6542 101.823 18.5085C101.953 18.9235 102.037 19.3429 102.075 19.7711C102.115 20.1994 102.132 20.9058 102.132 21.8881C102.134 22.9013 102.115 23.6342 102.075 24.0867Z" fill="#262626"/>
</g>
<defs>
<clipPath id="clip0_229_701">
<rect width="193.997" height="39.9932" fill="white" transform="translate(0.280273 0.00338745)"/>
</clipPath>
</defs>
</svg>
