<svg width="181" height="50" viewBox="0 0 181 50" fill="none" xmlns="http://www.w3.org/2000/svg">
<g clip-path="url(#clip0_229_724)">
<path d="M8.44125 7.75201C12.5724 3.73401 18.179 1.67601 23.7855 1.18601C32.4413 0.990012 40.9986 5.69401 45.3265 13.142C39.6216 18.336 34.2117 23.628 28.8019 28.92C23.8839 27.352 19.0642 25.392 14.2445 23.628C10.1134 26.372 5.88388 29.018 1.75273 31.664C-0.90301 23.236 2.04781 13.632 8.44125 7.75201Z" fill="#404040" stroke="#404040" stroke-width="0.125"/>
<path d="M45.3265 13.142C46.015 14.612 46.6051 16.082 47.2937 17.552C40.8019 22.06 36.3756 29.116 29.4904 33.232C24.5724 32.644 20.3428 29.214 15.3265 28.626C11.0969 30.684 7.55596 33.82 3.12973 35.388C2.63793 34.212 2.14613 32.938 1.75269 31.664C5.88383 29.018 10.1133 26.372 14.2445 23.628C19.0642 25.392 23.8838 27.352 28.8019 28.92C34.2117 23.628 39.6215 18.336 45.3265 13.142Z" fill="#969696" stroke="#8E8E8E" stroke-width="0.125"/>
<path d="M66.3758 15.298C71.0971 11.574 78.2774 12.162 82.9004 15.984C82.1135 16.964 81.2283 17.944 80.4414 18.924C77.4905 17.16 73.6545 15.592 70.3102 17.454C64.9004 20.198 64.5069 28.92 69.6217 32.154C72.6709 34.212 76.6053 33.428 79.6545 31.86C79.6545 30.292 79.6545 28.822 79.6545 27.254C77.6873 27.254 75.7201 27.254 73.6545 27.254C73.6545 26.372 73.6545 24.51 73.6545 23.628C76.9987 23.628 80.343 23.628 83.6873 23.628C83.6873 26.96 83.6873 30.39 83.6873 33.722C78.8676 37.348 71.884 38.72 66.7692 35.094C60.0807 30.782 59.9823 20.002 66.3758 15.298Z" fill="#444444" stroke="#444444" stroke-width="0.125"/>
<path d="M29.4905 33.232C36.3758 29.116 40.802 22.06 47.2938 17.552C47.6873 19.218 47.9823 20.884 48.3758 22.648C42.5725 26.666 37.5561 31.762 32.5397 36.662C31.6545 37.348 30.7692 38.328 29.5889 38.622C24.5725 38.328 20.343 34.8 15.3266 34.408C11.884 35.682 9.03152 38.132 5.98234 39.994C4.99874 38.524 4.01513 36.956 3.12988 35.388C7.55611 33.82 11.0971 30.684 15.3266 28.626C20.343 29.214 24.5725 32.644 29.4905 33.232Z" fill="#AFAFAF" stroke="#AFAFAF" stroke-width="0.125"/>
<path d="M88.4084 18.924C89.3921 18.924 91.4576 18.924 92.4412 18.924C92.4412 20.198 92.4412 21.374 92.4412 22.648C93.9166 20.492 95.9822 18.532 98.8347 18.532C98.8347 19.512 98.933 21.57 98.933 22.55C96.9658 23.236 94.5068 23.628 93.4248 25.784C91.8511 29.214 92.638 33.134 92.4412 36.76C91.1625 36.858 89.7855 36.858 88.4084 36.956C88.4084 30.978 88.4084 24.902 88.4084 18.924Z" fill="#444444" stroke="#444444" stroke-width="0.125"/>
<path d="M106.9 19.512C113.49 15.984 122.244 22.55 120.179 29.9C118.999 36.76 109.556 39.602 104.54 34.8C99.6215 30.782 100.9 21.962 106.9 19.512ZM108.867 22.55C104.835 24.02 104.54 30.194 107.785 32.644C110.835 34.996 116.146 32.938 116.146 29.018C117.228 24.804 112.9 20.884 108.867 22.55Z" fill="#444444" stroke="#444444" stroke-width="0.125"/>
<path d="M123.326 18.924C124.31 18.924 126.376 18.924 127.359 18.924C128.638 22.942 129.72 26.96 130.999 30.978C132.376 26.96 133.654 22.942 134.933 18.924C135.818 18.924 137.49 18.826 138.376 18.826C139.753 22.844 140.835 27.058 142.605 30.978C143.687 26.862 144.769 22.746 146.343 18.826C147.228 18.826 148.999 18.924 149.884 19.022C148.408 25.098 146.146 30.978 144.179 37.054C143.294 37.054 141.622 36.956 140.736 36.956C139.359 33.232 138.277 29.41 136.9 25.686C134.638 29.018 134.244 33.33 132.474 37.054C131.589 37.054 129.917 36.956 129.031 36.956C127.162 30.978 125.097 25 123.326 18.924Z" fill="#444444" stroke="#444444" stroke-width="0.125"/>
<path d="M152.048 18.924C153.13 18.924 155.097 18.924 156.081 18.924C157.458 22.942 158.54 26.96 159.72 31.076C161.49 27.156 161.982 22.648 164.146 18.826C164.835 18.826 166.212 18.826 166.9 18.826C168.966 22.648 169.556 27.156 171.327 31.076C172.408 26.96 173.589 22.942 174.966 18.924C175.949 18.924 177.917 18.924 178.9 18.924C176.933 25 175.163 31.174 172.9 37.054C172.015 37.054 170.245 36.956 169.458 36.956C168.179 32.84 166.802 28.822 165.523 24.804C163.851 28.822 163.261 33.33 160.999 37.054C160.31 37.054 158.933 37.054 158.245 37.054C155.49 31.272 154.212 24.902 152.048 18.924Z" fill="#444444" stroke="#444444" stroke-width="0.125"/>
<path d="M32.5396 36.662C37.5559 31.762 42.5723 26.666 48.3756 22.648C48.474 24.608 48.3756 26.568 48.2773 28.528C43.0641 32.154 38.3428 36.368 34.015 41.072C32.6379 42.346 31.3592 43.914 29.5887 44.502C24.7691 44.11 20.7363 40.974 16.015 40.19C13.4576 40.68 11.2937 42.052 9.03136 43.228C8.04775 42.15 6.96578 41.072 5.98218 39.994C9.03136 38.132 11.8838 35.682 15.3264 34.408C20.3428 34.8 24.5723 38.328 29.5887 38.622C30.7691 38.328 31.6543 37.348 32.5396 36.662Z" fill="#989898" stroke="#989898" stroke-width="0.125"/>
<path d="M34.0151 41.072C38.343 36.368 43.0643 32.154 48.2774 28.528C46.802 39.896 36.2774 49.01 24.7692 49.01C19.0643 49.01 13.4577 46.756 9.03149 43.228C11.2938 42.052 13.4577 40.68 16.0151 40.19C20.7364 40.974 24.7692 44.11 29.5889 44.502C31.3594 43.914 32.6381 42.346 34.0151 41.072Z" fill="#747474" stroke="#747474" stroke-width="0.125"/>
</g>
<defs>
<clipPath id="clip0_229_724">
<rect width="180" height="49" fill="white" transform="translate(0.277344 0.5)"/>
</clipPath>
</defs>
</svg>
