<svg width="24" height="25" viewBox="0 0 24 25" fill="none" xmlns="http://www.w3.org/2000/svg">
<rect y="0.935547" width="24" height="24" rx="12" fill="#FFAE81" fill-opacity="0.19"/>
<path d="M12 10.2689V12.9355L14 14.9355M18 12.9355C18 13.7235 17.8448 14.5037 17.5433 15.2316C17.2417 15.9596 16.7998 16.621 16.2426 17.1782C15.6855 17.7353 15.0241 18.1773 14.2961 18.4788C13.5681 18.7804 12.7879 18.9355 12 18.9355C11.2121 18.9355 10.4319 18.7804 9.7039 18.4788C8.97595 18.1773 8.31451 17.7353 7.75736 17.1782C7.20021 16.621 6.75825 15.9596 6.45672 15.2316C6.15519 14.5037 6 13.7235 6 12.9355C6 11.3442 6.63214 9.81812 7.75736 8.69291C8.88258 7.56769 10.4087 6.93555 12 6.93555C13.5913 6.93555 15.1174 7.56769 16.2426 8.69291C17.3679 9.81812 18 11.3442 18 12.9355Z" stroke="#FF6B17" stroke-width="1.4" stroke-linecap="round" stroke-linejoin="round"/>
</svg>
