<svg width="197" height="202" viewBox="0 0 197 202" fill="none" xmlns="http://www.w3.org/2000/svg">
<path fill-rule="evenodd" clip-rule="evenodd" d="M29.3403 184.405H59.4415L80.3425 142.068L7.21267 -4.24894L0.843262 -17H14.9974H65.3863H70.6941L73.1474 -12.1798L99.6157 39.893L83.1025 73.9196L80.1538 40.3916L60.0785 0.595034H29.1516L90.0381 122.431L156.398 -12.0848L158.804 -17H164.206H213.675H227.64L221.507 -4.36767L183.102 74.6556L173.288 54.9948L199.709 0.595034H169.608L149.297 41.7213L222.474 188.085L228.843 200.836H214.689H164.277H158.969L156.539 196.016L130.189 143.801L146.56 109.869L149.839 144.015L169.585 183.241H200.535L139.625 61.3822L72.6521 197.085L70.2459 202H64.8437H15.3749H1.40941L7.54289 189.368L45.9479 110.344L55.7614 130.005L29.3403 184.405Z" fill="#457DFF" fill-opacity="0.06"/>
</svg>
