<svg width="95" height="91" viewBox="0 0 95 91" fill="none" xmlns="http://www.w3.org/2000/svg">
<path fill-rule="evenodd" clip-rule="evenodd" d="M11.7879 82.8903H24.2394L32.8852 65.4914L2.63473 5.36125L0 0.121094H5.85493H26.6985H28.8941L29.9089 2.10201L40.8576 23.5018L34.0269 37.4853L32.8071 23.7067L24.5029 7.35193H11.7099L36.8958 57.4213L64.3457 2.14104L65.341 0.121094H67.5756H88.0386H93.8155L91.2783 5.31246L75.392 37.7878L71.3325 29.708L82.2617 7.35193H69.8103L61.4084 24.2532L91.6784 84.4028L94.3131 89.6429H88.4582H67.6049H65.4093L64.4042 87.662L53.5043 66.2037L60.2765 52.2592L61.6329 66.2915L69.8005 82.4121H82.6033L57.4076 32.333L29.704 88.1011L28.7087 90.1211H26.474H6.01106H0.234188L2.77133 84.9297L18.6577 52.4544L22.7171 60.5342L11.7879 82.8903Z" fill="#184ABE" fill-opacity="0.3"/>
</svg>
