<svg width="136" height="42" viewBox="0 0 136 42" fill="none" xmlns="http://www.w3.org/2000/svg">
<path d="M20.4203 41.0861C31.5435 41.0861 40.5633 32.1042 40.5633 21C40.5633 9.89579 31.5435 0.913879 20.4203 0.913879C9.29715 0.913879 0.277344 9.89579 0.277344 21C0.277344 32.1042 9.29715 41.0861 20.4203 41.0861Z" fill="#9F9F9F"/>
<path fill-rule="evenodd" clip-rule="evenodd" d="M29.5727 38.9071L13.7123 26.6659L15.9483 21.0001L12.1584 15.8459L13.7123 11.2034H29.7243L40.5822 21.038C40.5633 28.8261 36.0913 35.572 29.5727 38.8881V38.9071Z" fill="#585858"/>
<path d="M31.2594 14.0268H26.6548V32.1233C25.8968 32.1233 25.1578 31.9717 24.4377 31.6874C23.7176 31.4221 23.3387 31.1189 23.3387 30.7589V26.8364C21.8038 27.8028 20.1173 28.2955 18.3171 28.2955C16.517 28.2955 15.0389 27.8407 13.883 26.9122C12.765 25.9648 12.1965 24.752 12.1965 23.255C12.1965 21.758 12.5945 21.0948 13.3903 20.1853C12.2723 19.7684 11.3817 19.162 10.7185 18.3472C10.0553 17.5134 9.73315 16.5281 9.73315 15.3722C9.73315 14.2163 10.1879 13.193 11.1164 12.2456C12.0639 11.2981 13.3524 10.8244 14.9821 10.8244C16.6117 10.8244 17.0854 11.0897 17.7297 11.6202C18.3929 12.1508 18.7151 12.7951 18.7151 13.572C18.7151 15.1258 17.6918 16.2249 15.6642 16.8692C15.3421 16.6039 15.0958 16.2249 14.9442 15.7512C15.8537 15.1637 16.3085 14.5384 16.3085 13.8752C16.3085 13.212 16.1948 13.212 15.9864 12.9846C15.759 12.7382 15.4179 12.6245 14.9252 12.6245C14.4325 12.6245 13.9588 12.8898 13.504 13.4204C13.0493 13.951 12.8029 14.6332 12.8029 15.5048C12.8029 16.3765 13.0303 17.0397 13.504 17.6082C13.9967 18.1577 14.6031 18.5367 15.3232 18.7641C16.2896 18.2714 17.3886 17.9114 18.6014 17.684C19.4351 18.4798 19.9657 19.2947 20.1931 20.1474C18.8288 20.4127 17.6729 20.8295 16.7254 21.398C15.7969 21.9475 15.3421 22.5918 15.3421 23.3119C15.3421 24.032 15.5884 24.5815 16.0622 25.0173C16.5738 25.4531 17.2939 25.6805 18.2034 25.6805C19.113 25.6805 20.0794 25.4152 21.0079 24.8847C21.9364 24.3541 22.7133 23.6719 23.3576 22.8003V14.0268H21.0837C20.2878 13.0983 19.8899 12.1319 19.8899 11.0897H30.2362C30.9183 11.9613 31.2594 12.9467 31.2594 14.0268Z" fill="white"/>
<path d="M71.4506 7.64087V33.3928H66.5996V30.7589C65.8795 31.8958 65.0836 32.7106 64.1741 33.2223C63.2645 33.7339 62.1276 33.9992 60.7822 33.9992C58.5462 33.9992 56.6702 33.1086 55.1543 31.3084C53.6383 29.5082 52.8804 27.1775 52.8804 24.373C52.8804 21.5685 53.6194 18.5556 55.1164 16.6986C56.6134 14.8416 58.622 13.8941 61.1422 13.8941C63.6625 13.8941 63.3214 14.1594 64.212 14.671C65.1026 15.1637 65.8416 15.8648 66.3911 16.7744V7.67877H71.4506V7.64087ZM58.0156 23.9751C58.0156 25.7373 58.3567 27.1396 59.0578 28.1818C59.74 29.2429 60.8011 29.7735 62.2034 29.7735C63.6056 29.7735 64.6857 29.2429 65.4247 28.2007C66.1637 27.1585 66.5238 25.7942 66.5238 24.1267C66.5238 22.4591 65.9364 20.1284 64.7615 19.1241C64.0414 18.5177 63.2077 18.2145 62.2413 18.2145C60.7822 18.2145 59.7021 18.764 59.0199 19.882C58.3377 20.9811 57.9966 22.3454 57.9966 23.9751H58.0156ZM93.2232 22.1938V33.3928H88.1258V21.7959C88.1258 20.7727 87.9553 19.9389 87.5953 19.3136C87.1405 18.423 86.2688 17.9871 84.9992 17.9871C83.7296 17.9871 82.6874 18.423 81.9863 19.3136C81.3041 20.1852 80.9631 21.4359 80.9631 23.0655V33.3928H75.9984V7.69772H80.9631V16.8123C81.6831 15.7132 82.5169 14.9363 83.4643 14.5005C84.4118 14.0646 85.4161 13.8373 86.4773 13.8373C87.5384 13.8373 88.7133 14.0457 89.6797 14.4436C90.6461 14.8605 91.4419 15.4669 92.0673 16.3196C92.5978 17.0397 92.92 17.7597 93.0337 18.5177C93.1474 19.2567 93.2042 20.4884 93.2042 22.1938H93.2232ZM98.6237 16.3764C99.9501 14.69 102.205 13.8562 105.407 13.8562C108.61 13.8562 109.349 14.2731 110.979 15.1068C112.608 15.9406 113.404 17.4944 113.404 19.7873V28.5418C113.404 29.1482 113.404 29.8872 113.442 30.7399C113.48 31.3842 113.575 31.839 113.745 32.0664C113.916 32.2938 114.162 32.4832 114.484 32.6348V33.3739H109.065C108.913 32.9949 108.799 32.6348 108.743 32.2938C108.686 31.9527 108.629 31.5737 108.61 31.1379C107.928 31.8769 107.132 32.5211 106.222 33.0517C105.142 33.677 103.929 33.9802 102.584 33.9802C101.239 33.9802 99.4385 33.4876 98.3016 32.5022C97.1836 31.5168 96.6151 30.1146 96.6151 28.2955C96.6151 26.4764 97.5246 24.2593 99.3248 23.1981C100.31 22.6297 101.769 22.2128 103.702 21.9664L105.407 21.758C106.336 21.6443 106.98 21.4927 107.378 21.3222C108.098 21.019 108.439 20.5453 108.439 19.901C108.439 19.2567 108.174 18.5745 107.625 18.2903C107.094 17.9871 106.298 17.8355 105.237 17.8355C104.176 17.8355 103.228 18.1198 102.736 18.7072C102.395 19.143 102.148 19.7304 102.035 20.4505H97.2215C97.3351 18.783 97.7899 17.4186 98.6237 16.3385V16.3764ZM102.319 29.7735C102.793 30.1525 103.361 30.342 104.024 30.342C105.104 30.342 106.09 30.0199 106.98 29.3945C107.89 28.7692 108.364 27.6133 108.401 25.9458V24.0888C108.079 24.2783 107.757 24.4488 107.435 24.5814C107.113 24.6951 106.677 24.8088 106.128 24.9225L105.01 25.131C103.967 25.3205 103.209 25.5478 102.755 25.8131C101.978 26.2679 101.599 26.969 101.599 27.9354C101.599 28.9018 101.845 29.3945 102.319 29.7735ZM126.82 18.0061C125.134 18.0061 123.978 18.7261 123.333 20.1663C123.011 20.9242 122.841 21.8907 122.841 23.0655V33.3928H117.876V14.3678H122.689V17.1534C123.333 16.168 123.94 15.4669 124.508 15.031C125.532 14.2541 126.839 13.8751 128.412 13.8751C129.985 13.8751 131.993 14.3868 133.244 15.429C134.494 16.4522 135.139 18.1577 135.139 20.5453V33.3928H130.022V21.7959C130.022 20.7916 129.89 20.0147 129.625 19.4841C129.132 18.4987 128.203 18.0061 126.82 18.0061Z" fill="#444645"/>
</svg>
