<svg width="46" height="47" viewBox="0 0 46 47" fill="none" xmlns="http://www.w3.org/2000/svg">
<rect x="0.5" y="0.587891" width="45" height="45" rx="22.5" stroke="white" stroke-opacity="0.1"/>
<g clip-path="url(#clip0_1743_3239)">
<path d="M23 11.0879C19.7435 11.0879 19.334 11.1029 18.0545 11.1599C16.775 11.2199 15.9035 11.4209 15.14 11.7179C14.3388 12.0184 13.6132 12.491 13.0145 13.1024C12.4031 13.7011 11.9305 14.4267 11.63 15.2279C11.333 15.9899 11.1305 16.8629 11.072 18.1379C11.015 19.4204 11 19.8284 11 23.0894C11 26.3474 11.015 26.7554 11.072 28.0349C11.132 29.3129 11.333 30.1844 11.63 30.9479C11.9375 31.7369 12.347 32.4059 13.0145 33.0734C13.6805 33.7409 14.3495 34.1519 15.1385 34.4579C15.9035 34.7549 16.7735 34.9574 18.0515 35.0159C19.3325 35.0729 19.7405 35.0879 23 35.0879C26.2595 35.0879 26.666 35.0729 27.947 35.0159C29.2235 34.9559 30.098 34.7549 30.8615 34.4579C31.6622 34.1572 32.3872 33.6846 32.9855 33.0734C33.653 32.4059 34.0625 31.7369 34.37 30.9479C34.6655 30.1844 34.868 29.3129 34.928 28.0349C34.985 26.7554 35 26.3474 35 23.0879C35 19.8284 34.985 19.4204 34.928 18.1394C34.868 16.8629 34.6655 15.9899 34.37 15.2279C34.0695 14.4267 33.5969 13.7011 32.9855 13.1024C32.3868 12.491 31.6612 12.0184 30.86 11.7179C30.095 11.4209 29.222 11.2184 27.9455 11.1599C26.6645 11.1029 26.258 11.0879 22.997 11.0879H23ZM21.9245 13.2509H23.0015C26.2055 13.2509 26.585 13.2614 27.8495 13.3199C29.0195 13.3724 29.6555 13.5689 30.0785 13.7324C30.638 13.9499 31.0385 14.2109 31.4585 14.6309C31.8785 15.0509 32.138 15.4499 32.3555 16.0109C32.5205 16.4324 32.7155 17.0684 32.768 18.2384C32.8265 19.5029 32.8385 19.8824 32.8385 23.0849C32.8385 26.2874 32.8265 26.6684 32.768 27.9329C32.7155 29.1029 32.519 29.7374 32.3555 30.1604C32.1617 30.6807 31.8549 31.1516 31.457 31.5389C31.037 31.9589 30.638 32.2184 30.077 32.4359C29.657 32.6009 29.021 32.7959 27.8495 32.8499C26.585 32.9069 26.2055 32.9204 23.0015 32.9204C19.7975 32.9204 19.4165 32.9069 18.152 32.8499C16.982 32.7959 16.3475 32.6009 15.9245 32.4359C15.4037 32.2428 14.9324 31.9364 14.5445 31.5389C14.1459 31.1513 13.8385 30.6799 13.6445 30.1589C13.481 29.7374 13.2845 29.1014 13.232 27.9314C13.175 26.6669 13.163 26.2874 13.163 23.0819C13.163 19.8764 13.175 19.4999 13.232 18.2354C13.286 17.0654 13.481 16.4294 13.646 16.0064C13.8635 15.4469 14.1245 15.0464 14.5445 14.6264C14.9645 14.2064 15.3635 13.9469 15.9245 13.7294C16.3475 13.5644 16.982 13.3694 18.152 13.3154C19.259 13.2644 19.688 13.2494 21.9245 13.2479V13.2509ZM29.4065 15.2429C29.2174 15.2429 29.0301 15.2801 28.8554 15.3525C28.6807 15.4249 28.522 15.5309 28.3883 15.6647C28.2545 15.7984 28.1485 15.9571 28.0761 16.1318C28.0037 16.3065 27.9665 16.4938 27.9665 16.6829C27.9665 16.872 28.0037 17.0592 28.0761 17.234C28.1485 17.4087 28.2545 17.5674 28.3883 17.7011C28.522 17.8348 28.6807 17.9409 28.8554 18.0133C29.0301 18.0856 29.2174 18.1229 29.4065 18.1229C29.7884 18.1229 30.1547 17.9712 30.4247 17.7011C30.6948 17.4311 30.8465 17.0648 30.8465 16.6829C30.8465 16.301 30.6948 15.9347 30.4247 15.6647C30.1547 15.3946 29.7884 15.2429 29.4065 15.2429ZM23.0015 16.9259C22.1841 16.9131 21.3723 17.0631 20.6135 17.3671C19.8546 17.6711 19.1638 18.123 18.5812 18.6965C17.9987 19.2701 17.536 19.9537 17.2203 20.7078C16.9045 21.4618 16.7419 22.2711 16.7419 23.0886C16.7419 23.9061 16.9045 24.7155 17.2203 25.4695C17.536 26.2235 17.9987 26.9072 18.5812 27.4808C19.1638 28.0543 19.8546 28.5062 20.6135 28.8102C21.3723 29.1142 22.1841 29.2641 23.0015 29.2514C24.6193 29.2262 26.1623 28.5658 27.2975 27.4128C28.4326 26.2598 29.0689 24.7066 29.0689 23.0886C29.0689 21.4706 28.4326 19.9175 27.2975 18.7645C26.1623 17.6115 24.6193 16.9511 23.0015 16.9259ZM23.0015 19.0874C23.5269 19.0874 24.0471 19.1909 24.5324 19.3919C25.0178 19.593 25.4588 19.8876 25.8303 20.2591C26.2018 20.6306 26.4964 21.0716 26.6975 21.557C26.8985 22.0423 27.002 22.5625 27.002 23.0879C27.002 23.6132 26.8985 24.1335 26.6975 24.6188C26.4964 25.1042 26.2018 25.5452 25.8303 25.9167C25.4588 26.2882 25.0178 26.5828 24.5324 26.7839C24.0471 26.9849 23.5269 27.0884 23.0015 27.0884C21.9405 27.0884 20.923 26.6669 20.1727 25.9167C19.4225 25.1664 19.001 24.1489 19.001 23.0879C19.001 22.0269 19.4225 21.0093 20.1727 20.2591C20.923 19.5089 21.9405 19.0874 23.0015 19.0874Z" fill="white" fill-opacity="0.7"/>
</g>
<defs>
<clipPath id="clip0_1743_3239">
<rect width="24" height="24" fill="white" transform="translate(11 11.0879)"/>
</clipPath>
</defs>
</svg>
