<svg width="32" height="33" viewBox="0 0 32 33" fill="none" xmlns="http://www.w3.org/2000/svg">
<g clip-path="url(#clip0_800_11427)">
<g clip-path="url(#clip1_800_11427)">
<g clip-path="url(#clip2_800_11427)">
<mask id="mask0_800_11427" style="mask-type:luminance" maskUnits="userSpaceOnUse" x="0" y="0" width="32" height="32">
<path d="M31.287 0.752441H0.373535V31.6659H31.287V0.752441Z" fill="white"/>
</mask>
<g mask="url(#mask0_800_11427)">
<path fill-rule="evenodd" clip-rule="evenodd" d="M29.9961 3.71753H1.65869V20.4624C1.65869 22.4449 2.77843 24.1658 4.41996 25.0273L14.7875 31.5753C15.159 31.8099 15.6304 31.8177 16.0094 31.5955L27.0856 25.1025C28.808 24.2689 29.9961 22.5043 29.9961 20.4624V3.71753Z" fill="#FF9900"/>
<path d="M29.9989 1.13965H1.6616C0.950225 1.13965 0.373535 1.71634 0.373535 2.42771C0.373535 3.13909 0.950225 3.71576 1.6616 3.71576H29.9989C30.7103 3.71576 31.287 3.13909 31.287 2.42771C31.287 1.71634 30.7103 1.13965 29.9989 1.13965Z" fill="#666666"/>
<path d="M8.15059 9.80335H6.45361V19.171H8.15059V9.80335ZM9.98826 19.171H11.6852V16.0058H13.4782C15.6417 16.0058 16.8037 14.7068 16.8037 12.9046C16.8037 11.1161 15.6555 9.80335 13.501 9.80335H9.98826V19.171ZM11.6852 14.6107V11.2213H13.2403C14.5118 11.2213 15.0745 11.9075 15.0745 12.9046C15.0745 13.9017 14.5118 14.6107 13.2494 14.6107H11.6852ZM26.6482 14.4872C26.6482 11.4591 24.8001 9.67529 22.344 9.67529C19.8831 9.67529 18.0398 11.4591 18.0398 14.4872C18.0398 17.5107 19.8831 19.299 22.344 19.299C24.8001 19.299 26.6482 17.5153 26.6482 14.4872ZM24.9419 14.4872C24.9419 16.6188 23.8718 17.776 22.344 17.776C20.8208 17.776 19.7458 16.6188 19.7458 14.4872C19.7458 12.3557 20.8208 11.1984 22.344 11.1984C23.8718 11.1984 24.9419 12.3557 24.9419 14.4872Z" fill="black"/>
<path opacity="0.6" d="M25.4908 21.748H7.45798C7.1023 21.748 6.81396 22.0364 6.81396 22.392C6.81396 22.7478 7.1023 23.0361 7.45798 23.0361H25.4908C25.8465 23.0361 26.1349 22.7478 26.1349 22.392C26.1349 22.0364 25.8465 21.748 25.4908 21.748Z" fill="black"/>
</g>
</g>
</g>
</g>
<defs>
<clipPath id="clip0_800_11427">
<rect width="31.34" height="31.34" fill="white" transform="translate(0.373535 0.752441)"/>
</clipPath>
<clipPath id="clip1_800_11427">
<rect width="31.34" height="31.34" fill="white" transform="translate(0.373535 0.752441)"/>
</clipPath>
<clipPath id="clip2_800_11427">
<rect width="31.34" height="31.34" fill="white" transform="translate(0.373535 0.752441)"/>
</clipPath>
</defs>
</svg>
