<svg width="158" height="34" viewBox="0 0 158 34" fill="none" xmlns="http://www.w3.org/2000/svg">
<g clip-path="url(#clip0_229_743)">
<path d="M16.0658 1.38143H6.79745V2.13183H9.80227V17.4114C9.80227 22.0456 8.55053 23.2974 5.67105 23.2974C3.91796 23.2974 3.54196 21.9203 3.54196 21.2936C3.54196 19.6659 3.41663 18.5394 1.91261 18.5394C0.410196 18.5394 0.161133 20.0419 0.161133 20.5432C0.161133 22.6723 1.1622 24.3 5.29504 24.3C10.3052 24.3 12.934 22.6723 12.934 17.037V2.13022H15.9405V1.38143H16.0658ZM17.3192 20.7923C16.8178 20.7923 16.3165 20.9208 16.0658 21.2936C15.6898 21.6696 15.5645 22.0456 15.5645 22.547C15.5645 23.0451 15.6898 23.4227 16.0658 23.8003C16.4418 24.1747 16.8178 24.2984 17.3192 24.2984C17.8189 24.2984 18.1949 24.1731 18.5709 23.8003C18.9469 23.4243 19.0722 23.0451 19.0722 22.547C19.0722 22.0456 18.9469 21.6696 18.5709 21.2936C18.1949 20.9176 17.8189 20.7923 17.3175 20.7923H17.3192ZM37.858 20.7923C37.3567 20.7923 36.9807 20.9208 36.6047 21.2936C36.2303 21.6696 36.1049 22.0456 36.1049 22.547C36.1049 23.0451 36.2303 23.4227 36.6047 23.8003C36.9807 24.1747 37.3567 24.2984 37.858 24.2984C38.3593 24.2984 38.8591 24.1731 39.1113 23.8003C39.4857 23.4227 39.6111 23.0451 39.6111 22.547C39.6111 22.0456 39.4857 21.6696 39.1097 21.2936C38.7337 20.9176 38.3593 20.7923 37.8564 20.7923H37.858ZM31.3438 1.38143H22.3261V2.13183H24.9565V19.6675C24.9565 21.0445 24.8312 21.4189 24.7059 21.7949C24.5805 22.2979 24.2045 22.5486 23.5779 22.7992C23.2035 22.9246 22.5768 23.0483 21.6994 23.0483V23.8003H31.4691V23.0483C30.5918 23.0483 29.9667 22.9246 29.5891 22.7992C28.964 22.5486 28.588 22.1726 28.4643 21.7965C28.2971 21.3567 28.2116 20.89 28.212 20.4195V14.405H30.5918C37.6057 14.405 39.6095 11.6509 39.6095 7.89241C39.6095 4.01025 38.4831 1.38143 31.3438 1.38143ZM30.0905 13.5293H28.212V2.25717H29.8414C35.226 2.25717 36.4777 4.51159 36.4777 8.01775C36.4777 11.6492 34.3502 13.5293 30.0905 13.5293ZM68.5409 21.6696C68.3757 21.1859 68.2911 20.6783 68.2903 20.1672V2.13183H70.6684V1.38143H64.911C64.7857 1.6321 58.0241 18.4141 58.0241 18.4141L57.8987 18.5411C57.7734 18.5411 57.7734 18.5411 57.7734 18.4157C57.7734 18.4157 50.5104 1.50676 50.5104 1.38143H44.1183V2.13344H46.8741V21.1699C46.8741 21.5475 46.7487 21.9235 46.4981 22.2979C46.2474 22.6739 45.8714 22.9246 45.4954 23.0483C45.2447 23.1768 44.745 23.1768 44.242 23.1768V23.9256H50.5056V23.1736C50.0042 23.1736 49.7536 23.0483 49.3792 23.0483C48.8778 22.923 48.6272 22.6723 48.3765 22.2963C48.1258 22.0456 48.0005 21.6696 48.0005 21.1699L47.8751 19.5405V4.50998H48.2512C48.2512 4.50998 56.3915 23.5464 56.5168 23.7971H57.1435L64.9078 4.63692H65.1585V20.1672C65.1585 20.7939 65.0332 21.2936 64.9078 21.7949C64.7825 22.2963 64.4081 22.547 63.9068 22.7976C63.3821 22.9716 62.8317 23.0558 62.279 23.0467V23.7987H71.046V23.0467C70.4928 23.0559 69.9419 22.9717 69.4167 22.7976C69.0423 22.547 68.6663 22.1709 68.5409 21.6696ZM80.4381 7.39268C75.6786 7.39268 72.7991 10.5228 72.7991 15.909C72.7991 23.924 79.061 24.4254 80.3128 24.4254C82.9432 24.4254 87.9534 22.7976 87.9534 15.7853C87.9534 10.2738 84.6963 7.39268 80.4381 7.39268ZM80.3128 23.4227C76.8066 23.4227 76.1799 21.6712 76.1799 16.0344C76.1799 11.6509 76.4306 8.39375 80.3128 8.39375C84.4456 8.39375 84.4456 11.7746 84.4456 15.7821C84.4456 21.4189 83.4445 23.4227 80.3128 23.4227ZM100.228 7.64335C97.4708 7.64335 96.4713 9.2711 95.7177 11.0242H95.467C95.467 11.0242 95.0926 8.51909 94.9673 7.89241H89.4558V8.76976H92.4606V19.7912C92.4606 20.9176 92.3369 21.6712 92.0878 22.1693C91.8355 22.6723 91.0835 23.0467 89.9571 23.0467H89.4558V24.0494H98.7241V23.0467H98.2228C96.9695 23.0467 96.4713 22.7976 96.2174 22.2963C95.9684 21.7949 95.843 21.0429 95.843 19.9165V13.9053C95.843 12.0253 97.3455 9.77244 99.1001 9.77244C100.979 9.77244 100.852 12.5266 102.982 11.4002C103.985 10.7735 103.734 7.64335 100.228 7.64335ZM136.672 22.1693C135.669 22.1693 135.42 21.6712 135.295 20.6685V11.9015C135.295 10.3975 135.042 9.52177 134.168 8.64282C133.291 7.76708 131.661 7.38947 129.283 7.38947C127.029 7.38947 125.401 7.76708 124.273 8.64282C123.272 9.39643 122.772 10.1468 122.772 11.2748C122.772 11.773 122.898 12.1506 123.147 12.2759C123.397 12.5266 123.773 12.6519 124.148 12.6519C125.024 12.6519 125.527 12.1538 125.776 11.0242C125.904 10.1468 126.152 9.6471 126.529 9.14416C127.027 8.64603 127.783 8.39375 128.657 8.39375C129.785 8.39375 130.66 8.64282 131.036 9.26949C131.412 9.89616 131.663 10.6482 131.663 11.6476V14.2797C128.78 14.5303 121.768 15.1554 122.144 20.4163C122.269 22.42 124.024 24.2984 126.402 24.2984C129.033 24.2984 130.659 22.7976 131.785 21.668C131.912 22.796 133.039 24.1747 134.919 24.1747C137.046 24.1747 138.299 23.172 138.426 20.5416H137.925C137.925 21.5443 137.298 22.1709 136.672 22.1709V22.1693ZM131.914 20.4179V20.5432L131.788 20.6685C130.286 22.0472 129.034 22.5486 128.157 22.5486C125.903 22.5486 125.527 20.6685 125.527 19.7928C125.527 16.788 129.659 15.284 131.914 15.284V20.4179ZM155.459 22.0456C155.208 21.5459 154.832 20.7923 154.832 19.6675V12.4013C154.832 11.4002 154.707 10.3975 154.331 9.77244C153.955 9.02043 153.33 8.51909 152.703 8.14308C151.951 7.76708 151.201 7.64335 150.325 7.64335C147.068 7.64335 145.815 9.6471 145.064 10.7735H144.814L144.187 7.89241H139.177V8.76976H141.683V19.7912C141.683 20.6685 141.557 21.2936 141.431 21.6712C141.304 22.1693 140.933 22.547 140.555 22.6723C140.305 22.7976 139.803 22.923 139.177 22.923V23.924H147.066V22.923C146.314 22.7976 145.688 22.6723 145.439 22.2963C145.188 21.9203 144.939 21.1683 144.939 20.0419V15.7837C144.939 14.0322 144.939 12.2759 145.566 11.2748C146.191 10.1468 147.442 9.52177 148.696 9.52177C149.949 9.52177 150.574 9.89777 150.952 10.6482C151.326 11.2748 151.45 13.1533 151.45 14.405V19.6659C151.45 20.5416 151.578 21.1683 151.45 21.5459C151.326 22.044 151.201 22.4216 150.823 22.6707C150.574 22.923 150.071 22.923 149.572 23.0467V24.0494H157.214V23.0467C156.335 22.6723 155.71 22.42 155.459 22.0456ZM119.641 6.64067C119.139 6.76601 118.889 7.26735 118.638 7.89402C118.513 8.5207 118.262 8.89509 117.886 9.01882C117.51 9.14576 117.136 9.14576 116.76 8.89509C115.884 8.14308 114.38 7.26735 111.624 7.26735C107.115 7.26735 105.237 10.3975 105.237 13.277C105.237 16.6594 106.49 18.2888 109.368 18.9138C109.495 18.9138 109.495 19.1645 109.368 19.1645C106.99 19.6659 104.735 20.4179 104.735 22.6723C104.735 24.051 105.487 24.8014 106.615 25.3027C107.74 25.8024 109.368 26.0547 111.373 26.0547C113.125 26.0547 114.378 26.1801 115.13 26.1801C115.885 26.2774 116.611 26.5337 117.259 26.9321C117.761 27.3081 118.011 27.9347 118.011 28.6835C118.011 29.8116 117.385 30.5636 116.258 31.3156C115.133 31.9422 113.751 32.1929 111.875 32.1929C110.372 32.1929 108.995 32.066 107.867 31.3156C106.991 30.8142 106.864 29.8132 106.991 29.0612C107.118 28.3091 106.864 27.5587 105.989 27.3081C105.722 27.2493 105.444 27.2787 105.196 27.3917C104.947 27.5047 104.742 27.6953 104.612 27.9347C104.359 28.3075 104.234 28.8089 104.234 29.4356C104.234 31.314 105.738 32.1897 106.864 32.5657C108.618 33.0654 109.747 33.1924 111.248 33.1924C113.379 33.1924 115.005 32.8164 116.258 32.315C117.512 31.6884 118.264 30.938 118.763 30.0606C119.263 29.1849 119.515 28.3075 119.515 27.4302C119.515 26.3038 119.263 25.3011 118.763 24.676C117.136 22.547 114.879 22.796 109.871 22.547C107.491 22.547 106.99 22.0456 106.99 21.2936C106.99 20.1672 107.867 19.7912 111.373 19.1645C114.879 18.6632 118.135 17.2861 118.135 13.1533C118.135 11.8999 117.886 10.8988 117.508 10.1484C118.262 10.2722 118.889 10.2722 119.514 10.1484C120.267 9.89777 120.64 9.52177 120.892 9.14576C121.143 8.64442 121.267 8.14308 121.018 7.76708C121.143 6.76601 120.516 6.39 119.641 6.64067ZM111.751 18.4141C109.623 18.4141 108.494 17.6605 108.494 13.4039C108.494 10.3991 109.497 8.14308 111.751 8.14308C114.381 8.14308 115.132 10.1468 115.132 13.2786C115.132 17.7874 113.755 18.4141 111.751 18.4141Z" fill="#2E2E2E"/>
</g>
<defs>
<clipPath id="clip0_229_743">
<rect width="157.472" height="33.744" fill="white" transform="translate(0.138672 0.127991)"/>
</clipPath>
</defs>
</svg>
