<svg width="49" height="49" viewBox="0 0 49 49" fill="none" xmlns="http://www.w3.org/2000/svg">
<path d="M17.5857 4.60958C17.6651 4.33971 17.8297 4.1028 18.0549 3.93432C18.2802 3.76585 18.554 3.67488 18.8352 3.67505H29.2479C29.454 3.67521 29.6571 3.72432 29.8406 3.81834C30.024 3.91236 30.1825 4.0486 30.303 4.21585C30.4234 4.3831 30.5025 4.57658 30.5336 4.78035C30.5646 4.98412 30.5469 5.19236 30.4817 5.38792L25.8481 19.294H35.7557C35.9995 19.2938 36.2384 19.3621 36.4452 19.491C36.6521 19.62 36.8185 19.8044 36.9257 20.0233C37.0328 20.2423 37.0764 20.4869 37.0513 20.7293C37.0263 20.9718 36.9336 21.2023 36.784 21.3947L18.5619 44.8231C18.3752 45.0642 18.1098 45.2322 17.8119 45.2976C17.5141 45.3631 17.2027 45.3219 16.9321 45.1811C16.6616 45.0404 16.449 44.8092 16.3315 44.5278C16.214 44.2463 16.1991 43.9326 16.2894 43.6412L20.9776 28.405H12.3274C12.125 28.4051 11.9254 28.358 11.7444 28.2675C11.5634 28.177 11.406 28.0456 11.2848 27.8836C11.1635 27.7216 11.0816 27.5336 11.0457 27.3344C11.0098 27.1353 11.0208 26.9305 11.0778 26.7364L17.5857 4.60958Z" fill="white"/>
</svg>
