<svg width="46" height="47" viewBox="0 0 46 47" fill="none" xmlns="http://www.w3.org/2000/svg">
<rect x="0.5" y="0.587891" width="45" height="45" rx="22.5" stroke="white" stroke-opacity="0.1"/>
<path d="M18.7006 32.0874H14.3469V18.0671H18.7006V32.0874ZM16.5214 16.1546C15.1292 16.1546 14 15.0015 14 13.6093C14 12.9406 14.2656 12.2992 14.7385 11.8264C15.2114 11.3535 15.8527 11.0879 16.5214 11.0879C17.1901 11.0879 17.8315 11.3535 18.3043 11.8264C18.7772 12.2992 19.0428 12.9406 19.0428 13.6093C19.0428 15.0015 17.9131 16.1546 16.5214 16.1546ZM34.9953 32.0874H30.6509V25.2624C30.6509 23.6359 30.6181 21.5499 28.3873 21.5499C26.1237 21.5499 25.7769 23.3171 25.7769 25.1452V32.0874H21.4278V18.0671H25.6034V19.9796H25.6644C26.2456 18.878 27.6655 17.7155 29.7838 17.7155C34.19 17.7155 35 20.6171 35 24.3859V32.0874H34.9953Z" fill="white" fill-opacity="0.7"/>
</svg>
