<svg width="52" height="52" viewBox="0 0 52 52" fill="none" xmlns="http://www.w3.org/2000/svg">
<rect y="0.0649414" width="51.8699" height="51.8699" rx="10" fill="url(#paint0_linear_560_1419)" fill-opacity="0.2"/>
<path fill-rule="evenodd" clip-rule="evenodd" d="M34.3316 11.4703C34.6317 11.7705 34.8003 12.1776 34.8003 12.6021C34.8003 13.0266 34.6317 13.4337 34.3316 13.7339L29.5291 18.5364H37.6133C38.4624 18.5364 39.2768 18.8737 39.8772 19.4741C40.4776 20.0745 40.8149 20.8889 40.8149 21.738V37.7463C40.8149 38.5955 40.4776 39.4098 39.8772 40.0102C39.2768 40.6107 38.4624 40.948 37.6133 40.948H15.2017C14.3525 40.948 13.5382 40.6107 12.9377 40.0102C12.3373 39.4098 12 38.5955 12 37.7463V21.738C12 20.8889 12.3373 20.0745 12.9377 19.4741C13.5382 18.8737 14.3525 18.5364 15.2017 18.5364H21.0223L18.4834 15.9974C18.1832 15.6971 18.0146 15.2897 18.0148 14.8651C18.0149 14.4404 18.1838 14.0332 18.4842 13.7331C18.7845 13.4329 19.1919 13.2644 19.6165 13.2645C20.0412 13.2647 20.4484 13.4335 20.7485 13.7339L24.709 17.6959C24.8591 17.846 25.0626 17.9303 25.2749 17.9303C25.4871 17.9303 25.6907 17.846 25.8408 17.6959L32.068 11.4687C32.3682 11.1686 32.7753 11 33.1998 11C33.6243 11 34.0314 11.1702 34.3316 11.4703ZM37.6133 21.738H15.2017V37.7463H37.6133V21.738ZM21.573 25.8153C21.6067 25.5075 21.7124 25.2119 21.8815 24.9526C22.0507 24.6932 22.2785 24.4773 22.5467 24.3223C22.8148 24.1674 23.1156 24.0778 23.4248 24.0607C23.734 24.0436 24.0429 24.0996 24.3264 24.2241C25.5331 24.7569 26.7089 25.3571 27.8482 26.0218C28.995 26.6772 30.104 27.3966 31.1699 28.1766C32.2393 28.9674 32.2425 30.5602 31.1699 31.3526C30.1039 32.1315 28.9949 32.8498 27.8482 33.5041C26.2522 34.4262 24.9907 35.0137 24.3264 35.3035C24.043 35.4287 23.7341 35.4852 23.4248 35.4686C23.1155 35.4519 22.8144 35.3625 22.5461 35.2077C22.2778 35.0528 22.0499 34.8368 21.8808 34.5772C21.7117 34.3176 21.6062 34.0218 21.573 33.7138C21.434 32.402 21.3656 31.0837 21.3681 29.7646C21.3681 27.9396 21.4929 26.5405 21.573 25.8153ZM24.6177 27.906C24.5553 29.1432 24.5553 30.3828 24.6177 31.62C25.7198 31.0554 26.7926 30.4356 27.8322 29.763C26.7926 29.0903 25.7198 28.4706 24.6177 27.906Z" fill="white"/>
<defs>
<linearGradient id="paint0_linear_560_1419" x1="3.51782" y1="6.54868" x2="60.376" y2="58.6412" gradientUnits="userSpaceOnUse">
<stop stop-color="#3FEFFF"/>
<stop offset="1" stop-color="#184ABE"/>
</linearGradient>
</defs>
</svg>
