<svg width="25" height="24" viewBox="0 0 25 24" fill="none" xmlns="http://www.w3.org/2000/svg">
<path fill-rule="evenodd" clip-rule="evenodd" d="M10.6095 2.40572C10.1185 2.47711 9.64647 2.64493 9.22061 2.89951C8.79476 3.1541 8.42348 3.49042 8.12815 3.8891C7.83283 4.28779 7.61929 4.74096 7.49985 5.22252C7.3804 5.70407 7.35741 6.20451 7.43219 6.69499L7.46745 6.93361C7.51447 7.23139 7.59244 7.52056 7.70137 7.8011L8.77692 10.554C11.3504 10.3792 13.9332 10.3945 16.5044 10.5999L18.2629 10.7409C18.8158 10.7849 19.338 11.013 19.7461 11.3887C20.1541 11.7643 20.4245 12.2659 20.5139 12.8133C20.9399 15.4094 20.9399 18.0575 20.5139 20.6536C20.4247 21.2012 20.1545 21.7031 19.7464 22.079C19.3383 22.4549 18.816 22.6831 18.2629 22.7272L16.5044 22.8682C13.7277 23.0899 10.9377 23.0899 8.16098 22.8682L6.40248 22.7272C5.84942 22.6831 5.32709 22.4549 4.91902 22.079C4.51095 21.7031 4.24069 21.2012 4.15146 20.6536C3.72555 18.0575 3.72555 15.4094 4.15146 12.8133C4.2405 12.2653 4.51083 11.763 4.91916 11.3869C5.32749 11.0107 5.85021 10.7825 6.40366 10.7386L6.94084 10.6963L6.05924 8.44173C5.90372 8.04133 5.79256 7.62507 5.72776 7.20044L5.69132 6.96065C5.48685 5.61667 5.78508 4.24448 6.52896 3.10661C7.27283 1.96875 8.41013 1.14509 9.72325 0.793241C11.0364 0.441386 12.4331 0.586034 13.6463 1.19951C14.8594 1.81299 15.8038 2.85221 16.2987 4.11837L16.3869 4.34523C16.5436 4.74646 16.6545 5.16062 16.7195 5.5877L16.8853 6.67853C16.897 6.75487 16.8935 6.83277 16.8751 6.90776C16.8566 6.98276 16.8236 7.05339 16.7779 7.11561C16.7321 7.17784 16.6746 7.23044 16.6085 7.27041C16.5424 7.31038 16.4691 7.33693 16.3928 7.34855L15.8121 7.43671C15.7357 7.4484 15.6579 7.44493 15.5829 7.4265C15.5079 7.40807 15.4372 7.37505 15.375 7.3293C15.3128 7.28356 15.2602 7.22601 15.2202 7.15993C15.1802 7.09385 15.1537 7.02054 15.1421 6.94419L14.9775 5.85336C14.9318 5.55657 14.8538 5.26567 14.7448 4.98586L14.6566 4.76017C14.3473 3.9685 13.779 3.30492 13.0442 2.87758C12.3095 2.45024 11.4517 2.28433 10.6106 2.40689M12.3339 14.9703C11.8663 14.9703 11.4178 15.156 11.0871 15.4867C10.7564 15.8174 10.5707 16.2658 10.5707 16.7335C10.5707 17.2011 10.7564 17.6496 11.0871 17.9802C11.4178 18.3109 11.8663 18.4967 12.3339 18.4967C12.8015 18.4967 13.25 18.3109 13.5806 17.9802C13.9113 17.6496 14.0971 17.2011 14.0971 16.7335C14.0971 16.2658 13.9113 15.8174 13.5806 15.4867C13.25 15.156 12.8015 14.9703 12.3339 14.9703Z" fill="white"/>
</svg>
