<svg width="89" height="87" viewBox="0 0 89 87" fill="none" xmlns="http://www.w3.org/2000/svg">
<rect x="0.0419922" width="88.5819" height="87" rx="43.5" fill="url(#paint0_linear_722_1109)"/>
<path d="M56.8772 36.1824H54.7865V32.0009C54.7865 26.2303 50.1031 21.547 44.3326 21.547C38.5621 21.547 33.8788 26.2303 33.8788 32.0009V36.1824H31.788C29.4881 36.1824 27.6064 38.0641 27.6064 40.3639V61.2717C27.6064 63.5715 29.4881 65.4532 31.788 65.4532H56.8772C59.1771 65.4532 61.0588 63.5715 61.0588 61.2717V40.3639C61.0588 38.0641 59.1771 36.1824 56.8772 36.1824ZM44.3326 54.9993C42.0328 54.9993 40.1511 53.1176 40.1511 50.8178C40.1511 48.5179 42.0328 46.6363 44.3326 46.6363C46.6325 46.6363 48.5142 48.5179 48.5142 50.8178C48.5142 53.1176 46.6325 54.9993 44.3326 54.9993ZM38.0603 36.1824V32.0009C38.0603 28.5302 40.8619 25.7285 44.3326 25.7285C47.8033 25.7285 50.6049 28.5302 50.6049 32.0009V36.1824H38.0603Z" fill="white"/>
<defs>
<linearGradient id="paint0_linear_722_1109" x1="9.53291" y1="4.66072" x2="73.7497" y2="85.8004" gradientUnits="userSpaceOnUse">
<stop stop-color="#3FADFF"/>
<stop offset="0.49489" stop-color="#336CDC"/>
<stop offset="1" stop-color="#47B4B4"/>
</linearGradient>
</defs>
</svg>
