<svg width="28" height="29" viewBox="0 0 28 29" fill="none" xmlns="http://www.w3.org/2000/svg">
<path fill-rule="evenodd" clip-rule="evenodd" d="M14.2343 2.48145C15.5356 2.48145 16.7593 2.83913 17.8124 3.4663C17.955 3.54287 18.0809 3.64827 18.1828 3.77615C18.2846 3.90402 18.3602 4.05174 18.4051 4.2104C18.4499 4.36907 18.463 4.5354 18.4436 4.6994C18.4242 4.8634 18.3727 5.02168 18.2922 5.16471C18.2117 5.30774 18.1038 5.43257 17.9752 5.53168C17.8465 5.6308 17.6996 5.70216 17.5433 5.74146C17.3871 5.78077 17.2247 5.78721 17.066 5.76039C16.9073 5.73358 16.7555 5.67407 16.6197 5.58544C15.8943 5.1553 15.0714 4.9289 14.2338 4.929C13.3961 4.9291 12.5733 5.1557 11.8479 5.58602C11.1226 6.01634 10.5204 6.6352 10.1018 7.38039C9.68326 8.12557 9.46311 8.97079 9.46351 9.83108L22.5832 9.8323C23.2159 9.8323 23.8226 10.0904 24.27 10.5499C24.7173 11.0093 24.9686 11.6324 24.9686 12.2822V24.5316C24.9686 25.1813 24.7173 25.8045 24.27 26.2639C23.8226 26.7233 23.2159 26.9814 22.5832 26.9814H5.8854C5.25276 26.9814 4.64602 26.7233 4.19867 26.2639C3.75132 25.8045 3.5 25.1813 3.5 24.5316V12.281C3.5 11.6312 3.75132 11.0081 4.19867 10.5486C4.64602 10.0892 5.25276 9.83108 5.8854 9.83108H7.07811C7.07811 7.88183 7.83206 6.01243 9.17411 4.6341C10.5162 3.25578 12.3364 2.48145 14.2343 2.48145ZM14.2343 14.7308C13.7092 14.7309 13.1988 14.9088 12.7822 15.2371C12.3657 15.5654 12.0662 16.0257 11.9303 16.5466C11.7944 17.0675 11.8296 17.6199 12.0306 18.1182C12.2315 18.6164 12.5869 19.0326 13.0416 19.3023V20.8555C13.0416 21.1804 13.1673 21.492 13.391 21.7217C13.6146 21.9514 13.918 22.0805 14.2343 22.0805C14.5506 22.0805 14.854 21.9514 15.0777 21.7217C15.3014 21.492 15.427 21.1804 15.427 20.8555V19.3023C15.8817 19.0326 16.2371 18.6164 16.4381 18.1182C16.639 17.6199 16.6742 17.0675 16.5383 16.5466C16.4024 16.0257 16.103 15.5654 15.6864 15.2371C15.2698 14.9088 14.7594 14.7309 14.2343 14.7308ZM23.6781 6.18199L24.8303 6.50047C25.1241 6.59492 25.3709 6.80236 25.5192 7.07941C25.6674 7.35646 25.7057 7.68166 25.6259 7.98699C25.5461 8.29233 25.3545 8.55416 25.091 8.71773C24.8276 8.88129 24.5128 8.93392 24.2125 8.8646L23.0615 8.54857C22.7572 8.46338 22.4982 8.25791 22.3411 7.97709C22.184 7.69628 22.1415 7.36298 22.223 7.0501C22.3046 6.73723 22.5034 6.47024 22.7761 6.30756C23.0488 6.14487 23.3731 6.09972 23.6781 6.18199ZM22.1455 2.59169C22.2968 2.63334 22.4387 2.70519 22.5629 2.80314C22.6872 2.90109 22.7915 3.02323 22.8698 3.16257C22.9481 3.30192 22.9989 3.45574 23.0193 3.61525C23.0397 3.77477 23.0293 3.93685 22.9888 4.09224L22.8349 4.68266C22.795 4.83871 22.7255 4.98513 22.6303 5.1135C22.5352 5.24188 22.4162 5.34969 22.2804 5.43073C22.1446 5.51177 21.9945 5.56445 21.8387 5.58575C21.683 5.60705 21.5247 5.59654 21.373 5.55484C21.2212 5.51313 21.079 5.44104 20.9544 5.34272C20.8299 5.24439 20.7255 5.12176 20.6472 4.98187C20.5689 4.84199 20.5183 4.6876 20.4983 4.52757C20.4783 4.36754 20.4893 4.20503 20.5306 4.04937L20.6856 3.45772C20.7676 3.14414 20.9673 2.87679 21.2411 2.7144C21.5148 2.55201 21.8401 2.50788 22.1455 2.59169Z" fill="white"/>
</svg>
