<svg width="200" height="51" viewBox="0 0 200 51" fill="none" xmlns="http://www.w3.org/2000/svg">
<g clip-path="url(#clip0_19_982)">
<path fill-rule="evenodd" clip-rule="evenodd" d="M15.2508 39.2161C24.0872 39.2161 28.2455 35.1131 28.2455 29.2793C28.2455 24.4851 25.5304 20.9019 16.0581 19.1711C7.91294 17.7832 6.18215 15.6487 6.18215 12.5853C6.18215 9.11821 9.06863 6.98376 13.6914 6.98376C19.6413 6.98376 21.9527 10.1025 23.1084 15.4718L27.2114 14.6644C25.8235 8.13946 22.3011 3.28442 13.8684 3.28442C6.29828 3.28995 1.96303 7.10541 1.96303 12.707C1.96303 17.6726 5.08175 21.2558 14.554 22.8705C21.5435 24.0262 24.0263 25.8178 24.0263 29.4563C24.0263 33.0948 21.1399 35.4615 15.4222 35.4615C8.78109 35.4615 5.02646 31.7677 4.04218 25.7569L0 26.5643C0.923452 33.8413 5.60154 39.1 15.2508 39.2161ZM132.452 39.5645C139.093 39.5645 143.08 36.2743 144.468 30.7834L140.885 29.7438C139.9 33.2109 137.766 35.9813 132.452 35.9813C126.673 35.9813 123.267 32.575 122.808 26.7412H144.523C144.578 25.6463 144.639 24.6068 144.639 23.91C144.639 16.4616 140.193 11.4351 132.336 11.4351C124.478 11.4351 118.821 16.7491 118.821 25.5855C118.821 34.4219 124.135 39.5645 132.452 39.5645ZM122.924 23.4511C123.56 17.8495 126.966 14.963 132.225 14.963C137.771 14.963 140.603 18.0818 140.89 23.4511H122.93H122.924ZM95.4916 3.17383H99.4785V23.5064H99.766L112.822 11.7227H117.848V11.8388L103.006 25.0657L118.948 38.4641V38.5802H113.806L99.7715 26.6804H99.484V38.5802H95.4971V3.17383H95.4916ZM78.1008 38.2374C75.9056 43.3191 73.8817 44.0711 70.7077 44.0711C69.552 44.0711 68.5124 43.8997 67.3014 43.6675L66.7263 47.4774C67.8212 47.6488 68.9769 47.8258 70.6524 47.8258C75.795 47.8258 79.0298 45.2268 81.7449 38.9286L93.4124 11.7227H89.138L85.4387 21.3111C84.0507 24.8335 81.9163 30.0314 80.2408 34.4219C78.3939 30.2028 76.0825 24.7174 74.6393 21.195L70.7132 11.7227H66.2674L78.1064 38.2318L78.1008 38.2374ZM54.069 11.7227H50.0821V38.5802H54.069V23.8492C54.069 18.2477 56.6126 16.0524 61.9819 16.0524H64.1772V11.7227H62.3303C57.8844 11.7227 55.1694 14.0341 54.1851 19.5195H54.069V11.7227ZM30.3302 15.2506H34.6599V30.7281C34.6599 35.7546 37.0874 39.2161 42.4567 39.2161C44.7073 39.2161 46.1505 38.8677 48.0029 38.348L47.4278 34.7094C45.8685 35.1739 44.7128 35.4007 43.1534 35.4007C39.9186 35.4007 38.6468 33.6699 38.6468 30.3742V15.2395H47.7154V11.7171H38.6468V4.04198H34.6599V11.7227H30.3302V15.2451V15.2506Z" fill="white"/>
<path fill-rule="evenodd" clip-rule="evenodd" d="M153.094 46.9025H160.15L165.049 37.0432L147.907 2.96942L146.414 0H149.732H161.543H162.787L163.363 1.12252L169.567 13.2491L165.696 21.173L165.005 13.3652L160.299 4.09747H153.05L167.322 32.4701L182.877 1.14464L183.441 0H184.707H196.303H199.576L198.139 2.94178L189.136 21.3445L186.836 16.7659L193.029 4.09747H185.973L181.212 13.6748L198.365 47.7596L199.858 50.729H196.54H184.724H183.479L182.91 49.6065L176.733 37.4468L180.571 29.5449L181.339 37.4966L185.968 46.6316H193.223L178.945 18.2534L163.246 49.8554L162.682 51H161.416H149.82H146.547L147.985 48.0582L156.987 29.6555L159.287 34.2341L153.094 46.9025Z" fill="#184ABE"/>
</g>
<defs>
<clipPath id="clip0_19_982">
<rect width="199.858" height="51" fill="white"/>
</clipPath>
</defs>
</svg>
