<svg width="91" height="23" viewBox="0 0 91 23" fill="none" xmlns="http://www.w3.org/2000/svg">
<g clip-path="url(#clip0_20_1579)">
<path fill-rule="evenodd" clip-rule="evenodd" d="M7.36772 17.6598C11.3469 17.6598 13.2195 15.8122 13.2195 13.1851C13.2195 11.0262 11.9968 9.41261 7.73127 8.6332C4.06335 8.00819 3.28394 7.04701 3.28394 5.66749C3.28394 4.10619 4.58378 3.14501 6.66551 3.14501C9.34486 3.14501 10.3857 4.54943 10.9062 6.96732L12.7538 6.60377C12.1288 3.66544 10.5426 1.47912 6.74519 1.47912C3.33623 1.48161 1.38399 3.19979 1.38399 5.72227C1.38399 7.95838 2.78841 9.57198 7.05397 10.2991C10.2015 10.8195 11.3195 11.6263 11.3195 13.2648C11.3195 14.9033 10.0197 15.9691 7.44491 15.9691C4.45429 15.9691 2.76351 14.3057 2.32027 11.5989L0.5 11.9625C0.915848 15.2395 3.02248 17.6076 7.36772 17.6598ZM60.1456 17.8167C63.1362 17.8167 64.9316 16.3351 65.5566 13.8624L63.943 13.3943C63.4997 14.9556 62.5386 16.2031 60.1456 16.2031C57.5434 16.2031 56.0095 14.6692 55.8028 12.0422H65.5815C65.6064 11.5491 65.6338 11.081 65.6338 10.7672C65.6338 7.41305 63.6317 5.14954 60.0933 5.14954C56.5548 5.14954 54.0075 7.54254 54.0075 11.5217C54.0075 15.5009 56.4004 17.8167 60.1456 17.8167ZM55.8551 10.5605C56.1415 8.03807 57.6754 6.73823 60.0435 6.73823C62.541 6.73823 63.816 8.14265 63.9455 10.5605H55.8576H55.8551ZM43.5017 1.42932H45.297V10.5854H45.4265L51.3057 5.27903H53.5692V5.33132L46.8857 11.2877L54.0647 17.3212V17.3735H51.7489L45.429 12.0148H45.2995V17.3735H43.5042V1.42932H43.5017ZM35.6703 17.2191C34.6817 19.5075 33.7703 19.8462 32.341 19.8462C31.8206 19.8462 31.3524 19.769 30.8071 19.6644L30.5481 21.3801C31.0412 21.4573 31.5616 21.5369 32.3161 21.5369C34.6319 21.5369 36.0886 20.3666 37.3113 17.5304L42.5654 5.27903H40.6405L38.9747 9.59688C38.3496 11.1831 37.3885 13.5238 36.634 15.5009C35.8023 13.601 34.7614 11.1308 34.1115 9.54459L32.3435 5.27903H30.3415L35.6728 17.2166L35.6703 17.2191ZM24.8483 5.27903H23.0529V17.3735H24.8483V10.7398C24.8483 8.21736 25.9937 7.22878 28.4116 7.22878H29.4002V5.27903H28.5685C26.5665 5.27903 25.3438 6.31989 24.9006 8.79008H24.8483V5.27903ZM14.1582 6.86772H16.108V13.8375C16.108 16.101 17.2012 17.6598 19.6191 17.6598C20.6325 17.6598 21.2824 17.503 22.1166 17.2689L21.8577 15.6304C21.1554 15.8396 20.635 15.9417 19.9328 15.9417C18.4761 15.9417 17.9034 15.1623 17.9034 13.6782V6.86274H21.9871V5.27654H17.9034V1.82027H16.108V5.27903H14.1582V6.86523V6.86772Z" fill="white"/>
<path fill-rule="evenodd" clip-rule="evenodd" d="M69.4409 21.1211H72.6183L74.8245 16.6812L67.1052 1.33719L66.4329 0H67.9269H73.2458H73.8061L74.065 0.505492L76.8589 5.9663L75.1159 9.53463L74.8046 6.01859L72.6855 1.84517H69.421L75.848 14.6219L82.8526 0.515452L83.1066 0H83.6769H88.8986H90.3728L89.7253 1.32474L85.6714 9.61182L84.6356 7.55001L87.4245 1.84517H84.2471L82.1031 6.15804L89.8274 21.5071L90.4998 22.8443H89.0057H83.6843H83.1241L82.8676 22.3388L80.0861 16.863L81.8143 13.3046L82.1604 16.8854L84.2446 20.9991H87.5116L81.0822 8.21985L74.0128 22.4508L73.7588 22.9663H73.1885H67.9668H66.4926L67.1401 21.6415L71.1939 13.3545L72.2298 15.4163L69.4409 21.1211Z" fill="white"/>
</g>
<defs>
<clipPath id="clip0_20_1579">
<rect width="90" height="22.9663" fill="white" transform="translate(0.5)"/>
</clipPath>
</defs>
</svg>
