<svg width="139" height="36" viewBox="0 0 139 36" fill="none" xmlns="http://www.w3.org/2000/svg">
<g clip-path="url(#clip0_51_8937)">
<path fill-rule="evenodd" clip-rule="evenodd" d="M10.5619 27.1592C16.6815 27.1592 19.5614 24.3177 19.5614 20.2775C19.5614 16.9573 17.6811 14.4757 11.121 13.2771C5.4801 12.3159 4.28144 10.8376 4.28144 8.71607C4.28144 6.31494 6.28047 4.83673 9.48198 4.83673C13.6026 4.83673 15.2033 6.9966 16.0037 10.7151L18.8452 10.156C17.884 5.63711 15.4446 2.27476 9.60453 2.27476C4.36187 2.27859 1.35949 4.92098 1.35949 8.80032C1.35949 12.2393 3.51936 14.7208 10.0794 15.839C14.92 16.6394 16.6394 17.8802 16.6394 20.4C16.6394 22.9199 14.6404 24.5589 10.6806 24.5589C6.08134 24.5589 3.48107 22.0008 2.79941 17.8381L0 18.3972C0.639536 23.4369 3.87934 27.0788 10.5619 27.1592ZM91.7294 27.4005C96.3287 27.4005 99.0898 25.1219 100.051 21.3191L97.5694 20.5992C96.8878 23.0003 95.4096 24.9189 91.7294 24.9189C87.7275 24.9189 85.3685 22.5599 85.0506 18.5197H100.089C100.128 17.7615 100.17 17.0415 100.17 16.559C100.17 11.4006 97.0907 7.91952 91.6489 7.91952C86.2071 7.91952 82.2895 11.5997 82.2895 17.7194C82.2895 23.839 85.9697 27.4005 91.7294 27.4005ZM85.131 16.2411C85.5714 12.3618 87.9304 10.3628 91.5723 10.3628C95.4134 10.3628 97.3741 12.5226 97.5733 16.2411H85.1349H85.131ZM66.1326 2.19817H68.8937V16.2794H69.0929L78.1344 8.11866H81.6155V8.19908L71.337 17.3594L82.3776 26.6384V26.7188H78.8161L69.0967 18.4776H68.8976V26.7188H66.1364V2.19817H66.1326ZM54.0887 26.4814C52.5683 30.0007 51.1667 30.5216 48.9685 30.5216C48.1682 30.5216 47.4482 30.4028 46.6095 30.242L46.2113 32.8806C46.9695 32.9993 47.7699 33.1218 48.9302 33.1218C52.4917 33.1218 54.732 31.3219 56.6123 26.9601L64.6927 8.11866H61.7324L59.1705 14.7591C58.2093 17.1985 56.731 20.7983 55.5707 23.839C54.2916 20.917 52.6909 17.1181 51.6913 14.6787L48.9724 8.11866H45.8934L54.0925 26.4776L54.0887 26.4814ZM37.4454 8.11866H34.6843V26.7188H37.4454V16.5169C37.4454 12.6375 39.207 11.1172 42.9255 11.1172H44.4458V8.11866H43.1668C40.0878 8.11866 38.2075 9.71941 37.5258 13.5183H37.4454V8.11866ZM21.0051 10.5619H24.0037V21.2808C24.0037 24.7619 25.6848 27.1592 29.4033 27.1592C30.962 27.1592 31.9615 26.918 33.2444 26.558L32.8461 24.0381C31.7662 24.3598 30.9658 24.5168 29.8859 24.5168C27.6456 24.5168 26.7648 23.3182 26.7648 21.0358V10.5543H33.0452V8.11483H26.7648V2.79941H24.0037V8.11866H21.0051V10.5581V10.5619Z" fill="white"/>
<path fill-rule="evenodd" clip-rule="evenodd" d="M106.025 32.4823H110.912L114.305 25.6542L102.433 2.05647L101.399 0H103.697H111.877H112.738L113.137 0.7774L117.433 9.17562L114.753 14.6634L114.274 9.25604L111.015 2.8377H105.995L115.879 22.4872L126.651 0.792718L127.042 0H127.919H135.949H138.216L137.221 2.03732L130.986 14.7821L129.393 11.6112L133.682 2.8377H128.796L125.498 9.47049L137.378 33.0759L138.412 35.1324H136.114H127.93H127.069L126.674 34.3549L122.396 25.9338L125.054 20.4613L125.587 25.9682L128.792 32.2947H133.816L123.928 12.6414L113.056 34.5273L112.666 35.32H111.789H103.758H101.491L102.487 33.2827L108.721 20.5379L110.314 23.7088L106.025 32.4823Z" fill="#184ABE"/>
</g>
<defs>
<clipPath id="clip0_51_8937">
<rect width="138.412" height="35.32" fill="white"/>
</clipPath>
</defs>
</svg>
