<svg width="32" height="33" viewBox="0 0 32 33" fill="none" xmlns="http://www.w3.org/2000/svg">
<g clip-path="url(#clip0_800_11403)">
<g clip-path="url(#clip1_800_11403)">
<g clip-path="url(#clip2_800_11403)">
<mask id="mask0_800_11403" style="mask-type:luminance" maskUnits="userSpaceOnUse" x="0" y="0" width="32" height="32">
<path d="M31.5623 0.752441H0.648926V31.6659H31.5623V0.752441Z" fill="white"/>
</mask>
<g mask="url(#mask0_800_11403)">
<mask id="mask1_800_11403" style="mask-type:luminance" maskUnits="userSpaceOnUse" x="0" y="1" width="31" height="31">
<path d="M30.7692 1.13965H0.648926V31.2599H30.7692V1.13965Z" fill="white"/>
</mask>
<g mask="url(#mask1_800_11403)">
<path d="M8.26423 7.92142V3.31535L6.3736 7.92142H5.30782L3.41719 3.35242V7.92142H2.19385V1.35059H3.88057L5.85461 6.09568L7.78231 1.35059H9.52467V7.92142H8.26423Z" fill="#1BA1EC"/>
<path d="M11.063 7.92142V1.35059H15.2149V2.56466H12.3419V4.18652H14.8999V5.36352H12.3512V7.92142H11.063Z" fill="#1BA1EC"/>
<path d="M16.5029 15.4246C16.5029 14.537 17.2225 13.8174 18.1101 13.8174H19.6516C20.5393 13.8174 21.2588 14.537 21.2588 15.4246V27.2923H16.5029V15.4246Z" fill="#1CCD8C"/>
<path d="M9.36963 19.3899C9.36963 18.5023 10.0892 17.7827 10.9768 17.7827H12.5183C13.406 17.7827 14.1255 18.5022 14.1255 19.3899V27.2944H9.36963V19.3899Z" fill="#FC9911"/>
<path d="M2.23438 22.5662C2.23438 21.6786 2.95393 20.959 3.84155 20.959H5.38303C6.27065 20.959 6.99021 21.6786 6.99021 22.5662V27.3001H2.23438V22.5662Z" fill="#F5C415"/>
<path d="M29.9765 27.2974H1.44156C1.0038 27.2974 0.648926 27.6522 0.648926 28.09V28.09C0.648926 28.5278 1.0038 28.8826 1.44156 28.8826H29.9765C30.4143 28.8826 30.7692 28.5278 30.7692 28.09C30.7692 27.6522 30.4143 27.2974 29.9765 27.2974Z" fill="#FFA462"/>
</g>
<mask id="mask2_800_11403" style="mask-type:luminance" maskUnits="userSpaceOnUse" x="21" y="5" width="11" height="23">
<path d="M31.5621 5.10522H21.2578V27.2992H31.5621V5.10522Z" fill="white"/>
</mask>
<g mask="url(#mask2_800_11403)">
<path d="M28.6351 27.3011V12.7196H30.6313C30.9705 12.7196 31.3098 12.5336 31.4597 12.2312C31.6096 11.8979 31.5859 11.5258 31.365 11.2545L27.1597 5.4715C26.8204 4.98313 26.0235 4.98313 25.6527 5.4715L21.4394 11.2545C21.2264 11.5258 21.1948 11.8979 21.3763 12.2003C21.5262 12.5025 21.834 12.6886 22.2048 12.6886H24.2089V27.2701" fill="#139AFA"/>
</g>
</g>
</g>
</g>
</g>
<defs>
<clipPath id="clip0_800_11403">
<rect width="31.34" height="31.34" fill="white" transform="translate(0.648926 0.752441)"/>
</clipPath>
<clipPath id="clip1_800_11403">
<rect width="31.34" height="31.34" fill="white" transform="translate(0.648926 0.752441)"/>
</clipPath>
<clipPath id="clip2_800_11403">
<rect width="31.34" height="31.34" fill="white" transform="translate(0.648926 0.752441)"/>
</clipPath>
</defs>
</svg>
