<svg width="152" height="40" viewBox="0 0 152 40" fill="none" xmlns="http://www.w3.org/2000/svg">
<g clip-path="url(#clip0_985_1997)">
<path fill-rule="evenodd" clip-rule="evenodd" d="M11.5988 30.4321C18.3192 30.4321 21.4818 27.3116 21.4818 22.8748C21.4818 19.2286 19.4169 16.5034 12.2128 15.1871C6.0181 14.1315 4.70177 12.5082 4.70177 10.1783C4.70177 7.54144 6.89705 5.91811 10.4129 5.91811C14.938 5.91811 16.6959 8.29002 17.5749 12.3736L20.6953 11.7596C19.6398 6.79706 16.9609 3.10462 10.5474 3.10462C4.79008 3.10882 1.49296 6.01063 1.49296 10.2708C1.49296 14.0474 3.86487 16.7725 11.0689 18.0006C16.3847 18.8795 18.273 20.2421 18.273 23.0093C18.273 25.7766 16.0777 27.5765 11.7292 27.5765C6.67836 27.5765 3.82282 24.7672 3.07423 20.1958L0 20.8098C0.702321 26.3443 4.26019 30.3438 11.5988 30.4321ZM100.735 30.697C105.786 30.697 108.818 28.1947 109.873 24.0187L107.148 23.228C106.4 25.8649 104.776 27.9718 100.735 27.9718C96.34 27.9718 93.7494 25.3812 93.4003 20.9444H109.915C109.957 20.1117 110.004 19.3211 110.004 18.7912C110.004 13.1264 106.622 9.30355 100.646 9.30355C94.6704 9.30355 90.3682 13.3451 90.3682 20.0655C90.3682 26.7859 94.4097 30.697 100.735 30.697ZM93.4886 18.4421C93.9723 14.1819 96.5629 11.9867 100.562 11.9867C104.78 11.9867 106.934 14.3586 107.152 18.4421H93.4929H93.4886ZM72.6251 3.02051H75.6572V18.4842H75.8759L85.8052 9.52224H89.628V9.61055L78.3404 19.6702L90.4649 29.8601V29.9484H86.5537L75.8801 20.8982H75.6615V29.9484H72.6293V3.02051H72.6251ZM59.3987 29.6877C57.7291 33.5526 56.1899 34.1245 53.7759 34.1245C52.897 34.1245 52.1064 33.9941 51.1853 33.8175L50.748 36.7151C51.5807 36.8455 52.4596 36.9801 53.7339 36.9801C57.645 36.9801 60.1053 35.0035 62.1702 30.2134L71.0438 9.52224H67.7929L64.9794 16.8146C63.9239 19.4935 62.3005 23.4467 61.0263 26.7859C59.6216 23.5771 57.8637 19.4052 56.7661 16.7263L53.7802 9.52224H50.3989L59.4029 29.6835L59.3987 29.6877ZM41.1215 9.52224H38.0894V29.9484H41.1215V18.7449C41.1215 14.4847 43.0561 12.8152 47.1396 12.8152H48.8092V9.52224H47.4046C44.0234 9.52224 41.9584 11.2801 41.2099 15.452H41.1215V9.52224ZM23.0673 12.2054H26.3602V23.9766C26.3602 27.7994 28.2064 30.4321 32.29 30.4321C34.0016 30.4321 35.0992 30.1671 36.5081 29.7718L36.0707 27.0046C34.8848 27.3578 34.0058 27.5303 32.8199 27.5303C30.3596 27.5303 29.3924 26.2139 29.3924 23.7074V12.1969H36.2894V9.51803H29.3924V3.68077H26.3602V9.52224H23.0673V12.2012V12.2054Z" fill="black"/>
<path fill-rule="evenodd" clip-rule="evenodd" d="M116.434 36.2776H121.8L125.526 28.7792L112.489 2.86481L111.354 0.606445H113.877H122.86H123.806L124.243 1.46017L128.962 10.6829L126.018 16.7094L125.492 10.7712L121.914 3.72273H116.4L127.255 25.3012L139.085 1.47699L139.514 0.606445H140.477H149.296H151.785L150.692 2.84378L143.845 16.8397L142.096 13.3576L146.806 3.72273H141.44L137.819 11.0067L150.864 36.9295L152 39.1879H149.477H140.489H139.543L139.11 38.3341L134.412 29.0862L137.331 23.0765L137.916 29.1241L141.436 36.0716H146.953L136.095 14.4889L124.155 38.5234L123.726 39.3939H122.763H113.944H111.454L112.548 37.1566L119.394 23.1606L121.144 26.6428L116.434 36.2776Z" fill="#4376EE"/>
</g>
<defs>
<clipPath id="clip0_985_1997">
<rect width="152" height="38.7875" fill="white" transform="translate(0 0.606445)"/>
</clipPath>
</defs>
</svg>
