<svg width="39" height="40" viewBox="0 0 39 40" fill="none" xmlns="http://www.w3.org/2000/svg">
<path d="M9.79335 35.1135C8.74172 35.1132 7.71087 34.8205 6.81601 34.2681C5.92115 33.7157 5.19752 32.9253 4.726 31.9853C4.25447 31.0453 4.05363 29.9927 4.1459 28.9451C4.23817 27.8976 4.61992 26.8963 5.2485 26.0532C5.87708 25.2101 6.72772 24.5584 7.70537 24.1709C8.68302 23.7834 9.74916 23.6754 10.7846 23.859C11.8201 24.0425 12.7842 24.5104 13.5691 25.2103C14.3539 25.9103 14.9287 26.8147 15.2292 27.8225H24.3754V24.582H27.6158V15.2528L23.9816 11.6202H14.654V14.8607H4.93268V5.13934H14.654V8.37978H23.9816L29.236 3.12378L36.1106 10L30.8563 15.2512V24.582H34.0967V34.3034H24.3754V31.0629H15.2292C14.8802 32.2335 14.1626 33.26 13.1832 33.9899C12.2037 34.7197 11.0148 35.1138 9.79335 35.1135ZM9.79335 27.0124C9.14879 27.0124 8.53062 27.2684 8.07485 27.7242C7.61907 28.18 7.36302 28.7981 7.36302 29.4427C7.36302 30.0873 7.61907 30.7054 8.07485 31.1612C8.53062 31.617 9.14879 31.873 9.79335 31.873C10.4379 31.873 11.0561 31.617 11.5119 31.1612C11.9676 30.7054 12.2237 30.0873 12.2237 29.4427C12.2237 28.7981 11.9676 28.18 11.5119 27.7242C11.0561 27.2684 10.4379 27.0124 9.79335 27.0124ZM30.8563 27.8225H27.6158V31.0629H30.8563V27.8225ZM29.236 7.70901L26.945 10L29.236 12.291L31.527 10L29.236 7.70901ZM11.4136 8.37978H8.17313V11.6202H11.4136V8.37978Z" fill="white"/>
</svg>
