<svg width="32" height="33" viewBox="0 0 32 33" fill="none" xmlns="http://www.w3.org/2000/svg">
<g clip-path="url(#clip0_800_11440)">
<g clip-path="url(#clip1_800_11440)">
<g clip-path="url(#clip2_800_11440)">
<mask id="mask0_800_11440" style="mask-type:luminance" maskUnits="userSpaceOnUse" x="0" y="0" width="32" height="33">
<path d="M31.5119 0.752441H0.171875V32.0924H31.5119V0.752441Z" fill="white"/>
</mask>
<g mask="url(#mask0_800_11440)">
<path d="M29.0093 2.0625H2.67505C2.01395 2.0625 1.47803 2.59843 1.47803 3.25952C1.47803 3.9206 2.01395 4.45652 2.67505 4.45652H29.0093C29.6704 4.45652 30.2063 3.9206 30.2063 3.25952C30.2063 2.59843 29.6704 2.0625 29.0093 2.0625Z" fill="#4E7ABB"/>
<path fill-rule="evenodd" clip-rule="evenodd" d="M29.0096 4.44946H2.67529V20.0107C2.67529 21.9367 3.81248 23.597 5.45206 24.357C5.48818 24.4952 5.57623 24.6237 5.72445 24.7127L15.5339 30.5983C15.7233 30.7119 15.9601 30.7119 16.1495 30.5983L25.9589 24.7125C26.1069 24.6237 26.1949 24.4956 26.2311 24.3578C27.8716 23.5982 29.0096 21.9374 29.0096 20.0107V4.44946Z" fill="url(#paint0_linear_800_11440)"/>
<path d="M20.2891 14.4187C20.3945 14.3364 20.4727 14.2216 20.5127 14.0904C20.5528 13.9592 20.5527 13.8182 20.5122 13.6871C20.472 13.556 20.3934 13.4414 20.2878 13.3594C20.1821 13.2775 20.0547 13.2322 19.9232 13.2299L17.3704 13.1289C17.3579 13.128 17.3459 13.1233 17.3358 13.1154C17.3257 13.1074 17.318 13.0966 17.3137 13.0843L16.4316 10.5878C16.3873 10.4607 16.3067 10.3511 16.2009 10.2736C16.0952 10.1961 15.9693 10.1545 15.8402 10.1545C15.7111 10.1545 15.5852 10.1961 15.4794 10.2736C15.3736 10.3511 15.2931 10.4607 15.2488 10.5878L14.3695 13.0932C14.3652 13.1056 14.3575 13.1164 14.3474 13.1243C14.3374 13.1322 14.3253 13.1369 14.3128 13.1378L11.76 13.2388C11.6286 13.2411 11.5011 13.2864 11.3955 13.3684C11.2899 13.4503 11.2114 13.5649 11.171 13.696C11.1307 13.8271 11.1305 13.9681 11.1705 14.0994C11.2105 14.2306 11.2887 14.3454 11.3941 14.4276L13.3966 16.0771C13.4067 16.0854 13.4142 16.0966 13.4182 16.1092C13.4222 16.1219 13.4226 16.1355 13.4193 16.1485L12.7301 18.7074C12.6944 18.8378 12.6978 18.9764 12.74 19.1046C12.7821 19.2326 12.861 19.3442 12.9657 19.4237C13.0705 19.5033 13.1961 19.5471 13.3255 19.5492C13.4549 19.5514 13.5817 19.5117 13.6888 19.4356L15.8048 17.9496C15.8152 17.9419 15.8275 17.938 15.8402 17.938C15.8529 17.938 15.8653 17.9419 15.8756 17.9496L17.9915 19.4356C18.0973 19.5142 18.2236 19.5565 18.3532 19.5565C18.483 19.5565 18.6093 19.5142 18.7149 19.4356C18.8197 19.3567 18.8985 19.2458 18.9408 19.1181C18.983 18.9904 18.9863 18.852 18.9504 18.7223L18.2554 16.1544C18.2517 16.1415 18.252 16.1277 18.2561 16.115C18.2601 16.1022 18.2678 16.0911 18.2782 16.0831L20.2891 14.4187Z" fill="black"/>
</g>
</g>
</g>
</g>
<defs>
<linearGradient id="paint0_linear_800_11440" x1="4.87276" y1="4.66676" x2="22.8933" y2="27.3882" gradientUnits="userSpaceOnUse">
<stop stop-color="#9ACAFF"/>
<stop offset="1" stop-color="#6DB3FF"/>
</linearGradient>
<clipPath id="clip0_800_11440">
<rect width="31.34" height="31.34" fill="white" transform="translate(0.171875 0.752441)"/>
</clipPath>
<clipPath id="clip1_800_11440">
<rect width="31.34" height="31.34" fill="white" transform="translate(0.171875 0.752441)"/>
</clipPath>
<clipPath id="clip2_800_11440">
<rect width="31.34" height="31.34" fill="white" transform="translate(0.171875 0.752441)"/>
</clipPath>
</defs>
</svg>
