<svg width="32" height="33" viewBox="0 0 32 33" fill="none" xmlns="http://www.w3.org/2000/svg">
<g clip-path="url(#clip0_800_11351)">
<g clip-path="url(#clip1_800_11351)">
<mask id="mask0_800_11351" style="mask-type:luminance" maskUnits="userSpaceOnUse" x="0" y="0" width="32" height="33">
<path d="M31.6828 0.752441H0.342773V32.0924H31.6828V0.752441Z" fill="white"/>
</mask>
<g mask="url(#mask0_800_11351)">
<path d="M15.6455 0.752441H2.79121C1.43898 0.752441 0.342773 1.84865 0.342773 3.20088V16.0552C0.342773 17.4074 1.43898 18.5036 2.79121 18.5036H15.6455C16.9977 18.5036 18.094 17.4074 18.094 16.0552V3.20088C18.094 1.84865 16.9977 0.752441 15.6455 0.752441Z" fill="url(#paint0_linear_800_11351)"/>
<path d="M6.78155 13.0087C8.77457 13.0087 9.62613 11.6498 9.8345 10.762L8.46655 10.3725C8.33973 10.8345 7.89583 11.5773 6.78155 11.5773C5.82127 11.5773 4.93346 10.8798 4.93346 9.67493C4.93346 8.32511 5.90279 7.70909 6.76342 7.70909C7.89583 7.70909 8.30348 8.461 8.40314 8.9049L9.75296 8.47912C9.5446 7.55507 8.69304 6.31396 6.76342 6.31396C4.9697 6.31396 3.44775 7.67284 3.44775 9.67493C3.44775 11.677 4.93346 13.0087 6.78155 13.0087ZM14.823 12.8728V11.514H12.1777V10.2819H14.5693V9.02267H12.1777V7.79967H14.8138V6.44986H10.7463V12.8728H14.823Z" fill="black"/>
<path d="M29.2339 14.3413H16.3796C15.0274 14.3413 13.9312 15.4375 13.9312 16.7897V29.6441C13.9312 30.9963 15.0274 32.0925 16.3796 32.0925H29.2339C30.5861 32.0925 31.6823 30.9963 31.6823 29.6441V16.7897C31.6823 15.4375 30.5861 14.3413 29.2339 14.3413Z" fill="url(#paint1_linear_800_11351)"/>
<path d="M19.5254 22.9148V21.275H20.3588C20.9024 21.275 21.2738 21.5829 21.2738 22.0994C21.2738 22.5975 20.9024 22.9148 20.3588 22.9148H19.5254ZM20.5037 24.1467C21.8083 24.1467 22.7051 23.3043 22.7051 22.0903C22.7051 20.8944 21.8083 20.0339 20.5037 20.0339H18.085V26.4568H19.5163V24.1467H20.5037ZM27.7174 26.4568V25.0979H25.0722V23.8659H27.4638V22.6067H25.0722V21.3837H27.7085V20.0339H23.6409V26.4568H27.7174Z" fill="black"/>
</g>
</g>
</g>
<defs>
<linearGradient id="paint0_linear_800_11351" x1="9.21836" y1="0.752441" x2="9.21836" y2="18.5036" gradientUnits="userSpaceOnUse">
<stop stop-color="#FFC149"/>
<stop offset="1" stop-color="#EEA20E"/>
</linearGradient>
<linearGradient id="paint1_linear_800_11351" x1="22.8068" y1="14.3413" x2="22.8068" y2="32.0925" gradientUnits="userSpaceOnUse">
<stop stop-color="#8D7DF0"/>
<stop offset="1" stop-color="#6A56E3"/>
</linearGradient>
<clipPath id="clip0_800_11351">
<rect width="31.34" height="31.34" fill="white" transform="translate(0.342773 0.752441)"/>
</clipPath>
<clipPath id="clip1_800_11351">
<rect width="31.34" height="31.34" fill="white" transform="translate(0.342773 0.752441)"/>
</clipPath>
</defs>
</svg>
