<svg width="32" height="32" viewBox="0 0 32 32" fill="none" xmlns="http://www.w3.org/2000/svg">
<rect width="32" height="32" rx="16" fill="black" fill-opacity="0.04"/>
<path d="M12.0873 15.12C13.1346 17.1782 14.8219 18.8582 16.88 19.9128L18.48 18.3128C18.6764 18.1164 18.9673 18.051 19.2219 18.1382C20.0364 18.4073 20.9164 18.5528 21.8182 18.5528C22.2182 18.5528 22.5455 18.88 22.5455 19.28V21.8182C22.5455 22.2182 22.2182 22.5455 21.8182 22.5455C14.9891 22.5455 9.45459 17.011 9.45459 10.1819C9.45459 9.78186 9.78186 9.45459 10.1819 9.45459H12.7273C13.1273 9.45459 13.4546 9.78186 13.4546 10.1819C13.4546 11.091 13.6 11.9637 13.8691 12.7782C13.9491 13.0328 13.891 13.3164 13.6873 13.52L12.0873 15.12Z" fill="black" fill-opacity="0.5"/>
</svg>
