<svg width="33" height="33" viewBox="0 0 33 33" fill="none" xmlns="http://www.w3.org/2000/svg">
<rect x="0.5" y="0.148193" width="32" height="32" rx="16" fill="white" fill-opacity="0.04"/>
<path d="M12.5873 15.2682C13.6346 17.3264 15.3219 19.0064 17.38 20.061L18.98 18.461C19.1764 18.2646 19.4673 18.1991 19.7219 18.2864C20.5364 18.5555 21.4164 18.701 22.3182 18.701C22.7182 18.701 23.0455 19.0282 23.0455 19.4282V21.9664C23.0455 22.3664 22.7182 22.6937 22.3182 22.6937C15.4891 22.6937 9.95459 17.1591 9.95459 10.3301C9.95459 9.93006 10.2819 9.60278 10.6819 9.60278H13.2273C13.6273 9.60278 13.9546 9.93006 13.9546 10.3301C13.9546 11.2391 14.1 12.1119 14.3691 12.9264C14.4491 13.181 14.391 13.4646 14.1873 13.6682L12.5873 15.2682Z" fill="white"/>
</svg>
