<svg width="32" height="33" viewBox="0 0 32 33" fill="none" xmlns="http://www.w3.org/2000/svg">
<g clip-path="url(#clip0_800_11336)">
<g clip-path="url(#clip1_800_11336)">
<g clip-path="url(#clip2_800_11336)">
<mask id="mask0_800_11336" style="mask-type:luminance" maskUnits="userSpaceOnUse" x="0" y="0" width="32" height="33">
<path d="M31.5387 0.752441H0.19873V32.0924H31.5387V0.752441Z" fill="white"/>
</mask>
<g mask="url(#mask0_800_11336)">
<path d="M17.0938 1.48697C17.0938 1.0813 17.4226 0.752441 17.8283 0.752441H21.8681C22.2739 0.752441 22.6027 1.0813 22.6027 1.48697V22.8496C22.6027 24.4724 21.2873 25.7877 19.6645 25.7877H17.8283C17.4226 25.7877 17.0938 25.4588 17.0938 25.0532V1.48697Z" fill="#338DEF"/>
<path d="M11.5742 7.62834C11.5742 7.22269 11.9031 6.8938 12.3087 6.8938H17.0832V25.4288C17.0832 26.781 15.987 27.8772 14.6348 27.8772H11.5742V7.62834Z" fill="#54A0FF"/>
<path d="M6.06543 13.6376C6.06543 13.232 6.39428 12.9031 6.79997 12.9031H11.5745V27.4676C11.5745 28.8874 10.4234 30.0384 9.00357 30.0384H6.06543V13.6376Z" fill="#8AC2FF"/>
<path d="M0.556152 19.6564C0.556152 19.2507 0.885009 18.9219 1.29069 18.9219H6.06514V30.152C6.06514 30.5578 5.73628 30.8866 5.33061 30.8866H0.556152V19.6564Z" fill="#ACD6FC"/>
<path fill-rule="evenodd" clip-rule="evenodd" d="M31.5369 15.0947C31.554 14.9132 31.41 14.7572 31.2278 14.7598L24.8061 14.8523C24.5414 14.856 24.406 15.1713 24.5856 15.3658L26.2598 17.1798C26.1246 17.3234 22.941 20.7002 20.5824 22.5262C18.0553 24.4824 16.5013 25.4359 13.638 26.8552C11.3918 27.9686 10.0743 28.4982 7.68575 29.2602C6.16914 29.744 5.30277 29.9724 3.74759 30.3123C2.52375 30.5797 0.591076 30.8834 0.591076 30.8834C0.591076 30.8834 0.170196 30.9435 0.200269 31.2442C0.230341 31.5448 0.591076 31.5148 0.591076 31.5148L3.89791 31.2442C3.89791 31.2442 6.45902 30.9193 8.07652 30.5828C10.5758 30.0629 11.9639 29.6609 14.3596 28.7791C17.5919 27.5893 19.3554 26.725 22.2959 24.9312C24.9567 23.3079 28.6754 20.2256 28.899 20.0399L30.4006 21.667C30.5801 21.8616 30.9051 21.7519 30.9302 21.4882L31.5369 15.0947Z" fill="#FFAC06"/>
</g>
</g>
</g>
</g>
<defs>
<clipPath id="clip0_800_11336">
<rect width="31.34" height="31.34" fill="white" transform="translate(0.19873 0.752441)"/>
</clipPath>
<clipPath id="clip1_800_11336">
<rect width="31.34" height="31.34" fill="white" transform="translate(0.19873 0.752441)"/>
</clipPath>
<clipPath id="clip2_800_11336">
<rect width="31.34" height="31.34" fill="white" transform="translate(0.19873 0.752441)"/>
</clipPath>
</defs>
</svg>
