<svg width="121" height="32" viewBox="0 0 121 32" fill="none" xmlns="http://www.w3.org/2000/svg">
<g clip-path="url(#clip0_46_1552)">
<path fill-rule="evenodd" clip-rule="evenodd" d="M9.65696 24.2867C14.9625 24.2867 17.4593 21.8232 17.4593 18.3204C17.4593 15.4418 15.8291 13.2904 10.1417 12.2512C5.25113 11.4178 4.21192 10.1362 4.21192 8.29688C4.21192 6.21515 5.94504 4.93358 8.72068 4.93358C12.2932 4.93358 13.681 6.80614 14.3749 10.03L16.8384 9.54526C16.0051 5.62749 13.8901 2.7124 8.82692 2.7124C4.28164 2.71572 1.67865 5.00662 1.67865 8.36993C1.67865 11.3514 3.55121 13.5029 9.23862 14.4724C13.4353 15.1663 14.926 16.242 14.926 18.4266C14.926 20.6113 13.1929 22.0323 9.75988 22.0323C5.77239 22.0323 3.51801 19.8145 2.92703 16.2055L0.5 16.6902C1.05446 21.0595 3.86331 24.217 9.65696 24.2867ZM80.0274 24.4959C84.0149 24.4959 86.4087 22.5204 87.2421 19.2235L85.0906 18.5993C84.4997 20.681 83.2181 22.3444 80.0274 22.3444C76.5579 22.3444 74.5127 20.2992 74.2371 16.7965H87.2753C87.3085 16.1391 87.345 15.5149 87.345 15.0965C87.345 10.6243 84.6756 7.60629 79.9577 7.60629C75.2398 7.60629 71.8433 10.797 71.8433 16.1025C71.8433 21.4081 75.0339 24.4959 80.0274 24.4959ZM74.3068 14.821C74.6886 11.4577 76.7338 9.72454 79.8913 9.72454C83.2214 9.72454 84.9213 11.5971 85.094 14.821H74.3101H74.3068ZM57.8356 2.646H60.2294V14.8542H60.402L68.2409 7.77894H71.2589V7.84866L62.3476 15.7904L71.9196 23.8352V23.9049H68.8319L60.4054 16.7599H60.2327V23.9049H57.8389V2.646H57.8356ZM47.3937 23.699C46.0756 26.7502 44.8605 27.2018 42.9547 27.2018C42.2608 27.2018 41.6366 27.0989 40.9095 26.9594L40.5642 29.247C41.2216 29.3499 41.9155 29.4562 42.9215 29.4562C46.0092 29.4562 47.9515 27.8957 49.5817 24.1141L56.5872 7.77894H54.0207L51.7995 13.5361C50.9662 15.651 49.6846 18.7719 48.6786 21.4081C47.5697 18.8749 46.1819 15.5813 45.3153 13.4663L42.958 7.77894H40.2886L47.397 23.6957L47.3937 23.699ZM32.9644 7.77894H30.5705V23.9049H32.9644V15.06C32.9644 11.6967 34.4916 10.3786 37.7155 10.3786H39.0336V7.77894H37.9247C35.2553 7.77894 33.6251 9.16676 33.0341 12.4603H32.9644V7.77894ZM18.711 9.89719H21.3107V19.1903C21.3107 22.2083 22.7682 24.2867 25.9921 24.2867C27.3434 24.2867 28.2099 24.0775 29.3222 23.7654L28.9769 21.5808C28.0406 21.8597 27.3467 21.9958 26.4104 21.9958C24.4681 21.9958 23.7045 20.9566 23.7045 18.9778V9.89055H29.1495V7.77562H23.7045V3.16726H21.3107V7.77894H18.711V9.89387V9.89719Z" fill="black"/>
<path fill-rule="evenodd" clip-rule="evenodd" d="M92.4217 28.9017H96.6582L99.5999 22.9819L89.3075 2.52315L88.411 0.740234H90.4031H97.4949H98.242L98.5873 1.41422L102.312 8.6953L99.9884 13.4531L99.5733 8.76502L96.7479 3.20046H92.3952L100.964 20.2361L110.304 1.4275L110.643 0.740234H111.403H118.365H120.331L119.468 2.50655L114.062 13.556L112.681 10.8069L116.4 3.20046H112.163L109.305 8.95095L119.604 29.4163L120.5 31.1992H118.508H111.413H110.666L110.324 30.5252L106.615 23.2243L108.92 18.4798L109.381 23.2541L112.16 28.739H116.516L107.943 11.7L98.5175 30.6747L98.1789 31.3619H97.4186H90.4562H88.4907L89.3539 29.5956L94.7591 18.5462L96.1403 21.2952L92.4217 28.9017Z" fill="#184ABE"/>
</g>
<defs>
<clipPath id="clip0_46_1552">
<rect width="120" height="30.6217" fill="white" transform="translate(0.5 0.740234)"/>
</clipPath>
</defs>
</svg>
