<svg width="22" height="22" viewBox="0 0 22 22" fill="none" xmlns="http://www.w3.org/2000/svg">
<path d="M18.9667 21.3972H3.64364C2.06549 21.3972 0.774414 20.1061 0.774414 18.5279V3.20491C0.774414 1.62677 2.06549 0.335693 3.64364 0.335693H18.9667C20.5448 0.335693 21.8359 1.62677 21.8359 3.20491V18.5279C21.8366 20.1061 20.5455 21.3972 18.9667 21.3972Z" fill="white"/>
<path d="M9.23067 11.1026C9.11131 11.0323 7.53902 11.0184 6.52915 11.0184C5.32376 11.0184 5.22563 11.0462 5.22563 11.3897C5.22563 11.5647 5.28861 11.6563 5.4358 11.6914C5.56176 11.7266 5.94769 11.7478 6.93559 11.7756C8.47712 11.8247 8.77883 11.8598 9.07982 12.0488C9.40204 12.2589 9.5214 12.5746 9.5214 13.2263C9.5214 14.0392 9.32514 14.4391 8.84181 14.6207C8.56133 14.7261 7.97255 14.7605 6.57822 14.7605C5.1275 14.7605 4.55995 14.6976 4.23041 14.4874C3.90819 14.2838 3.80273 14.0107 3.80273 13.3662V13.1421H5.18315C5.18315 13.4226 5.21098 13.5134 5.32303 13.5837C5.45631 13.6679 5.61009 13.6818 6.61264 13.6818C8.14025 13.6818 8.14025 13.6818 8.14025 13.2681C8.14025 12.9876 8.03553 12.9173 7.58003 12.9107L6.45885 12.869L5.70163 12.8338L5.32303 12.8199C4.1667 12.7848 3.84448 12.4904 3.84448 11.4607C3.84448 10.5702 4.09713 10.1711 4.74157 10.0312C5.01472 9.97485 7.16188 9.94702 8.28379 9.94702C9.64297 9.94702 9.96226 10.01 10.2911 10.2341C10.2911 10.2341 10.409 10.3754 10.5591 10.7943" fill="black"/>
<path d="M13.6778 10.0171L11.5328 14.4908L12.8056 14.66L12.7976 14.6907H10.5904L9.02832 10.54H10.4695L11.5365 13.5124H11.7943" fill="black"/>
<path d="M18.8018 10.0171L16.9871 14.6907H14.7938L13.9927 11.7644L14.4863 10.0171H14.703L15.7678 13.5124H16.0344L17.2954 10.0171H18.8018Z" fill="black"/>
<path d="M14.3738 8.08252L11.3003 14.491L12.7993 14.691L14.6558 8.12133L14.3738 8.08252Z" fill="black"/>
<path d="M16.1517 9.76538L15.1828 8.02759C15.1448 8.04443 15.1052 8.05834 15.0649 8.07079L15.4531 10.0224C15.6962 9.96457 15.9298 9.87815 16.1517 9.76538Z" fill="#14A800"/>
<path d="M13.6025 6.97091L11.626 6.73657C11.6055 6.98556 11.6158 7.23601 11.656 7.48354L13.6077 7.09394C13.6033 7.05293 13.6018 7.01192 13.6025 6.97091Z" fill="#14A800"/>
<path d="M13.7339 6.45877C13.7617 6.40604 13.7932 6.35551 13.8291 6.30791L12.3666 4.95825C12.2004 5.15305 12.0583 5.36689 11.9434 5.59757L12.8924 6.01059L13.7339 6.45877Z" fill="#14A800"/>
<path d="M14.4012 5.90695L14.0109 3.95532C13.7685 4.01318 13.5341 4.09959 13.3115 4.21383L14.284 5.95016C14.3221 5.93404 14.3609 5.9194 14.4012 5.90695Z" fill="#14A800"/>
<path d="M13.8088 7.63916L12.0718 8.61021C12.2021 8.82405 12.3566 9.02104 12.5339 9.19753L13.8857 7.73656C13.8579 7.70507 13.8323 7.67285 13.8088 7.63916Z" fill="#14A800"/>
<path d="M15.9305 4.10886C15.6991 4.01219 15.4582 3.94482 15.2121 3.90674L14.98 5.88326C15.0203 5.89205 15.0598 5.90377 15.0993 5.91695L15.9305 4.10886Z" fill="#14A800"/>
<path d="M15.866 7.00457L17.8425 7.23525C17.8623 6.98626 17.852 6.73654 17.8117 6.48901L15.8608 6.88154C15.8645 6.92255 15.8667 6.96356 15.866 7.00457Z" fill="#14A800"/>
<path d="M15.6582 6.33425L17.3938 5.361C17.2634 5.14716 17.1082 4.9509 16.931 4.77441L15.582 6.23758C15.6099 6.26907 15.6348 6.3013 15.6582 6.33425Z" fill="#14A800"/>
<path d="M17.5249 8.3805L16.6256 7.98212L15.7197 7.54565C15.6955 7.58886 15.6685 7.62987 15.6392 7.66942L17.0987 9.02201C17.2664 8.82721 17.4092 8.61191 17.5249 8.3805Z" fill="#14A800"/>
</svg>
