<svg width="92" height="67" viewBox="0 0 92 67" fill="none" xmlns="http://www.w3.org/2000/svg">
<path d="M33.2742 44.1111C32.5424 43.6801 22.9041 43.5948 16.7134 43.5948C9.32414 43.5948 8.72258 43.7654 8.72258 45.8709C8.72258 46.9438 9.10865 47.505 10.011 47.7205C10.7831 47.9359 13.149 48.0661 19.2049 48.2367C28.6548 48.5375 30.5043 48.753 32.3494 49.9112C34.3247 51.1996 35.0564 53.1345 35.0564 57.1299C35.0564 62.1129 33.8533 64.5641 30.8904 65.6774C29.171 66.3238 25.5617 66.5348 17.0142 66.5348C8.12102 66.5348 4.64187 66.1487 2.62171 64.8603C0.646451 63.6123 0 61.9378 0 57.9873V56.6136H8.4622C8.4622 58.333 8.63279 58.8897 9.31965 59.3206C10.1367 59.8369 11.0794 59.9222 17.2252 59.9222C26.5897 59.9222 26.5897 59.9222 26.5897 57.3858C26.5897 55.6664 25.9478 55.2354 23.1555 55.195L16.2824 54.9391L11.6406 54.7236L9.31965 54.6384C2.23115 54.4229 0.255886 52.6182 0.255886 46.3063C0.255886 40.8474 1.80467 38.4008 5.7552 37.5434C7.42968 37.1977 20.5921 37.0271 27.4696 37.0271C35.8016 37.0271 37.7589 37.4132 39.7746 38.7869C39.7746 38.7869 40.4974 39.6533 41.4177 42.2211" fill="black"/>
<path d="M60.5363 37.4573L47.3873 64.882L55.1896 65.919L55.1403 66.1075H41.6097L32.0342 40.6626H40.869L47.4098 58.8844H48.99" fill="black"/>
<path d="M91.9456 37.4573L80.8213 66.1075H67.3761L62.4648 48.1686L65.4906 37.4573H66.8194L73.3467 58.8844H74.9808L82.7113 37.4573H91.9456Z" fill="black"/>
<path d="M64.8013 25.5979L45.96 64.8832L55.1494 66.1087L66.5296 25.8358L64.8013 25.5979Z" fill="black"/>
<path d="M75.7016 35.9142L69.7623 25.2612C69.5289 25.3645 69.2865 25.4498 69.0396 25.5261L71.4188 37.4899C72.9093 37.1352 74.3413 36.6055 75.7016 35.9142Z" fill="#14A800"/>
<path d="M60.073 18.7835L47.9566 17.3469C47.8309 18.8733 47.8937 20.4086 48.1406 21.9259L60.1044 19.5377C60.0775 19.2863 60.0685 19.0349 60.073 18.7835Z" fill="#14A800"/>
<path d="M60.879 15.6442C61.0496 15.321 61.2426 15.0113 61.4626 14.7195L52.4976 6.4458C51.4786 7.63994 50.6076 8.95079 49.9028 10.3649L55.7209 12.8968L60.879 15.6442Z" fill="#14A800"/>
<path d="M64.969 12.2612L62.5763 0.297363C61.0903 0.652013 59.6538 1.18174 58.2891 1.88206L64.2508 12.526C64.4842 12.4273 64.7221 12.3375 64.969 12.2612Z" fill="#14A800"/>
<path d="M61.3374 22.8799L50.689 28.8326C51.488 30.1435 52.4353 31.3511 53.5217 32.433L61.8088 23.477C61.6382 23.2839 61.4811 23.0864 61.3374 22.8799Z" fill="#14A800"/>
<path d="M74.3461 1.23903C72.9275 0.64645 71.4505 0.23344 69.9421 0L68.519 12.1164C68.766 12.1703 69.0084 12.2421 69.2508 12.3229L74.3461 1.23903Z" fill="#14A800"/>
<path d="M73.9494 18.9903L86.0658 20.4044C86.187 18.878 86.1242 17.3472 85.8773 15.8298L73.918 18.2361C73.9404 18.4875 73.9539 18.7389 73.9494 18.9903Z" fill="#14A800"/>
<path d="M72.6739 14.8807L83.3134 8.91448C82.5143 7.60362 81.5626 6.40051 80.4762 5.3186L72.207 14.2881C72.3776 14.4811 72.5303 14.6787 72.6739 14.8807Z" fill="#14A800"/>
<path d="M84.1193 27.4244L78.6066 24.9822L73.0534 22.3066C72.9052 22.5715 72.7391 22.8229 72.5596 23.0653L81.5066 31.3569C82.5346 30.1628 83.41 28.843 84.1193 27.4244Z" fill="#14A800"/>
</svg>
