<svg width="55" height="55" viewBox="0 0 55 55" fill="none" xmlns="http://www.w3.org/2000/svg">
<g clip-path="url(#clip0_19_939)">
<path d="M53.6161 29.2505C54.4934 28.2473 54.4934 26.7498 53.6161 25.7466L49.767 21.3454C49.2871 20.7967 49.0533 20.0751 49.1202 19.3493L49.656 13.5342C49.7785 12.2048 48.8972 10.9905 47.5954 10.6948L41.9151 9.40452C41.2011 9.24234 40.5855 8.79316 40.2131 8.16273L37.2366 3.12307C36.5559 1.97053 35.125 1.50294 33.8951 2.0311L28.5505 4.32613C27.88 4.61403 27.1208 4.61403 26.4503 4.32613L21.1028 2.02983C19.8741 1.50222 18.4447 1.96824 17.7631 3.11866L14.79 8.13668C14.4162 8.76761 13.7986 9.21632 13.0831 9.37688L7.4122 10.6493C6.10729 10.9421 5.22235 12.1578 5.34472 13.4895L5.88116 19.3273C5.94769 20.0513 5.71509 20.771 5.23741 21.3192L1.37888 25.747C0.504478 26.7504 0.505805 28.2455 1.38198 29.2474L5.23405 33.652C5.71378 34.2005 5.94759 34.9218 5.88091 35.6475L5.34415 41.4886C5.22202 42.8177 6.10326 44.0317 7.40479 44.3273L13.0878 45.6182C13.8005 45.7801 14.4153 46.228 14.7879 46.8568L17.7601 51.8734C18.443 53.026 19.8762 53.4913 21.1058 52.9596L26.4479 50.65C27.1197 50.3595 27.8815 50.3586 28.5541 50.6474L33.898 52.9421C35.1267 53.4698 36.5561 53.0037 37.2377 51.8533L40.2129 46.8317C40.5855 46.2029 41.2002 45.755 41.913 45.5931L47.5954 44.3023C48.8972 44.0066 49.7785 42.7923 49.656 41.463L49.1202 35.6479C49.0533 34.922 49.2871 34.2004 49.767 33.6517L53.6161 29.2505Z" fill="#184ABE"/>
<circle cx="27.4991" cy="27.5001" r="18.4073" stroke="white" stroke-width="0.443548"/>
<circle cx="27.5003" cy="27.4983" r="9.53629" stroke="white" stroke-width="0.443548"/>
<g clip-path="url(#clip1_19_939)">
<path fill-rule="evenodd" clip-rule="evenodd" d="M29.2811 31.5269H28.5062V30.0137H29.2595C29.4694 30.0137 29.6608 30.1107 29.7688 30.2238C29.8337 30.2917 29.8769 30.3499 29.917 30.4405C30.0775 30.8188 29.917 31.2585 29.5682 31.4428C29.5003 31.4784 29.3737 31.5269 29.2811 31.5269ZM29.1638 29.0081H28.5062V27.7762H29.1206C29.2903 27.7762 29.4848 27.8538 29.5898 27.9282C29.9787 28.2063 29.8584 28.7462 29.4107 28.937C29.3521 28.9629 29.241 29.0049 29.1638 29.0049V29.0081ZM22.6316 26.8192C22.6316 27.4626 23.0144 27.6437 23.5361 27.6437H24.5271V29.7324C24.879 29.7324 26.3885 29.755 26.6355 29.7065C26.7158 29.6903 26.8176 29.6418 26.8639 29.5966C26.9843 29.4769 27.0399 29.3217 27.0399 29.0793V28.3324H26.1015V28.7495H25.5828V27.8021H27.5678V31.5172H23.8911C23.8572 31.5172 23.6102 31.2391 23.5701 31.1971C23.4559 31.0774 23.3015 30.9028 23.178 30.7961C23.1472 30.7703 23.1256 30.7444 23.0947 30.7121C23.0422 30.6571 22.6656 30.2432 22.6162 30.2303C22.6162 30.2885 22.6286 30.2917 22.6286 30.3532V32.374H29.4416C29.7534 32.374 30.0621 32.2802 30.2967 32.1185C30.3399 32.0894 30.3646 32.07 30.4048 32.0377C30.6023 31.8696 30.6919 31.7629 30.8308 31.5107C31.0098 31.1809 31.016 31.0386 31.016 30.6797C31.016 30.3887 30.8863 30.0557 30.7196 29.8294C30.5992 29.6677 30.4264 29.5416 30.2504 29.4511C30.2164 29.4349 30.1887 29.422 30.1547 29.4058C30.1084 29.3864 30.0837 29.3961 30.0806 29.3379C30.1516 29.3217 30.2782 29.2215 30.3338 29.1763C30.5653 28.9887 30.7165 28.6201 30.7165 28.2774C30.7165 27.9347 30.7011 27.7924 30.5437 27.5079C30.3585 27.1716 30.0683 26.9291 29.7133 26.7965C29.5527 26.7351 29.3027 26.6608 29.0866 26.6608H25.5828V25.8266H26.1015V26.234H27.0399V25.4321C27.0399 25.2349 26.8856 25.0732 26.7683 24.9924C26.6324 24.9018 26.4287 24.8436 26.2095 24.8436H24.4962V26.6511H23.7214V24.4492C23.7214 24.4039 24.2338 23.9092 24.3326 23.8025C24.3635 23.7702 24.5209 23.5924 24.5518 23.5924H30.5992C30.6332 23.5924 30.9913 23.9868 31.0222 24.0192C31.053 24.0515 31.4296 24.4265 31.4296 24.4621V25.7037C31.4296 25.749 31.2938 25.8524 31.266 25.8815L30.5128 26.6737H31.9143C32.0964 26.6737 32.0471 26.6414 32.2446 26.4344C32.2724 26.4053 32.3774 26.3148 32.3774 26.2792V22.6515C32.3774 22.6256 32.3712 22.6191 32.3465 22.6191H22.6316V26.8192Z" fill="white"/>
<path fill-rule="evenodd" clip-rule="evenodd" d="M31.4276 31.5857C31.4276 31.6407 31.2115 31.8217 31.1497 31.8831C31.0571 31.9801 30.7145 32.3261 30.6836 32.3746H32.2919C32.3321 32.3746 32.366 32.3843 32.366 32.3423V28.1875H31.4276V31.5857Z" fill="white"/>
<path fill-rule="evenodd" clip-rule="evenodd" d="M31.8844 27.0215C32.1437 27.0215 32.3567 27.2413 32.3567 27.5162C32.3567 27.791 32.1468 28.0109 31.8844 28.0109C31.622 28.0109 31.4121 27.791 31.4121 27.5162C31.4121 27.2413 31.622 27.0215 31.8844 27.0215Z" fill="white"/>
</g>
<path d="M36.8348 14.1504L33.6824 18.2371L32.9421 17.666L36.0945 13.5793L36.8348 14.1504Z" fill="white"/>
<path d="M28.4744 15.9641L29.8657 10.9938L31.7684 11.5264C32.1275 11.6269 32.4102 11.7671 32.6163 11.947C32.8245 12.1256 32.9605 12.3286 33.0243 12.5558C33.0896 12.7834 33.0879 13.0202 33.0191 13.2661C32.9625 13.4684 32.8752 13.6306 32.7572 13.7529C32.6397 13.8735 32.503 13.96 32.347 14.0123C32.191 14.0646 32.0267 14.0875 31.8541 14.0811L31.8405 14.1296C32.0141 14.1887 32.168 14.2902 32.3022 14.4342C32.4384 14.577 32.5334 14.7519 32.5871 14.9588C32.6409 15.1658 32.6324 15.3955 32.5618 15.6479C32.4897 15.9051 32.3627 16.119 32.1806 16.2896C31.999 16.4586 31.7662 16.5671 31.4824 16.615C31.1985 16.6629 30.8665 16.6336 30.4863 16.5272L28.4744 15.9641ZM29.5854 15.4638L30.5537 15.7348C30.8805 15.8263 31.1334 15.8299 31.3122 15.7456C31.4932 15.6602 31.6113 15.5188 31.6665 15.3214C31.7077 15.1742 31.7085 15.0313 31.6687 14.8928C31.6294 14.7527 31.5522 14.6299 31.4369 14.5243C31.3221 14.4172 31.1716 14.3376 30.9856 14.2855L29.993 14.0076L29.5854 15.4638ZM30.1744 13.3596L31.065 13.609C31.2203 13.6524 31.3682 13.6633 31.5087 13.6415C31.6495 13.6182 31.7703 13.5639 31.8709 13.4786C31.9736 13.3922 32.0453 13.2762 32.0861 13.1306C32.14 12.9381 32.1164 12.7605 32.0154 12.5979C31.916 12.4357 31.7336 12.3175 31.4683 12.2432L30.5582 11.9885L30.1744 13.3596Z" fill="white"/>
<path d="M24.0644 16.7011L22.9439 11.6629L26.2207 10.9341L26.3909 11.6992L24.0268 12.225L24.331 13.5928L26.5253 13.1048L26.6955 13.8698L24.5011 14.3578L24.8069 15.733L27.1907 15.2029L27.3609 15.968L24.0644 16.7011Z" fill="white"/>
<path d="M20.6406 14.3659C20.4859 14.2075 20.302 14.1343 20.0888 14.146C19.877 14.1567 19.6622 14.2479 19.4444 14.4194C19.2913 14.54 19.1782 14.6665 19.105 14.799C19.0319 14.9315 18.9974 15.0602 19.0017 15.1851C19.006 15.3101 19.0475 15.4239 19.1263 15.5265C19.1928 15.611 19.2696 15.6692 19.3568 15.7011C19.4452 15.7319 19.5403 15.7426 19.6419 15.7332C19.7425 15.7224 19.8451 15.6993 19.9498 15.6638C20.0545 15.6284 20.1562 15.5879 20.255 15.5422L20.7099 15.3378C20.8911 15.2528 21.0762 15.1851 21.2653 15.1346C21.4556 15.083 21.6433 15.0593 21.8283 15.0633C22.0145 15.0663 22.1921 15.1071 22.361 15.1858C22.53 15.2645 22.6835 15.3916 22.8218 15.5671C23.0089 15.8047 23.113 16.0617 23.134 16.3382C23.154 16.6133 23.0891 16.8921 22.9395 17.1747C22.7902 17.4548 22.5532 17.7228 22.2285 17.9785C21.9131 18.227 21.6007 18.3939 21.2915 18.4792C20.9836 18.5634 20.6905 18.5633 20.4122 18.4788C20.1353 18.3933 19.8855 18.22 19.6628 17.9591L20.3854 17.3899C20.5072 17.5228 20.6433 17.606 20.7937 17.6394C20.944 17.6728 21.0988 17.6643 21.2579 17.6138C21.4184 17.5623 21.5751 17.4762 21.7283 17.3556C21.888 17.2298 22.0091 17.0959 22.0918 16.9537C22.1748 16.8093 22.2168 16.6671 22.2179 16.5272C22.2179 16.3861 22.1728 16.2569 22.0826 16.1397C21.9982 16.0352 21.8985 15.9725 21.7838 15.9517C21.6679 15.9295 21.5371 15.9385 21.3911 15.9786C21.2455 16.0163 21.0855 16.0739 20.9112 16.1513L20.3564 16.3959C19.9549 16.5731 19.5885 16.651 19.2573 16.6296C18.9263 16.6058 18.6465 16.4488 18.4177 16.1584C18.2296 15.9195 18.1295 15.6594 18.1174 15.378C18.1067 15.0956 18.1746 14.8165 18.321 14.5408C18.4663 14.2638 18.6809 14.0135 18.9647 13.79C19.2524 13.5633 19.544 13.4149 19.8395 13.3447C20.1352 13.2722 20.4148 13.2755 20.6781 13.3546C20.9405 13.4325 21.1635 13.584 21.3473 13.8092L20.6406 14.3659Z" fill="white"/>
<path d="M41.1855 34.9123C41.0577 35.1012 40.8948 35.2374 40.6967 35.321C40.4987 35.4046 40.278 35.4272 40.0347 35.3889C39.7914 35.3505 39.5377 35.2421 39.2736 35.0634C39.0064 34.8827 38.8106 34.6863 38.6863 34.4744C38.5615 34.2607 38.503 34.047 38.5108 33.8331C38.5175 33.6186 38.5833 33.4189 38.7083 33.2342C38.8036 33.0933 38.906 32.9937 39.0154 32.9354C39.1238 32.8763 39.2294 32.8428 39.3322 32.8348C39.434 32.826 39.524 32.8268 39.6022 32.8371L39.6181 32.8136L38.4189 32.0024L38.8033 31.4341L42.0095 33.6031L41.6325 34.1604L41.2536 33.9041L41.2303 33.9386C41.269 34.0073 41.3025 34.0916 41.3309 34.1914C41.3581 34.2905 41.364 34.401 41.3485 34.5228C41.333 34.6447 41.2787 34.7745 41.1855 34.9123ZM40.8275 34.4396C40.9087 34.3196 40.9455 34.1954 40.938 34.0671C40.9294 33.9381 40.8815 33.8121 40.7943 33.6892C40.7071 33.5663 40.5857 33.4523 40.4302 33.347C40.2747 33.2418 40.1247 33.1723 39.9802 33.1385C39.8365 33.1036 39.7042 33.1069 39.5833 33.1484C39.4631 33.1888 39.3618 33.2701 39.2792 33.3922C39.1937 33.5185 39.1553 33.6461 39.1639 33.7752C39.1724 33.9042 39.2201 34.0293 39.3071 34.1504C39.394 34.2716 39.512 34.3827 39.6613 34.4836C39.8116 34.5853 39.9602 34.6546 40.107 34.6916C40.2536 34.7269 40.3894 34.7252 40.5144 34.6865C40.6391 34.6461 40.7435 34.5638 40.8275 34.4396Z" fill="white"/>
<path d="M39.0902 37.4638C38.877 37.662 38.6517 37.7889 38.4143 37.8444C38.177 37.8982 37.9408 37.882 37.7059 37.7959C37.4701 37.7089 37.2488 37.5541 37.0421 37.3317C36.8387 37.113 36.7018 36.8825 36.6313 36.6401C36.5608 36.3959 36.5579 36.1577 36.6225 35.9256C36.6863 35.6925 36.8197 35.4816 37.0227 35.2928C37.1537 35.171 37.2971 35.0773 37.4529 35.0116C37.6087 34.9442 37.7721 34.9127 37.9431 34.9171C38.1151 34.9207 38.29 34.9663 38.4678 35.0539C38.6447 35.1406 38.8198 35.2771 38.9932 35.4635L39.136 35.6172L37.3932 37.2375L37.0792 36.8998L38.3416 35.726C38.2515 35.6309 38.1514 35.5649 38.0413 35.5279C37.9303 35.4899 37.8182 35.4832 37.705 35.5076C37.5927 35.5311 37.4885 35.5875 37.3925 35.6768C37.2901 35.772 37.2233 35.8806 37.1921 36.0025C37.1601 36.1235 37.1597 36.2443 37.191 36.3649C37.2223 36.4837 37.2817 36.5911 37.3691 36.687L37.6433 36.9818C37.7582 37.1055 37.8795 37.1906 38.0071 37.2372C38.1338 37.2828 38.2597 37.2914 38.3846 37.2629C38.5088 37.2336 38.6253 37.1683 38.7342 37.067C38.8071 36.9992 38.8636 36.9277 38.9038 36.8525C38.9431 36.7764 38.9656 36.6979 38.9712 36.6169C38.9768 36.536 38.9628 36.4552 38.9292 36.3747L39.446 35.9923C39.5314 36.1434 39.5755 36.3037 39.5783 36.4732C39.5811 36.6409 39.542 36.8098 39.4609 36.9798C39.3789 37.1489 39.2554 37.3102 39.0902 37.4638Z" fill="white"/>
<path d="M35.8868 39.8455L34.3391 37.3893L34.9004 37.0356L35.1583 37.445L35.1839 37.4289C35.1393 37.2589 35.1472 37.1012 35.2076 36.9559C35.2684 36.8089 35.3691 36.6911 35.5099 36.6024C35.5418 36.5822 35.5786 36.5613 35.62 36.5397C35.6619 36.5163 35.6978 36.4989 35.7278 36.4874L36.0634 37.0199C36.0335 37.0268 35.9899 37.0439 35.9325 37.0711C35.8756 37.0965 35.8226 37.1247 35.7736 37.1556C35.668 37.2221 35.5876 37.3048 35.5322 37.4037C35.4773 37.5009 35.451 37.6046 35.4534 37.7148C35.4558 37.825 35.49 37.9323 35.5558 38.0368L36.4657 39.4808L35.8868 39.8455Z" fill="white"/>
<path d="M33.6645 41.2446C33.3937 41.3513 33.1377 41.3873 32.8964 41.3524C32.6558 41.3159 32.4418 41.2146 32.2545 41.0487C32.0668 40.8817 31.9172 40.6569 31.8058 40.3744C31.6963 40.0965 31.6529 39.8319 31.6757 39.5805C31.6992 39.3274 31.7833 39.1046 31.9282 38.912C32.0726 38.7183 32.2737 38.5706 32.5316 38.4689C32.6981 38.4033 32.8658 38.3683 33.0348 38.364C33.2045 38.3581 33.3681 38.3884 33.5257 38.4549C33.6845 38.521 33.8307 38.6272 33.9643 38.7737C34.0974 38.919 34.2106 39.11 34.304 39.3468L34.381 39.542L32.1671 40.4148L31.998 39.9857L33.6016 39.3535C33.5524 39.232 33.4833 39.134 33.3943 39.0594C33.3048 38.9836 33.2029 38.9364 33.0885 38.9178C32.9754 38.8988 32.8579 38.9133 32.7359 38.9613C32.6058 39.0126 32.504 39.0893 32.4305 39.1915C32.3565 39.2924 32.3121 39.4048 32.2972 39.5285C32.283 39.6505 32.2991 39.7722 32.3456 39.8934L32.4932 40.2679C32.5552 40.425 32.637 40.5485 32.7388 40.6384C32.8402 40.7271 32.9542 40.781 33.0809 40.8001C33.2072 40.8181 33.3395 40.7998 33.4778 40.7452C33.5704 40.7087 33.6492 40.6628 33.714 40.6074C33.7784 40.5509 33.828 40.486 33.8628 40.4127C33.8975 40.3394 33.914 40.2591 33.9121 40.1718L34.5327 40.0043C34.5572 40.1762 34.5397 40.3415 34.4804 40.5003C34.4219 40.6575 34.3238 40.8005 34.1863 40.9292C34.0483 41.0567 33.8744 41.1619 33.6645 41.2446Z" fill="white"/>
<path d="M30.5624 39.0969L30.6686 39.6153L29.0336 39.9503L28.9274 39.4318L30.5624 39.0969ZM29.1915 38.6677L29.8618 38.5304L30.4088 41.2005C30.4273 41.2906 30.455 41.357 30.492 41.3995C30.53 41.4406 30.5736 41.4651 30.6229 41.4731C30.6721 41.481 30.7245 41.4793 30.78 41.4679C30.822 41.4593 30.8596 41.4484 30.8929 41.4351C30.9275 41.4216 30.9535 41.4105 30.971 41.4017L31.1913 41.9026C31.158 41.9223 31.1096 41.9464 31.0459 41.9748C30.9836 42.0031 30.9051 42.0281 30.8105 42.0501C30.6437 42.0894 30.4873 42.0951 30.3413 42.0671C30.1951 42.0379 30.0704 41.9721 29.9671 41.8698C29.8651 41.7672 29.7965 41.6269 29.7613 41.4489L29.1915 38.6677Z" fill="white"/>
<path d="M28.6239 40.71L28.0036 40.8041C27.9833 40.7419 27.95 40.684 27.9036 40.6304C27.8585 40.5768 27.7987 40.5346 27.7243 40.5036C27.6498 40.4727 27.5597 40.4594 27.454 40.4639C27.3117 40.4698 27.1934 40.5057 27.0991 40.5714C27.006 40.6371 26.9621 40.719 26.9675 40.8172C26.9697 40.9016 27.0034 40.9689 27.0686 41.0191C27.135 41.0693 27.2426 41.1083 27.3913 41.1362L27.8905 41.2212C28.1675 41.2689 28.3753 41.3542 28.5142 41.477C28.6542 41.5998 28.7293 41.765 28.7392 41.9727C28.7456 42.1553 28.6988 42.3187 28.5989 42.4628C28.5002 42.6057 28.3593 42.7201 28.1763 42.8059C27.9932 42.8918 27.7808 42.9398 27.5391 42.9499C27.1841 42.9647 26.8952 42.9024 26.6724 42.7629C26.4496 42.6221 26.3118 42.4192 26.2591 42.154L26.9231 42.0619C26.9587 42.1916 27.0271 42.2877 27.1281 42.3503C27.2291 42.413 27.3583 42.441 27.5156 42.4344C27.678 42.4276 27.8069 42.3888 27.9024 42.318C27.999 42.2471 28.0453 42.1625 28.0412 42.0643C28.0377 41.9812 28.0027 41.914 27.9363 41.8625C27.8711 41.811 27.7711 41.7736 27.6365 41.7502L27.1373 41.667C26.8567 41.6208 26.6467 41.5318 26.5076 41.4002C26.3683 41.2673 26.2949 41.095 26.2873 40.8835C26.2786 40.7047 26.3205 40.5479 26.4133 40.4128C26.5072 40.2765 26.6408 40.1687 26.814 40.0896C26.9885 40.0091 27.1916 39.9641 27.4232 39.9544C27.7631 39.9401 28.0337 40.0013 28.2349 40.138C28.4374 40.2745 28.567 40.4652 28.6239 40.71Z" fill="white"/>
<path d="M24.1459 42.7663L24.489 39.8834L25.1685 39.9642L24.8254 42.8471L24.1459 42.7663ZM24.8793 39.5149C24.7717 39.5021 24.6833 39.4554 24.6143 39.3748C24.5453 39.293 24.5169 39.2015 24.5289 39.1001C24.5411 38.9975 24.5903 38.9152 24.6763 38.8531C24.7626 38.7897 24.8595 38.7645 24.9671 38.7773C25.0759 38.7902 25.1642 38.8375 25.2319 38.9192C25.301 38.9997 25.3294 39.0913 25.3172 39.1939C25.3052 39.2953 25.256 39.3776 25.1698 39.441C25.085 39.5032 24.9882 39.5278 24.8793 39.5149Z" fill="white"/>
<path d="M21.0749 42.9183C20.8406 42.8444 20.6493 42.7491 20.5012 42.6324C20.3526 42.5168 20.244 42.3901 20.1752 42.2521C20.1064 42.1141 20.0724 41.9746 20.0733 41.8335L20.7059 41.8764C20.7152 41.9388 20.7368 42.0044 20.7706 42.0732C20.804 42.1432 20.8579 42.2091 20.9323 42.2709C21.0074 42.3342 21.1105 42.3865 21.2415 42.4278C21.4266 42.4862 21.594 42.4894 21.7438 42.4376C21.8932 42.3869 22.0001 42.2594 22.0645 42.0551L22.23 41.5306L22.1975 41.5203C22.1426 41.577 22.0716 41.6306 21.9843 41.681C21.8983 41.7319 21.7948 41.7646 21.6739 41.7794C21.5542 41.7945 21.415 41.777 21.2564 41.727C21.0437 41.6599 20.8665 41.5492 20.7249 41.3949C20.5849 41.2397 20.4953 41.0463 20.456 40.8146C20.4184 40.5821 20.4471 40.315 20.5422 40.0134C20.6381 39.7093 20.7695 39.4687 20.9363 39.2914C21.1048 39.1133 21.2926 38.9975 21.4998 38.9439C21.7073 38.8891 21.9174 38.8952 22.1301 38.9623C22.2924 39.0135 22.4171 39.0832 22.5042 39.1714C22.5929 39.2589 22.6563 39.3509 22.6946 39.4475C22.7332 39.5429 22.7581 39.6294 22.7693 39.7069L22.8054 39.7183L22.9498 39.2604L23.5933 39.4633L22.706 42.2772C22.6313 42.514 22.5131 42.6921 22.3512 42.8115C22.1894 42.9309 21.9984 42.9981 21.7783 43.0133C21.5581 43.0284 21.3237 42.9968 21.0749 42.9183ZM21.5999 41.2724C21.7381 41.316 21.8665 41.3195 21.985 41.2829C22.1036 41.2463 22.208 41.1729 22.2983 41.0626C22.3885 40.9523 22.4615 40.8089 22.5172 40.6322C22.5722 40.458 22.595 40.2974 22.5859 40.1505C22.5779 40.0039 22.5366 39.8793 22.462 39.7765C22.389 39.6729 22.2822 39.5989 22.1416 39.5545C21.9962 39.5087 21.8629 39.5083 21.7416 39.5533C21.6204 39.5983 21.5143 39.6791 21.4234 39.7958C21.3328 39.9112 21.2612 40.0525 21.2085 40.2195C21.1551 40.389 21.1329 40.5452 21.142 40.6881C21.1527 40.8302 21.1955 40.952 21.2705 41.0536C21.3471 41.1544 21.4569 41.2273 21.5999 41.2724Z" fill="white"/>
<path d="M17.7415 40.0899C17.4907 39.9422 17.3049 39.7624 17.1839 39.5507C17.0646 39.3386 17.0128 39.1077 17.0283 38.8579C17.0445 38.6071 17.1296 38.3509 17.2838 38.0893C17.4354 37.832 17.6173 37.6349 17.8295 37.4982C18.0435 37.361 18.2709 37.2902 18.5118 37.286C18.7534 37.2806 18.9936 37.3483 19.2324 37.489C19.3866 37.5798 19.5174 37.6905 19.6247 37.8211C19.7338 37.9512 19.8106 38.0988 19.8552 38.264C19.9008 38.4298 19.907 38.6104 19.8737 38.8058C19.8411 39.0002 19.7602 39.207 19.631 39.4263L19.5245 39.607L17.4743 38.3989L17.7084 38.0016L19.1935 38.8767C19.259 38.7632 19.2937 38.6484 19.2978 38.5323C19.3025 38.4151 19.277 38.3058 19.2213 38.2042C19.1666 38.1033 19.0829 38.0195 18.97 37.953C18.8495 37.882 18.7264 37.8489 18.6006 37.8538C18.4755 37.8576 18.3596 37.8917 18.253 37.9561C18.148 38.0201 18.062 38.1076 17.9951 38.2188L17.7907 38.5656C17.705 38.7111 17.658 38.8516 17.6498 38.9872C17.6422 39.1217 17.6699 39.2448 17.7328 39.3564C17.7963 39.467 17.8921 39.56 18.0203 39.6355C18.106 39.686 18.1907 39.7198 18.2742 39.7369C18.3584 39.7529 18.4401 39.752 18.5193 39.7343C18.5984 39.7166 18.6719 39.6801 18.7395 39.6249L19.2534 40.0111C19.133 40.1362 18.9919 40.2241 18.8302 40.2751C18.6703 40.3257 18.4973 40.3363 18.3112 40.3071C18.1257 40.2768 17.9358 40.2044 17.7415 40.0899Z" fill="white"/>
<path d="M13.9205 36.1598L16.6973 33.4629L17.7087 34.5042C17.9159 34.7175 18.0527 34.9324 18.119 35.1491C18.1862 35.3666 18.1889 35.5774 18.1272 35.7814C18.0672 35.9855 17.9486 36.1736 17.7714 36.3456C17.5933 36.5186 17.4019 36.6308 17.1971 36.6821C16.9941 36.7335 16.7857 36.7207 16.5721 36.6436C16.3594 36.5657 16.1494 36.42 15.9422 36.2067L15.2219 35.465L15.6395 35.0594L16.294 35.7333C16.4151 35.858 16.5315 35.9435 16.6431 35.9897C16.7556 36.035 16.8638 36.0441 16.9675 36.0171C17.0731 35.9902 17.1751 35.9288 17.2736 35.8331C17.3721 35.7374 17.4373 35.6364 17.4692 35.5299C17.5019 35.4225 17.4978 35.3115 17.4567 35.1969C17.4165 35.0813 17.3353 34.9607 17.2133 34.8351L16.7656 34.3741L14.4091 36.6629L13.9205 36.1598ZM16.572 36.3723L15.9815 38.2818L15.4363 37.7204L16.0387 35.8231L16.572 36.3723Z" fill="white"/>
<g clip-path="url(#clip2_19_939)">
<path d="M14.7058 21.5909C14.5869 21.3499 14.2431 21.3499 14.1241 21.5909L13.5576 22.7388L12.2908 22.9229C12.0248 22.9613 11.9184 23.2885 12.111 23.4762L13.0276 24.3697L12.8114 25.631C12.7657 25.8963 13.044 26.0983 13.2818 25.9731L14.4149 25.3773L15.5479 25.9731C15.7858 26.0981 16.064 25.8963 16.0186 25.6313L15.8023 24.3697L16.7189 23.4759C16.9111 23.2885 16.8052 22.9615 16.539 22.9229L15.2726 22.7388L14.7056 21.5909H14.7058ZM11.8114 21.754C11.7816 21.7914 11.7679 21.839 11.7732 21.8865C11.7785 21.934 11.8025 21.9774 11.8398 22.0073L12.4404 22.4878C12.4589 22.5031 12.4801 22.5146 12.503 22.5215C12.5259 22.5285 12.55 22.5309 12.5738 22.5285C12.5977 22.5261 12.6208 22.5189 12.6418 22.5075C12.6628 22.496 12.6814 22.4805 12.6963 22.4618C12.7113 22.4431 12.7224 22.4216 12.7289 22.3986C12.7355 22.3755 12.7374 22.3514 12.7345 22.3276C12.7317 22.3039 12.7241 22.2809 12.7122 22.2601C12.7004 22.2393 12.6845 22.221 12.6656 22.2064L12.0649 21.7259C12.0464 21.7111 12.0252 21.7001 12.0025 21.6935C11.9797 21.6869 11.9559 21.6848 11.9324 21.6874C11.9088 21.69 11.886 21.6973 11.8653 21.7087C11.8445 21.7201 11.8262 21.7355 11.8114 21.754ZM17.0183 25.2226C17.0481 25.1853 17.0619 25.1376 17.0566 25.0902C17.0514 25.0427 17.0275 24.9992 16.9902 24.9694L16.3895 24.4888C16.3522 24.459 16.3046 24.4451 16.257 24.4504C16.2095 24.4556 16.1661 24.4795 16.1362 24.5168C16.1063 24.5541 16.0924 24.6018 16.0977 24.6493C16.1029 24.6968 16.1268 24.7403 16.1642 24.7702L16.7648 25.2507C16.7833 25.2655 16.8045 25.2765 16.8272 25.2831C16.85 25.2898 16.8738 25.2918 16.8974 25.2892C16.9209 25.2866 16.9437 25.2794 16.9644 25.2679C16.9852 25.2565 17.0035 25.2411 17.0183 25.2226ZM11.8398 24.9694C11.8208 24.984 11.805 25.0022 11.7931 25.023C11.7813 25.0438 11.7737 25.0668 11.7708 25.0906C11.768 25.1144 11.7699 25.1385 11.7764 25.1615C11.783 25.1845 11.7941 25.206 11.809 25.2247C11.824 25.2434 11.8425 25.2589 11.8636 25.2704C11.8846 25.2818 11.9077 25.289 11.9315 25.2914C11.9553 25.2938 11.9794 25.2915 12.0023 25.2845C12.0252 25.2775 12.0465 25.266 12.0649 25.2507L12.6656 24.7702C12.7019 24.74 12.7249 24.6968 12.7296 24.6498C12.7344 24.6029 12.7205 24.5559 12.6911 24.519C12.6616 24.4822 12.6188 24.4584 12.5719 24.4527C12.5251 24.4471 12.4778 24.4601 12.4404 24.4888L11.8398 24.9694ZM17.0183 21.7538C17.0481 21.7911 17.0619 21.8387 17.0566 21.8862C17.0514 21.9337 17.0275 21.9772 16.9902 22.007L16.3895 22.4875C16.371 22.5023 16.3498 22.5133 16.3271 22.5199C16.3044 22.5265 16.2806 22.5286 16.257 22.526C16.2335 22.5234 16.2107 22.5162 16.19 22.5048C16.1693 22.4934 16.151 22.478 16.1362 22.4595C16.1214 22.4411 16.1104 22.4199 16.1038 22.3971C16.0972 22.3744 16.0951 22.3506 16.0977 22.3271C16.1003 22.3035 16.1075 22.2808 16.1189 22.26C16.1303 22.2393 16.1457 22.221 16.1642 22.2062L16.7648 21.7257C16.7833 21.7109 16.8045 21.6998 16.8272 21.6932C16.85 21.6866 16.8738 21.6846 16.8974 21.6872C16.9209 21.6898 16.9437 21.697 16.9644 21.7084C16.9852 21.7199 17.0035 21.7353 17.0183 21.7538Z" fill="white"/>
</g>
<g clip-path="url(#clip3_19_939)">
<path d="M40.8757 21.5909C40.7568 21.3499 40.413 21.3499 40.2941 21.5909L39.7275 22.7388L38.4607 22.9229C38.1947 22.9613 38.0883 23.2885 38.281 23.4762L39.1975 24.3697L38.9813 25.631C38.9357 25.8963 39.2139 26.0983 39.4517 25.9731L40.5848 25.3773L41.7178 25.9731C41.9557 26.0981 42.2339 25.8963 42.1885 25.6313L41.9723 24.3697L42.8888 23.4759C43.081 23.2885 42.9751 22.9615 42.7089 22.9229L41.4425 22.7388L40.8755 21.5909H40.8757ZM37.9814 21.754C37.9516 21.7914 37.9378 21.839 37.9431 21.8865C37.9484 21.934 37.9724 21.9774 38.0097 22.0073L38.6104 22.4878C38.6288 22.5031 38.6501 22.5146 38.673 22.5215C38.6959 22.5285 38.7199 22.5309 38.7438 22.5285C38.7676 22.5261 38.7907 22.5189 38.8117 22.5075C38.8327 22.496 38.8513 22.4805 38.8663 22.4618C38.8812 22.4431 38.8923 22.4216 38.8989 22.3986C38.9054 22.3755 38.9073 22.3514 38.9045 22.3276C38.9016 22.3039 38.894 22.2809 38.8822 22.2601C38.8703 22.2393 38.8545 22.221 38.8355 22.2064L38.2348 21.7259C38.2164 21.7111 38.1951 21.7001 38.1724 21.6935C38.1496 21.6869 38.1258 21.6848 38.1023 21.6874C38.0787 21.69 38.0559 21.6973 38.0352 21.7087C38.0144 21.7201 37.9962 21.7355 37.9814 21.754ZM43.1882 25.2226C43.218 25.1853 43.2318 25.1376 43.2266 25.0902C43.2213 25.0427 43.1974 24.9992 43.1601 24.9694L42.5594 24.4888C42.5221 24.459 42.4745 24.4451 42.427 24.4504C42.3795 24.4556 42.336 24.4795 42.3061 24.5168C42.2762 24.5541 42.2624 24.6018 42.2676 24.6493C42.2729 24.6968 42.2968 24.7403 42.3341 24.7702L42.9347 25.2507C42.9532 25.2655 42.9744 25.2765 42.9972 25.2831C43.0199 25.2898 43.0437 25.2918 43.0673 25.2892C43.0908 25.2866 43.1136 25.2794 43.1344 25.2679C43.1551 25.2565 43.1734 25.2411 43.1882 25.2226ZM38.0097 24.9694C37.9907 24.984 37.9749 25.0022 37.963 25.023C37.9512 25.0438 37.9436 25.0668 37.9407 25.0906C37.9379 25.1144 37.9398 25.1385 37.9463 25.1615C37.9529 25.1845 37.964 25.206 37.979 25.2247C37.9939 25.2434 38.0125 25.2589 38.0335 25.2704C38.0545 25.2818 38.0776 25.289 38.1014 25.2914C38.1253 25.2938 38.1493 25.2915 38.1722 25.2845C38.1951 25.2775 38.2164 25.266 38.2348 25.2507L38.8355 24.7702C38.8718 24.74 38.8948 24.6968 38.8996 24.6498C38.9043 24.6029 38.8905 24.5559 38.861 24.519C38.8315 24.4822 38.7887 24.4584 38.7418 24.4527C38.695 24.4471 38.6478 24.4601 38.6104 24.4888L38.0097 24.9694ZM43.1882 21.7538C43.218 21.7911 43.2318 21.8387 43.2266 21.8862C43.2213 21.9337 43.1974 21.9772 43.1601 22.007L42.5594 22.4875C42.541 22.5023 42.5198 22.5133 42.497 22.5199C42.4743 22.5265 42.4505 22.5286 42.427 22.526C42.4034 22.5234 42.3807 22.5162 42.3599 22.5048C42.3392 22.4934 42.3209 22.478 42.3061 22.4595C42.2913 22.4411 42.2803 22.4199 42.2737 22.3971C42.2671 22.3744 42.265 22.3506 42.2676 22.3271C42.2702 22.3035 42.2774 22.2808 42.2888 22.26C42.3002 22.2393 42.3156 22.221 42.3341 22.2062L42.9347 21.7257C42.9532 21.7109 42.9744 21.6998 42.9972 21.6932C43.0199 21.6866 43.0437 21.6846 43.0673 21.6872C43.0908 21.6898 43.1136 21.697 43.1344 21.7084C43.1551 21.7199 43.1734 21.7353 43.1882 21.7538Z" fill="white"/>
</g>
</g>
<defs>
<clipPath id="clip0_19_939">
<rect width="55" height="55" fill="white"/>
</clipPath>
<clipPath id="clip1_19_939">
<rect width="9.75807" height="9.75807" fill="white" transform="translate(22.6211 22.6191)"/>
</clipPath>
<clipPath id="clip2_19_939">
<rect width="5.76613" height="5.76613" fill="white" transform="translate(11.5312 20.8457)"/>
</clipPath>
<clipPath id="clip3_19_939">
<rect width="5.76613" height="5.76613" fill="white" transform="translate(37.7021 20.8457)"/>
</clipPath>
</defs>
</svg>
