<svg width="32" height="32" viewBox="0 0 32 32" fill="none" xmlns="http://www.w3.org/2000/svg">
<rect width="32" height="32" rx="16" fill="black" fill-opacity="0.04"/>
<path d="M15.9998 8.72729C20.0165 8.72729 23.2725 11.9833 23.2725 16C23.2725 20.0167 20.0165 23.2727 15.9998 23.2727C14.7145 23.275 13.4518 22.9348 12.3416 22.2873L8.72997 23.2727L9.71324 19.6597C9.06521 18.5491 8.72481 17.2859 8.72706 16C8.72706 11.9833 11.9831 8.72729 15.9998 8.72729ZM13.5212 12.5818L13.3758 12.5877C13.2817 12.5941 13.1899 12.6188 13.1052 12.6604C13.0264 12.7051 12.9544 12.761 12.8914 12.8262C12.8042 12.9084 12.7547 12.9797 12.7016 13.0487C12.4326 13.3985 12.2878 13.8279 12.29 14.2691C12.2914 14.6255 12.3845 14.9724 12.53 15.2967C12.8274 15.9527 13.3169 16.6473 13.9627 17.2909C14.1183 17.4458 14.2711 17.6015 14.4354 17.7462C15.2379 18.4527 16.1942 18.9622 17.2282 19.2342L17.6412 19.2975C17.7758 19.3047 17.9103 19.2946 18.0456 19.288C18.2574 19.2769 18.4641 19.2195 18.6514 19.12C18.7466 19.0708 18.8395 19.0174 18.93 18.96C18.93 18.96 18.9608 18.9392 19.0209 18.8946C19.1191 18.8218 19.1794 18.7702 19.2609 18.6851C19.322 18.6221 19.3729 18.5489 19.4136 18.4655C19.4703 18.3469 19.5271 18.1207 19.5503 17.9324C19.5678 17.7884 19.5627 17.7098 19.5605 17.6611C19.5576 17.5833 19.4929 17.5026 19.4223 17.4684L18.9991 17.2786C18.9991 17.2786 18.3663 17.0029 17.9794 16.8269C17.9389 16.8093 17.8955 16.7992 17.8514 16.7971C17.8017 16.7919 17.7514 16.7975 17.7039 16.8134C17.6565 16.8293 17.613 16.8553 17.5765 16.8895C17.5729 16.888 17.5242 16.9295 16.9983 17.5666C16.9682 17.6071 16.9266 17.6378 16.8789 17.6546C16.8313 17.6714 16.7797 17.6737 16.7307 17.6611C16.6833 17.6485 16.6369 17.6324 16.5918 17.6131C16.5016 17.5753 16.4703 17.5607 16.4085 17.5346C15.991 17.3527 15.6045 17.1066 15.2631 16.8051C15.1714 16.7251 15.0863 16.6378 14.9991 16.5535C14.713 16.2794 14.4636 15.9695 14.2572 15.6313L14.2143 15.5622C14.184 15.5155 14.1591 15.4655 14.1402 15.4131C14.1125 15.3062 14.1845 15.2204 14.1845 15.2204C14.1845 15.2204 14.3612 15.0269 14.4434 14.9222C14.5234 14.8204 14.5911 14.7215 14.6347 14.6509C14.7205 14.5127 14.7474 14.3709 14.7023 14.2611C14.4987 13.7637 14.2883 13.2689 14.0711 12.7767C14.0282 12.6793 13.9009 12.6095 13.7852 12.5957C13.746 12.5908 13.7067 12.5869 13.6674 12.584C13.5698 12.5784 13.4719 12.5794 13.3743 12.5869L13.5212 12.5818Z" fill="black" fill-opacity="0.5"/>
</svg>
