<svg width="24" height="25" viewBox="0 0 24 25" fill="none" xmlns="http://www.w3.org/2000/svg">
<rect y="0.935547" width="24" height="24" rx="12" fill="#29E337" fill-opacity="0.1"/>
<path d="M8.67711 17.4813L9.18391 17.7774C10.0386 18.2759 11.0106 18.5376 12 18.5355C13.1076 18.5355 14.1903 18.2071 15.1112 17.5918C16.0321 16.9764 16.7499 16.1018 17.1737 15.0786C17.5976 14.0553 17.7085 12.9293 17.4924 11.843C17.2763 10.7567 16.743 9.75892 15.9598 8.97575C15.1766 8.19257 14.1788 7.65923 13.0925 7.44315C12.0062 7.22707 10.8802 7.33797 9.85698 7.76182C8.83371 8.18567 7.95911 8.90344 7.34378 9.82435C6.72844 10.7453 6.40001 11.828 6.40001 12.9355C6.39797 13.9252 6.6599 14.8976 7.15881 15.7523L7.45421 16.2591L6.99711 17.9398L8.67711 17.4813ZM5.00281 19.9355L5.94921 16.4579C5.32557 15.389 4.99794 14.1731 5.00001 12.9355C5.00001 9.06944 8.13391 5.93555 12 5.93555C15.8661 5.93555 19 9.06944 19 12.9355C19 16.8016 15.8661 19.9355 12 19.9355C10.763 19.9375 9.54767 19.6102 8.47901 18.987L5.00281 19.9355ZM9.47371 9.65114C9.56751 9.64414 9.66201 9.64414 9.75581 9.64834C9.79361 9.65114 9.83141 9.65534 9.86921 9.65954C9.98051 9.67214 10.103 9.74004 10.1443 9.83384C10.3529 10.307 10.5559 10.7837 10.7519 11.2618C10.7953 11.3682 10.7694 11.5047 10.6868 11.6377C10.6448 11.7056 10.579 11.8008 10.5027 11.8981C10.4236 11.9996 10.2535 12.1858 10.2535 12.1858C10.2535 12.1858 10.1842 12.2684 10.2108 12.3713C10.2206 12.4105 10.2528 12.4672 10.2822 12.5148L10.3235 12.5813C10.5027 12.8802 10.7435 13.1833 11.0375 13.4689C11.1215 13.5501 11.2034 13.6334 11.2916 13.7111C11.6192 14.0002 11.9902 14.2361 12.3906 14.4111L12.3941 14.4125C12.4536 14.4384 12.4837 14.4524 12.5705 14.4895C12.6139 14.5077 12.6587 14.5231 12.7042 14.5357C12.7512 14.5477 12.8007 14.5455 12.8465 14.5293C12.8922 14.5131 12.9321 14.4836 12.9611 14.4447C13.4679 13.8308 13.5141 13.7909 13.5183 13.7909V13.7923C13.5535 13.7595 13.5953 13.7346 13.641 13.7192C13.6866 13.7039 13.735 13.6985 13.7829 13.7034C13.8249 13.7062 13.8676 13.7139 13.9068 13.7314C14.2785 13.9015 14.8868 14.1668 14.8868 14.1668L15.2942 14.3495C15.3628 14.3824 15.4251 14.4601 15.4272 14.535C15.43 14.5819 15.4342 14.6575 15.4181 14.7961C15.3957 14.9774 15.3411 15.1951 15.2865 15.3092C15.2491 15.3871 15.1995 15.4585 15.1395 15.5206C15.0689 15.5948 14.9915 15.6623 14.9085 15.7222C14.8511 15.7656 14.821 15.7852 14.821 15.7852C14.7339 15.8404 14.6445 15.8918 14.5529 15.9392C14.3727 16.035 14.1736 16.0899 13.9698 16.1002C13.8403 16.1072 13.7108 16.117 13.5806 16.11C13.575 16.11 13.183 16.0491 13.183 16.0491C12.1878 15.7874 11.2674 15.297 10.495 14.6169C10.3368 14.4776 10.1898 14.3278 10.04 14.1787C9.41841 13.5592 8.94731 12.8907 8.66101 12.2593C8.5152 11.9496 8.43648 11.6125 8.43001 11.2702C8.42738 10.8452 8.56655 10.4313 8.82551 10.0942C8.87661 10.0284 8.92491 9.95984 9.00821 9.88074C9.09641 9.79674 9.15311 9.75194 9.21401 9.72114C9.29498 9.68057 9.38331 9.65676 9.47371 9.65114Z" fill="#29E337"/>
</svg>
