<svg width="33" height="33" viewBox="0 0 33 33" fill="none" xmlns="http://www.w3.org/2000/svg">
<rect x="0.5" y="0.148193" width="32" height="32" rx="16" fill="white" fill-opacity="0.04"/>
<path d="M16.4998 8.87549C20.5165 8.87549 23.7725 12.1315 23.7725 16.1482C23.7725 20.1649 20.5165 23.4209 16.4998 23.4209C15.2145 23.4232 13.9518 23.083 12.8416 22.4355L9.22997 23.4209L10.2132 19.8079C9.56521 18.6973 9.22481 17.434 9.22706 16.1482C9.22706 12.1315 12.4831 8.87549 16.4998 8.87549ZM14.0212 12.73L13.8758 12.7359C13.7817 12.7423 13.6899 12.767 13.6052 12.8086C13.5264 12.8533 13.4544 12.9092 13.3914 12.9744C13.3042 13.0566 13.2547 13.1279 13.2016 13.1969C12.9326 13.5467 12.7878 13.9761 12.79 14.4173C12.7914 14.7737 12.8845 15.1206 13.03 15.4449C13.3274 16.1009 13.8169 16.7955 14.4627 17.4391C14.6183 17.594 14.7711 17.7497 14.9354 17.8944C15.7379 18.6009 16.6942 19.1104 17.7282 19.3824L18.1412 19.4457C18.2758 19.4529 18.4103 19.4428 18.5456 19.4362C18.7574 19.425 18.9641 19.3677 19.1514 19.2682C19.2466 19.219 19.3395 19.1656 19.43 19.1082C19.43 19.1082 19.4608 19.0874 19.5209 19.0428C19.6191 18.97 19.6794 18.9184 19.7609 18.8333C19.822 18.7703 19.8729 18.6971 19.9136 18.6137C19.9703 18.4951 20.0271 18.2689 20.0503 18.0806C20.0678 17.9366 20.0627 17.858 20.0605 17.8093C20.0576 17.7315 19.9929 17.6508 19.9223 17.6166L19.4991 17.4268C19.4991 17.4268 18.8663 17.1511 18.4794 16.9751C18.4389 16.9575 18.3955 16.9474 18.3514 16.9453C18.3017 16.9401 18.2514 16.9457 18.2039 16.9616C18.1565 16.9775 18.113 17.0035 18.0765 17.0377C18.0729 17.0362 18.0242 17.0777 17.4983 17.7148C17.4682 17.7553 17.4266 17.786 17.3789 17.8028C17.3313 17.8196 17.2797 17.8219 17.2307 17.8093C17.1833 17.7967 17.1369 17.7806 17.0918 17.7613C17.0016 17.7235 16.9703 17.7089 16.9085 17.6828C16.491 17.5009 16.1045 17.2547 15.7631 16.9533C15.6714 16.8733 15.5863 16.786 15.4991 16.7017C15.213 16.4276 14.9636 16.1177 14.7572 15.7795L14.7143 15.7104C14.684 15.6637 14.6591 15.6137 14.6402 15.5613C14.6125 15.4544 14.6845 15.3686 14.6845 15.3686C14.6845 15.3686 14.8612 15.1751 14.9434 15.0704C15.0234 14.9686 15.0911 14.8697 15.1347 14.7991C15.2205 14.6609 15.2474 14.5191 15.2023 14.4093C14.9987 13.9119 14.7883 13.4171 14.5711 12.9249C14.5282 12.8275 14.4009 12.7577 14.2852 12.7439C14.246 12.739 14.2067 12.7351 14.1674 12.7322C14.0698 12.7266 13.9719 12.7276 13.8743 12.7351L14.0212 12.73Z" fill="white"/>
</svg>
