<svg width="22" height="22" viewBox="0 0 22 22" fill="none" xmlns="http://www.w3.org/2000/svg">
<circle cx="11" cy="11.0002" r="11" fill="#4376EE"/>
<path fill-rule="evenodd" clip-rule="evenodd" d="M6.04973 15.8474H7.79243L9.00249 13.6145L4.76866 5.89783L4.3999 5.22534H5.21935H8.1366H8.4439L8.58593 5.47956L10.1183 8.22586L9.16228 10.0204L8.99156 8.25216L7.82931 6.1533H6.03881L9.56381 12.5789L13.4057 5.48457L13.545 5.22534H13.8577H16.7217H17.5303L17.1752 5.89157L14.9517 10.0592L14.3836 9.02233L15.9132 6.1533H14.1705L12.9946 8.32229L17.2312 16.0415L17.5999 16.714H16.7805H13.8618H13.5545L13.4139 16.4598L11.8883 13.7059L12.8362 11.9164L13.026 13.7172L14.1691 15.786H15.961L12.4346 9.3592L8.55725 16.5161L8.41795 16.7753H8.10519H5.24121H4.43268L4.78778 16.1091L7.01122 11.9414L7.57937 12.9784L6.04973 15.8474Z" fill="white"/>
</svg>
