<svg width="46" height="47" viewBox="0 0 46 47" fill="none" xmlns="http://www.w3.org/2000/svg">
<rect x="0.5" y="0.587891" width="45" height="45" rx="22.5" stroke="white" stroke-opacity="0.1"/>
<g clip-path="url(#clip0_1743_3242)">
<mask id="mask0_1743_3242" style="mask-type:luminance" maskUnits="userSpaceOnUse" x="11" y="11" width="24" height="25">
<path d="M11 11.0879H35V35.0879H11V11.0879Z" fill="white"/>
</mask>
<g mask="url(#mask0_1743_3242)">
<path d="M34.5006 17.594C34.3647 17.1092 34.1 16.6703 33.7346 16.324C33.3589 15.967 32.8984 15.7116 32.3966 15.582C30.5186 15.087 22.9946 15.087 22.9946 15.087C19.8579 15.0513 16.722 15.2083 13.6046 15.557C13.1028 15.6962 12.6432 15.9573 12.2666 16.317C11.8966 16.673 11.6286 17.112 11.4886 17.593C11.1523 19.4047 10.9889 21.2443 11.0006 23.087C10.9886 24.928 11.1516 26.767 11.4886 28.581C11.6256 29.06 11.8926 29.497 12.2636 29.85C12.6346 30.203 13.0966 30.458 13.6046 30.593C15.5076 31.087 22.9946 31.087 22.9946 31.087C26.1353 31.1227 29.2752 30.9658 32.3966 30.617C32.8984 30.4874 33.3589 30.232 33.7346 29.875C34.0999 29.5287 34.3643 29.0898 34.4996 28.605C34.8447 26.7939 35.0125 24.9536 35.0006 23.11C35.0266 21.2586 34.859 19.4106 34.5006 17.594ZM20.6026 26.511V19.664L26.8626 23.088L20.6026 26.511Z" fill="white" fill-opacity="0.7"/>
</g>
</g>
<defs>
<clipPath id="clip0_1743_3242">
<rect width="24" height="24" fill="white" transform="translate(11 11.0879)"/>
</clipPath>
</defs>
</svg>
